g CharredSpawnerFragment_15
v -0.328265727 0.427342981 0.0877196491
v -1.03009772 0.424592555 -0.0354185104
v -1.01189601 0.417111993 -0.370330006
v -0.393914849 0.418750018 -0.296994716
v -0.493705213 0.405688405 -0.881782115
v -0.993072927 0.409375995 -0.716682971
v -0.97438693 0.40169701 -1.06050098
v -0.610352993 0.401937008 -1.04973495
v -0.533739269 0.400448263 -1.1163882
v -0.970914125 0.400269777 -1.12440062
v -0.543634713 0.399153084 -1.17437708
v -0.509324431 0.346166939 -1.04674757
v -0.610352993 0.401937008 -1.04973495
v -0.533739269 0.400448263 -1.1163882
v -0.993072927 0.409375995 -0.716682971
v -0.499732465 0.327737272 -1.0156877
v -0.901805997 0.341439992 -0.539622009
v -1.00304103 0.401697993 -0.660040021
v -0.901805997 0.341439992 -0.539622009
v -1.044245 0.384294003 -0.376982987
v -1.03535497 0.249563992 -0.54054898
v -1.02038002 0.407404959 -0.395431012
v -1.01189601 0.417111993 -0.370330006
v -1.01189601 0.417111993 -0.370330006
v -0.493705213 0.405688405 -0.881782115
v -0.499732465 0.327737272 -1.0156877
v -1.00304103 0.401697993 -0.660040021
v -0.901805997 0.341439992 -0.539622009
v -1.03535497 0.249563992 -0.54054898
v -1.02899301 0.378026009 -0.65762502
v -0.993072927 0.409375995 -0.716682971
v -1.03009772 0.424592555 -0.0354185104
v -1.044245 0.384294003 -0.376982987
v -1.01189601 0.417111993 -0.370330006
v -1.06322134 0.392092764 -0.0278188586
v -1.03535497 0.249563992 -0.54054898
v -1.02251339 -0.20563072 -0.776836753
v -1.07659912 -0.207773849 0.218343958
v -1.00704503 -0.20501785 -1.06146598
v -1.00704503 0.369004995 -1.06146598
v -1.00248861 -0.204837263 -1.1453017
v -1.02899301 0.378026009 -0.65762502
v -0.993072927 0.409375995 -0.716682971
v -1.00376129 0.367655426 -1.12188756
v -0.97438693 0.40169701 -1.06050098
v -0.970914125 0.400269777 -1.12440062
v -1.07659912 -0.207773849 0.218343958
v -0.328265727 0.427342981 0.0877196491
v -0.393914849 0.418750018 -0.296994716
v -1.02251339 -0.20563072 -0.776836753
v -0.493705213 0.405688405 -0.881782115
v -0.499732465 0.327737272 -1.0156877
v -1.00704503 -0.20501785 -1.06146598
v -1.00248861 -0.204837263 -1.1453017
v -0.509324431 0.346166939 -1.04674757
v -0.533739269 0.400448263 -1.1163882
v -0.543634713 0.399153084 -1.17437708
v -0.543634713 0.399153084 -1.17437708
v -0.970914125 0.400269777 -1.12440062
v -1.00376129 0.367655426 -1.12188756
v -1.00248861 -0.204837263 -1.1453017
v -0.328265727 0.427342981 0.0877196491
v -1.07659912 -0.207773849 0.218343958
v -1.06322134 0.392092764 -0.0278188586
v -1.03009772 0.424592555 -0.0354185104
vt 0.407958984 0.0947875977
vt 0.354248047 0.104187012
vt 0.355712891 0.129760742
vt 0.402832031 0.124145508
vt 0.395263672 0.168701172
vt 0.357177734 0.15612793
vt 0.358642578 0.182373047
vt 0.386230469 0.181518555
vt 0.392089844 0.186645508
vt 0.358886719 0.187255859
vt 0.391357422 0.191040039
vt 0.575195312 0.615722656
vt 0.568359375 0.610839844
vt 0.569335938 0.618164062
vt 0.563964844 0.572753906
vt 0.577636719 0.614257812
vt 0.579589844 0.564453125
vt 0.565917969 0.568847656
vt 0.579589844 0.564453125
vt 0.583496094 0.546875
vt 0.5703125 0.5546875
vt 0.584472656 0.549316406
vt 0.586425781 0.547851562
vt 0.586425781 0.548339844
vt 0.586425781 0.605957031
vt 0.577636719 0.614257812
vt 0.565917969 0.568847656
vt 0.579589844 0.564453125
vt 0.5703125 0.5546875
vt 0.564453125 0.56640625
vt 0.5625 0.571777344
vt 0.326660156 0.0864868164
vt 0.324951172 0.11126709
vt 0.328613281 0.110595703
vt 0.323242188 0.0863647461
vt 0.314208984 0.124206543
vt 0.278320312 0.142822266
vt 0.278808594 0.0712890625
vt 0.278320312 0.165283203
vt 0.323730469 0.165283203
vt 0.278320312 0.171875
vt 0.324462891 0.133422852
vt 0.327880859 0.138305664
vt 0.323486328 0.170043945
vt 0.327392578 0.165405273
vt 0.327148438 0.170410156
vt 0.410400391 0.201293945
vt 0.358398438 0.210083008
vt 0.362060547 0.23059082
vt 0.410400391 0.254638672
vt 0.367431641 0.261962891
vt 0.37109375 0.269287109
vt 0.410400391 0.269775391
vt 0.410400391 0.274414062
vt 0.370605469 0.271240234
vt 0.369628906 0.276123047
vt 0.370117188 0.279296875
vt 0.370117188 0.279296875
vt 0.386230469 0.295654297
vt 0.388671875 0.295898438
vt 0.410400391 0.274414062
vt 0.358398438 0.210083008
vt 0.410400391 0.201293945
vt 0.383544922 0.179321289
vt 0.381103516 0.17956543
vn -0 0.999511719 -0.0223236084
vn -0.389160156 0.920410156 -0.0416870117
vn -0.435546875 0.889648438 -0.135864258
vn -0 0.999511719 -0.0223236084
vn -0 0.999511719 -0.0223236084
vn -0.238891602 0.965332031 0.103942871
vn -0.381835938 0.923339844 -0.0413818359
vn 0.18347168 0.969238281 0.163696289
vn 0.166381836 0.971191406 0.169555664
vn -0.352539062 0.935058594 -0.0400390625
vn 1.13248825E-06 0.999511719 -0.0223236084
vn 0.359863281 0.865722656 0.348144531
vn 0.18347168 0.969238281 0.163696289
vn 0.166381836 0.971191406 0.169555664
vn -0.238891602 0.965332031 0.103942871
vn 0.328857422 0.8984375 0.290039062
vn 0.328857422 0.8984375 0.290039062
vn 0.328857422 0.8984375 0.290039062
vn -0.520996094 0.654785156 -0.547363281
vn -0.869628906 0.444335938 -0.216064453
vn -0.511230469 0.607421875 -0.607910156
vn -0.587402344 0.680664062 -0.438232422
vn -0.435546875 0.889648438 -0.135864258
vn -0.435546875 0.889648438 -0.135864258
vn -0.524414062 0.674804688 -0.51953125
vn -0.524414062 0.674804688 -0.51953125
vn -0.6015625 0.727050781 0.331054688
vn -0.436523438 0.611328125 0.66015625
vn -0.436523438 0.611328125 0.66015625
vn -0.843261719 0.475830078 0.250244141
vn -0.238891602 0.965332031 0.103942871
vn -0.389160156 0.920410156 -0.0416870117
vn -0.869628906 0.444335938 -0.216064453
vn -0.435546875 0.889648438 -0.135864258
vn -0.946289062 0.317871094 -0.0585327148
vn -0.998535156 -7.74860382E-07 -0.0542602539
vn -0.998535156 -8.94069672E-07 -0.0542602539
vn -0.998535156 -6.55651093E-07 -0.0542602539
vn -0.998535156 -5.36441803E-07 -0.0542602539
vn -0.922363281 0.382324219 -0.0586547852
vn -0.998535156 -1.1920929E-07 -0.0542602539
vn -0.843261719 0.475830078 0.250244141
vn -0.238891602 0.965332031 0.103942871
vn -0.921386719 0.383789062 -0.0586547852
vn -0.381835938 0.923339844 -0.0413818359
vn -0.352539062 0.935058594 -0.0400390625
vn 0.676757812 -0.736328125 0.00168800354
vn 0.635253906 -0.767089844 -0.0912475586
vn 0.6875 -0.724121094 -0.0570983887
vn 0.719726562 -0.693847656 0.0238494873
vn 0.760742188 -0.64453125 0.079284668
vn 0.777832031 -0.623046875 -0.0844726562
vn 0.722167969 -0.690917969 0.0377502441
vn 0.732910156 -0.6796875 -0.0313110352
vn 0.664550781 -0.494384766 -0.560546875
vn 0.74609375 -0.560546875 -0.359863281
vn 0.787597656 -0.604003906 -0.120910645
vn -0.115966797 0.0403442383 -0.992675781
vn -0.115966797 0.0403442383 -0.992675781
vn -0.115966797 0.0403442383 -0.992675781
vn -0.115966797 0.0403442383 -0.992675781
vn -0.161499023 0.377685547 0.911621094
vn -0.161499023 0.377685547 0.911621094
vn -0.161499023 0.377685547 0.911621094
vn -0.161499023 0.377685547 0.911621094
g CharredSpawnerFragment_15_0
f 3/3/3 2/2/2 1/1/1
f 4/4/4 3/3/3 1/1/1
f 4/4/4 5/5/5 3/3/3
f 8/8/8 7/7/7 6/6/6
f 7/7/7 8/8/8 9/9/9
f 10/10/10 7/7/7 9/9/9
f 9/9/9 11/11/11 10/10/10
f 14/14/14 13/13/13 12/12/12
f 12/12/12 13/13/13 15/15/15
f 15/15/15 16/16/16 12/12/12
f 15/15/15 17/17/17 16/16/16
f 15/15/15 18/18/18 17/17/17
f 21/21/21 20/20/20 19/19/19
f 20/20/20 22/22/22 19/19/19
f 23/23/23 22/22/22 20/20/20
f 19/19/19 22/22/22 24/24/24
f 19/19/19 24/24/24 25/25/25
f 25/25/25 26/26/26 19/19/19
f 29/29/29 28/28/28 27/27/27
f 30/30/30 29/29/29 27/27/27
f 30/30/30 27/27/27 31/31/31
f 34/34/34 33/33/33 32/32/32
f 33/33/33 35/35/35 32/32/32
f 35/35/35 33/33/33 36/36/36
f 35/35/35 36/36/36 37/37/37
f 37/37/37 38/38/38 35/35/35
f 39/39/39 37/37/37 36/36/36
f 36/36/36 40/40/40 39/39/39
f 41/41/41 39/39/39 40/40/40
f 36/36/36 42/42/42 40/40/40
f 40/40/40 42/42/42 43/43/43
f 44/44/44 41/41/41 40/40/40
f 45/45/45 40/40/40 43/43/43
f 44/44/44 40/40/40 45/45/45
f 46/46/46 44/44/44 45/45/45
f 49/49/49 48/48/48 47/47/47
f 49/49/49 47/47/47 50/50/50
f 51/51/51 49/49/49 50/50/50
f 52/52/52 51/51/51 50/50/50
f 52/52/52 50/50/50 53/53/53
f 54/54/54 52/52/52 53/53/53
f 55/55/55 52/52/52 54/54/54
f 56/56/56 55/55/55 54/54/54
f 57/57/57 56/56/56 54/54/54
f 60/60/60 59/59/59 58/58/58
f 61/61/61 60/60/60 58/58/58
f 64/64/64 63/63/63 62/62/62
f 65/65/65 64/64/64 62/62/62
