g CharredSpawnerFragment_16
v -0.543634713 0.399153084 -1.17437708
v -0.455194533 0.398921996 -1.18472147
v -0.533739269 0.400448263 -1.1163882
v -0.499732465 0.327737272 -1.0156877
v -0.331883013 0.402121007 -1.04149997
v -0.493705213 0.405688405 -0.881782115
v -0.474373013 0.326873004 -1.04571402
v -0.344780385 0.348750234 -1.19966316
v -0.243675053 0.398369431 -1.20946169
v -0.499732465 0.327737272 -1.0156877
v -0.509324431 0.346166939 -1.04674757
v -0.474373013 0.326873004 -1.04571402
v -0.533739269 0.400448263 -1.1163882
v -0.455194533 0.398921996 -1.18472147
v -0.344780385 0.348750234 -1.19966316
v 0.234168202 0.397121191 -1.26535201
v -0.331883013 0.402121007 -1.04149997
v -0.243675053 0.398369431 -1.20946169
v 0.250036001 0.402505398 -1.0242914
v -0.493705213 0.405688405 -0.881782115
v 0.303357124 0.420598239 -0.214250043
v -0.393914849 0.418750018 -0.296994716
v 0.330846548 0.429925978 0.20336242
v -0.328265727 0.427342981 0.0877196491
v 0.303357124 0.420598239 -0.214250043
v 0.330846548 0.24752906 0.203362435
v 0.330846548 0.429925978 0.20336242
v 0.303357124 0.238201365 -0.214250028
v 0.250036001 0.402505398 -1.0242914
v 0.250036001 0.220108524 -1.0242914
v 0.234168202 0.397121191 -1.26535201
v 0.234168202 0.214724287 -1.26535201
v -0.243675053 0.398369431 -1.20946169
v 0.234168202 0.214724287 -1.26535201
v 0.234168202 0.397121191 -1.26535201
v -0.243675053 0.215972558 -1.20946169
v -0.344780385 0.348750234 -1.19966316
v -0.344780385 0.166353315 -1.19966316
v -0.455194533 0.398921996 -1.18472147
v -0.455194533 0.216525093 -1.18472147
v -0.543634713 0.399153084 -1.17437708
v -0.543634713 0.216756165 -1.17437708
v -0.328265727 0.427342981 0.0877196491
v -0.328265727 0.244946077 0.0877196789
v -0.393914849 0.236353144 -0.296994686
v -0.393914849 0.418750018 -0.296994716
v -0.493705213 0.223291487 -0.881782115
v -0.493705213 0.405688405 -0.881782115
v -0.499732465 0.145340368 -1.0156877
v -0.499732465 0.327737272 -1.0156877
v -0.509324431 0.163770065 -1.04674757
v -0.509324431 0.346166939 -1.04674757
v -0.533739269 0.218051359 -1.1163882
v -0.533739269 0.400448263 -1.1163882
v -0.543634713 0.216756165 -1.17437708
v -0.543634713 0.399153084 -1.17437708
v 0.330846548 0.429925978 0.20336242
v 0.330846548 0.24752906 0.203362435
v -0.328265727 0.244946077 0.0877196789
v -0.328265727 0.427342981 0.0877196491
v -0.344780385 0.166353315 -1.19966316
v -0.230539963 0.0397580266 -0.809902489
v -0.243675053 0.215972558 -1.20946169
v 0.234168202 0.214724287 -1.26535201
v 0.250036001 0.220108524 -1.0242914
v 0.303357124 0.238201365 -0.214250028
v 0.330846548 0.24752906 0.203362435
v -0.328265727 0.244946077 0.0877196789
v -0.393914849 0.236353144 -0.296994686
v -0.493705213 0.223291487 -0.881782115
v -0.499732465 0.145340368 -1.0156877
v -0.533739269 0.218051359 -1.1163882
v -0.230539963 0.0397580266 -0.809902489
v -0.543634713 0.216756165 -1.17437708
v -0.455194533 0.216525093 -1.18472147
v -0.344780385 0.166353315 -1.19966316
v -0.509324431 0.163770065 -1.04674757
v -0.230539963 0.0397580266 -0.809902489
v -0.533739269 0.218051359 -1.1163882
v -0.499732465 0.145340368 -1.0156877
vt 0.391357422 0.191040039
vt 0.398193359 0.191894531
vt 0.392089844 0.186645508
vt 0.577636719 0.614257812
vt 0.586425781 0.624023438
vt 0.586425781 0.605957031
vt 0.577636719 0.6171875
vt 0.576660156 0.631835938
vt 0.582519531 0.637207031
vt 0.577636719 0.614257812
vt 0.575195312 0.615722656
vt 0.577636719 0.6171875
vt 0.569335938 0.618164062
vt 0.5703125 0.625488281
vt 0.576660156 0.631835938
vt 0.450683594 0.197998047
vt 0.407470703 0.180908203
vt 0.414306641 0.193725586
vt 0.451904297 0.17956543
vt 0.395263672 0.168701172
vt 0.456054688 0.117858887
vt 0.402832031 0.124145508
vt 0.458007812 0.0859985352
vt 0.407958984 0.0947875977
vt 0.484375 0.258300781
vt 0.467773438 0.293212891
vt 0.483398438 0.293945312
vt 0.468994141 0.257568359
vt 0.484375 0.190063477
vt 0.468994141 0.189941406
vt 0.483642578 0.169799805
vt 0.468505859 0.169921875
vt 0.427490234 0.156616211
vt 0.468505859 0.169921875
vt 0.467773438 0.155029297
vt 0.428466797 0.171875
vt 0.419189453 0.161254883
vt 0.420410156 0.175170898
vt 0.409667969 0.158203125
vt 0.411132812 0.173583984
vt 0.402099609 0.158935547
vt 0.403808594 0.174194336
vt 0.396728516 0.282226562
vt 0.411865234 0.279785156
vt 0.407470703 0.247436523
vt 0.392333984 0.249633789
vt 0.402099609 0.198974609
vt 0.386474609 0.199584961
vt 0.407226562 0.188842773
vt 0.393310547 0.187133789
vt 0.406494141 0.186157227
vt 0.392089844 0.184326172
vt 0.403808594 0.179077148
vt 0.388183594 0.177978516
vt 0.403808594 0.174194336
vt 0.388671875 0.173339844
vt 0.464111328 0.308349609
vt 0.467773438 0.293212891
vt 0.411865234 0.279785156
vt 0.408203125 0.295166016
vt 0.420410156 0.175170898
vt 0.427734375 0.205078125
vt 0.428466797 0.171875
vt 0.468505859 0.169921875
vt 0.468994141 0.189941406
vt 0.468994141 0.257568359
vt 0.467773438 0.293212891
vt 0.411865234 0.279785156
vt 0.407470703 0.247436523
vt 0.402099609 0.198974609
vt 0.407226562 0.188842773
vt 0.403808594 0.179077148
vt 0.427734375 0.205078125
vt 0.403808594 0.174194336
vt 0.411132812 0.173583984
vt 0.420410156 0.175170898
vt 0.406494141 0.186157227
vt 0.427734375 0.205078125
vt 0.403808594 0.179077148
vt 0.407226562 0.188842773
vn -0 0.999511719 -0.0223236084
vn 0.348388672 0.856445312 0.381347656
vn 0.28515625 0.907714844 0.307373047
vn -0.419921875 0.797363281 -0.433105469
vn -0.207397461 0.96484375 -0.16003418
vn -0.132324219 0.979492188 -0.152709961
vn -0.429443359 0.819335938 -0.379882812
vn -0.445800781 0.858398438 -0.253417969
vn -0.151489258 0.983398438 -0.101501465
vn 0.444335938 0.823730469 0.3515625
vn 0.427490234 0.796875 0.426513672
vn 0.427001953 0.796386719 0.427978516
vn 0.28515625 0.907714844 0.307373047
vn 0.348388672 0.856445312 0.381347656
vn 0.41796875 0.781738281 0.462890625
vn -0 0.999511719 -0.0223236084
vn -0.207397461 0.96484375 -0.16003418
vn -0.151489258 0.983398438 -0.101501465
vn -0 0.999511719 -0.0223236084
vn -0.132324219 0.979492188 -0.152709961
vn -0 0.999511719 -0.0223236084
vn -0 0.999511719 -0.0223236084
vn -1.1920929E-07 0.999511719 -0.0223236084
vn -1.1920929E-07 0.999511719 -0.0223236084
vn 0.998046875 0 -0.0656738281
vn 0.998046875 0 -0.0656738281
vn 0.998046875 0 -0.0656738281
vn 0.998046875 0 -0.0656738281
vn 0.998046875 0 -0.0656738281
vn 0.998046875 0 -0.0656738281
vn 0.998046875 0 -0.0656738281
vn 0.998046875 0 -0.0656738281
vn -0.107971191 0 -0.994140625
vn -0.116149902 0 -0.993164062
vn -0.116149902 0 -0.993164062
vn -0.105102539 0 -0.994628906
vn -0.11517334 0 -0.993164062
vn -0.115539551 0 -0.993164062
vn -0.123718262 0 -0.9921875
vn -0.126220703 0 -0.9921875
vn -0.116149902 0 -0.993164062
vn -0.116149902 0 -0.993164062
vn -0.985839844 0 0.168212891
vn -0.985839844 0 0.168212891
vn -0.985839844 0 0.168212891
vn -0.985839844 0 0.168212891
vn -0.995117188 0 0.0974731445
vn -0.992675781 0 0.119628906
vn -0.984863281 0 0.172119141
vn -0.985351562 0 0.171020508
vn -0.952148438 0 0.306152344
vn -0.947753906 0 0.319335938
vn -0.96484375 0 0.263427734
vn -0.973144531 0 0.230224609
vn -0.985839844 0 0.168212891
vn -0.985839844 0 0.168212891
vn -0.172851562 1.78813934E-07 0.984863281
vn -0.172851562 1.78813934E-07 0.984863281
vn -0.172851562 1.78813934E-07 0.984863281
vn -0.172851562 1.78813934E-07 0.984863281
vn 0.376464844 -0.842773438 -0.384277344
vn -0.11126709 -0.993652344 0.0183105469
vn 0.145019531 -0.903320312 -0.403320312
vn 0.182250977 -0.965820312 -0.185058594
vn 0.350585938 -0.936523438 -0.00215339661
vn 0.350585938 -0.936523438 -0.00215339661
vn 0.0983886719 -0.984375 0.147338867
vn -0.133666992 -0.969238281 0.20703125
vn -0.589355469 -0.798828125 0.118469238
vn -0.599609375 -0.745605469 0.291503906
vn -0.593261719 -0.684082031 0.424804688
vn -0.589355469 -0.798828125 0.118469238
vn -0.340332031 -0.917480469 -0.205810547
vn -0.279541016 -0.936035156 -0.214355469
vn -0.186035156 -0.926757812 -0.325683594
vn -0.426513672 -0.889648438 -0.16394043
vn 0.198730469 -0.752441406 -0.627929688
vn 0.172241211 -0.774902344 -0.608398438
vn 0.225463867 -0.728515625 -0.646972656
vn 0.0681762695 -0.848632812 -0.524414062
g CharredSpawnerFragment_16_0
f 3/3/3 2/2/2 1/1/1
f 6/6/6 5/5/5 4/4/4
f 5/5/5 7/7/7 4/4/4
f 8/8/8 7/7/7 5/5/5
f 9/9/9 8/8/8 5/5/5
f 12/12/12 11/11/11 10/10/10
f 13/13/13 11/11/11 12/12/12
f 14/14/14 13/13/13 12/12/12
f 12/12/12 15/15/15 14/14/14
f 18/18/18 17/17/17 16/16/16
f 17/17/17 19/19/19 16/16/16
f 19/19/19 17/17/17 20/20/20
f 20/20/20 21/21/21 19/19/19
f 20/20/20 22/22/22 21/21/21
f 21/21/21 22/22/22 23/23/23
f 22/22/22 24/24/24 23/23/23
f 27/27/27 26/26/26 25/25/25
f 26/26/26 28/28/28 25/25/25
f 25/25/25 28/28/28 29/29/29
f 28/28/28 30/30/30 29/29/29
f 29/29/29 30/30/30 31/31/31
f 30/30/30 32/32/32 31/31/31
f 35/35/35 34/34/34 33/33/33
f 34/34/34 36/36/36 33/33/33
f 33/33/33 36/36/36 37/37/37
f 36/36/36 38/38/38 37/37/37
f 37/37/37 38/38/38 39/39/39
f 38/38/38 40/40/40 39/39/39
f 39/39/39 40/40/40 41/41/41
f 40/40/40 42/42/42 41/41/41
f 45/45/45 44/44/44 43/43/43
f 46/46/46 45/45/45 43/43/43
f 47/47/47 45/45/45 46/46/46
f 48/48/48 47/47/47 46/46/46
f 49/49/49 47/47/47 48/48/48
f 50/50/50 49/49/49 48/48/48
f 51/51/51 49/49/49 50/50/50
f 52/52/52 51/51/51 50/50/50
f 53/53/53 51/51/51 52/52/52
f 54/54/54 53/53/53 52/52/52
f 55/55/55 53/53/53 54/54/54
f 56/56/56 55/55/55 54/54/54
f 59/59/59 58/58/58 57/57/57
f 60/60/60 59/59/59 57/57/57
f 63/63/63 62/62/62 61/61/61
f 64/64/64 62/62/62 63/63/63
f 65/65/65 62/62/62 64/64/64
f 66/66/66 62/62/62 65/65/65
f 67/67/67 62/62/62 66/66/66
f 68/68/68 62/62/62 67/67/67
f 69/69/69 62/62/62 68/68/68
f 70/70/70 62/62/62 69/69/69
f 71/71/71 62/62/62 70/70/70
f 74/74/74 73/73/73 72/72/72
f 75/75/75 73/73/73 74/74/74
f 76/76/76 73/73/73 75/75/75
f 79/79/79 78/78/78 77/77/77
f 77/77/77 78/78/78 80/80/80
