g CharredSpawnerFragment_14
v 0.0123032397 -0.436685711 0.50600332
v 1.06979489 -0.44090727 0.695008755
v 1.02323091 -0.421770424 -0.161771461
v -0.0347959995 -0.415000826 -0.464850992
v -0.0649867952 -0.401100904 -1.08717084
v 0.970701933 -0.400181979 -1.12830901
v -0.0734530538 -0.397203207 -1.26168418
v 0.956915498 -0.394516051 -1.38198209
v 1.02323091 -0.421770424 -0.161771461
v 1.06979489 -0.44090727 0.695008755
v 1.10207665 -0.408061177 0.687116444
v 1.05576837 -0.389029562 -0.164953455
v 1.09028614 0.110512167 0.47017774
v 1.00362301 -0.36759901 -1.12442601
v 0.970701933 -0.400181979 -1.12830901
v 0.956915498 -0.394516051 -1.38198209
v 1.00757718 0.0896032155 -1.05167711
v 0.988520622 -0.361858755 -1.38434839
v 0.990100741 0.0852249488 -1.36636412
v 1.09028614 0.110512167 0.47017774
v 0.0123032397 -0.436685711 0.50600332
v -0.0347959995 -0.415000826 -0.464850992
v 1.00757718 0.0896032155 -1.05167711
v -0.0649867952 -0.401100904 -1.08717084
v 0.990100741 0.0852249488 -1.36636412
v -0.0734530538 -0.397203207 -1.26168418
v -0.0734530538 -0.397203207 -1.26168418
v 0.956915498 -0.394516051 -1.38198209
v 0.988520622 -0.361858755 -1.38434839
v 0.990100741 0.0852249488 -1.36636412
v 0.0123032397 -0.436685711 0.50600332
v 1.09028614 0.110512167 0.47017774
v 1.10207665 -0.408061177 0.687116444
v 1.06979489 -0.44090727 0.695008755
vt 0.143310547 0.0629272461
vt 0.0627441406 0.0484924316
vt 0.0662841797 0.113830566
vt 0.146972656 0.136962891
vt 0.149291992 0.184448242
vt 0.0703125 0.1875
vt 0.149902344 0.197753906
vt 0.0713500977 0.20690918
vt 0.606933594 0.110046387
vt 0.606933594 0.0470581055
vt 0.603515625 0.0481567383
vt 0.603515625 0.110473633
vt 0.56640625 0.0630493164
vt 0.603515625 0.180664062
vt 0.606933594 0.181030273
vt 0.605957031 0.200927734
vt 0.566894531 0.174316406
vt 0.602539062 0.201049805
vt 0.566894531 0.19909668
vt 0.115356445 0.343505859
vt 0.0162658691 0.345947266
vt 0.0179443359 0.42578125
vt 0.115356445 0.468505859
vt 0.0189971924 0.476806641
vt 0.115356445 0.494384766
vt 0.0192871094 0.490966797
vt 0.0192871094 0.490966797
vt 0.0956420898 0.528320312
vt 0.0991210938 0.52734375
vt 0.115356445 0.494384766
vt 0.0162658691 0.345947266
vt 0.115356445 0.343505859
vt 0.0954589844 0.302001953
vt 0.091796875 0.30078125
vn -0 -0.999511719 -0.0223236084
vn 0.393310547 -0.918457031 -0.0419006348
vn 0.381835938 -0.923339844 -0.0413818359
vn -0 -0.999511719 -0.0223236084
vn -0 -0.999511719 -0.0223236084
vn 0.383544922 -0.922363281 -0.041809082
vn 1.1920929E-07 -0.999511719 -0.0223236084
vn 1.1920929E-07 -0.999511719 -0.0223236084
vn 0.381835938 -0.923339844 -0.0413818359
vn 0.393310547 -0.918457031 -0.0419006348
vn 0.887695312 -0.456298828 -0.0584411621
vn 0.922363281 -0.382324219 -0.0586547852
vn 0.998535156 0 -0.0542602539
vn 0.922851562 -0.380615234 -0.0596618652
vn 0.383544922 -0.922363281 -0.041809082
vn 0.710449219 -0.701660156 -0.0555419922
vn 0.998535156 -0.000191807747 -0.0552978516
vn 0.923828125 -0.378173828 -0.0606079102
vn 0.998535156 -0.000430583954 -0.0566101074
vn -0.439697266 0.897949219 0.0244750977
vn -0.451171875 0.891601562 0.041809082
vn -0.431640625 0.901367188 0.0304107666
vn -0.421630859 0.906738281 0.0154495239
vn -0.413574219 0.909667969 0.0378417969
vn -0.415771484 0.909179688 0.0133056641
vn -0.409423828 0.911621094 0.040222168
vn -0.115966797 0.0403442383 -0.992675781
vn -0.115966797 0.0403442383 -0.992675781
vn -0.115966797 0.0403442383 -0.992675781
vn -0.115966797 0.0403442383 -0.992675781
vn -0.161499023 0.377685547 0.911621094
vn -0.161499023 0.377685547 0.911621094
vn -0.161499023 0.377685547 0.911621094
vn -0.161499023 0.377685547 0.911621094
g CharredSpawnerFragment_14_0
f 3/3/3 2/2/2 1/1/1
f 4/4/4 3/3/3 1/1/1
f 4/4/4 5/5/5 3/3/3
f 5/5/5 6/6/6 3/3/3
f 6/6/6 5/5/5 7/7/7
f 8/8/8 6/6/6 7/7/7
f 11/11/11 10/10/10 9/9/9
f 12/12/12 11/11/11 9/9/9
f 13/13/13 11/11/11 12/12/12
f 12/12/12 9/9/9 14/14/14
f 12/12/12 14/14/14 13/13/13
f 9/9/9 15/15/15 14/14/14
f 14/14/14 15/15/15 16/16/16
f 14/14/14 17/17/17 13/13/13
f 18/18/18 14/14/14 16/16/16
f 14/14/14 18/18/18 17/17/17
f 18/18/18 19/19/19 17/17/17
f 22/22/22 21/21/21 20/20/20
f 23/23/23 22/22/22 20/20/20
f 24/24/24 22/22/22 23/23/23
f 24/24/24 23/23/23 25/25/25
f 26/26/26 24/24/24 25/25/25
f 29/29/29 28/28/28 27/27/27
f 30/30/30 29/29/29 27/27/27
f 33/33/33 32/32/32 31/31/31
f 34/34/34 33/33/33 31/31/31
