g CharredSpawnerFragment_11
v -0.373911381 -0.39798674 -1.22660518
v -0.262771666 -0.0937907174 -1.87829697
v -0.0734530538 -0.397203207 -1.26168418
v -0.138341695 -0.367328525 -2.59922624
v -0.336744308 -0.37208876 -2.38610578
v -0.127701283 -0.37222746 -2.37989473
v -0.543309093 -0.377044857 -2.16421771
v -0.0854436755 -0.391682893 -1.50884461
v -0.423268944 -0.391885012 -1.49979854
v -0.0734530538 -0.397203207 -1.26168418
v -0.373911381 -0.39798674 -1.22660518
v -0.0734530538 -0.397203207 -1.26168418
v -0.262771666 -0.0937907174 -1.87829697
v -0.0854436755 -0.391682893 -1.50884461
v -0.127701283 -0.37222746 -2.37989473
v -0.138341695 -0.367328525 -2.59922624
v -0.138341695 -0.367328525 -2.59922624
v -0.262771666 -0.0937907174 -1.87829697
v -0.336744308 -0.37208876 -2.38610578
v -0.543309093 -0.377044857 -2.16421771
v -0.423268944 -0.391885012 -1.49979854
v -0.373911381 -0.39798674 -1.22660518
vt 0.477294922 0.20715332
vt 0.421630859 0.224731445
vt 0.477294922 0.237670898
vt 0.154785156 0.299804688
vt 0.169921875 0.283447266
vt 0.154052734 0.282958984
vt 0.185668945 0.266601562
vt 0.150756836 0.216552734
vt 0.176513672 0.215820312
vt 0.149902344 0.197753906
vt 0.172851562 0.195068359
vt 0.477294922 0.237670898
vt 0.421630859 0.224731445
vt 0.455078125 0.243408203
vt 0.384521484 0.249145508
vt 0.364257812 0.248168945
vt 0.364257812 0.248168945
vt 0.421630859 0.224731445
vt 0.377441406 0.224243164
vt 0.394287109 0.201049805
vt 0.451904297 0.201538086
vt 0.477294922 0.20715332
vn 0.0477600098 0.901855469 0.429199219
vn 0.0477600098 0.901855469 0.429199219
vn 0.0477600098 0.901855469 0.429199219
vn 5.96046448E-07 -0.999511719 -0.0223236084
vn 3.57627869E-07 -0.999511719 -0.0223236084
vn 4.17232513E-07 -0.999511719 -0.0223236084
vn 2.98023224E-07 -0.999511719 -0.0223236084
vn 2.98023224E-07 -0.999511719 -0.0223236084
vn 2.98023224E-07 -0.999511719 -0.0223236084
vn 2.98023224E-07 -0.999511719 -0.0223236084
vn 2.98023224E-07 -0.999511719 -0.0223236084
vn 0.875488281 0.481933594 -0.0317077637
vn 0.875488281 0.481933594 -0.0317077637
vn 0.875488281 0.481933594 -0.0317077637
vn 0.875488281 0.481933594 -0.0317077637
vn 0.875488281 0.481933594 -0.0317077637
vn -0.432128906 0.815917969 -0.384033203
vn -0.697753906 0.715820312 -0.024307251
vn -0.432128906 0.815917969 -0.384033203
vn -0.581542969 0.786621094 -0.208740234
vn -0.775390625 0.612792969 0.153808594
vn -0.775390625 0.612792969 0.153808594
g CharredSpawnerFragment_11_0
f 3/3/3 2/2/2 1/1/1
f 6/6/6 5/5/5 4/4/4
f 7/7/7 5/5/5 6/6/6
f 6/6/6 8/8/8 7/7/7
f 8/8/8 9/9/9 7/7/7
f 8/8/8 10/10/10 9/9/9
f 10/10/10 11/11/11 9/9/9
f 14/14/14 13/13/13 12/12/12
f 15/15/15 13/13/13 14/14/14
f 16/16/16 13/13/13 15/15/15
f 19/19/19 18/18/18 17/17/17
f 20/20/20 18/18/18 19/19/19
f 21/21/21 18/18/18 20/20/20
f 22/22/22 18/18/18 21/21/21
