g CharredSpawnerFragment_13
v -0.995220006 -0.410259008 -0.677170992
v -1.00486803 -0.400624007 -0.700792015
v -1.02640998 -0.376964003 -0.705134928
v -0.813439012 -0.401764989 -1.05744195
v -0.898280919 -0.356108993 -0.781026006
v -0.881715 -0.409581989 -0.707456946
v -0.84948796 -0.322414011 -1.07775795
v -1.00704503 -0.259016007 -1.06146598
v -0.856364429 -0.327042788 -1.16734374
v -0.799328446 -0.399095863 -1.17693686
v -1.00235558 -0.264667124 -1.14774859
v -1.01961803 -0.263282001 -0.830112994
v -0.993777752 -0.283050716 -0.819659233
v -1.02048004 -0.277709275 -0.814252138
v -1.02640998 -0.376964003 -0.705134928
v -1.00486803 -0.400624007 -0.700792015
v -0.995220006 -0.410259008 -0.677170992
v -0.881715 -0.409581989 -0.707456946
v -0.799328446 -0.399095863 -1.17693686
v -0.346698284 -0.401350886 -1.07598114
v -0.373911381 -0.39798674 -1.22660518
v -0.813439012 -0.401764989 -1.05744195
v -0.247282863 -0.413641274 -0.525719404
v -0.881715 -0.409581989 -0.707456946
v -0.995220006 -0.410259008 -0.677170992
v -1.04921174 -0.432448238 0.316278756
v -0.0633246005 -0.436383784 0.492486328
v -0.995220006 -0.410259008 -0.677170992
v -1.08087146 -0.39934662 0.296958268
v -1.04921174 -0.432448238 0.316278756
v -1.02640998 -0.376964003 -0.705134928
v -1.07659912 -0.207773849 0.218343958
v -1.02048004 -0.277709275 -0.814252138
v -1.02251339 -0.20563072 -0.776836753
v -1.01961803 -0.263282001 -0.830112994
v -1.00704503 -0.259016007 -1.06146598
v -1.00704503 -0.20501785 -1.06146598
v -1.00235558 -0.264667124 -1.14774859
v -1.00248861 -0.204837263 -1.1453017
v -0.629559815 -0.103257552 -1.1208539
v -0.373911381 -0.39798674 -1.22660518
v -0.346698284 -0.401350886 -1.07598114
v -0.618231475 -0.105029926 -1.00362408
v -0.247282863 -0.413641274 -0.525719404
v -0.576257944 -0.111481562 -0.586178601
v -0.0633246005 -0.436383784 0.492486328
v -0.511321664 -0.123924389 0.420514643
v -1.02251339 -0.20563072 -0.776836753
v -0.511321664 -0.123924389 0.420514643
v -1.07659912 -0.207773849 0.218343958
v -0.576257944 -0.111481562 -0.586178601
v -1.00704503 -0.20501785 -1.06146598
v -0.618231475 -0.105029926 -1.00362408
v -1.00248861 -0.204837263 -1.1453017
v -0.629559815 -0.103257552 -1.1208539
v -0.799328446 -0.399095863 -1.17693686
v -0.373911381 -0.39798674 -1.22660518
v -0.629559815 -0.103257552 -1.1208539
v -0.856364429 -0.327042788 -1.16734374
v -1.00248861 -0.204837263 -1.1453017
v -1.00235558 -0.264667124 -1.14774859
v -0.511321664 -0.123924389 0.420514643
v -0.0633246005 -0.436383784 0.492486328
v -1.04921174 -0.432448238 0.316278756
v -1.07659912 -0.207773849 0.218343958
v -1.08087146 -0.39934662 0.296958268
vt 0.551757812 0.586914062
vt 0.552734375 0.588867188
vt 0.555175781 0.589355469
vt 0.542480469 0.620117188
vt 0.548339844 0.598632812
vt 0.543945312 0.593261719
vt 0.549316406 0.621582031
vt 0.562011719 0.619140625
vt 0.549804688 0.628417969
vt 0.54296875 0.629394531
vt 0.562011719 0.625976562
vt 0.560546875 0.601074219
vt 0.557617188 0.600585938
vt 0.559570312 0.599609375
vt 0.555175781 0.589355469
vt 0.552734375 0.588867188
vt 0.551269531 0.587402344
vt 0.543945312 0.593261719
vt 0.205200195 0.19128418
vt 0.170776367 0.18359375
vt 0.172851562 0.195068359
vt 0.206298828 0.182128906
vt 0.163208008 0.141601562
vt 0.211547852 0.155395508
vt 0.220214844 0.153198242
vt 0.224243164 0.0773925781
vt 0.149169922 0.0639648438
vt 0.261230469 0.135009766
vt 0.264648438 0.0664672852
vt 0.261230469 0.0647583008
vt 0.264892578 0.137084961
vt 0.278808594 0.0712890625
vt 0.272705078 0.145751953
vt 0.278320312 0.142822266
vt 0.273925781 0.146972656
vt 0.274169922 0.165283203
vt 0.278320312 0.165283203
vt 0.273681641 0.172119141
vt 0.278320312 0.171875
vt 0.508789062 0.265869141
vt 0.493408203 0.294677734
vt 0.507324219 0.299316406
vt 0.518066406 0.266357422
vt 0.556640625 0.309326172
vt 0.551757812 0.270019531
vt 0.64453125 0.311767578
vt 0.623535156 0.274902344
vt 0.534179688 0.23034668
vt 0.623535156 0.274902344
vt 0.621582031 0.229370117
vt 0.551757812 0.270019531
vt 0.508789062 0.233764648
vt 0.518066406 0.266357422
vt 0.500976562 0.235473633
vt 0.508789062 0.265869141
vt 0.482910156 0.255615234
vt 0.493408203 0.294677734
vt 0.508789062 0.265869141
vt 0.489013672 0.249511719
vt 0.500976562 0.235473633
vt 0.495361328 0.235473633
vt 0.623535156 0.274902344
vt 0.64453125 0.311767578
vt 0.64453125 0.232177734
vt 0.621582031 0.229370117
vt 0.641113281 0.229125977
vn -0.357421875 -0.915527344 -0.183349609
vn -0.741699219 -0.669921875 0.0297241211
vn -0.958496094 -0.280517578 -0.048614502
vn -0.859863281 -0.497558594 -0.11529541
vn -0.578613281 -0.727539062 -0.368164062
vn -0.861328125 -0.472900391 -0.186279297
vn -0.67578125 -0.734375 -0.0613708496
vn -0.432617188 -0.900878906 -0.0385437012
vn -0.659179688 -0.751953125 0.0156707764
vn -0.851074219 -0.524902344 -0.024520874
vn -0.376220703 -0.924804688 0.0587158203
vn -0.423828125 -0.850097656 -0.3125
vn -0.401855469 -0.815429688 -0.416992188
vn -0.284179688 -0.687011719 -0.668457031
vn -0.293945312 -0.670898438 -0.680664062
vn -0.190185547 -0.771484375 -0.606933594
vn -0.357421875 -0.915527344 -0.183349609
vn -0.0253753662 -0.985839844 -0.164794922
vn -2.38418579E-07 -0.999511719 -0.0223236084
vn -1.78813934E-07 -0.999511719 -0.0223236084
vn -2.38418579E-07 -0.999511719 -0.0223236084
vn -1.78813934E-07 -0.999511719 -0.0223236084
vn 2.98023224E-07 -0.999511719 -0.0223236084
vn -0.0253753662 -0.985839844 -0.164794922
vn -0.357421875 -0.915527344 -0.183349609
vn -0.314941406 -0.948242188 -0.0382995605
vn 5.36441803E-07 -0.999511719 -0.0223236084
vn -0.357421875 -0.915527344 -0.183349609
vn -0.876953125 -0.476806641 -0.0583190918
vn -0.314941406 -0.948242188 -0.0382995605
vn -0.958496094 -0.280517578 -0.048614502
vn -0.998535156 -1.07288361E-06 -0.0542602539
vn -0.998535156 -7.15255737E-07 -0.0542602539
vn -0.998535156 -7.74860382E-07 -0.0542602539
vn -0.998535156 -1.78813934E-07 -0.0542602539
vn -0.998535156 -2.98023224E-07 -0.0542602539
vn -0.998535156 -2.98023224E-07 -0.0542602539
vn -0.998535156 -3.57627869E-07 -0.0542602539
vn -0.998535156 -3.57627869E-07 -0.0542602539
vn 0.729003906 0.678222656 -0.0919189453
vn 0.729003906 0.678222656 -0.0919189453
vn 0.716308594 0.691894531 -0.0904541016
vn 0.71484375 0.693359375 -0.0903320312
vn 0.658203125 0.749511719 -0.0739746094
vn 0.669921875 0.73828125 -0.0779418945
vn 0.625976562 0.77734375 -0.0634155273
vn 0.625976562 0.77734375 -0.0634155273
vn -0.210083008 0.977539062 0.014465332
vn -0.176391602 0.984375 0.00812530518
vn -0.176391602 0.984375 0.00812530518
vn -0.195678711 0.98046875 0.0117492676
vn -0.245361328 0.969238281 0.0182800293
vn -0.242675781 0.969726562 0.0183258057
vn -0.257568359 0.966308594 0.0180664062
vn -0.257568359 0.966308594 0.0180664062
vn -0.0601806641 0.214477539 -0.975097656
vn -0.0601806641 0.214477539 -0.975097656
vn -0.0601806641 0.214477539 -0.975097656
vn -0.0601806641 0.214477539 -0.975097656
vn -0.0601806641 0.214477539 -0.975097656
vn -0.0601806641 0.214477539 -0.975097656
vn -0.239501953 0.0971069336 0.965820312
vn -0.239501953 0.0971069336 0.965820312
vn -0.239501953 0.0971069336 0.965820312
vn -0.239501953 0.0971069336 0.965820312
vn -0.239501953 0.0971069336 0.965820312
g CharredSpawnerFragment_13_0
f 3/3/3 2/2/2 1/1/1
f 6/6/6 5/5/5 4/4/4
f 5/5/5 7/7/7 4/4/4
f 8/8/8 7/7/7 5/5/5
f 4/4/4 7/7/7 9/9/9
f 9/9/9 7/7/7 8/8/8
f 10/10/10 4/4/4 9/9/9
f 11/11/11 9/9/9 8/8/8
f 5/5/5 12/12/12 8/8/8
f 5/5/5 13/13/13 12/12/12
f 14/14/14 12/12/12 13/13/13
f 14/14/14 13/13/13 5/5/5
f 5/5/5 15/15/15 14/14/14
f 5/5/5 16/16/16 15/15/15
f 17/17/17 16/16/16 5/5/5
f 18/18/18 17/17/17 5/5/5
f 21/21/21 20/20/20 19/19/19
f 20/20/20 22/22/22 19/19/19
f 22/22/22 20/20/20 23/23/23
f 24/24/24 22/22/22 23/23/23
f 25/25/25 24/24/24 23/23/23
f 23/23/23 26/26/26 25/25/25
f 23/23/23 27/27/27 26/26/26
f 30/30/30 29/29/29 28/28/28
f 29/29/29 31/31/31 28/28/28
f 31/31/31 29/29/29 32/32/32
f 32/32/32 33/33/33 31/31/31
f 32/32/32 34/34/34 33/33/33
f 35/35/35 33/33/33 34/34/34
f 34/34/34 36/36/36 35/35/35
f 34/34/34 37/37/37 36/36/36
f 38/38/38 36/36/36 37/37/37
f 39/39/39 38/38/38 37/37/37
f 42/42/42 41/41/41 40/40/40
f 43/43/43 42/42/42 40/40/40
f 44/44/44 42/42/42 43/43/43
f 45/45/45 44/44/44 43/43/43
f 46/46/46 44/44/44 45/45/45
f 47/47/47 46/46/46 45/45/45
f 50/50/50 49/49/49 48/48/48
f 49/49/49 51/51/51 48/48/48
f 48/48/48 51/51/51 52/52/52
f 51/51/51 53/53/53 52/52/52
f 52/52/52 53/53/53 54/54/54
f 53/53/53 55/55/55 54/54/54
f 58/58/58 57/57/57 56/56/56
f 56/56/56 59/59/59 58/58/58
f 59/59/59 60/60/60 58/58/58
f 59/59/59 61/61/61 60/60/60
f 64/64/64 63/63/63 62/62/62
f 62/62/62 65/65/65 64/64/64
f 65/65/65 66/66/66 64/64/64
