g CharredSpawnerFragment_07
v -0.832844913 -0.192011446 -3.21308136
v -0.890707016 -0.0815759897 -3.20209002
v -0.895514727 -0.200598449 -3.11362267
v -0.832844913 -0.192011446 -3.21308136
v -0.885149956 -0.200212225 -3.30856156
v -0.890707016 -0.0815759897 -3.20209002
v -0.967129648 -0.203436166 -1.79590189
v -0.952125072 0.346434444 -2.07199216
v -0.67833668 -0.203436166 -1.79590189
v -0.865643263 0.357005864 -3.06139731
v -0.883745849 0.328210413 -3.20124388
v -0.888680696 0.320360601 -3.23936701
v -0.952125072 0.346434444 -2.07199216
v -0.900165975 0.371193916 -2.42617559
v -0.916550338 0.377927512 -2.12470126
v -0.932615101 0.338416398 -2.43097448
v -0.967129648 -0.203436166 -1.79590189
v -0.865643263 0.357005864 -3.06139731
v -0.934048116 -0.202125296 -2.40460157
v -0.895514727 -0.200598449 -3.11362267
v -0.883745849 0.328210413 -3.20124388
v -0.890707016 -0.0815759897 -3.20209002
v -0.890672207 0.321179032 -3.20272422
v -0.888680696 0.320360601 -3.23936701
v -0.86129719 -0.199266538 -3.74736619
v -0.885149956 -0.200212225 -3.30856156
v -0.916550338 0.377927512 -2.12470126
v -0.756301641 0.371317506 -2.42063785
v -0.737869561 0.373730034 -2.31262302
v -0.900165975 0.371193916 -2.42617559
v -0.865643263 0.357005864 -3.06139731
v -0.885149956 -0.200212225 -3.30856156
v -0.572504282 -0.199266538 -3.74736619
v -0.86129719 -0.199266538 -3.74736619
v -0.572795749 -0.196208373 -3.21208668
v -0.832844913 -0.192011446 -3.21308136
v -0.895514727 -0.200598449 -3.11362267
v -0.934048116 -0.202125296 -2.40460157
v -0.528167844 -0.202125296 -2.40460157
v -0.967129648 -0.203436166 -1.79590189
v -0.67833668 -0.203436166 -1.79590189
v -0.528167844 -0.202125296 -2.40460157
v -0.67833668 -0.203436166 -1.79590189
v -0.952125072 0.346434444 -2.07199216
v -0.916550338 0.377927512 -2.12470126
v -0.737869561 0.373730034 -2.31262302
v -0.528167844 -0.202125296 -2.40460157
v -0.737869561 0.373730034 -2.31262302
v -0.756301641 0.371317506 -2.42063785
v -0.865643263 0.357005864 -3.06139731
v -0.572795749 -0.196208373 -3.21208668
v -0.572504282 -0.199266538 -3.74736619
v -0.888680696 0.320360601 -3.23936701
v -0.86129719 -0.199266538 -3.74736619
v -0.572504282 -0.199266538 -3.74736619
v -0.865643263 0.357005864 -3.06139731
vt 0.522460938 0.5546875
vt 0.529785156 0.548339844
vt 0.51953125 0.545898438
vt 0.522460938 0.5546875
vt 0.529785156 0.559570312
vt 0.529785156 0.548339844
vt 0.326660156 0.363525391
vt 0.30859375 0.410644531
vt 0.348388672 0.372558594
vt 0.346679688 0.490234375
vt 0.352783203 0.500488281
vt 0.354248047 0.502929688
vt 0.322021484 0.245117188
vt 0.325195312 0.273193359
vt 0.325683594 0.249389648
vt 0.321533203 0.2734375
vt 0.278564453 0.223388672
vt 0.32421875 0.323486328
vt 0.278564453 0.271728516
vt 0.278808594 0.328125
vt 0.321044922 0.334228516
vt 0.288330078 0.334960938
vt 0.3203125 0.334472656
vt 0.3203125 0.337402344
vt 0.279541016 0.377685547
vt 0.279052734 0.343261719
vt 0.363037109 0.263427734
vt 0.375244141 0.286132812
vt 0.376708984 0.277832031
vt 0.364257812 0.286621094
vt 0.366943359 0.334960938
vt 0.379882812 0.251953125
vt 0.417236328 0.228637695
vt 0.395507812 0.219604492
vt 0.400390625 0.269042969
vt 0.380859375 0.260742188
vt 0.373046875 0.266357422
vt 0.348144531 0.318603516
vt 0.378662109 0.331298828
vt 0.326660156 0.363525391
vt 0.348388672 0.372558594
vt 0.370849609 0.418701172
vt 0.348388672 0.372558594
vt 0.30859375 0.410644531
vt 0.309570312 0.416259766
vt 0.322509766 0.433105469
vt 0.370849609 0.418701172
vt 0.322509766 0.433105469
vt 0.325927734 0.44140625
vt 0.346679688 0.490234375
vt 0.397949219 0.478759766
vt 0.417236328 0.518066406
vt 0.354248047 0.502929688
vt 0.403076172 0.537109375
vt 0.417236328 0.518066406
vt 0.346679688 0.490234375
vn -0.776855469 -0.355224609 -0.520019531
vn -0.992675781 -0.104187012 -0.0606994629
vn -0.97265625 -0.111694336 -0.203125
vn -0.767578125 -0.447753906 0.458984375
vn -0.986816406 -0.132568359 0.0951538086
vn -0.992675781 -0.104187012 -0.0606994629
vn -0 0.448730469 0.893554688
vn -0 0.448730469 0.893554688
vn -0 0.448730469 0.893554688
vn 0.258544922 0.750976562 -0.607421875
vn 0.258544922 0.750976562 -0.607421875
vn 0.258544922 0.750976562 -0.607421875
vn -0.979003906 0.1953125 -0.0575866699
vn -0.381835938 0.923339844 -0.0413818359
vn -0.577148438 0.814941406 -0.0495605469
vn -0.922363281 0.382324219 -0.0586547852
vn -0.998535156 -5.36441803E-07 -0.0542602539
vn -0.66796875 0.7421875 -0.0528869629
vn -0.998535156 -3.57627869E-07 -0.0542602539
vn -0.97265625 -0.111694336 -0.203125
vn -0.705566406 0.706542969 -0.0541381836
vn -0.992675781 -0.104187012 -0.0606994629
vn -0.922363281 0.382324219 -0.0585632324
vn -0.99609375 0.0709228516 -0.0554199219
vn -0.998535156 0.000377416611 -0.0539550781
vn -0.986816406 -0.132568359 0.0951538086
vn -0.577148438 0.814941406 -0.0495605469
vn 6.55651093E-07 0.999511719 -0.0223236084
vn 6.55651093E-07 0.999511719 -0.0223236084
vn -0.381835938 0.923339844 -0.0413818359
vn -0.66796875 0.7421875 -0.0528869629
vn -0.000487089157 -0.999511719 0.0298461914
vn 0.00628662109 -1 0.00232505798
vn 0.00628662109 -1 0.00232505798
vn 0.00172424316 -1 -0.00137710571
vn -0.01612854 -1 -0.00188064575
vn -0.000346899033 -0.999511719 -0.029586792
vn 0.00258636475 -1 -0.0034942627
vn 0.0028553009 -1 -0.00363349915
vn -0 -1 -0.00215339661
vn -0 -1 -0.00215339661
vn 0.830566406 0.427734375 0.356933594
vn 0.830566406 0.517089844 0.206054688
vn 0.8125 0.342041016 0.471679688
vn 0.741210938 0.185058594 0.645019531
vn 0.717773438 0.152954102 0.679199219
vn 0.903808594 0.413330078 -0.112487793
vn 0.91796875 0.360595703 -0.164672852
vn 0.91796875 0.360595703 -0.164672852
vn 0.895019531 0.440185547 -0.0715942383
vn 0.881347656 0.472167969 -0.020614624
vn 0.883789062 0.468261719 -0.00219345093
vn 0.258544922 0.750976562 -0.607421875
vn 0.258544922 0.750976562 -0.607421875
vn 0.258544922 0.750976562 -0.607421875
vn 0.258544922 0.750976562 -0.607421875
g CharredSpawnerFragment_07_0
f 3/3/3 2/2/2 1/1/1
f 6/6/6 5/5/5 4/4/4
f 9/9/9 8/8/8 7/7/7
f 12/12/12 11/11/11 10/10/10
f 15/15/15 14/14/14 13/13/13
f 14/14/14 16/16/16 13/13/13
f 13/13/13 16/16/16 17/17/17
f 16/16/16 14/14/14 18/18/18
f 16/16/16 19/19/19 17/17/17
f 20/20/20 19/19/19 16/16/16
f 16/16/16 18/18/18 21/21/21
f 16/16/16 22/22/22 20/20/20
f 21/21/21 23/23/23 16/16/16
f 16/16/16 23/23/23 22/22/22
f 21/21/21 24/24/24 23/23/23
f 22/22/22 23/23/23 24/24/24
f 22/22/22 24/24/24 25/25/25
f 25/25/25 26/26/26 22/22/22
f 29/29/29 28/28/28 27/27/27
f 28/28/28 30/30/30 27/27/27
f 28/28/28 31/31/31 30/30/30
f 34/34/34 33/33/33 32/32/32
f 33/33/33 35/35/35 32/32/32
f 32/32/32 35/35/35 36/36/36
f 36/36/36 35/35/35 37/37/37
f 37/37/37 35/35/35 38/38/38
f 35/35/35 39/39/39 38/38/38
f 38/38/38 39/39/39 40/40/40
f 39/39/39 41/41/41 40/40/40
f 44/44/44 43/43/43 42/42/42
f 45/45/45 44/44/44 42/42/42
f 46/46/46 45/45/45 42/42/42
f 49/49/49 48/48/48 47/47/47
f 49/49/49 47/47/47 50/50/50
f 50/50/50 47/47/47 51/51/51
f 52/52/52 50/50/50 51/51/51
f 55/55/55 54/54/54 53/53/53
f 53/53/53 56/56/56 55/55/55
