g CharredSpawnerFragment_03
v -0.850246012 0.304565012 -3.9465661
v -0.805539966 0.322566986 -3.92735887
v -0.820443928 0.338429987 -3.89307094
v -0.807097971 0.336192012 -4.08551359
v -0.822139025 0.327743977 -4.07434988
v -0.838162005 0.302834988 -4.11538982
v -0.822139025 0.327743977 -4.07434988
v -0.843731999 0.125533998 -4.06643391
v -0.743847013 0.205813006 -3.94005704
v -0.807097971 0.336192012 -4.08551359
v -0.0053550303 0.350815684 -3.08032131
v -0.743847013 0.205813006 -3.94005704
v -0.850246012 0.304565012 -3.9465661
v -0.843731999 0.125533998 -4.06643391
v -0.805539966 0.322566986 -3.92735887
v -0.0053550303 0.350815684 -3.08032131
v -0.820443928 0.338429987 -3.89307094
v -0.888680696 0.320360601 -3.23936701
v -0.86129719 -0.199266538 -3.74736619
v -0.841253698 -0.198461011 -4.11421108
v -0.843731999 0.125533998 -4.06643391
v -0.820034027 -0.197607547 -4.50247478
v -0.850246012 0.304565012 -3.9465661
v -0.820443928 0.338429987 -3.89307094
v -0.858338058 0.354003578 -3.19581389
v -0.883745849 0.328210413 -3.20124388
v -0.865643263 0.357005864 -3.06139731
v -0.820034027 0.292127997 -4.50247478
v -0.815922499 -0.198874414 -4.82494736
v -0.816218138 0.275887847 -4.80176449
v -0.838162005 0.302834988 -4.11538982
v -0.807097971 0.336192012 -4.08551359
v -0.787347019 0.324817985 -4.50247478
v -0.816218138 0.275887847 -4.80176449
v -0.783436775 0.308175176 -4.8091898
v -0.737869561 0.373730034 -2.31262302
v -0.756301641 0.371317506 -2.42063785
v -0.639443099 0.37141791 -2.41613984
v -0.0612894297 0.357836664 -3.02419424
v -0.865643263 0.357005864 -3.06139731
v -0.858338058 0.354003578 -3.19581389
v -0.0053550303 0.350815684 -3.08032131
v -0.820443928 0.338429987 -3.89307094
v 0.0403404795 0.332196027 -4.21565866
v 0.106807232 0.354032278 -3.20105243
v -0.807097971 0.336192012 -4.08551359
v 0.0210841894 0.324817985 -4.50247478
v -0.787347019 0.324817985 -4.50247478
v -0.783436775 0.308175176 -4.8091898
v -0.0193417538 0.296766281 -5.0194478
v -0.820034027 -0.197607547 -4.50247478
v -0.417161286 -0.16859287 -4.74035406
v -0.815922499 -0.198874414 -4.82494736
v -0.421272725 -0.167326003 -4.41788149
v -0.841253698 -0.198461011 -4.11421108
v -0.442492485 -0.168179467 -4.02961779
v -0.86129719 -0.199266538 -3.74736619
v -0.462535948 -0.168984994 -3.66277242
v -0.708363831 0.111701064 -2.66722035
v -0.301785678 0.0272876024 -3.25984693
v -0.332027882 0.0936008543 -3.1175766
v -0.421272725 -0.167326003 -4.41788149
v -0.0193417538 0.296766281 -5.0194478
v -0.417161286 -0.16859287 -4.74035406
v 0.0210841894 0.324817985 -4.50247478
v -0.442492485 -0.168179467 -4.02961779
v 0.0403404795 0.332196027 -4.21565866
v -0.462535948 -0.168984994 -3.66277242
v 0.106807232 0.354032278 -3.20105243
v -0.301785678 0.0272876024 -3.25984693
v -0.0053550303 0.350815684 -3.08032131
v -0.332027882 0.0936008543 -3.1175766
v -0.0612894297 0.357836664 -3.02419424
v -0.708363831 0.111701064 -2.66722035
v -0.639443099 0.37141791 -2.41613984
v -0.737869561 0.373730034 -2.31262302
v -0.417161286 -0.16859287 -4.74035406
v -0.0193417538 0.296766281 -5.0194478
v -0.783436775 0.308175176 -4.8091898
v -0.815922499 -0.198874414 -4.82494736
v -0.816218138 0.275887847 -4.80176449
v -0.708363831 0.111701064 -2.66722035
v -0.865643263 0.357005864 -3.06139731
v -0.756301641 0.371317506 -2.42063785
v -0.737869561 0.373730034 -2.31262302
v -0.708363831 0.111701064 -2.66722035
v -0.883745849 0.328210413 -3.20124388
v -0.865643263 0.357005864 -3.06139731
v -0.888680696 0.320360601 -3.23936701
v -0.86129719 -0.199266538 -3.74736619
vt 0.375976562 0.663085938
vt 0.376953125 0.659667969
vt 0.374511719 0.658691406
vt 0.3984375 0.672851562
vt 0.397216797 0.672363281
vt 0.396240234 0.67578125
vt 0.397216797 0.672363281
vt 0.384277344 0.675292969
vt 0.387207031 0.661621094
vt 0.3984375 0.671875
vt 0.397460938 0.573730469
vt 0.387207031 0.661621094
vt 0.375976562 0.663085938
vt 0.384277344 0.675292969
vt 0.376953125 0.659667969
vt 0.397460938 0.573730469
vt 0.375732422 0.657226562
vt 0.3203125 0.337402344
vt 0.279541016 0.377685547
vt 0.279785156 0.406494141
vt 0.305175781 0.402587891
vt 0.280029297 0.436767578
vt 0.319335938 0.393066406
vt 0.322998047 0.389160156
vt 0.323974609 0.333984375
vt 0.321044922 0.334228516
vt 0.32421875 0.323486328
vt 0.318359375 0.436523438
vt 0.28125 0.461181641
vt 0.315917969 0.458740234
vt 0.319091797 0.406494141
vt 0.322753906 0.404541016
vt 0.321777344 0.436767578
vt 0.315917969 0.458740234
vt 0.319335938 0.459960938
vt 0.376708984 0.277832031
vt 0.375244141 0.286132812
vt 0.384033203 0.285644531
vt 0.428222656 0.33203125
vt 0.366943359 0.334960938
vt 0.367431641 0.345214844
vt 0.432128906 0.336181641
vt 0.370361328 0.3984375
vt 0.436035156 0.423095703
vt 0.440917969 0.345703125
vt 0.371337891 0.413085938
vt 0.434570312 0.444824219
vt 0.372802734 0.444824219
vt 0.373046875 0.468261719
vt 0.431396484 0.484375
vt 0.337890625 0.228393555
vt 0.371337891 0.208374023
vt 0.338134766 0.201660156
vt 0.37109375 0.234985352
vt 0.336669922 0.260498047
vt 0.369628906 0.266601562
vt 0.336181641 0.291259766
vt 0.368652344 0.295410156
vt 0.356201172 0.380371094
vt 0.384765625 0.328857422
vt 0.384277344 0.341796875
vt 0.37109375 0.234985352
vt 0.422363281 0.186035156
vt 0.371337891 0.208374023
vt 0.42578125 0.228881836
vt 0.369628906 0.266601562
vt 0.426757812 0.252685547
vt 0.368652344 0.295410156
vt 0.426757812 0.337890625
vt 0.384765625 0.328857422
vt 0.41796875 0.348388672
vt 0.384277344 0.341796875
vt 0.4140625 0.353759766
vt 0.356201172 0.380371094
vt 0.370605469 0.406738281
vt 0.363037109 0.416015625
vt 0.371337891 0.208374023
vt 0.416748047 0.176025391
vt 0.352539062 0.161865234
vt 0.338134766 0.201660156
vt 0.349365234 0.163818359
vt 0.384033203 0.285644531
vt 0.366943359 0.334960938
vt 0.375244141 0.286132812
vt 0.376708984 0.277832031
vt 0.384033203 0.285644531
vt 0.321044922 0.334228516
vt 0.32421875 0.323486328
vt 0.3203125 0.337402344
vt 0.279541016 0.377685547
vn -0.92578125 0.34765625 -0.148071289
vn -0.149658203 0.87109375 -0.468017578
vn -0.59375 0.787109375 -0.167724609
vn -0.652832031 0.742675781 -0.149780273
vn -0.600585938 0.765625 -0.230102539
vn -0.923828125 0.363769531 0.118408203
vn -0.799804688 0.21105957 0.562011719
vn -0.998046875 0.0236968994 0.0589904785
vn -0.779296875 0.246704102 0.576171875
vn -0.737792969 0.310546875 0.599121094
vn -0.737792969 0.310546875 0.599121094
vn 0.532714844 0.502929688 -0.680664062
vn 0.463623047 0.44921875 -0.763671875
vn 0.463623047 0.44921875 -0.763671875
vn 0.544433594 0.51171875 -0.664550781
vn 0.597167969 0.551269531 -0.582519531
vn 0.597167969 0.551269531 -0.582519531
vn -0.965332031 0.255371094 0.0577087402
vn -0.999023438 -0.0474853516 -0.00539016724
vn -0.998535156 0.00194740295 -0.0537414551
vn -0.998046875 0.0236968994 0.0589904785
vn -0.999511719 0.00161266327 -0.0329589844
vn -0.92578125 0.34765625 -0.148071289
vn -0.59375 0.787109375 -0.167724609
vn -0.379882812 0.923828125 -0.0433959961
vn -0.705566406 0.706542969 -0.0541381836
vn -0.0579833984 0.998046875 -0.0254364014
vn -0.920898438 0.386962891 -0.0452575684
vn -1 0 -0.0127487183
vn -1 0 -0.0127487183
vn -0.923828125 0.363769531 0.118408203
vn -0.652832031 0.742675781 -0.149780273
vn -0.377441406 0.924804688 -0.0487365723
vn -0.706542969 0.706054688 -0.0473327637
vn -0.333984375 0.940917969 -0.0553283691
vn 4.17232513E-07 0.999511719 -0.0223236084
vn 3.57627869E-07 0.999511719 -0.0223236084
vn 2.98023224E-07 0.999511719 -0.0223236084
vn 0.00518417358 0.999511719 -0.0268554688
vn -0.0579833984 0.998046875 -0.0254364014
vn -0.379882812 0.923828125 -0.0433959961
vn 0.00766372681 0.999511719 -0.0290222168
vn 0.00766372681 0.999511719 -0.0290222168
vn -0.00149154663 1 -0.0218658447
vn -0.00351142883 1 -0.0165405273
vn -0.00134277344 0.999511719 -0.0222625732
vn 0.000166893005 0.999023438 -0.0397644043
vn -0.377441406 0.924804688 -0.0487365723
vn -0.333984375 0.940917969 -0.0553283691
vn -0 0.998535156 -0.0541687012
vn 0.0749511719 -0.997070312 0.00355911255
vn 0.0747070312 -0.997070312 0.00487136841
vn 0.0747070312 -0.997070312 0.00487136841
vn 0.075012207 -0.997070312 0.00323104858
vn 0.0753173828 -0.997070312 0.00192451477
vn 0.0753173828 -0.997070312 0.00192451477
vn 0.108337402 -0.985351562 0.131103516
vn 0.12286377 -0.974121094 0.189819336
vn 0.151855469 -0.938476562 0.310546875
vn 0.151855469 -0.938476562 0.310546875
vn 0.151855469 -0.938476562 0.310546875
vn 0.740722656 -0.671875 0.00053358078
vn 0.75 -0.661621094 -0.00933837891
vn 0.75 -0.661621094 -0.00933837891
vn 0.741699219 -0.670898438 -0.000597000122
vn 0.712890625 -0.701171875 -0.00398635864
vn 0.718261719 -0.695800781 -0.000597953796
vn 0.681640625 -0.730957031 0.0336303711
vn 0.63671875 -0.758789062 0.137084961
vn 0.567871094 -0.763183594 0.307861328
vn 0.555664062 -0.754394531 0.350097656
vn 0.520996094 -0.696777344 0.493408203
vn 0.518554688 -0.69921875 0.491943359
vn 0.536132812 -0.674804688 0.506835938
vn 0.538574219 -0.663574219 0.519042969
vn 0.540527344 -0.654296875 0.528808594
vn -0.105895996 -0.21105957 -0.971679688
vn -0.105895996 -0.21105957 -0.971679688
vn -0.105895996 -0.21105957 -0.971679688
vn -0.105895996 -0.21105957 -0.971679688
vn -0.105895996 -0.21105957 -0.971679688
vn -0.934082031 -0.309570312 0.176757812
vn -0.93359375 -0.309082031 0.180175781
vn -0.9296875 -0.329345703 0.166015625
vn -0.9296875 -0.329345703 0.166015625
vn -0.934082031 -0.309570312 0.176757812
vn -0.934570312 -0.304199219 0.18359375
vn -0.93359375 -0.309082031 0.180175781
vn -0.965332031 0.255371094 0.0577087402
vn -0.999023438 -0.0474853516 -0.00539016724
g CharredSpawnerFragment_03_0
f 3/3/3 2/2/2 1/1/1
f 6/6/6 5/5/5 4/4/4
f 6/6/6 8/8/8 7/7/7
f 8/8/8 9/9/9 7/7/7
f 10/10/10 7/7/7 9/9/9
f 11/11/11 10/10/10 9/9/9
f 14/14/14 13/13/13 12/12/12
f 13/13/13 15/15/15 12/12/12
f 16/16/16 12/12/12 15/15/15
f 17/17/17 16/16/16 15/15/15
f 20/20/20 19/19/19 18/18/18
f 18/18/18 21/21/21 20/20/20
f 22/22/22 20/20/20 21/21/21
f 18/18/18 23/23/23 21/21/21
f 24/24/24 23/23/23 18/18/18
f 18/18/18 25/25/25 24/24/24
f 18/18/18 26/26/26 25/25/25
f 27/27/27 25/25/25 26/26/26
f 21/21/21 28/28/28 22/22/22
f 29/29/29 22/22/22 28/28/28
f 30/30/30 29/29/29 28/28/28
f 21/21/21 31/31/31 28/28/28
f 28/28/28 31/31/31 32/32/32
f 33/33/33 28/28/28 32/32/32
f 34/34/34 28/28/28 33/33/33
f 35/35/35 34/34/34 33/33/33
f 38/38/38 37/37/37 36/36/36
f 37/37/37 38/38/38 39/39/39
f 40/40/40 37/37/37 39/39/39
f 39/39/39 41/41/41 40/40/40
f 39/39/39 42/42/42 41/41/41
f 42/42/42 43/43/43 41/41/41
f 45/45/45 44/44/44 42/42/42
f 44/44/44 46/46/46 42/42/42
f 44/44/44 47/47/47 46/46/46
f 47/47/47 48/48/48 46/46/46
f 49/49/49 48/48/48 47/47/47
f 50/50/50 49/49/49 47/47/47
f 53/53/53 52/52/52 51/51/51
f 52/52/52 54/54/54 51/51/51
f 51/51/51 54/54/54 55/55/55
f 54/54/54 56/56/56 55/55/55
f 55/55/55 56/56/56 57/57/57
f 56/56/56 58/58/58 57/57/57
f 59/59/59 57/57/57 58/58/58
f 58/58/58 60/60/60 59/59/59
f 60/60/60 61/61/61 59/59/59
f 64/64/64 63/63/63 62/62/62
f 63/63/63 65/65/65 62/62/62
f 62/62/62 65/65/65 66/66/66
f 65/65/65 67/67/67 66/66/66
f 66/66/66 67/67/67 68/68/68
f 67/67/67 69/69/69 68/68/68
f 70/70/70 68/68/68 69/69/69
f 71/71/71 70/70/70 69/69/69
f 72/72/72 70/70/70 71/71/71
f 73/73/73 72/72/72 71/71/71
f 74/74/74 72/72/72 73/73/73
f 75/75/75 74/74/74 73/73/73
f 76/76/76 74/74/74 75/75/75
f 79/79/79 78/78/78 77/77/77
f 77/77/77 80/80/80 79/79/79
f 80/80/80 81/81/81 79/79/79
f 84/84/84 83/83/83 82/82/82
f 85/85/85 84/84/84 82/82/82
f 88/88/88 87/87/87 86/86/86
f 87/87/87 89/89/89 86/86/86
f 86/86/86 89/89/89 90/90/90
