g CharredSpawnerFragment_17
v 0.991080582 0.362444043 -1.35521281
v 0.977524996 0.40298599 -1.00277793
v 0.958649039 0.395228654 -1.35009062
v 1.01000404 0.370220989 -1.00702596
v 1.05837178 0.390099436 -0.11704728
v 0.990100741 0.0852249488 -1.36636412
v 1.00757718 0.0896032155 -1.05167711
v 1.02503359 0.42251116 -0.128609359
v 1.05787504 0.102318592 -0.126190424
v 1.04993212 0.432744026 0.329527617
v 1.09028614 0.110512167 0.47017774
v 1.08369267 0.40050593 0.348862439
v 1.04993212 0.432744026 0.329527617
v 0.330846548 0.429925978 0.20336242
v 0.303357124 0.420598239 -0.214250043
v 1.02503359 0.42251116 -0.128609359
v 0.977524996 0.40298599 -1.00277793
v 0.250036001 0.402505398 -1.0242914
v 0.958649039 0.395228654 -1.35009062
v 0.234168202 0.397121191 -1.26535201
v 1.00757718 0.0896032155 -1.05167711
v 0.990100741 0.0852249488 -1.36636412
v 0.234168202 0.397121191 -1.26535201
v 0.250036001 0.402505398 -1.0242914
v 0.303357124 0.420598239 -0.214250043
v 1.09028614 0.110512167 0.47017774
v 1.05787504 0.102318592 -0.126190424
v 0.330846548 0.429925978 0.20336242
v 0.991080582 0.362444043 -1.35521281
v 0.958649039 0.395228654 -1.35009062
v 0.234168202 0.397121191 -1.26535201
v 0.990100741 0.0852249488 -1.36636412
v 1.09028614 0.110512167 0.47017774
v 0.330846548 0.429925978 0.20336242
v 1.04993212 0.432744026 0.329527617
v 1.08369267 0.40050593 0.348862439
vt 0.544921875 0.197998047
vt 0.541015625 0.170166016
vt 0.541503906 0.197631836
vt 0.544433594 0.170410156
vt 0.545410156 0.105407715
vt 0.566894531 0.19909668
vt 0.566894531 0.174316406
vt 0.541992188 0.105957031
vt 0.566894531 0.106628418
vt 0.542480469 0.0723266602
vt 0.56640625 0.0630493164
vt 0.545898438 0.0713500977
vt 0.512695312 0.0763549805
vt 0.458007812 0.0859985352
vt 0.456054688 0.117858887
vt 0.511230469 0.111328125
vt 0.507324219 0.177978516
vt 0.451904297 0.17956543
vt 0.505859375 0.204467773
vt 0.450683594 0.197998047
vt 0.260009766 0.0866088867
vt 0.260009766 0.060760498
vt 0.192626953 0.0659179688
vt 0.192749023 0.0857543945
vt 0.193115234 0.15222168
vt 0.259765625 0.211547852
vt 0.259765625 0.162597656
vt 0.193359375 0.186645508
vt 0.249633789 0.040435791
vt 0.24609375 0.0392456055
vt 0.192626953 0.0659179688
vt 0.260009766 0.060760498
vt 0.259765625 0.211547852
vt 0.193359375 0.186645508
vt 0.236206055 0.228393555
vt 0.240356445 0.228393555
vn 0.9296875 0.363525391 -0.0589599609
vn 0.381835938 0.923339844 -0.0413818359
vn 0.399902344 0.915527344 -0.042175293
vn 0.922363281 0.382080078 -0.0587768555
vn 0.922363281 0.382324219 -0.0586547852
vn 0.998535156 -0.00061416626 -0.0548095703
vn 0.998535156 -0.00034070015 -0.0545654297
vn 0.381835938 0.923339844 -0.0413818359
vn 0.998535156 3.57627869E-07 -0.0542602539
vn 0.454345703 0.889648438 -0.0445556641
vn 0.998535156 7.74860382E-07 -0.0542602539
vn 0.95703125 0.283203125 -0.0583496094
vn 0.454345703 0.889648438 -0.0445556641
vn -0 0.999511719 -0.0223236084
vn -1.1920929E-07 0.999511719 -0.0223236084
vn 0.381835938 0.923339844 -0.0413818359
vn 0.381835938 0.923339844 -0.0413818359
vn -1.1920929E-07 0.999511719 -0.0223236084
vn 0.399902344 0.915527344 -0.042175293
vn -1.78813934E-07 0.999511719 -0.0223236084
vn -0.381835938 -0.923339844 0.037902832
vn -0.377441406 -0.925292969 0.0338439941
vn -0.379394531 -0.924316406 0.0429382324
vn -0.379882812 -0.923828125 0.0456542969
vn -0.391357422 -0.919433594 0.0403442383
vn -0.394775391 -0.91796875 0.0378417969
vn -0.391845703 -0.919433594 0.0339355469
vn -0.401123047 -0.914550781 0.0468444824
vn -0.115966797 0.0403442383 -0.992675781
vn -0.115966797 0.0403442383 -0.992675781
vn -0.115966797 0.0403442383 -0.992675781
vn -0.115966797 0.0403442383 -0.992675781
vn -0.161499023 0.377685547 0.911621094
vn -0.161499023 0.377685547 0.911621094
vn -0.161499023 0.377685547 0.911621094
vn -0.161499023 0.377685547 0.911621094
g CharredSpawnerFragment_17_0
f 3/3/3 2/2/2 1/1/1
f 2/2/2 4/4/4 1/1/1
f 5/5/5 4/4/4 2/2/2
f 6/6/6 1/1/1 4/4/4
f 7/7/7 6/6/6 4/4/4
f 7/7/7 4/4/4 5/5/5
f 8/8/8 5/5/5 2/2/2
f 9/9/9 7/7/7 5/5/5
f 8/8/8 10/10/10 5/5/5
f 9/9/9 5/5/5 11/11/11
f 10/10/10 12/12/12 5/5/5
f 5/5/5 12/12/12 11/11/11
f 15/15/15 14/14/14 13/13/13
f 16/16/16 15/15/15 13/13/13
f 16/16/16 17/17/17 15/15/15
f 17/17/17 18/18/18 15/15/15
f 18/18/18 17/17/17 19/19/19
f 20/20/20 18/18/18 19/19/19
f 23/23/23 22/22/22 21/21/21
f 24/24/24 23/23/23 21/21/21
f 25/25/25 24/24/24 21/21/21
f 25/25/25 21/21/21 26/26/26
f 21/21/21 27/27/27 26/26/26
f 28/28/28 25/25/25 26/26/26
f 31/31/31 30/30/30 29/29/29
f 32/32/32 31/31/31 29/29/29
f 35/35/35 34/34/34 33/33/33
f 36/36/36 35/35/35 33/33/33
