g CharredSpawnerFragment_10
v 0.788480818 0.0496813953 -2.41319203
v 0.91471076 0.0663211048 -2.7268126
v 0.932411015 -0.340532005 -2.35003304
v 0.788480818 0.0496813953 -2.41319203
v 0.932411015 -0.340532005 -2.35003304
v 0.940867305 0.0729332268 -2.24558663
v 0.376272917 -0.354981422 -3.15201616
v 0.86281544 -0.355840802 -3.1135354
v 0.834005892 -0.343999118 -3.64370418
v -0.138341695 -0.367328525 -2.59922624
v 0.904347956 -0.37291199 -2.349231
v -0.127701283 -0.37222746 -2.37989473
v 0.94851613 -0.391064137 -1.53653109
v -0.0854436755 -0.391682893 -1.50884461
v 0.956915498 -0.394516051 -1.38198209
v -0.0734530538 -0.397203207 -1.26168418
v 0.982408524 0.0833032653 -1.50395095
v 0.940867305 0.0729332268 -2.24558663
v 0.932411015 -0.340532005 -2.35003304
v 0.979959309 -0.358604699 -1.53169322
v 0.990100741 0.0852249488 -1.36636412
v 0.988520622 -0.361858755 -1.38434839
v 0.94851613 -0.391064137 -1.53653109
v 0.956915498 -0.394516051 -1.38198209
v 0.904347956 -0.37291199 -2.349231
v 0.86281544 -0.355840802 -3.1135354
v 0.89302063 -0.32356751 -3.10450745
v 0.834005892 -0.343999118 -3.64370418
v 0.91471076 0.0663211048 -2.7268126
v 0.862460911 -0.310406208 -3.6898396
v 0.899101317 0.0623127483 -3.02477717
v 0.854638875 0.0510168076 -3.85251498
v -0.138341695 -0.367328525 -2.59922624
v 0.854638875 0.0510168076 -3.85251498
v 0.899101317 0.0623127483 -3.02477717
v 0.91471076 0.0663211048 -2.7268126
v 0.788480818 0.0496813953 -2.41319203
v -0.127701283 -0.37222746 -2.37989473
v -0.0854436755 -0.391682893 -1.50884461
v 0.940867305 0.0729332268 -2.24558663
v 0.982408524 0.0833032653 -1.50395095
v -0.0734530538 -0.397203207 -1.26168418
v 0.990100741 0.0852249488 -1.36636412
v 0.854638875 0.0510168076 -3.85251498
v -0.138341695 -0.367328525 -2.59922624
v 0.376272917 -0.354981422 -3.15201616
v 0.834005892 -0.343999118 -3.64370418
v 0.862460911 -0.310406208 -3.6898396
v -0.0734530538 -0.397203207 -1.26168418
v 0.990100741 0.0852249488 -1.36636412
v 0.988520622 -0.361858755 -1.38434839
v 0.956915498 -0.394516051 -1.38198209
vt 0.507324219 0.618164062
vt 0.529296875 0.633300781
vt 0.529296875 0.595214844
vt 0.507324219 0.618164062
vt 0.529296875 0.595214844
vt 0.501953125 0.601074219
vt 0.115600586 0.341796875
vt 0.0784912109 0.338867188
vt 0.0806884766 0.379394531
vt 0.154785156 0.299804688
vt 0.0753173828 0.280761719
vt 0.154052734 0.282958984
vt 0.0719604492 0.21862793
vt 0.150756836 0.216552734
vt 0.0713500977 0.20690918
vt 0.149902344 0.197753906
vt 0.567382812 0.209960938
vt 0.567382812 0.268310547
vt 0.600097656 0.276611328
vt 0.602539062 0.212524414
vt 0.566894531 0.19909668
vt 0.602539062 0.201049805
vt 0.605957031 0.213012695
vt 0.605957031 0.200927734
vt 0.603515625 0.276611328
vt 0.602050781 0.336425781
vt 0.598632812 0.335449219
vt 0.601074219 0.377685547
vt 0.567871094 0.305419922
vt 0.59765625 0.381103516
vt 0.568359375 0.328857422
vt 0.568847656 0.393798828
vt 0.289306641 0.392822266
vt 0.197753906 0.29296875
vt 0.196166992 0.361083984
vt 0.195678711 0.385498047
vt 0.206542969 0.410888672
vt 0.289306641 0.410888672
vt 0.289306641 0.482421875
vt 0.194824219 0.425292969
vt 0.193603516 0.486328125
vt 0.289306641 0.502441406
vt 0.193359375 0.497558594
vt 0.197753906 0.29296875
vt 0.289306641 0.392822266
vt 0.260253906 0.338134766
vt 0.234130859 0.289550781
vt 0.229614258 0.287109375
vt 0.289306641 0.502441406
vt 0.193359375 0.497558594
vt 0.206665039 0.531738281
vt 0.210083008 0.533203125
vn 0.853515625 0.373535156 0.36328125
vn 0.992675781 0.101257324 0.0626831055
vn 0.947265625 -0.311523438 -0.0739135742
vn 0.719726562 0.15612793 -0.676269531
vn 0.947265625 -0.311523438 -0.0739135742
vn 0.94140625 0.0656738281 -0.331054688
vn 3.57627869E-07 -0.999511719 -0.0223236084
vn 3.57627869E-07 -0.999511719 -0.0223236084
vn 3.57627869E-07 -0.999511719 -0.0223236084
vn 2.98023224E-07 -0.999511719 -0.0223236084
vn 3.57627869E-07 -0.999511719 -0.0223236084
vn 3.57627869E-07 -0.999511719 -0.0223236084
vn 3.57627869E-07 -0.999511719 -0.0223236084
vn 3.57627869E-07 -0.999511719 -0.0223236084
vn 2.98023224E-07 -0.999511719 -0.0223236084
vn 2.98023224E-07 -0.999511719 -0.0223236084
vn 0.998535156 -0.00269889832 -0.0570068359
vn 0.94140625 0.0656738281 -0.331054688
vn 0.947265625 -0.311523438 -0.0739135742
vn 0.927246094 -0.369140625 -0.060760498
vn 0.998535156 -0.00159549713 -0.0569458008
vn 0.924804688 -0.375732422 -0.060760498
vn 0.728515625 -0.682617188 -0.0561218262
vn 0.718261719 -0.693359375 -0.0557556152
vn 0.741210938 -0.668945312 -0.0555114746
vn 0.736816406 -0.673828125 -0.0543212891
vn 0.930664062 -0.361816406 -0.0573425293
vn 0.73046875 -0.681152344 -0.0541381836
vn 0.992675781 0.101257324 0.0626831055
vn 0.977539062 -0.203735352 -0.056427002
vn 0.998535156 -0.00434494019 -0.0525817871
vn 0.998535156 -0.0035572052 -0.0530090332
vn -0.40234375 0.915527344 0.0119934082
vn -0.379882812 0.924804688 0.00778198242
vn -0.379882812 0.924804688 0.00765609741
vn -0.384521484 0.922363281 -0.0389709473
vn -0.370605469 0.928710938 0.0204467773
vn -0.416748047 0.908203125 0.0404968262
vn -0.404296875 0.913574219 0.0408325195
vn -0.354003906 0.930664062 0.09375
vn -0.408935547 0.912597656 0.0121536255
vn -0.406738281 0.912597656 0.0378112793
vn -0.412109375 0.911132812 0.0103225708
vn -0.692871094 -0.308349609 -0.651855469
vn -0.692871094 -0.308349609 -0.651855469
vn -0.692871094 -0.308349609 -0.651855469
vn -0.692871094 -0.308349609 -0.651855469
vn -0.692871094 -0.308349609 -0.651855469
vn 0.115966797 -0.0403442383 0.992675781
vn 0.115966797 -0.0403442383 0.992675781
vn 0.115966797 -0.0403442383 0.992675781
vn 0.115966797 -0.0403442383 0.992675781
g CharredSpawnerFragment_10_0
f 3/3/3 2/2/2 1/1/1
f 6/6/6 5/5/5 4/4/4
f 9/9/9 8/8/8 7/7/7
f 10/10/10 7/7/7 8/8/8
f 8/8/8 11/11/11 10/10/10
f 11/11/11 12/12/12 10/10/10
f 11/11/11 13/13/13 12/12/12
f 13/13/13 14/14/14 12/12/12
f 13/13/13 15/15/15 14/14/14
f 15/15/15 16/16/16 14/14/14
f 19/19/19 18/18/18 17/17/17
f 20/20/20 19/19/19 17/17/17
f 20/20/20 17/17/17 21/21/21
f 22/22/22 20/20/20 21/21/21
f 20/20/20 22/22/22 23/23/23
f 20/20/20 23/23/23 19/19/19
f 22/22/22 24/24/24 23/23/23
f 23/23/23 25/25/25 19/19/19
f 19/19/19 25/25/25 26/26/26
f 27/27/27 19/19/19 26/26/26
f 27/27/27 26/26/26 28/28/28
f 29/29/29 19/19/19 27/27/27
f 30/30/30 27/27/27 28/28/28
f 31/31/31 29/29/29 27/27/27
f 27/27/27 30/30/30 32/32/32
f 31/31/31 27/27/27 32/32/32
f 35/35/35 34/34/34 33/33/33
f 36/36/36 35/35/35 33/33/33
f 33/33/33 37/37/37 36/36/36
f 38/38/38 37/37/37 33/33/33
f 37/37/37 38/38/38 39/39/39
f 40/40/40 37/37/37 39/39/39
f 41/41/41 40/40/40 39/39/39
f 42/42/42 41/41/41 39/39/39
f 43/43/43 41/41/41 42/42/42
f 46/46/46 45/45/45 44/44/44
f 44/44/44 47/47/47 46/46/46
f 44/44/44 48/48/48 47/47/47
f 51/51/51 50/50/50 49/49/49
f 52/52/52 51/51/51 49/49/49
