g CharredSpawnerFragment_08
v -0.721256495 -0.355045706 -3.14915299
v -0.624356985 -0.353213996 -3.23115587
v -0.74921006 -0.288463444 -3.22322297
v -0.624356985 -0.353213996 -3.23115587
v -0.75575453 -0.350887775 -3.34023547
v -0.74921006 -0.288463444 -3.22322297
v -0.584728599 -0.371924311 -2.39347386
v -0.543309093 -0.377044857 -2.16421771
v -0.336744308 -0.37208876 -2.38610578
v -0.138341695 -0.367328525 -2.59922624
v -0.721256495 -0.355045706 -3.14915299
v -0.167244762 -0.3540214 -3.19500303
v -0.624356985 -0.353213996 -3.23115587
v -0.75575453 -0.350887775 -3.34023547
v -0.828841746 -0.34187147 -3.74479604
v -0.211913407 -0.333502948 -4.11543322
v -0.80757612 -0.333131731 -4.1330986
v -0.787347019 -0.324817985 -4.50247478
v -0.230674505 -0.324817985 -4.50247478
v -0.248135939 -0.298601478 -4.9856267
v -0.783054113 -0.30654639 -4.83920717
v -0.820034027 -0.292127997 -4.50247478
v -0.783054113 -0.30654639 -4.83920717
v -0.81587553 -0.274429679 -4.82863665
v -0.787347019 -0.324817985 -4.50247478
v -0.840472996 -0.300528407 -4.12926197
v -0.80757612 -0.333131731 -4.1330986
v -0.828841746 -0.34187147 -3.74479604
v -0.855632544 -0.30675894 -3.85245323
v -0.841253698 -0.198461011 -4.11421108
v -0.86129719 -0.199266538 -3.74736619
v -0.820034027 -0.197607547 -4.50247478
v -0.81587553 -0.274429679 -4.82863665
v -0.815922499 -0.198874414 -4.82494736
v -0.230674505 -0.324817985 -4.50247478
v -0.532712817 0.00506165624 -4.96201229
v -0.248135939 -0.298601478 -4.9856267
v -0.515251398 -0.0211548507 -4.47886086
v -0.211913407 -0.333502948 -4.11543322
v -0.49649027 -0.0298398137 -4.09181929
v -0.167244762 -0.3540214 -3.19500303
v -0.451821625 -0.0503582656 -3.17138934
v -0.138341695 -0.367328525 -2.59922624
v -0.422918528 -0.06366539 -2.57561255
v -0.336744308 -0.37208876 -2.38610578
v -0.543309093 -0.377044857 -2.16421771
v -0.815922499 -0.198874414 -4.82494736
v -0.532712817 0.00506165624 -4.96201229
v -0.515251398 -0.0211548507 -4.47886086
v -0.820034027 -0.197607547 -4.50247478
v -0.841253698 -0.198461011 -4.11421108
v -0.49649027 -0.0298398137 -4.09181929
v -0.86129719 -0.199266538 -3.74736619
v -0.451821625 -0.0503582656 -3.17138934
v -0.422918528 -0.06366539 -2.57561255
v -0.74921006 -0.288463444 -3.22322297
v -0.721256495 -0.355045706 -3.14915299
v -0.584728599 -0.371924311 -2.39347386
v -0.543309093 -0.377044857 -2.16421771
v -0.75575453 -0.350887775 -3.34023547
v -0.828841746 -0.34187147 -3.74479604
v -0.855632544 -0.30675894 -3.85245323
v -0.783054113 -0.30654639 -4.83920717
v -0.248135939 -0.298601478 -4.9856267
v -0.532712817 0.00506165624 -4.96201229
v -0.815922499 -0.198874414 -4.82494736
v -0.81587553 -0.274429679 -4.82863665
vt 0.506835938 0.559570312
vt 0.506835938 0.568847656
vt 0.515136719 0.561523438
vt 0.506835938 0.568847656
vt 0.519042969 0.571289062
vt 0.515136719 0.561523438
vt 0.188842773 0.283935547
vt 0.185668945 0.266601562
vt 0.169921875 0.283447266
vt 0.154785156 0.299804688
vt 0.19934082 0.341552734
vt 0.157104492 0.345214844
vt 0.191894531 0.347900391
vt 0.201904297 0.356201172
vt 0.207519531 0.386962891
vt 0.160400391 0.415283203
vt 0.205810547 0.416748047
vt 0.204345703 0.444824219
vt 0.161865234 0.444824219
vt 0.163208008 0.481689453
vt 0.203979492 0.470458984
vt 0.272705078 0.436767578
vt 0.272216797 0.462890625
vt 0.275634766 0.461425781
vt 0.269042969 0.437011719
vt 0.271728516 0.407714844
vt 0.268310547 0.408203125
vt 0.267333984 0.377685547
vt 0.271240234 0.385986328
vt 0.279785156 0.406494141
vt 0.279541016 0.377685547
vt 0.280029297 0.436767578
vt 0.275634766 0.461425781
vt 0.28125 0.461181641
vt 0.399902344 0.313476562
vt 0.364990234 0.354248047
vt 0.399658203 0.354003906
vt 0.364746094 0.313476562
vt 0.399902344 0.281005859
vt 0.364990234 0.280761719
vt 0.399902344 0.204345703
vt 0.366455078 0.204956055
vt 0.396728516 0.155883789
vt 0.365478516 0.161865234
vt 0.378662109 0.137084961
vt 0.356445312 0.121520996
vt 0.335693359 0.342773438
vt 0.364990234 0.354248047
vt 0.364746094 0.313476562
vt 0.335205078 0.315917969
vt 0.333007812 0.283447266
vt 0.364990234 0.280761719
vt 0.330566406 0.252685547
vt 0.366455078 0.204956055
vt 0.365478516 0.161865234
vt 0.333251953 0.206665039
vt 0.330078125 0.198486328
vt 0.346191406 0.139770508
vt 0.356445312 0.121520996
vt 0.325683594 0.215087891
vt 0.318603516 0.249267578
vt 0.319580078 0.259033203
vt 0.369384766 0.388671875
vt 0.399658203 0.354003906
vt 0.364990234 0.354248047
vt 0.360595703 0.385253906
vt 0.365478516 0.389160156
vn -0.171264648 -0.959472656 -0.223754883
vn -0.107116699 -0.994140625 -0.0202178955
vn -0.420410156 -0.748046875 -0.513671875
vn -0.107116699 -0.994140625 -0.0202178955
vn -0.112060547 -0.987304688 0.113342285
vn -0.388183594 -0.803710938 0.450683594
vn 4.17232513E-07 -0.999511719 -0.0223236084
vn 5.36441803E-07 -0.999511719 -0.0223236084
vn 3.57627869E-07 -0.999511719 -0.0223236084
vn 2.98023224E-07 -0.999511719 -0.0223236084
vn -0.171264648 -0.959472656 -0.223754883
vn 6.16908073E-05 -0.999511719 -0.0223083496
vn -0.107116699 -0.994140625 -0.0202178955
vn -0.112060547 -0.987304688 0.113342285
vn 0.000133872032 -0.999511719 -0.0222930908
vn 8.09431076E-05 -0.999511719 -0.0223846436
vn 7.9035759E-05 -0.999511719 -0.0223846436
vn -0.376464844 -0.925292969 -0.048034668
vn 1.15036964E-05 -0.999511719 -0.037902832
vn -0 -0.998535156 -0.0541687012
vn -0.324951172 -0.944335938 -0.0553588867
vn -0.920898438 -0.387207031 -0.0462036133
vn -0.324951172 -0.944335938 -0.0553588867
vn -0.706542969 -0.706054688 -0.0473327637
vn -0.376464844 -0.925292969 -0.048034668
vn -0.922363281 -0.381835938 -0.0590820312
vn -0.706054688 -0.706054688 -0.0545654297
vn -0.948242188 -0.282958984 0.143798828
vn -0.926269531 -0.376953125 -0.0146026611
vn -0.998535156 0.000422000885 -0.0546264648
vn -0.885742188 0.454345703 0.0959472656
vn -0.999511719 0.000108480453 -0.0336914062
vn -1 0 -0.0127487183
vn -1 0 -0.0127487183
vn 0.729492188 0.684082031 -0.00463867188
vn 0.729980469 0.683105469 0.0106964111
vn 0.729980469 0.683105469 0.0106964111
vn 0.729492188 0.684082031 -0.00463485718
vn 0.728515625 0.684570312 -0.02003479
vn 0.728515625 0.684570312 -0.02003479
vn 0.728515625 0.684570312 -0.0200805664
vn 0.728515625 0.684570312 -0.0200805664
vn 0.71875 0.655273438 0.233276367
vn 0.712402344 0.646484375 0.272216797
vn 0.614746094 0.530273438 0.583984375
vn 0.614746094 0.530273438 0.583984375
vn -0.537597656 0.842285156 0.0345458984
vn -0.562011719 0.82421875 0.0650634766
vn -0.500976562 0.865234375 0.0180664062
vn -0.5 0.865722656 -0.0173950195
vn -0.453857422 0.891113281 -0.00590896606
vn -0.426025391 0.904296875 0.0254516602
vn -0.885742188 0.454345703 0.0959472656
vn -0.390136719 0.919921875 0.0394592285
vn -0.80078125 0.573730469 0.172119141
vn -0.911132812 0.286621094 0.295898438
vn -0.907226562 0.187866211 0.376464844
vn -0.831054688 0.532226562 0.161987305
vn -0.831054688 0.532226562 0.161987305
vn -0.961914062 -0.215820312 0.168945312
vn -0.948242188 -0.282958984 0.143798828
vn -0.926269531 -0.376953125 -0.0146026611
vn -0.291748047 -0.136108398 -0.946777344
vn -0.291748047 -0.136108398 -0.946777344
vn -0.291748047 -0.136108398 -0.946777344
vn -0.291748047 -0.136108398 -0.946777344
vn -0.291748047 -0.136108398 -0.946777344
g CharredSpawnerFragment_08_0
f 3/3/3 2/2/2 1/1/1
f 6/6/6 5/5/5 4/4/4
f 9/9/9 8/8/8 7/7/7
f 10/10/10 9/9/9 7/7/7
f 10/10/10 7/7/7 11/11/11
f 12/12/12 10/10/10 11/11/11
f 11/11/11 13/13/13 12/12/12
f 12/12/12 13/13/13 14/14/14
f 12/12/12 14/14/14 15/15/15
f 16/16/16 12/12/12 15/15/15
f 15/15/15 17/17/17 16/16/16
f 17/17/17 18/18/18 16/16/16
f 18/18/18 19/19/19 16/16/16
f 20/20/20 19/19/19 18/18/18
f 21/21/21 20/20/20 18/18/18
f 24/24/24 23/23/23 22/22/22
f 23/23/23 25/25/25 22/22/22
f 26/26/26 22/22/22 25/25/25
f 27/27/27 26/26/26 25/25/25
f 27/27/27 28/28/28 26/26/26
f 28/28/28 29/29/29 26/26/26
f 30/30/30 26/26/26 29/29/29
f 31/31/31 30/30/30 29/29/29
f 30/30/30 32/32/32 26/26/26
f 32/32/32 22/22/22 26/26/26
f 33/33/33 22/22/22 32/32/32
f 34/34/34 33/33/33 32/32/32
f 37/37/37 36/36/36 35/35/35
f 36/36/36 38/38/38 35/35/35
f 35/35/35 38/38/38 39/39/39
f 38/38/38 40/40/40 39/39/39
f 39/39/39 40/40/40 41/41/41
f 40/40/40 42/42/42 41/41/41
f 41/41/41 42/42/42 43/43/43
f 42/42/42 44/44/44 43/43/43
f 43/43/43 44/44/44 45/45/45
f 44/44/44 46/46/46 45/45/45
f 49/49/49 48/48/48 47/47/47
f 50/50/50 49/49/49 47/47/47
f 51/51/51 49/49/49 50/50/50
f 52/52/52 49/49/49 51/51/51
f 53/53/53 52/52/52 51/51/51
f 54/54/54 52/52/52 53/53/53
f 55/55/55 54/54/54 53/53/53
f 53/53/53 56/56/56 55/55/55
f 56/56/56 57/57/57 55/55/55
f 57/57/57 58/58/58 55/55/55
f 58/58/58 59/59/59 55/55/55
f 60/60/60 56/56/56 53/53/53
f 61/61/61 60/60/60 53/53/53
f 61/61/61 53/53/53 62/62/62
f 65/65/65 64/64/64 63/63/63
f 63/63/63 66/66/66 65/65/65
f 63/63/63 67/67/67 66/66/66
