g CharredSpawnerFragment_02
v 0.513743997 0.10231299 -5.4029355
v -0.0968932211 0.148864001 -5.37337399
v -0.116623513 0.10231299 -5.4029355
v 0.529551983 0.148864001 -5.37337399
v -0.0298743844 0.280476004 -5.09325695
v 0.658690989 0.22610876 -5.20896959
v 0.246707544 0.280476004 -5.09325695
v -0.0202515125 0.296135008 -5.03108215
v 0.0229376424 0.296135008 -5.03108215
v -0.132607728 -0.10231299 -5.4029355
v 0.513743997 -0.00780785084 -5.4029355
v 0.513743997 0.10231299 -5.4029355
v -0.116623513 0.10231299 -5.4029355
v -0.197631106 -0.107173555 -5.39984894
v 0.529551983 0.148864001 -5.37337399
v 0.690407157 0.186289445 -5.21961164
v 0.658690989 0.22610876 -5.20896959
v 0.566582024 0.112222992 -5.37725019
v 0.513743997 0.10231299 -5.4029355
v 0.685124099 0.0182731878 -5.22633696
v 0.513743997 -0.00780785084 -5.4029355
v 0.566582024 6.65634871E-05 -5.37725019
v -0.0202515125 0.296135008 -5.03108215
v -0.102191105 0.0316423699 -5.03704739
v -0.11181397 0.0159833636 -5.09922266
v -0.0298743844 0.280476004 -5.09325695
v -0.197631106 -0.107173555 -5.39984894
v -0.0968932211 0.148864001 -5.37337399
v -0.116623513 0.10231299 -5.4029355
v -0.102191105 0.0316423699 -5.03704739
v 0.685124099 0.0182731878 -5.22633696
v 0.566582024 6.65634871E-05 -5.37725019
v -0.11181397 0.0159833636 -5.09922266
v 0.513743997 -0.00780785084 -5.4029355
v -0.197631106 -0.107173555 -5.39984894
v 0.658690989 0.22610876 -5.20896959
v 0.690407157 0.186289445 -5.21961164
v 0.685124099 0.0182731878 -5.22633696
v -0.102191105 0.0316423699 -5.03704739
v 0.246707544 0.280476004 -5.09325695
v 0.0229376424 0.296135008 -5.03108215
v -0.0202515125 0.296135008 -5.03108215
vt 0.472167969 0.518066406
vt 0.425537109 0.513671875
vt 0.424072266 0.518066406
vt 0.473144531 0.513671875
vt 0.430664062 0.489990234
vt 0.483154297 0.499755859
vt 0.451660156 0.489990234
vt 0.431396484 0.485107422
vt 0.434570312 0.485107422
vt 0.450927734 0.640625
vt 0.443603516 0.591308594
vt 0.435302734 0.591308594
vt 0.435302734 0.639648438
vt 0.450927734 0.645507812
vt 0.564453125 0.51953125
vt 0.562011719 0.502929688
vt 0.558105469 0.50390625
vt 0.567871094 0.517089844
vt 0.568359375 0.521972656
vt 0.573730469 0.502441406
vt 0.577148438 0.520996094
vt 0.576171875 0.516601562
vt 0.198730469 0.390869141
vt 0.219238281 0.381347656
vt 0.218505859 0.375976562
vt 0.197998047 0.385742188
vt 0.219238281 0.348632812
vt 0.199584961 0.359863281
vt 0.202392578 0.355957031
vt 0.324951172 0.387695312
vt 0.258544922 0.386230469
vt 0.264892578 0.400878906
vt 0.32421875 0.393066406
vt 0.268310547 0.404052734
vt 0.324951172 0.420410156
vt 0.26171875 0.369384766
vt 0.258789062 0.372558594
vt 0.258544922 0.386230469
vt 0.324951172 0.387695312
vt 0.296875 0.366210938
vt 0.315917969 0.365478516
vt 0.319335938 0.365722656
vn 0.184692383 0.240844727 -0.952636719
vn -0 0.716796875 -0.697265625
vn -0.00188350677 0.216064453 -0.9765625
vn 0.192504883 0.697753906 -0.689941406
vn -0 0.937988281 -0.346435547
vn 0.28515625 0.76171875 -0.58203125
vn -0 0.912109375 -0.409667969
vn -0 0.969726562 -0.244262695
vn -0 0.969726562 -0.244262695
vn -0.00296020508 0.000227928162 -1
vn 0.202880859 0.000127315521 -0.979003906
vn 0.184692383 0.240844727 -0.952636719
vn -0.00188350677 0.216064453 -0.9765625
vn -0.00296020508 0.000227928162 -1
vn 0.192504883 0.697753906 -0.689941406
vn 0.649414062 0.350341797 -0.674804688
vn 0.28515625 0.76171875 -0.58203125
vn 0.578125 0.246337891 -0.777832031
vn 0.184692383 0.240844727 -0.952636719
vn 0.786621094 2.20537186E-06 -0.617675781
vn 0.202880859 0.000127315521 -0.979003906
vn 0.614746094 1.01327896E-06 -0.788574219
vn -0.953125 0.293701172 0.0735473633
vn -0.953125 0.293701172 0.0735473633
vn -0.9453125 0.312011719 0.0932617188
vn -0.948730469 0.304443359 0.0852661133
vn -0.939453125 0.327148438 0.100524902
vn -0.938964844 0.329833984 0.0968017578
vn -0.931152344 0.360839844 0.0532226562
vn 0.0254821777 -0.989746094 0.141967773
vn 0.0254821777 -0.989746094 0.141967773
vn 0.0563049316 -0.978027344 0.200805664
vn 0.0690307617 -0.971679688 0.224975586
vn 0.122009277 -0.937988281 0.324707031
vn 0.122009277 -0.937988281 0.324707031
vn 0.236694336 -0.0946655273 0.966796875
vn 0.236694336 -0.0946655273 0.966796875
vn 0.236694336 -0.0946655273 0.966796875
vn 0.236694336 -0.0946655273 0.966796875
vn 0.236694336 -0.0946655273 0.966796875
vn 0.236694336 -0.0946655273 0.966796875
vn 0.236694336 -0.0946655273 0.966796875
g CharredSpawnerFragment_02_0
f 3/3/3 2/2/2 1/1/1
f 2/2/2 4/4/4 1/1/1
f 4/4/4 2/2/2 5/5/5
f 5/5/5 6/6/6 4/4/4
f 5/5/5 7/7/7 6/6/6
f 5/5/5 8/8/8 7/7/7
f 8/8/8 9/9/9 7/7/7
f 12/12/12 11/11/11 10/10/10
f 10/10/10 13/13/13 12/12/12
f 10/10/10 14/14/14 13/13/13
f 17/17/17 16/16/16 15/15/15
f 16/16/16 18/18/18 15/15/15
f 19/19/19 15/15/15 18/18/18
f 18/18/18 16/16/16 20/20/20
f 19/19/19 18/18/18 21/21/21
f 22/22/22 18/18/18 20/20/20
f 18/18/18 22/22/22 21/21/21
f 25/25/25 24/24/24 23/23/23
f 26/26/26 25/25/25 23/23/23
f 27/27/27 25/25/25 26/26/26
f 28/28/28 27/27/27 26/26/26
f 29/29/29 27/27/27 28/28/28
f 32/32/32 31/31/31 30/30/30
f 33/33/33 32/32/32 30/30/30
f 34/34/34 32/32/32 33/33/33
f 35/35/35 34/34/34 33/33/33
f 38/38/38 37/37/37 36/36/36
f 36/36/36 39/39/39 38/38/38
f 36/36/36 40/40/40 39/39/39
f 40/40/40 41/41/41 39/39/39
f 41/41/41 42/42/42 39/39/39
