g CharredSpawnerFragment_09
v 0.147249073 -0.280476004 -5.09325695
v 0.749582946 -0.280476004 -5.09325695
v 0.644734085 -0.217760459 -5.22673798
v 0.780601919 -0.296135008 -5.03108215
v -0.0820726454 -0.296135008 -5.03108215
v 0.787339985 -0.324817985 -4.50247478
v -0.248135939 -0.298601478 -4.9856267
v -0.230674505 -0.324817985 -4.50247478
v 0.810018897 -0.334139735 -4.08512545
v -0.211913407 -0.333502948 -4.11543322
v -0.167244762 -0.3540214 -3.19500303
v 0.834005892 -0.343999118 -3.64370418
v 0.376272917 -0.354981422 -3.15201616
v -0.138341695 -0.367328525 -2.59922624
v 0.67890805 -0.179411232 -5.23425055
v 0.644734085 -0.217760459 -5.22673798
v 0.749582946 -0.280476004 -5.09325695
v 0.792702913 -0.247477978 -5.08938122
v 0.685124099 0.0182731878 -5.22633696
v 0.792702913 0.0347960144 -5.08938122
v 0.780601919 -0.296135008 -5.03108215
v 0.813294947 0.0381447971 -5.03103685
v 0.813294947 -0.263453007 -5.03103685
v 0.787339985 -0.324817985 -4.50247478
v 0.820034027 0.029507 -4.50247478
v 0.817826033 0.0418683179 -4.50262737
v 0.820034027 -0.292133987 -4.50247478
v 0.810018897 -0.334139735 -4.08512545
v 0.835438848 0.0461267233 -4.21205664
v 0.817826033 0.0418683179 -4.50262737
v 0.842123985 -0.301647574 -4.07936954
v 0.854638875 0.0510168076 -3.85251498
v 0.862460911 -0.310406208 -3.6898396
v 0.834005892 -0.343999118 -3.64370418
v 0.67890805 -0.179411232 -5.23425055
v 0.685124099 0.0182731878 -5.22633696
v -0.248135939 -0.298601478 -4.9856267
v 0.644734085 -0.217760459 -5.22673798
v 0.147249073 -0.280476004 -5.09325695
v -0.0820726454 -0.296135008 -5.03108215
v 0.685124099 0.0182731878 -5.22633696
v -0.230674505 -0.324817985 -4.50247478
v -0.248135939 -0.298601478 -4.9856267
v 0.792702913 0.0347960144 -5.08938122
v 0.813294947 0.0381447971 -5.03103685
v 0.817826033 0.0418683179 -4.50262737
v -0.211913407 -0.333502948 -4.11543322
v 0.835438848 0.0461267233 -4.21205664
v 0.854638875 0.0510168076 -3.85251498
v -0.167244762 -0.3540214 -3.19500303
v -0.138341695 -0.367328525 -2.59922624
v 0.376272917 -0.354981422 -3.15201616
v -0.138341695 -0.367328525 -2.59922624
v 0.854638875 0.0510168076 -3.85251498
v 0.834005892 -0.343999118 -3.64370418
v 0.862460911 -0.310406208 -3.6898396
vt 0.133056641 0.489990234
vt 0.0871582031 0.489990234
vt 0.0951538086 0.501464844
vt 0.084777832 0.485107422
vt 0.150512695 0.485107422
vt 0.0842895508 0.444824219
vt 0.163208008 0.481689453
vt 0.161865234 0.444824219
vt 0.0825195312 0.413085938
vt 0.160400391 0.415283203
vt 0.157104492 0.345214844
vt 0.0806884766 0.379394531
vt 0.115600586 0.341796875
vt 0.154785156 0.299804688
vt 0.587890625 0.502441406
vt 0.591796875 0.503417969
vt 0.595703125 0.490478516
vt 0.591796875 0.488525391
vt 0.573730469 0.502441406
vt 0.571777344 0.489990234
vt 0.596191406 0.484863281
vt 0.571289062 0.485595703
vt 0.592773438 0.484130859
vt 0.599609375 0.444824219
vt 0.5703125 0.444580078
vt 0.569335938 0.445556641
vt 0.596191406 0.444580078
vt 0.600585938 0.412109375
vt 0.569335938 0.422119141
vt 0.569335938 0.443847656
vt 0.596679688 0.411621094
vt 0.568847656 0.393798828
vt 0.59765625 0.381103516
vt 0.601074219 0.377685547
vt 0.620605469 0.328857422
vt 0.604980469 0.333007812
vt 0.65234375 0.401611328
vt 0.624511719 0.330566406
vt 0.641113281 0.369628906
vt 0.647949219 0.388183594
vt 0.604980469 0.333007812
vt 0.625 0.430664062
vt 0.65234375 0.401611328
vt 0.590820312 0.335693359
vt 0.586425781 0.338134766
vt 0.557128906 0.370117188
vt 0.603027344 0.453613281
vt 0.540527344 0.386962891
vt 0.51953125 0.407714844
vt 0.55078125 0.5078125
vt 0.517089844 0.54296875
vt 0.502441406 0.482910156
vt 0.517089844 0.54296875
vt 0.51953125 0.407714844
vt 0.489990234 0.429443359
vt 0.491699219 0.424560547
vn -0 -0.965332031 -0.261230469
vn 0.298339844 -0.830566406 -0.469970703
vn 0.234741211 -0.795898438 -0.558105469
vn 0.391845703 -0.895019531 -0.213867188
vn -0 -0.997558594 -0.0707397461
vn 0.377929688 -0.924804688 -0.0477600098
vn -0 -0.998535156 -0.0541687012
vn 9.95397568E-06 -0.999023438 -0.0387268066
vn 2.09212303E-05 -0.999511719 -0.0223388672
vn 2.08616257E-05 -0.999511719 -0.0223388672
vn 1.16229057E-05 -0.999511719 -0.0223236084
vn 2.13980675E-05 -0.999511719 -0.0223083496
vn 1.53183937E-05 -0.999511719 -0.0223083496
vn 1.78813934E-07 -0.999511719 -0.0223236084
vn 0.688476562 -0.275878906 -0.670410156
vn 0.234741211 -0.795898438 -0.558105469
vn 0.298339844 -0.830566406 -0.469970703
vn 0.779785156 -0.337890625 -0.52734375
vn 0.786621094 -1.37090683E-06 -0.617675781
vn 0.880371094 -6.55651093E-07 -0.474853516
vn 0.391845703 -0.895019531 -0.213867188
vn 0.985351562 0.00179290771 -0.171875
vn 0.895996094 -0.386474609 -0.218994141
vn 0.377929688 -0.924804688 -0.0477600098
vn 0.999511719 0.00283813477 -0.0326538086
vn 0.999511719 0.00284194946 -0.0325622559
vn 0.921875 -0.384521484 -0.0453491211
vn 0.71484375 -0.697265625 -0.0537109375
vn 0.998535156 0.000755786896 -0.0526733398
vn 0.999511719 0.00284194946 -0.0325622559
vn 0.924804688 -0.375976562 -0.057434082
vn 0.998535156 -0.00152778625 -0.0527038574
vn 0.863769531 -0.500976562 -0.0570983887
vn 0.719726562 -0.692382812 -0.053894043
vn -0.264404297 0.046875 -0.963378906
vn -0.264404297 0.046875 -0.963378906
vn -0.264404297 0.046875 -0.963378906
vn -0.264404297 0.046875 -0.963378906
vn -0.264404297 0.046875 -0.963378906
vn -0.264404297 0.046875 -0.963378906
vn -0.282958984 0.954589844 0.0944213867
vn -0.320068359 0.946289062 0.0422973633
vn -0.306396484 0.949707031 0.0626220703
vn -0.290771484 0.953613281 0.0774536133
vn -0.314697266 0.948730469 0.0299072266
vn -0.334228516 0.942382812 0.00485610962
vn -0.338867188 0.940429688 0.0317687988
vn -0.340332031 0.940429688 0.00612640381
vn -0.343505859 0.938964844 0.0202178955
vn -0.347167969 0.937011719 0.0377502441
vn -0.347167969 0.937011719 0.0377807617
vn 0.692871094 0.308349609 0.651855469
vn 0.692871094 0.308349609 0.651855469
vn 0.692871094 0.308349609 0.651855469
vn 0.692871094 0.308349609 0.651855469
vn 0.692871094 0.308349609 0.651855469
g CharredSpawnerFragment_09_0
f 3/3/3 2/2/2 1/1/1
f 2/2/2 4/4/4 1/1/1
f 4/4/4 5/5/5 1/1/1
f 5/5/5 4/4/4 6/6/6
f 6/6/6 7/7/7 5/5/5
f 6/6/6 8/8/8 7/7/7
f 8/8/8 6/6/6 9/9/9
f 10/10/10 8/8/8 9/9/9
f 11/11/11 10/10/10 9/9/9
f 9/9/9 12/12/12 11/11/11
f 12/12/12 13/13/13 11/11/11
f 14/14/14 11/11/11 13/13/13
f 17/17/17 16/16/16 15/15/15
f 18/18/18 17/17/17 15/15/15
f 15/15/15 19/19/19 18/18/18
f 19/19/19 20/20/20 18/18/18
f 17/17/17 18/18/18 21/21/21
f 20/20/20 22/22/22 18/18/18
f 18/18/18 23/23/23 21/21/21
f 22/22/22 23/23/23 18/18/18
f 24/24/24 21/21/21 23/23/23
f 23/23/23 22/22/22 25/25/25
f 22/22/22 26/26/26 25/25/25
f 27/27/27 24/24/24 23/23/23
f 25/25/25 27/27/27 23/23/23
f 28/28/28 24/24/24 27/27/27
f 27/27/27 25/25/25 29/29/29
f 25/25/25 30/30/30 29/29/29
f 29/29/29 31/31/31 27/27/27
f 31/31/31 28/28/28 27/27/27
f 31/31/31 29/29/29 32/32/32
f 33/33/33 31/31/31 32/32/32
f 31/31/31 33/33/33 28/28/28
f 33/33/33 34/34/34 28/28/28
f 37/37/37 36/36/36 35/35/35
f 35/35/35 38/38/38 37/37/37
f 38/38/38 39/39/39 37/37/37
f 39/39/39 40/40/40 37/37/37
f 43/43/43 42/42/42 41/41/41
f 41/41/41 42/42/42 44/44/44
f 45/45/45 44/44/44 42/42/42
f 42/42/42 46/46/46 45/45/45
f 47/47/47 46/46/46 42/42/42
f 48/48/48 46/46/46 47/47/47
f 48/48/48 47/47/47 49/49/49
f 49/49/49 47/47/47 50/50/50
f 51/51/51 49/49/49 50/50/50
f 54/54/54 53/53/53 52/52/52
f 52/52/52 55/55/55 54/54/54
f 55/55/55 56/56/56 54/54/54
