g Charred_Skull
v 0.00488620251 -0.152001828 0.0541025996
v 0.00371447857 -0.149740905 0.0601175167
v 0.00351688312 -0.149325684 0.0611043535
v 0.00351688312 -0.149325684 0.0611043535
v 0.00371447857 -0.149740905 0.0601175167
v 0.00488620251 -0.152001828 0.0541025996
v -0 -0.0480601788 -0.0349224433
v -0 -0.0475933552 -0.0225419141
v 0.0626523346 -0.0477035046 -0.0139306206
v 0.0609425195 -0.0457818508 -0.0217133518
v -0 -0.0485267639 -0.0473029688
v 0.0654780716 -0.0417077541 -0.0132122179
v 0.0592327192 -0.0438599586 -0.0294960849
v -0 -0.0368981361 -0.0818151906
v 0.070909217 -0.0402197838 -0.0184853189
v 0.0763690993 -0.0100383759 -0.00286238384
v 0.075909324 -0.0141453743 -0.00235950015
v 0.0768288895 -0.00593161583 -0.003365268
v 0.0763403699 -0.0387318134 -0.0237584189
v 0.0576522201 -0.0412354469 -0.0662593096
v -0 -0.00757884979 -0.10048417
v 0.0790607482 -0.00485563278 -0.023356108
v 0.077384457 -0.0065574646 0.00881889742
v 0.083189182 0.0403642654 -0.0236913729
v 0.072681278 -0.0363819599 -0.0629450604
v 0.0758997425 -0.00485563278 -0.0629450604
v 0.0552096404 -0.00485563278 -0.084669672
v 0.0581598952 0.0476667881 -0.0855125859
v -0 0.0454704762 -0.100886464
v -0 0.0966637135 -0.0761254281
v 0.0800281912 0.0384097099 -0.0606461763
v 0.0673650801 0.0889000893 -0.0510770082
v 0.0663689002 0.102494478 -0.0240841005
v 0.0778346583 0.0212574005 0.00787060056
v 0.0690317899 -0.00565719604 0.0149301384
v 0.0345961824 0.114453077 -0.023356108
v -0 0.119471312 -0.0233561061
v 0.0808998644 0.0626447201 0.00931699108
v 0.0587537959 0.0131971836 0.0450265557
v 0.0466654152 -0.00160527229 0.034652777
v 0.0614549965 0.0555620193 0.0651610866
v 0.0705739781 0.0131971836 0.0473733507
v 0.035429541 0.113903999 0.0375263952
v -0 0.118922234 0.0375263952
v 0.0624799207 0.0922164917 0.023225328
v 0.0267703552 0.090382576 0.0711861178
v -0 0.0895261765 0.0752762407
v 0.0252986755 0.0443229675 0.0854201317
v -0 0.0517516136 0.0848741531
v -0 0.0414843559 0.0880830362
v 0.0602672324 0.0870552063 0.0471626222
v 0.0598840788 0.0719676018 0.0625173524
v 0.0336668305 0.0583519936 0.0838884935
v 0.0205441751 0.0307888985 0.0856979191
v -0 0.0163238049 0.0980760679
v 0.0375656039 0.0564339161 0.0878531411
v 0.0328617617 0.034103632 0.0878531411
v 0.0470293574 0.041359663 0.0803721324
v 0.0187433697 0.0232996941 0.0843473151
v 0.0240020994 0.0234315395 0.0775080994
v 0.011253844 -0.00075173378 0.0858423486
v 0.0545385741 0.0524220467 0.0784276575
v 0.0704015568 0.040627718 0.0718279034
v 0.0204579663 0.016623497 0.081406638
v 0.0312065706 0.0159540176 0.0759084448
v 0.0165302884 -0.0139710903 0.082611613
v 0.0687923282 0.0465466976 0.0627568141
v 0.0730931833 0.0131971836 0.0542700514
v 0.0745204166 0.0141634941 0.0610518008
v 0.0643381998 0.00100851059 0.0649790913
v 0.0377556086 0.00270032883 0.0744045749
v 0.0404089205 0.00670862198 0.0724409297
v 0.0287191141 -0.00687932968 0.0776947588
v 0.0296882 -0.0230331421 0.0794307366
v 0.0195757505 -0.0290949345 0.0893283039
v 0.0534950569 -0.00901722908 0.0710328519
v 0.0532076918 -0.00550341606 0.0678622946
v 0.0521837659 -0.0210335255 0.0636636913
v 0.0710433275 -0.0020005703 0.0473733507
v 0.0740702152 -0.0142440796 0.0614924282
v 0.0769246817 -0.00950050354 0.0397678316
v 0.062527813 -0.0171432495 0.0344037339
v 0.0623076968 -0.0250632763 0.0753145888
v 0.0711391121 -0.00950050354 0.040467076
v 0.0682367533 -0.00986289978 0.0283403844
v 0.0718096197 -0.00830340385 0.0148151945
v 0.077384457 -0.0065574646 0.00881889742
v 0.0690317899 -0.00565719604 0.0149301384
v 0.0606937818 -0.0309598446 0.0662924871
v 0.0504854321 -0.0263354778 0.0621436313
v 0.0728058144 -0.0240063667 0.0743949935
v 0.0715270564 -0.0286841393 0.0672396719
v 0.0775185674 -0.0189988613 0.0634369105
v 0.0765990019 -0.0151336193 0.0374832973
v 0.0745443627 -0.0211181641 0.0524692535
v 0.0762733296 -0.0207669735 0.0351987667
v 0.0778969228 -0.024456501 0.056281589
v 0.0702482983 -0.0333621502 0.0600843504
v 0.0766468942 -0.0120096207 0.00958519801
v 0.0750185028 -0.0279922485 0.0434460714
v 0.0590794757 -0.0368542671 0.0572681986
v 0.0782752857 -0.0299141407 0.0491262563
v 0.061790254 -0.0241820812 0.0477277637
v 0.0487913229 -0.0316493511 0.0606513247
v 0.075909324 -0.0174615383 0.0103514977
v 0.0332785174 -0.0380699635 0.0809915066
v 0.0718096197 -0.00830340385 0.0148151945
v 0.0682367533 -0.00986289978 0.0283403844
v 0.062527813 -0.0171432495 0.0344037339
v 0.0474796034 -0.028717041 0.0477086157
v 0.0404583812 -0.0164842606 0.036271587
v 0.0422591865 -0.0436294079 0.0337715372
v 0.0454106219 -0.053457737 0.0452947691
v 0.0362245776 -0.0480766296 0.0339343771
v 0.038715262 -0.058270216 0.0450936109
v 0.0386279635 -0.0598239899 0.0591826141
v 0.0453797132 -0.0553071499 0.060972888
v 0.0361018367 -0.0523395538 0.0768852755
v 0.0376806781 -0.0596418381 0.072228089
v 0.0357431434 -0.0603978634 0.069827795
v 0.02953225 -0.061570406 0.0792508498
v 0.0348193459 -0.0573337078 0.0870417356
v 0.0276712552 -0.0435168743 0.0913092196
v 0.0100291343 -0.0291275978 0.0934979096
v 0.0204440635 -0.0570366383 0.0938431323
v 0.0193986166 -0.0621664524 0.0824783593
v 0.0155012757 -0.0428450108 0.0966804475
v -0 -0.056835413 0.0985029042
v -0 -0.0620865822 0.0878058821
v -0 -0.0426716805 0.100886464
v -0 -0.0292019844 0.0983410031
v -0 -0.0111882687 0.0913863182
v 0.011253844 -0.00075173378 0.0858423486
v -0 0.00781965256 0.0943246409
v -0 0.0163238049 0.0980760679
v 0.0165302884 -0.0139710903 0.082611613
v 0.0140407989 -0.0114183426 0.0676025078
v -0 -0.00163865089 0.047579091
v 0.0192953479 -0.0209012032 0.0693766177
v 0.0195757505 -0.0290949345 0.0893283039
v 0.0127571495 -0.0237445831 0.0708352849
v -0 -0.0154628754 0.0657925829
v 0.0100291343 -0.0291275978 0.0934979096
v -0 -0.015004158 0.0735049024
v -0 -0.0111882687 0.0913863182
v 0.00351688312 -0.149325684 0.0611043535
v 0.00244978955 -0.142669067 0.0628599226
v -0.00104688189 -0.120768018 0.0685409307
v 0.0361794718 -0.114570938 0.0597199127
v -0.000669387635 -0.114767708 0.0611555092
v 0.0327137001 -0.107457995 0.059512876
v 0.0628102198 -0.0731600448 0.0172624849
v 0.0551354624 -0.0672678798 0.0244326536
v 0.0582208745 -0.0413958058 0.0174414925
v 0.050160192 -0.0439894758 0.0209387615
v 0.0505839288 -0.0341009945 0.0198921934
v 0.0551650785 -0.0322435945 0.0177569129
v 0.0504192561 -0.0333334468 0.0090096062
v 0.0588068664 -0.0330153033 0.0100637265
v 0.0502981804 -0.0432061553 0.00285768509
v 0.0642892197 -0.0426750183 0.00462261168
v 0.0575203113 -0.0243847482 -0.00829378329
v 0.0703575835 -0.0439542383 -0.00819625799
v 0.0637444854 -0.0241512693 -0.00751061877
v 0.0604306459 -0.0243496262 -0.0159224272
v 0.0664386004 -0.0247130822 -0.0132082505
v 0.0568515472 -0.043129757 -0.0143062472
v 0.0672483891 -0.087160565 0.0014283749
v 0.059014421 -0.0944585577 -0.00747752516
v 0.037088614 -0.132739842 0.050936874
v 0.0365561508 -0.139536962 0.0462902188
v 0.00488620251 -0.152001828 0.0541025996
v 0.0327137001 -0.107457995 0.059512876
v -0.000669387635 -0.114767708 0.0611555092
v 0.00488620251 -0.152001828 0.0541025996
v 0.0365561508 -0.139536962 0.0462902188
v 0.0551354624 -0.0672678798 0.0244326536
v 0.059014421 -0.0944585577 -0.00747752516
v 0.0568515472 -0.043129757 -0.0143062472
v 0.050160192 -0.0439894758 0.0209387615
v 0.0502981804 -0.0432061553 0.00285768509
v 0.0604306459 -0.0243496262 -0.0159224272
v 0.0575203113 -0.0243847482 -0.00829378329
v 0.0504192561 -0.0333334468 0.0090096062
v 0.0505839288 -0.0341009945 0.0198921934
v -0 -0.0480601788 -0.0349224433
v -0.0626523346 -0.0477035046 -0.0139306206
v -0 -0.0475933552 -0.0225419141
v -0.0609425195 -0.0457818508 -0.0217133518
v -0 -0.0485267639 -0.0473029688
v -0.0654780716 -0.0417077541 -0.0132122179
v -0.0592327192 -0.0438599586 -0.0294960849
v -0 -0.0368981361 -0.0818151906
v -0.070909217 -0.0402197838 -0.0184853189
v -0.0763690993 -0.0100383759 -0.00286238384
v -0.075909324 -0.0141453743 -0.00235950015
v -0.0768288895 -0.00593161583 -0.003365268
v -0.0763403699 -0.0387318134 -0.0237584189
v -0.0576522201 -0.0412354469 -0.0662593096
v -0 -0.00757884979 -0.10048417
v -0.0790607482 -0.00485563278 -0.023356108
v -0.077384457 -0.0065574646 0.00881889742
v -0.083189182 0.0403642654 -0.0236913729
v -0.072681278 -0.0363819599 -0.0629450604
v -0.0758997425 -0.00485563278 -0.0629450604
v -0.0552096404 -0.00485563278 -0.084669672
v -0.0581598952 0.0476667881 -0.0855125859
v -0 0.0454704762 -0.100886464
v -0 0.0966637135 -0.0761254281
v -0.0800281912 0.0384097099 -0.0606461763
v -0.0673650801 0.0889000893 -0.0510770082
v -0.0663689002 0.102494478 -0.0240841005
v -0.0778346583 0.0212574005 0.00787060056
v -0.0690317899 -0.00565719604 0.0149301384
v -0.0345961824 0.114453077 -0.023356108
v -0 0.119471312 -0.0233561061
v -0.0808998644 0.0626447201 0.00931699108
v -0.0587537959 0.0131971836 0.0450265557
v -0.0466654152 -0.00160527229 0.034652777
v -0.0614549965 0.0555620193 0.0651610866
v -0.0705739781 0.0131971836 0.0473733507
v -0.035429541 0.113903999 0.0375263952
v -0 0.118922234 0.0375263952
v -0.0624799207 0.0922164917 0.023225328
v -0.0267703552 0.090382576 0.0711861178
v -0 0.0895261765 0.0752762407
v -0.0252986755 0.0443229675 0.0854201317
v -0 0.0517516136 0.0848741531
v -0 0.0414843559 0.0880830362
v -0.0602672324 0.0870552063 0.0471626222
v -0.0598840788 0.0719676018 0.0625173524
v -0.0336668305 0.0583519936 0.0838884935
v -0.0205441751 0.0307888985 0.0856979191
v -0 0.0163238049 0.0980760679
v -0.0375656039 0.0564339161 0.0878531411
v -0.0328617617 0.034103632 0.0878531411
v -0.0470293574 0.041359663 0.0803721324
v -0.0187433697 0.0232996941 0.0843473151
v -0.0240020994 0.0234315395 0.0775080994
v -0.011253844 -0.00075173378 0.0858423486
v -0.0545385741 0.0524220467 0.0784276575
v -0.0704015568 0.040627718 0.0718279034
v -0.0204579663 0.016623497 0.081406638
v -0.0312065706 0.0159540176 0.0759084448
v -0.0165302884 -0.0139710903 0.082611613
v -0.0687923282 0.0465466976 0.0627568141
v -0.0730931833 0.0131971836 0.0542700514
v -0.0745204166 0.0141634941 0.0610518008
v -0.0643381998 0.00100851059 0.0649790913
v -0.0377556086 0.00270032883 0.0744045749
v -0.0404089205 0.00670862198 0.0724409297
v -0.0287191141 -0.00687932968 0.0776947588
v -0.0296882 -0.0230331421 0.0794307366
v -0.0195757505 -0.0290949345 0.0893283039
v -0.0534950569 -0.00901722908 0.0710328519
v -0.0532076918 -0.00550341606 0.0678622946
v -0.0521837659 -0.0210335255 0.0636636913
v -0.0710433275 -0.0020005703 0.0473733507
v -0.0740702152 -0.0142440796 0.0614924282
v -0.0769246817 -0.00950050354 0.0397678316
v -0.062527813 -0.0171432495 0.0344037339
v -0.0623076968 -0.0250632763 0.0753145888
v -0.0711391121 -0.00950050354 0.040467076
v -0.0682367533 -0.00986289978 0.0283403844
v -0.0718096197 -0.00830340385 0.0148151945
v -0.077384457 -0.0065574646 0.00881889742
v -0.0690317899 -0.00565719604 0.0149301384
v -0.0606937818 -0.0309598446 0.0662924871
v -0.0504854321 -0.0263354778 0.0621436313
v -0.0728058144 -0.0240063667 0.0743949935
v -0.0715270564 -0.0286841393 0.0672396719
v -0.0775185674 -0.0189988613 0.0634369105
v -0.0765990019 -0.0151336193 0.0374832973
v -0.0745443627 -0.0211181641 0.0524692535
v -0.0762733296 -0.0207669735 0.0351987667
v -0.0778969228 -0.024456501 0.056281589
v -0.0702482983 -0.0333621502 0.0600843504
v -0.0766468942 -0.0120096207 0.00958519801
v -0.0750185028 -0.0279922485 0.0434460714
v -0.0590794757 -0.0368542671 0.0572681986
v -0.0782752857 -0.0299141407 0.0491262563
v -0.061790254 -0.0241820812 0.0477277637
v -0.0487913229 -0.0316493511 0.0606513247
v -0.075909324 -0.0174615383 0.0103514977
v -0.0332785174 -0.0380699635 0.0809915066
v -0.0718096197 -0.00830340385 0.0148151945
v -0.0682367533 -0.00986289978 0.0283403844
v -0.062527813 -0.0171432495 0.0344037339
v -0.0474796034 -0.028717041 0.0477086157
v -0.0404583812 -0.0164842606 0.036271587
v -0.0422591865 -0.0436294079 0.0337715372
v -0.0454106219 -0.053457737 0.0452947691
v -0.0362245776 -0.0480766296 0.0339343771
v -0.038715262 -0.058270216 0.0450936109
v -0.0386279635 -0.0598239899 0.0591826141
v -0.0453797132 -0.0553071499 0.060972888
v -0.0361018367 -0.0523395538 0.0768852755
v -0.0376806781 -0.0596418381 0.072228089
v -0.0357431434 -0.0603978634 0.069827795
v -0.02953225 -0.061570406 0.0792508498
v -0.0348193459 -0.0573337078 0.0870417356
v -0.0276712552 -0.0435168743 0.0913092196
v -0.0100291343 -0.0291275978 0.0934979096
v -0.0204440635 -0.0570366383 0.0938431323
v -0.0193986166 -0.0621664524 0.0824783593
v -0.0155012757 -0.0428450108 0.0966804475
v -0 -0.056835413 0.0985029042
v -0 -0.0620865822 0.0878058821
v -0 -0.0426716805 0.100886464
v -0 -0.0292019844 0.0983410031
v -0 -0.0111882687 0.0913863182
v -0.011253844 -0.00075173378 0.0858423486
v -0 0.0163238049 0.0980760679
v -0 0.00781965256 0.0943246409
v -0.0165302884 -0.0139710903 0.082611613
v -0.0140407989 -0.0114183426 0.0676025078
v -0 -0.00163865089 0.047579091
v -0.0192953479 -0.0209012032 0.0693766177
v -0.0195757505 -0.0290949345 0.0893283039
v -0.0127571495 -0.0237445831 0.0708352849
v -0 -0.0154628754 0.0657925829
v -0.0100291343 -0.0291275978 0.0934979096
v -0 -0.015004158 0.0735049024
v -0 -0.0111882687 0.0913863182
v -0.0479027778 -0.0550802648 -0.0118088722
v -0.0557876974 -0.0380855575 -0.0252166167
v -0.0563013703 -0.0384644531 -0.0333566442
v -0.0490628481 -0.0559365489 -0.0301248282
v -0.0528005101 -0.0564391203 0.00556132523
v -0.0520899333 -0.0457285009 -0.00630039303
v -0.0551987775 -0.0468918681 0.00409328565
v -0.0529988892 -0.0803431049 0.0082825236
v -0.0410678461 -0.106560148 -0.0224250592
v -0.0251846649 -0.147002459 0.0370690748
v -0.0329063907 -0.115392536 0.0497123562
v -0.000669387635 -0.114767708 0.0611555092
v 0.00207755296 -0.13328442 0.0577543899
v 0.00488620251 -0.152001828 0.0541025996
v 0.00488620251 -0.152001828 0.0541025996
v -0.0251846649 -0.147002459 0.0370690748
v -0.0286029838 -0.14068304 0.0411256738
v 0.00351688312 -0.149325684 0.0611043535
v 0.00244978955 -0.142669067 0.0628599226
v -0.0410678461 -0.106560148 -0.0224250592
v -0.00104688189 -0.120768018 0.0685409307
v -0.0529829077 -0.10169851 -0.0165284649
v -0.0490628481 -0.0559365489 -0.0301248282
v -0.0345260687 -0.123120397 0.0491598733
v -0.000669387635 -0.114767708 0.0611555092
v -0.0329063907 -0.115392536 0.0497123562
v -0.0566873588 -0.0876092687 -0.000584773719
v -0.0529988892 -0.0803431049 0.0082825236
v -0.063174732 -0.0601004958 -0.0281396359
v -0.0598845333 -0.0556766987 -0.000197842717
v -0.0528005101 -0.0564391203 0.00556132523
v -0.0551987775 -0.0468918681 0.00409328565
v -0.0592717305 -0.0460808836 0.000665493309
v -0.0520899333 -0.0457285009 -0.00630039303
v -0.0615296215 -0.0578885861 -0.0141687421
v -0.0602580011 -0.047412198 -0.0077189072
v -0.0479027778 -0.0550802648 -0.0118088722
v -0.0557876974 -0.0380855575 -0.0252166167
v -0.0618486106 -0.0393375419 -0.0262682568
v -0.0563013703 -0.0384644531 -0.0333566442
v -0.0625785142 -0.040313378 -0.0324772745
v -0.0404089205 0.00670862198 0.0724409297
v -0.0532076918 -0.00550341606 0.0678622946
v -0.0403146967 0.0210046768 0.0525554568
v -0.0312065706 0.0159540176 0.0759084448
v -0.0240020994 0.0234315395 0.0775080994
v -0.0643381998 0.00100851059 0.0649790913
v -0.0205441751 0.0307888985 0.0856979191
v -0.0686486438 0.0148444176 0.0565593652
v -0.0745204166 0.0141634941 0.0610518008
v -0.0636293739 0.034412384 0.0652951896
v -0.0704015568 0.040627718 0.0718279034
v -0.0481125861 0.0352089405 0.0722685233
v -0.0470293574 0.041359663 0.0803721324
v -0.0337433442 0.0321125984 0.0797495171
v -0.0328617617 0.034103632 0.0878531411
v 0.0404089205 0.00670862198 0.0724409297
v 0.0403146967 0.0210046768 0.0525554568
v 0.0532076918 -0.00550341606 0.0678622946
v 0.0312065706 0.0159540176 0.0759084448
v 0.0240020994 0.0234315395 0.0775080994
v 0.0643381998 0.00100851059 0.0649790913
v 0.0205441751 0.0307888985 0.0856979191
v 0.0686486438 0.0148444176 0.0565593652
v 0.0745204166 0.0141634941 0.0610518008
v 0.0636293739 0.034412384 0.0652951896
v 0.0704015568 0.040627718 0.0718279034
v 0.0481125861 0.0352089405 0.0722685233
v 0.0470293574 0.041359663 0.0803721324
v 0.0337433442 0.0321125984 0.0797495171
v 0.0328617617 0.034103632 0.0878531411
v -0.0781220272 -0.0170333385 0.00497782137
v -0.0800425485 -0.0147438049 0.00484371837
v -0.0777197108 -0.0170223713 0.00152947463
v -0.075909324 -0.0141453743 -0.00235950015
v -0.0798414052 -0.014288187 0.00139537163
v -0.0763690993 -0.0100383759 -0.00286238384
v -0.0819630921 -0.0124542713 0.00470961537
v -0.0768288895 -0.00593161583 -0.003365268
v -0.0819630921 -0.0115537643 0.00126126863
v 0.0781220272 -0.0170333385 0.00497782137
v 0.0800425485 -0.0147438049 0.00484371837
v 0.0777197108 -0.0170223713 0.00152947463
v 0.075909324 -0.0141453743 -0.00235950015
v 0.0798414052 -0.014288187 0.00139537163
v 0.0763690993 -0.0100383759 -0.00286238384
v 0.0819630921 -0.0124542713 0.00470961537
v 0.0768288895 -0.00593161583 -0.003365268
v 0.0819630921 -0.0115537643 0.00126126863
vt 0.0688411295 0.110298507
vt 0.0710619986 0.110387139
vt 0.0714313686 0.110401891
vt 0.0714313686 0.110401891
vt 0.0710619986 0.110387139
vt 0.0688411295 0.110298507
vt 0.220683575 0.169109076
vt 0.220428914 0.165363848
vt 0.200885922 0.163965106
vt 0.201805636 0.166452289
vt 0.22095415 0.172952533
vt 0.198793843 0.164788961
vt 0.202821657 0.168718934
vt 0.219514817 0.185381055
vt 0.198255852 0.167113274
vt 0.187871143 0.166611046
vt 0.188945875 0.165955961
vt 0.186696306 0.167273402
vt 0.197779253 0.16915381
vt 0.204219863 0.177800298
vt 0.214763939 0.196076959
vt 0.189756677 0.172988594
vt 0.184397697 0.164244235
vt 0.180556521 0.18117848
vt 0.200790882 0.176846594
vt 0.195925102 0.181487024
vt 0.200913683 0.186762124
vt 0.191034481 0.195148796
vt 0.20230107 0.209542334
vt 0.182699993 0.217387229
vt 0.187581614 0.187541723
vt 0.17794098 0.195590734
vt 0.170798659 0.193933696
vt 0.17773141 0.170314848
vt 0.181907132 0.161947668
vt 0.166285858 0.2023651
vt 0.161754489 0.213223755
vt 0.169776976 0.180072576
vt 0.167908609 0.157460928
vt 0.176267132 0.153876543
vt 0.153780565 0.169238627
vt 0.163651943 0.15506646
vt 0.151117563 0.192095011
vt 0.14214462 0.201567441
vt 0.160653844 0.18616879
vt 0.141356051 0.18215847
vt 0.13146235 0.185484201
vt 0.136512995 0.164868772
vt 0.126253396 0.169551343
vt 0.125462949 0.164817899
vt 0.154839292 0.181418091
vt 0.152681693 0.174947858
vt 0.140969217 0.169267625
vt 0.134228796 0.159077495
vt 0.122670487 0.152565718
vt 0.141842961 0.167387843
vt 0.139189526 0.160738438
vt 0.145150006 0.162620097
vt 0.133220881 0.155595809
vt 0.13659969 0.155089974
vt 0.130230382 0.144665033
vt 0.147966802 0.166595429
vt 0.152985036 0.16218394
vt 0.134566188 0.152438223
vt 0.139815688 0.152330995
vt 0.13339214 0.138865381
vt 0.155123055 0.164236695
vt 0.160804465 0.154289186
vt 0.157928377 0.154488057
vt 0.155082673 0.148224026
vt 0.143009678 0.146701217
vt 0.144208357 0.148686886
vt 0.139039278 0.142230779
vt 0.139423251 0.134925365
vt 0.133605048 0.131814778
vt 0.150993347 0.142474562
vt 0.15089938 0.14457348
vt 0.151823416 0.136398882
vt 0.165459394 0.147636771
vt 0.159509853 0.1421538
vt 0.169064298 0.142448694
vt 0.175768703 0.146513849
vt 0.156012729 0.138814121
vt 0.170232952 0.145090491
vt 0.175425708 0.143060237
vt 0.179534957 0.139368415
vt 0.180695191 0.136360049
vt 0.180630773 0.140360773
vt 0.156502396 0.136177063
vt 0.152346462 0.133983672
vt 0.157679707 0.139135122
vt 0.158317477 0.137955874
vt 0.15947704 0.140101045
vt 0.168836787 0.139561146
vt 0.162447169 0.139683306
vt 0.16835165 0.136854261
vt 0.160977989 0.138753653
vt 0.159293801 0.136531472
vt 0.179169074 0.134839207
vt 0.163867176 0.136294186
vt 0.158229738 0.133983731
vt 0.162033543 0.137325197
vt 0.162160575 0.13190949
vt 0.153170168 0.130950421
vt 0.178165272 0.133215189
vt 0.140111834 0.128084898
vt 0.1760346 0.130066007
vt 0.171249866 0.13099122
vt 0.167568848 0.130792528
vt 0.158969164 0.126614362
vt 0.166059166 0.123459272
vt 0.157538742 0.117425911
vt 0.152395561 0.118263505
vt 0.15647313 0.114990555
vt 0.151311949 0.115754507
vt 0.146913409 0.117613338
vt 0.147723913 0.120397173
vt 0.141508818 0.122792356
vt 0.142714098 0.119732134
vt 0.143096536 0.118631147
vt 0.138847142 0.118364297
vt 0.138127238 0.121506624
vt 0.135881871 0.125934333
vt 0.129447073 0.131715089
vt 0.133323193 0.121227048
vt 0.135078013 0.116897516
vt 0.131076381 0.126157194
vt 0.125573307 0.120313309
vt 0.127178997 0.115823947
vt 0.124947637 0.125977874
vt 0.125044793 0.131408542
vt 0.125763267 0.139025629
vt 0.0925715566 0.174520269
vt 0.0870282352 0.173346385
vt 0.084411636 0.175176188
vt 0.0975313932 0.176238075
vt 0.0988913178 0.171341673
vt 0.0999477506 0.162574574
vt 0.10097456 0.173378125
vt 0.102897733 0.179578349
vt 0.103013664 0.173154637
vt 0.104869097 0.168638691
vt 0.106611446 0.179630116
vt 0.106950521 0.170374051
vt 0.111783549 0.174572334
vt 0.0714313686 0.110401891
vt 0.0736206472 0.109460257
vt 0.0808832943 0.106193714
vt 0.0750002563 0.0948444381
vt 0.0832045376 0.103751577
vt 0.0772790611 0.0938502923
vt 0.0730831921 0.0741745383
vt 0.0769692361 0.0748610348
vt 0.0800907314 0.0667857677
vt 0.0820293128 0.0688117296
vt 0.0832045376 0.0659573227
vt 0.0819208324 0.0651614219
vt 0.0826508105 0.0627680272
vt 0.0806442797 0.0639378875
vt 0.0805775225 0.059762191
vt 0.0766364038 0.0630319864
vt 0.0752843916 0.0552376918
vt 0.0718276203 0.0611330979
vt 0.0741145909 0.0566172414
vt 0.0724599063 0.0545988195
vt 0.072743088 0.0565045886
vt 0.067466408 0.0582409911
vt 0.0658870637 0.0741466731
vt 0.0611920059 0.0748018175
vt 0.0689209402 0.0976195112
vt 0.0663896501 0.0986716524
vt 0.0688411295 0.110298507
vt 0.0995324552 0.0715489835
vt 0.103918999 0.0612664782
vt 0.0927659571 0.0555900149
vt 0.0893203914 0.0664672852
vt 0.0981317461 0.0904049799
vt 0.0843800008 0.09002655
vt 0.0929031074 0.104659431
vt 0.102151483 0.0971606895
vt 0.0977182686 0.101074301
vt 0.095854193 0.110190399
vt 0.0979939997 0.108596958
vt 0.101309568 0.102319591
vt 0.103918999 0.0998904631
vt 0.220683575 0.169109076
vt 0.200885922 0.163965106
vt 0.220428914 0.165363848
vt 0.201805636 0.166452289
vt 0.22095415 0.172952533
vt 0.198793843 0.164788961
vt 0.202821657 0.168718934
vt 0.219514817 0.185381055
vt 0.198255852 0.167113274
vt 0.187871143 0.166611046
vt 0.188945875 0.165955961
vt 0.186696306 0.167273402
vt 0.197779253 0.16915381
vt 0.204219863 0.177800298
vt 0.214763939 0.196076959
vt 0.189756677 0.172988594
vt 0.184397697 0.164244235
vt 0.180556521 0.18117848
vt 0.200790882 0.176846594
vt 0.195925102 0.181487024
vt 0.200913683 0.186762124
vt 0.191034481 0.195148796
vt 0.20230107 0.209542334
vt 0.182699993 0.217387229
vt 0.187581614 0.187541723
vt 0.17794098 0.195590734
vt 0.170798659 0.193933696
vt 0.17773141 0.170314848
vt 0.181907132 0.161947668
vt 0.166285858 0.2023651
vt 0.161754489 0.213223755
vt 0.169776976 0.180072576
vt 0.167908609 0.157460928
vt 0.176267132 0.153876543
vt 0.153780565 0.169238627
vt 0.163651943 0.15506646
vt 0.151117563 0.192095011
vt 0.14214462 0.201567441
vt 0.160653844 0.18616879
vt 0.141356051 0.18215847
vt 0.13146235 0.185484201
vt 0.136512995 0.164868772
vt 0.126253396 0.169551343
vt 0.125462949 0.164817899
vt 0.154839292 0.181418091
vt 0.152681693 0.174947858
vt 0.140969217 0.169267625
vt 0.134228796 0.159077495
vt 0.122670487 0.152565718
vt 0.141842961 0.167387843
vt 0.139189526 0.160738438
vt 0.145150006 0.162620097
vt 0.133220881 0.155595809
vt 0.13659969 0.155089974
vt 0.130230382 0.144665033
vt 0.147966802 0.166595429
vt 0.152985036 0.16218394
vt 0.134566188 0.152438223
vt 0.139815688 0.152330995
vt 0.13339214 0.138865381
vt 0.155123055 0.164236695
vt 0.160804465 0.154289186
vt 0.157928377 0.154488057
vt 0.155082673 0.148224026
vt 0.143009678 0.146701217
vt 0.144208357 0.148686886
vt 0.139039278 0.142230779
vt 0.139423251 0.134925365
vt 0.133605048 0.131814778
vt 0.150993347 0.142474562
vt 0.15089938 0.14457348
vt 0.151823416 0.136398882
vt 0.165459394 0.147636771
vt 0.159509853 0.1421538
vt 0.169064298 0.142448694
vt 0.175768703 0.146513849
vt 0.156012729 0.138814121
vt 0.170232952 0.145090491
vt 0.175425708 0.143060237
vt 0.179534957 0.139368415
vt 0.180695191 0.136360049
vt 0.180630773 0.140360773
vt 0.156502396 0.136177063
vt 0.152346462 0.133983672
vt 0.157679707 0.139135122
vt 0.158317477 0.137955874
vt 0.15947704 0.140101045
vt 0.168836787 0.139561146
vt 0.162447169 0.139683306
vt 0.16835165 0.136854261
vt 0.160977989 0.138753653
vt 0.159293801 0.136531472
vt 0.179169074 0.134839207
vt 0.163867176 0.136294186
vt 0.158229738 0.133983731
vt 0.162033543 0.137325197
vt 0.162160575 0.13190949
vt 0.153170168 0.130950421
vt 0.178165272 0.133215189
vt 0.140111834 0.128084898
vt 0.1760346 0.130066007
vt 0.171249866 0.13099122
vt 0.167568848 0.130792528
vt 0.158969164 0.126614362
vt 0.166059166 0.123459272
vt 0.157538742 0.117425911
vt 0.152395561 0.118263505
vt 0.15647313 0.114990555
vt 0.151311949 0.115754507
vt 0.146913409 0.117613338
vt 0.147723913 0.120397173
vt 0.141508818 0.122792356
vt 0.142714098 0.119732134
vt 0.143096536 0.118631147
vt 0.138847142 0.118364297
vt 0.138127238 0.121506624
vt 0.135881871 0.125934333
vt 0.129447073 0.131715089
vt 0.133323193 0.121227048
vt 0.135078013 0.116897516
vt 0.131076381 0.126157194
vt 0.125573307 0.120313309
vt 0.127178997 0.115823947
vt 0.124947637 0.125977874
vt 0.125044793 0.131408542
vt 0.125763267 0.139025629
vt 0.0925715566 0.174520269
vt 0.084411636 0.175176188
vt 0.0870282352 0.173346385
vt 0.0975313932 0.176238075
vt 0.0988913178 0.171341673
vt 0.0999477506 0.162574574
vt 0.10097456 0.173378125
vt 0.102897733 0.179578349
vt 0.103013664 0.173154637
vt 0.104869097 0.168638691
vt 0.106611446 0.179630116
vt 0.106950521 0.170374051
vt 0.111783549 0.174572334
vt 0.0977182686 0.101074301
vt 0.0979939997 0.108596958
vt 0.095854193 0.110190399
vt 0.0929031074 0.104659431
vt 0.102151483 0.0971606895
vt 0.101309568 0.102319591
vt 0.103918999 0.0998904631
vt 0.0981317461 0.0904049799
vt 0.0843800008 0.09002655
vt 0.0893203914 0.0664672852
vt 0.0995324552 0.0715489835
vt 0.103918999 0.0612664782
vt 0.0983534753 0.0584969185
vt 0.0927659571 0.0555900149
vt 0.0688411295 0.110298507
vt 0.0663896501 0.0986716524
vt 0.0689209402 0.0976195112
vt 0.0714313686 0.110401891
vt 0.0736206472 0.109460257
vt 0.0611920059 0.0748018175
vt 0.0808832943 0.106193714
vt 0.0658870637 0.0741466731
vt 0.067466408 0.0582409911
vt 0.0750002563 0.0948444381
vt 0.0832045376 0.103751577
vt 0.0772790611 0.0938502923
vt 0.0730831921 0.0741745383
vt 0.0769692361 0.0748610348
vt 0.0718276203 0.0611330979
vt 0.0800907314 0.0667857677
vt 0.0820293128 0.0688117296
vt 0.0832045376 0.0659573227
vt 0.0819208324 0.0651614219
vt 0.0826508105 0.0627680272
vt 0.0766364038 0.0630319864
vt 0.0806442797 0.0639378875
vt 0.0805775225 0.059762191
vt 0.0752843916 0.0552376918
vt 0.0741145909 0.0566172414
vt 0.0724599063 0.0545988195
vt 0.072743088 0.0565045886
vt 0.105013072 0.142957568
vt 0.111703366 0.144026339
vt 0.103785634 0.149622694
vt 0.100038841 0.143561155
vt 0.0964124799 0.145104796
vt 0.113603413 0.148839101
vt 0.0920309275 0.145706877
vt 0.109926596 0.153638735
vt 0.11196965 0.155400455
vt 0.104237139 0.157647997
vt 0.103665978 0.161706924
vt 0.0992064476 0.154801533
vt 0.0958827138 0.156573862
vt 0.0951841474 0.150424629
vt 0.091973111 0.150895461
vt 0.105013072 0.142957568
vt 0.103785634 0.149622694
vt 0.111703366 0.144026339
vt 0.100038841 0.143561155
vt 0.0964124799 0.145104796
vt 0.113603413 0.148839101
vt 0.0920309275 0.145706877
vt 0.109926596 0.153638735
vt 0.11196965 0.155400455
vt 0.104237139 0.157647997
vt 0.103665978 0.161706924
vt 0.0992064476 0.154801533
vt 0.0958827138 0.156573862
vt 0.0951841474 0.150424629
vt 0.091973111 0.150895461
vt 0.179847375 0.132985264
vt 0.18031241 0.133551538
vt 0.180524334 0.132701874
vt 0.181353077 0.131602526
vt 0.180961743 0.133123398
vt 0.182837889 0.132224828
vt 0.180739686 0.133963853
vt 0.18408893 0.133351654
vt 0.181399003 0.133726746
vt 0.179847375 0.132985264
vt 0.18031241 0.133551538
vt 0.180524334 0.132701874
vt 0.181353077 0.131602526
vt 0.180961743 0.133123398
vt 0.182837889 0.132224828
vt 0.180739686 0.133963853
vt 0.18408893 0.133351654
vt 0.181399003 0.133726746
vn 0.161283299 -0.931642294 -0.325623125
vn 0.0126440208 -0.816870391 0.576682746
vn -0.0441666394 -0.611005068 0.790393651
vn -0.0441666394 -0.611005068 0.790393651
vn 0.0126440208 -0.816870391 0.576682746
vn 0.161283299 -0.931642294 -0.325623125
vn -0 -0.997044504 -0.0768258348
vn -0 -0.997217178 -0.0745512992
vn 0.413158298 -0.909925818 -0.0365420245
vn 0.288024545 -0.954385638 -0.0786761865
vn -0 -0.988883853 -0.148689866
vn 0.755605042 -0.629859984 0.179826319
vn 0.206340492 -0.971968234 -0.112700574
vn -0 -0.76660037 -0.642124593
vn 0.709070146 -0.675727129 0.201525167
vn 0.885643303 -0.419579148 -0.198970452
vn 0.822574377 -0.553356647 -0.131025404
vn 0.694408596 -0.71279633 -0.0985805616
vn 0.819572628 -0.568266153 0.073308602
vn 0.324872196 -0.782614887 -0.53101033
vn -0 -0.255933136 -0.966694534
vn 0.995922685 -0.0899511725 0.00684179179
vn 0.892083466 0.204132751 0.403133929
vn 0.996921062 0.0782916471 -0.00435787253
vn 0.747297764 -0.520003438 -0.413693756
vn 0.888806581 -0.117260858 -0.44302687
vn 0.45687744 -0.200552538 -0.866626561
vn 0.513193786 0.222666889 -0.828885734
vn -0 0.242145181 -0.970240057
vn -0 0.717467844 -0.696591616
vn 0.920171499 0.0894129723 -0.381168872
vn 0.675996244 0.566669106 -0.471078783
vn 0.704375029 0.695764482 -0.140597299
vn 0.947197258 -0.135947913 0.29040572
vn 0.712511897 -0.0788854882 0.697211444
vn 0.291073918 0.937294245 -0.191717461
vn -0 0.980795562 -0.195038885
vn 0.968890369 0.187156469 0.161938056
vn 0.89958477 -0.0233913083 -0.436119318
vn 0.943872571 -0.0465302467 -0.327015847
vn 0.83169204 0.368915558 0.414957523
vn 0.66280967 0.309280962 -0.681929946
vn 0.345392674 0.877216637 0.33345896
vn -0 0.949574888 0.313540488
vn 0.764962733 0.606337488 0.217225581
vn 0.274180919 0.586062789 0.762466609
vn -0 0.545595646 0.838048577
vn -0.110333949 0.164404109 0.980202794
vn -0 0.212965325 0.977059722
vn -0 0.16517587 0.986264169
vn 0.749389589 0.538020253 0.385939598
vn 0.741501153 0.360070825 0.566149354
vn -0.0639466196 0.522110641 0.850477099
vn 0.346904576 -0.157263875 0.924621701
vn -0 -0.0577137657 0.998333156
vn 0.143641099 0.501912832 0.85290724
vn 0.20384118 -0.505324841 0.83850795
vn 0.453134626 -0.44002068 0.775274694
vn 0.607161582 -0.0221572667 0.794269502
vn 0.763029039 0.0100142639 0.646286488
vn 0.016097663 -0.462038815 0.886713624
vn 0.508634746 0.484972328 0.711401701
vn 0.768051386 -0.0565179288 0.637889326
vn 0.558563948 -0.00141918415 0.829460204
vn 0.6370368 0.370206475 0.676114857
vn -0.413843453 -0.301399112 0.859006464
vn 0.852539599 0.464470774 -0.239673018
vn 0.979302227 0.0593066327 -0.19351992
vn 0.709684134 -0.212412447 0.671736002
vn 0.452998579 0.384833544 0.804173708
vn 0.440307111 0.0877839699 0.893545508
vn 0.628265023 0.426370025 0.650762379
vn 0.396824241 -0.00116535299 0.917893827
vn 0.520002306 0.151645184 0.840595782
vn 0.254038155 0.56795454 0.782874405
vn 0.237824321 0.174110115 0.955575883
vn 0.196867242 0.559432864 0.805157244
vn -0.16303888 -0.253437072 0.953513443
vn 0.850145221 0.393975347 -0.34933725
vn 0.808277428 0.455808848 0.372727722
vn 0.862065375 0.50139755 0.0737826899
vn -0.377529562 -0.387507826 -0.84101665
vn -0.0939182714 -0.273809969 0.957187235
vn 0.259782553 0.906084955 -0.333950639
vn -0.825813055 0.549061477 -0.128702804
vn -0.290700138 0.913193643 0.285605937
vn 0.892083466 0.204132751 0.403133929
vn 0.712511897 -0.0788854882 0.697211444
vn -0.20789291 -0.724324465 0.657369494
vn 0.144589558 -0.339903235 0.929279089
vn 0.544486523 -0.0327564627 0.838129699
vn 0.531603515 -0.721394062 0.443833649
vn 0.887745678 0.36631307 0.278787345
vn 0.995002449 -0.0878532082 0.0474549942
vn 0.971844256 0.207074076 -0.112423345
vn 0.610943079 -0.7083745 -0.353488356
vn 0.999814689 -0.0177325066 -0.00750475004
vn 0.430716813 -0.870734751 0.237284705
vn 0.928955376 -0.145906195 0.340225339
vn 0.551442683 -0.658505201 -0.512134671
vn -0.279273063 -0.95322001 -0.115664274
vn 0.871178448 -0.435843617 -0.226027265
vn -0.182873264 -0.734027624 -0.654034257
vn 0.703247964 -0.586106658 0.402394593
vn 0.741871297 -0.66767776 0.0619148351
vn 0.767210186 0.135284826 0.626966119
vn -0.290700138 0.913193643 0.285605937
vn -0.825813055 0.549061477 -0.128702804
vn -0.377529562 -0.387507826 -0.84101665
vn 0.732013762 -0.525884032 -0.433130503
vn 0.524205267 -0.549955785 -0.650198042
vn 0.815147042 -0.234053627 -0.529862463
vn 0.809265733 -0.477329493 -0.342411518
vn 0.447387189 -0.612357318 -0.651815414
vn 0.543945014 -0.75750941 -0.360975385
vn 0.542063415 -0.840006828 -0.0235763192
vn 0.859291196 -0.484616995 0.163599923
vn 0.909853697 0.0235363282 0.414261311
vn 0.716293693 -0.634732664 0.289892614
vn 0.454626352 -0.885165036 0.0989836529
vn 0.274365157 -0.917825878 0.286913693
vn 0.705555081 -0.422848761 0.568674684
vn 0.61333549 0.176620483 0.769821227
vn 0.438086629 0.547471642 0.712990224
vn 0.280209631 -0.553933978 0.783989608
vn 0.138036385 -0.905155003 0.40204528
vn 0.34047547 0.105842419 0.934277236
vn -0 -0.563399673 0.826184571
vn -0 -0.906640828 0.421903342
vn -0 0.0655678436 0.997848153
vn -0 0.311823368 0.950140059
vn -0 0.939429104 0.342743307
vn 0.016097663 -0.462038815 0.886713624
vn -0 -0.564204931 0.825634897
vn -0 -0.0577137657 0.998333156
vn -0.413843453 -0.301399112 0.859006464
vn -0.797418654 -0.582710505 0.156754717
vn -0 -0.383326352 0.923613012
vn -0.82539326 0.339847952 0.450809598
vn 0.254038155 0.56795454 0.782874405
vn 0.16951105 0.886278927 0.431017041
vn -0 0.873452127 0.486910105
vn 0.438086629 0.547471642 0.712990224
vn -0 0.989394248 0.145254359
vn -0 0.939429104 0.342743307
vn -0.0441666394 -0.611005068 0.790393651
vn -0.0952510312 -0.359046608 0.928446412
vn -0.152923733 0.0453481562 0.987196922
vn 0.59580636 0.0383930989 0.802209914
vn -0.121865273 0.992468655 0.0124481618
vn -0.280089289 0.879720449 0.384241909
vn 0.853694499 0.0488480516 0.518478096
vn -0.438624799 0.252807856 0.862378359
vn 0.744386315 0.162540168 0.647664785
vn -0.594597459 0.0463062599 0.802688956
vn -0.4611727 0.531676114 0.710380256
vn 0.372604847 0.775050223 0.510355532
vn -0.613786042 0.670536518 -0.416710407
vn 0.547201633 0.807520926 -0.220182851
vn -0.955102205 0.245331615 -0.166109174
vn 0.83403796 0.399227023 0.380786508
vn -0.627280474 0.750448644 0.208197072
vn 0.955973804 0.0263198279 -0.292269081
vn 0.3745915 0.786768019 0.490588784
vn -0.241264939 0.565341711 -0.788783848
vn 0.718560457 0.568138123 -0.401110828
vn -0.436256081 -0.111306868 -0.892911792
vn 0.960748553 -0.24253504 -0.13468121
vn -0.115380213 -0.527706504 -0.841554105
vn 0.712546468 -0.45648995 0.532817423
vn 0.271358728 -0.762259722 -0.587643206
vn 0.161283299 -0.931642294 -0.325623125
vn -0.280089289 0.879720449 0.384241909
vn -0.121865273 0.992468655 0.0124481618
vn 0.161283299 -0.931642294 -0.325623125
vn 0.271358728 -0.762259722 -0.587643206
vn -0.438624799 0.252807856 0.862378359
vn -0.115380213 -0.527706504 -0.841554105
vn -0.436256081 -0.111306868 -0.892911792
vn -0.594597459 0.0463062599 0.802688956
vn -0.955102205 0.245331615 -0.166109174
vn -0.241264939 0.565341711 -0.788783848
vn -0.627280474 0.750448644 0.208197072
vn -0.613786042 0.670536518 -0.416710407
vn -0.4611727 0.531676114 0.710380256
vn -0 -0.997044504 -0.0768258348
vn -0.413158298 -0.909925818 -0.0365420282
vn -0 -0.997217178 -0.0745512992
vn -0.288024575 -0.954385638 -0.0786762089
vn -0 -0.988883853 -0.148689866
vn -0.755604982 -0.629859984 0.179826424
vn -0.206340507 -0.971968234 -0.112700619
vn -0 -0.76660037 -0.642124593
vn -0.709070146 -0.675727129 0.201525167
vn -0.885643303 -0.419579148 -0.198970541
vn -0.822574377 -0.553356767 -0.131025508
vn -0.694408596 -0.71279633 -0.0985805839
vn -0.819572628 -0.568266153 0.0733085573
vn -0.324872196 -0.782614946 -0.53101033
vn -0 -0.255933136 -0.966694534
vn -0.995922685 -0.0899511799 0.00684177969
vn -0.892083466 0.204132736 0.403133929
vn -0.996921062 0.0782916471 -0.00435786974
vn -0.747297764 -0.520003319 -0.413693756
vn -0.888806581 -0.117260866 -0.44302687
vn -0.45687744 -0.200552538 -0.866626561
vn -0.513193786 0.222666889 -0.828885734
vn -0 0.242145181 -0.970240057
vn -0 0.717467844 -0.696591616
vn -0.920171499 0.0894129649 -0.381168842
vn -0.675996244 0.566669047 -0.471078813
vn -0.704374969 0.695764482 -0.140597284
vn -0.947197258 -0.135947913 0.29040572
vn -0.712511837 -0.0788854882 0.697211504
vn -0.291073829 0.937294245 -0.191717461
vn -0 0.980795562 -0.195038885
vn -0.968890369 0.187156454 0.161938086
vn -0.89958483 -0.0233912524 -0.436119258
vn -0.94387269 -0.0465302207 -0.327015817
vn -0.831691921 0.368915528 0.414957553
vn -0.662809849 0.309281081 -0.681929827
vn -0.345392674 0.877216637 0.33345896
vn -0 0.949574888 0.313540488
vn -0.764962673 0.606337547 0.217225611
vn -0.274180919 0.586062789 0.762466609
vn -0 0.545595646 0.838048577
vn 0.110333979 0.164404079 0.980202913
vn -0 0.212965325 0.977059722
vn -0 0.16517587 0.986264169
vn -0.749389589 0.538020313 0.385939658
vn -0.741501153 0.360070825 0.566149235
vn 0.0639465973 0.522110641 0.850477099
vn -0.346904576 -0.157263905 0.924621701
vn -0 -0.0577137657 0.998333156
vn -0.143641144 0.501912892 0.852907181
vn -0.20384118 -0.505324841 0.83850795
vn -0.453134626 -0.440020651 0.775274694
vn -0.607161582 -0.0221572388 0.794269502
vn -0.763029039 0.0100142639 0.646286488
vn -0.0160977151 -0.462038696 0.886713624
vn -0.508634746 0.484972328 0.711401701
vn -0.768051326 -0.056517873 0.637889385
vn -0.558563948 -0.0014191505 0.829460263
vn -0.637036741 0.370206475 0.676114857
vn 0.413843453 -0.301399142 0.859006584
vn -0.852539599 0.464470714 -0.23967272
vn -0.979302227 0.0593066998 -0.193519771
vn -0.709684074 -0.212412477 0.671736062
vn -0.452998579 0.384833634 0.804173708
vn -0.44030714 0.0877839252 0.893545508
vn -0.628265023 0.426369965 0.650762379
vn -0.39682427 -0.00116536743 0.917893827
vn -0.520002425 0.151645228 0.840595782
vn -0.254038066 0.56795454 0.782874405
vn -0.237824395 0.1741101 0.955575883
vn -0.196867287 0.559432745 0.805157244
vn 0.16303885 -0.253437012 0.953513443
vn -0.850145221 0.393975407 -0.34933725
vn -0.808277428 0.455808789 0.372727662
vn -0.862065375 0.50139755 0.0737826899
vn 0.377529621 -0.387507945 -0.84101665
vn 0.0939182043 -0.273809791 0.957187355
vn -0.259782523 0.906084955 -0.333950639
vn 0.825812936 0.549061477 -0.12870276
vn 0.290700167 0.913193643 0.285605937
vn -0.892083466 0.204132736 0.403133929
vn -0.712511837 -0.0788854882 0.697211504
vn 0.207892865 -0.724324405 0.657369554
vn -0.144589603 -0.339903027 0.929279089
vn -0.544486523 -0.0327563956 0.838129699
vn -0.531603634 -0.721394002 0.443833649
vn -0.887745678 0.36631307 0.278787315
vn -0.995002449 -0.0878532082 0.0474549942
vn -0.971844256 0.207074031 -0.112423345
vn -0.610943079 -0.70837456 -0.353488237
vn -0.999814689 -0.017732406 -0.00750477239
vn -0.430716842 -0.870734751 0.237284705
vn -0.928955376 -0.145906195 0.340225369
vn -0.551442742 -0.658505261 -0.512134552
vn 0.279273063 -0.95322001 -0.115664229
vn -0.871178448 -0.435843617 -0.226027265
vn 0.182873264 -0.734027624 -0.654034257
vn -0.703247964 -0.586106539 0.402394623
vn -0.741871178 -0.667677879 0.0619150288
vn -0.767210186 0.135284841 0.626966119
vn 0.290700167 0.913193643 0.285605937
vn 0.825812936 0.549061477 -0.12870276
vn 0.377529621 -0.387507945 -0.84101665
vn -0.732013762 -0.525883973 -0.433130383
vn -0.524205267 -0.549955785 -0.650198042
vn -0.815147102 -0.234053582 -0.529862285
vn -0.809265792 -0.477329433 -0.342411458
vn -0.447387218 -0.61235714 -0.651815474
vn -0.543945074 -0.757509351 -0.360975444
vn -0.542063534 -0.840006709 -0.0235762987
vn -0.859291196 -0.484616876 0.163599923
vn -0.909853697 0.0235363301 0.414261222
vn -0.716293752 -0.634732544 0.289892703
vn -0.45462656 -0.885164917 0.0989836827
vn -0.274365216 -0.917825878 0.286913663
vn -0.705555201 -0.422848791 0.568674684
vn -0.61333549 0.176620573 0.769821227
vn -0.438086599 0.547471642 0.712990165
vn -0.28020978 -0.553934038 0.783989608
vn -0.138036415 -0.905155003 0.40204522
vn -0.34047544 0.105842501 0.934277236
vn -0 -0.563399673 0.826184571
vn -0 -0.906640828 0.421903342
vn -0 0.0655678436 0.997848153
vn -0 0.311823368 0.950140059
vn -0 0.939429104 0.342743307
vn -0.0160977151 -0.462038696 0.886713624
vn -0 -0.0577137657 0.998333156
vn -0 -0.564204931 0.825634897
vn 0.413843453 -0.301399142 0.859006584
vn 0.797418535 -0.582710505 0.156754702
vn -0 -0.383326352 0.923613012
vn 0.825393379 0.339847893 0.450809687
vn -0.254038066 0.56795454 0.782874405
vn -0.169511095 0.886278927 0.431017041
vn -0 0.873452127 0.486910105
vn -0.438086599 0.547471642 0.712990165
vn -0 0.989394248 0.145254359
vn -0 0.939429104 0.342743307
vn 0.877710283 0.466948897 0.107625894
vn 0.347608298 0.868328869 0.353798687
vn 0.319454819 0.633141518 -0.705039322
vn 0.688361883 0.024677908 -0.724947453
vn 0.310219824 0.155713767 0.93782562
vn 0.533727407 0.809289753 -0.245326474
vn 0.0996910036 0.599493861 0.794146597
vn 0.100001022 0.317936599 0.94282347
vn 0.472658604 -0.456602812 -0.753729224
vn 0.0950234383 -0.783581316 -0.613979459
vn -0.0557171702 0.906850636 0.417752981
vn -0.121865273 0.992468655 0.0124481618
vn 0.105150752 0.301065594 -0.947788417
vn 0.161283299 -0.931642294 -0.325623125
vn 0.161283299 -0.931642294 -0.325623125
vn 0.0950234383 -0.783581316 -0.613979459
vn -0.708820701 -0.628356576 0.320532829
vn -0.0441666394 -0.611005068 0.790393651
vn -0.0952510312 -0.359046608 0.928446412
vn 0.472658604 -0.456602812 -0.753729224
vn -0.152923733 0.0453481562 0.987196922
vn -0.796958923 -0.455070704 -0.397199064
vn 0.688361883 0.024677908 -0.724947453
vn -0.793415308 -0.12958689 0.594726264
vn -0.121865273 0.992468655 0.0124481618
vn -0.0557171702 0.906850636 0.417752981
vn -0.953640163 -0.169688553 0.24854815
vn 0.100001022 0.317936599 0.94282347
vn -0.809831023 -0.187194899 -0.55599612
vn -0.915847301 -0.0382095277 0.399704784
vn 0.310219824 0.155713767 0.93782562
vn 0.0996910036 0.599493861 0.794146597
vn -0.673841 0.648517907 0.354066342
vn 0.533727407 0.809289753 -0.245326474
vn -0.977434874 0.180190027 0.110238537
vn -0.633130908 0.664799213 -0.39646852
vn 0.877710283 0.466948897 0.107625894
vn 0.347608298 0.868328869 0.353798687
vn -0.672724783 0.660130501 0.334169567
vn 0.319454819 0.633141518 -0.705039322
vn -0.684336424 0.398505181 -0.610636771
vn -0.628265023 0.426369965 0.650762379
vn -0.196867287 0.559432745 0.805157244
vn -0.443354547 -0.100078866 0.890741765
vn -0.637036741 0.370206475 0.676114857
vn -0.763029039 0.0100142639 0.646286488
vn -0.452998579 0.384833634 0.804173708
vn -0.346904576 -0.157263905 0.924621701
vn 0.346063703 0.0800175071 0.934792578
vn -0.709684074 -0.212412477 0.671736062
vn 0.128975421 -0.650564492 0.748419166
vn -0.768051326 -0.056517873 0.637889385
vn -0.308924526 -0.804010868 0.508067012
vn -0.453134626 -0.440020651 0.775274694
vn -0.361924291 -0.840744257 0.402690977
vn -0.20384118 -0.505324841 0.83850795
vn 0.628265023 0.426370025 0.650762379
vn 0.443354547 -0.100078866 0.890741765
vn 0.196867242 0.559432864 0.805157244
vn 0.6370368 0.370206475 0.676114857
vn 0.763029039 0.0100142639 0.646286488
vn 0.452998579 0.384833544 0.804173708
vn 0.346904576 -0.157263875 0.924621701
vn -0.346063703 0.080017522 0.934792578
vn 0.709684134 -0.212412447 0.671736002
vn -0.128975406 -0.650564492 0.748419166
vn 0.768051386 -0.0565179288 0.637889326
vn 0.308924526 -0.804010868 0.508067012
vn 0.453134626 -0.44002068 0.775274694
vn 0.361924231 -0.840744257 0.402690977
vn 0.20384118 -0.505324841 0.83850795
vn -0.354127139 -0.929457247 0.103456147
vn -0.846749783 -0.452351272 0.279987663
vn -0.177211016 -0.904065609 -0.388923526
vn -0.822574377 -0.553356767 -0.131025508
vn -0.732577443 -0.49383226 -0.468465477
vn -0.885643303 -0.419579148 -0.198970541
vn -0.963967681 -0.0420540385 0.262674242
vn -0.694408596 -0.71279633 -0.0985805839
vn -0.923778296 0.043956697 -0.380396396
vn 0.354127258 -0.929457247 0.103455752
vn 0.846749902 -0.452351213 0.279987514
vn 0.177211195 -0.904065609 -0.388923705
vn 0.822574377 -0.553356647 -0.131025404
vn 0.732577503 -0.493832171 -0.468465418
vn 0.885643303 -0.419579148 -0.198970452
vn 0.963967681 -0.0420539342 0.262674093
vn 0.694408596 -0.71279633 -0.0985805616
vn 0.923778296 0.0439567566 -0.380396456
g Charred_Skull_0
f 3/3/3 2/2/2 1/1/1
f 6/6/6 5/5/5 4/4/4
f 9/9/9 8/8/8 7/7/7
f 10/10/10 9/9/9 7/7/7
f 10/10/10 7/7/7 11/11/11
f 9/9/9 10/10/10 12/12/12
f 13/13/13 10/10/10 11/11/11
f 13/13/13 11/11/11 14/14/14
f 10/10/10 15/15/15 12/12/12
f 10/10/10 13/13/13 15/15/15
f 12/12/12 15/15/15 16/16/16
f 17/17/17 12/12/12 16/16/16
f 16/16/16 15/15/15 18/18/18
f 15/15/15 19/19/19 18/18/18
f 13/13/13 19/19/19 15/15/15
f 20/20/20 13/13/13 14/14/14
f 20/20/20 14/14/14 21/21/21
f 22/22/22 18/18/18 19/19/19
f 22/22/22 23/23/23 18/18/18
f 23/23/23 22/22/22 24/24/24
f 19/19/19 13/13/13 25/25/25
f 13/13/13 20/20/20 25/25/25
f 22/22/22 19/19/19 26/26/26
f 19/19/19 25/25/25 26/26/26
f 25/25/25 20/20/20 26/26/26
f 22/22/22 26/26/26 24/24/24
f 27/27/27 20/20/20 21/21/21
f 20/20/20 27/27/27 26/26/26
f 27/27/27 21/21/21 28/28/28
f 21/21/21 29/29/29 28/28/28
f 28/28/28 29/29/29 30/30/30
f 26/26/26 27/27/27 31/31/31
f 27/27/27 28/28/28 31/31/31
f 26/26/26 31/31/31 24/24/24
f 28/28/28 32/32/32 31/31/31
f 32/32/32 28/28/28 30/30/30
f 31/31/31 32/32/32 24/24/24
f 32/32/32 30/30/30 33/33/33
f 32/32/32 33/33/33 24/24/24
f 34/34/34 23/23/23 24/24/24
f 34/34/34 35/35/35 23/23/23
f 30/30/30 36/36/36 33/33/33
f 30/30/30 37/37/37 36/36/36
f 24/24/24 33/33/33 38/38/38
f 34/34/34 24/24/24 38/38/38
f 35/35/35 34/34/34 39/39/39
f 40/40/40 35/35/35 39/39/39
f 34/34/34 41/41/41 39/39/39
f 41/41/41 34/34/34 38/38/38
f 39/39/39 41/41/41 42/42/42
f 40/40/40 39/39/39 42/42/42
f 43/43/43 36/36/36 37/37/37
f 44/44/44 43/43/43 37/37/37
f 45/45/45 33/33/33 36/36/36
f 33/33/33 45/45/45 38/38/38
f 43/43/43 45/45/45 36/36/36
f 46/46/46 43/43/43 44/44/44
f 47/47/47 46/46/46 44/44/44
f 46/46/46 47/47/47 48/48/48
f 47/47/47 49/49/49 48/48/48
f 49/49/49 50/50/50 48/48/48
f 51/51/51 45/45/45 43/43/43
f 45/45/45 51/51/51 38/38/38
f 43/43/43 46/46/46 51/51/51
f 51/51/51 52/52/52 38/38/38
f 46/46/46 52/52/52 51/51/51
f 52/52/52 41/41/41 38/38/38
f 52/52/52 46/46/46 53/53/53
f 53/53/53 46/46/46 48/48/48
f 41/41/41 52/52/52 53/53/53
f 50/50/50 54/54/54 48/48/48
f 50/50/50 55/55/55 54/54/54
f 48/48/48 56/56/56 53/53/53
f 53/53/53 56/56/56 41/41/41
f 54/54/54 57/57/57 48/48/48
f 57/57/57 56/56/56 48/48/48
f 57/57/57 58/58/58 56/56/56
f 55/55/55 59/59/59 54/54/54
f 60/60/60 54/54/54 59/59/59
f 59/59/59 55/55/55 61/61/61
f 58/58/58 62/62/62 56/56/56
f 56/56/56 62/62/62 41/41/41
f 58/58/58 63/63/63 62/62/62
f 60/60/60 59/59/59 64/64/64
f 64/64/64 59/59/59 61/61/61
f 65/65/65 60/60/60 64/64/64
f 64/64/64 61/61/61 66/66/66
f 41/41/41 62/62/62 67/67/67
f 62/62/62 63/63/63 67/67/67
f 41/41/41 67/67/67 68/68/68
f 67/67/67 63/63/63 68/68/68
f 63/63/63 69/69/69 68/68/68
f 42/42/42 41/41/41 68/68/68
f 68/68/68 69/69/69 70/70/70
f 42/42/42 68/68/68 70/70/70
f 65/65/65 64/64/64 71/71/71
f 72/72/72 65/65/65 71/71/71
f 73/73/73 64/64/64 66/66/66
f 64/64/64 73/73/73 71/71/71
f 73/73/73 66/66/66 74/74/74
f 71/71/71 73/73/73 74/74/74
f 66/66/66 75/75/75 74/74/74
f 72/72/72 71/71/71 76/76/76
f 77/77/77 72/72/72 76/76/76
f 77/77/77 76/76/76 70/70/70
f 78/78/78 76/76/76 71/71/71
f 71/71/71 74/74/74 78/78/78
f 79/79/79 42/42/42 70/70/70
f 70/70/70 80/80/80 79/79/79
f 79/79/79 80/80/80 81/81/81
f 79/79/79 40/40/40 42/42/42
f 82/82/82 40/40/40 79/79/79
f 76/76/76 83/83/83 70/70/70
f 83/83/83 76/76/76 78/78/78
f 83/83/83 80/80/80 70/70/70
f 84/84/84 82/82/82 79/79/79
f 84/84/84 79/79/79 81/81/81
f 82/82/82 84/84/84 85/85/85
f 85/85/85 84/84/84 81/81/81
f 86/86/86 85/85/85 81/81/81
f 81/81/81 87/87/87 86/86/86
f 87/87/87 88/88/88 86/86/86
f 83/83/83 78/78/78 89/89/89
f 78/78/78 90/90/90 89/89/89
f 78/78/78 74/74/74 90/90/90
f 83/83/83 91/91/91 80/80/80
f 92/92/92 91/91/91 83/83/83
f 89/89/89 92/92/92 83/83/83
f 91/91/91 93/93/93 80/80/80
f 91/91/91 92/92/92 93/93/93
f 94/94/94 81/81/81 80/80/80
f 80/80/80 93/93/93 95/95/95
f 95/95/95 94/94/94 80/80/80
f 96/96/96 94/94/94 95/95/95
f 92/92/92 97/97/97 93/93/93
f 93/93/93 97/97/97 95/95/95
f 98/98/98 92/92/92 89/89/89
f 92/92/92 98/98/98 97/97/97
f 94/94/94 99/99/99 81/81/81
f 99/99/99 87/87/87 81/81/81
f 95/95/95 97/97/97 100/100/100
f 100/100/100 96/96/96 95/95/95
f 101/101/101 98/98/98 89/89/89
f 89/89/89 90/90/90 101/101/101
f 98/98/98 102/102/102 97/97/97
f 97/97/97 102/102/102 100/100/100
f 102/102/102 98/98/98 101/101/101
f 100/100/100 102/102/102 101/101/101
f 101/101/101 103/103/103 100/100/100
f 100/100/100 103/103/103 96/96/96
f 90/90/90 104/104/104 101/101/101
f 101/101/101 104/104/104 103/103/103
f 105/105/105 99/99/99 94/94/94
f 96/96/96 105/105/105 94/94/94
f 90/90/90 106/106/106 104/104/104
f 74/74/74 106/106/106 90/90/90
f 107/107/107 105/105/105 96/96/96
f 96/96/96 108/108/108 107/107/107
f 96/96/96 109/109/109 108/108/108
f 103/103/103 109/109/109 96/96/96
f 103/103/103 110/110/110 109/109/109
f 110/110/110 103/103/103 104/104/104
f 110/110/110 111/111/111 109/109/109
f 111/111/111 110/110/110 112/112/112
f 110/110/110 113/113/113 112/112/112
f 112/112/112 113/113/113 114/114/114
f 113/113/113 115/115/115 114/114/114
f 115/115/115 113/113/113 116/116/116
f 113/113/113 110/110/110 117/117/117
f 110/110/110 104/104/104 117/117/117
f 113/113/113 117/117/117 116/116/116
f 117/117/117 104/104/104 118/118/118
f 106/106/106 118/118/118 104/104/104
f 117/117/117 119/119/119 116/116/116
f 117/117/117 118/118/118 119/119/119
f 119/119/119 120/120/120 116/116/116
f 120/120/120 119/119/119 121/121/121
f 118/118/118 122/122/122 119/119/119
f 122/122/122 118/118/118 106/106/106
f 119/119/119 122/122/122 121/121/121
f 123/123/123 122/122/122 106/106/106
f 123/123/123 106/106/106 74/74/74
f 75/75/75 123/123/123 74/74/74
f 123/123/123 75/75/75 124/124/124
f 121/121/121 122/122/122 125/125/125
f 126/126/126 121/121/121 125/125/125
f 122/122/122 123/123/123 127/127/127
f 127/127/127 123/123/123 124/124/124
f 125/125/125 122/122/122 127/127/127
f 125/125/125 128/128/128 126/126/126
f 128/128/128 129/129/129 126/126/126
f 130/130/130 128/128/128 125/125/125
f 127/127/127 130/130/130 125/125/125
f 131/131/131 130/130/130 127/127/127
f 124/124/124 131/131/131 127/127/127
f 132/132/132 131/131/131 124/124/124
f 135/135/135 134/134/134 133/133/133
f 133/133/133 134/134/134 136/136/136
f 134/134/134 137/137/137 136/136/136
f 134/134/134 138/138/138 137/137/137
f 137/137/137 139/139/139 136/136/136
f 138/138/138 139/139/139 137/137/137
f 139/139/139 140/140/140 136/136/136
f 138/138/138 141/141/141 139/139/139
f 139/139/139 141/141/141 140/140/140
f 142/142/142 141/141/141 138/138/138
f 141/141/141 143/143/143 140/140/140
f 141/141/141 142/142/142 144/144/144
f 143/143/143 141/141/141 144/144/144
f 143/143/143 144/144/144 145/145/145
f 148/148/148 147/147/147 146/146/146
f 149/149/149 148/148/148 146/146/146
f 148/148/148 149/149/149 150/150/150
f 149/149/149 151/151/151 150/150/150
f 149/149/149 152/152/152 151/151/151
f 152/152/152 153/153/153 151/151/151
f 152/152/152 154/154/154 153/153/153
f 154/154/154 155/155/155 153/153/153
f 156/156/156 155/155/155 154/154/154
f 157/157/157 156/156/156 154/154/154
f 158/158/158 156/156/156 157/157/157
f 159/159/159 158/158/158 157/157/157
f 158/158/158 159/159/159 160/160/160
f 159/159/159 157/157/157 161/161/161
f 159/159/159 161/161/161 160/160/160
f 157/157/157 154/154/154 161/161/161
f 162/162/162 160/160/160 161/161/161
f 163/163/163 154/154/154 152/152/152
f 163/163/163 161/161/161 154/154/154
f 164/164/164 162/162/162 161/161/161
f 164/164/164 161/161/161 163/163/163
f 162/162/162 164/164/164 165/165/165
f 164/164/164 166/166/166 165/165/165
f 166/166/166 164/164/164 163/163/163
f 165/165/165 166/166/166 167/167/167
f 166/166/166 163/163/163 167/167/167
f 152/152/152 168/168/168 163/163/163
f 167/167/167 163/163/163 168/168/168
f 168/168/168 152/152/152 149/149/149
f 169/169/169 167/167/167 168/168/168
f 170/170/170 168/168/168 149/149/149
f 169/169/169 168/168/168 170/170/170
f 146/146/146 170/170/170 149/149/149
f 171/171/171 169/169/169 170/170/170
f 171/171/171 170/170/170 146/146/146
f 146/146/146 172/172/172 171/171/171
f 175/175/175 174/174/174 173/173/173
f 173/173/173 176/176/176 175/175/175
f 173/173/173 177/177/177 176/176/176
f 177/177/177 178/178/178 176/176/176
f 179/179/179 178/178/178 177/177/177
f 177/177/177 180/180/180 179/179/179
f 180/180/180 181/181/181 179/179/179
f 182/182/182 179/179/179 181/181/181
f 183/183/183 182/182/182 181/181/181
f 184/184/184 181/181/181 180/180/180
f 185/185/185 184/184/184 180/180/180
f 188/188/188 187/187/187 186/186/186
f 187/187/187 189/189/189 186/186/186
f 186/186/186 189/189/189 190/190/190
f 189/189/189 187/187/187 191/191/191
f 189/189/189 192/192/192 190/190/190
f 190/190/190 192/192/192 193/193/193
f 194/194/194 189/189/189 191/191/191
f 192/192/192 189/189/189 194/194/194
f 194/194/194 191/191/191 195/195/195
f 191/191/191 196/196/196 195/195/195
f 194/194/194 195/195/195 197/197/197
f 198/198/198 194/194/194 197/197/197
f 198/198/198 192/192/192 194/194/194
f 192/192/192 199/199/199 193/193/193
f 193/193/193 199/199/199 200/200/200
f 197/197/197 201/201/201 198/198/198
f 202/202/202 201/201/201 197/197/197
f 201/201/201 202/202/202 203/203/203
f 192/192/192 198/198/198 204/204/204
f 199/199/199 192/192/192 204/204/204
f 198/198/198 201/201/201 205/205/205
f 204/204/204 198/198/198 205/205/205
f 199/199/199 204/204/204 205/205/205
f 205/205/205 201/201/201 203/203/203
f 199/199/199 206/206/206 200/200/200
f 206/206/206 199/199/199 205/205/205
f 200/200/200 206/206/206 207/207/207
f 208/208/208 200/200/200 207/207/207
f 208/208/208 207/207/207 209/209/209
f 206/206/206 205/205/205 210/210/210
f 207/207/207 206/206/206 210/210/210
f 210/210/210 205/205/205 203/203/203
f 211/211/211 207/207/207 210/210/210
f 207/207/207 211/211/211 209/209/209
f 211/211/211 210/210/210 203/203/203
f 209/209/209 211/211/211 212/212/212
f 212/212/212 211/211/211 203/203/203
f 202/202/202 213/213/213 203/203/203
f 214/214/214 213/213/213 202/202/202
f 215/215/215 209/209/209 212/212/212
f 216/216/216 209/209/209 215/215/215
f 212/212/212 203/203/203 217/217/217
f 203/203/203 213/213/213 217/217/217
f 213/213/213 214/214/214 218/218/218
f 214/214/214 219/219/219 218/218/218
f 220/220/220 213/213/213 218/218/218
f 213/213/213 220/220/220 217/217/217
f 220/220/220 218/218/218 221/221/221
f 218/218/218 219/219/219 221/221/221
f 215/215/215 222/222/222 216/216/216
f 222/222/222 223/223/223 216/216/216
f 212/212/212 224/224/224 215/215/215
f 224/224/224 212/212/212 217/217/217
f 224/224/224 222/222/222 215/215/215
f 222/222/222 225/225/225 223/223/223
f 225/225/225 226/226/226 223/223/223
f 226/226/226 225/225/225 227/227/227
f 228/228/228 226/226/226 227/227/227
f 229/229/229 228/228/228 227/227/227
f 222/222/222 224/224/224 230/230/230
f 230/230/230 224/224/224 217/217/217
f 230/230/230 225/225/225 222/222/222
f 231/231/231 230/230/230 217/217/217
f 230/230/230 231/231/231 225/225/225
f 220/220/220 231/231/231 217/217/217
f 225/225/225 231/231/231 232/232/232
f 225/225/225 232/232/232 227/227/227
f 231/231/231 220/220/220 232/232/232
f 233/233/233 229/229/229 227/227/227
f 234/234/234 229/229/229 233/233/233
f 235/235/235 227/227/227 232/232/232
f 235/235/235 232/232/232 220/220/220
f 236/236/236 233/233/233 227/227/227
f 235/235/235 236/236/236 227/227/227
f 237/237/237 236/236/236 235/235/235
f 238/238/238 234/234/234 233/233/233
f 233/233/233 239/239/239 238/238/238
f 234/234/234 238/238/238 240/240/240
f 241/241/241 237/237/237 235/235/235
f 241/241/241 235/235/235 220/220/220
f 242/242/242 237/237/237 241/241/241
f 238/238/238 239/239/239 243/243/243
f 238/238/238 243/243/243 240/240/240
f 239/239/239 244/244/244 243/243/243
f 240/240/240 243/243/243 245/245/245
f 241/241/241 220/220/220 246/246/246
f 242/242/242 241/241/241 246/246/246
f 246/246/246 220/220/220 247/247/247
f 242/242/242 246/246/246 247/247/247
f 248/248/248 242/242/242 247/247/247
f 220/220/220 221/221/221 247/247/247
f 248/248/248 247/247/247 249/249/249
f 249/249/249 247/247/247 221/221/221
f 243/243/243 244/244/244 250/250/250
f 244/244/244 251/251/251 250/250/250
f 243/243/243 252/252/252 245/245/245
f 252/252/252 243/243/243 250/250/250
f 245/245/245 252/252/252 253/253/253
f 253/253/253 252/252/252 250/250/250
f 254/254/254 245/245/245 253/253/253
f 250/250/250 251/251/251 255/255/255
f 251/251/251 256/256/256 255/255/255
f 255/255/255 256/256/256 249/249/249
f 250/250/250 255/255/255 257/257/257
f 250/250/250 257/257/257 253/253/253
f 249/249/249 221/221/221 258/258/258
f 258/258/258 259/259/259 249/249/249
f 259/259/259 258/258/258 260/260/260
f 219/219/219 258/258/258 221/221/221
f 219/219/219 261/261/261 258/258/258
f 262/262/262 255/255/255 249/249/249
f 255/255/255 262/262/262 257/257/257
f 259/259/259 262/262/262 249/249/249
f 261/261/261 263/263/263 258/258/258
f 258/258/258 263/263/263 260/260/260
f 263/263/263 261/261/261 264/264/264
f 260/260/260 263/263/263 264/264/264
f 260/260/260 264/264/264 265/265/265
f 265/265/265 266/266/266 260/260/260
f 267/267/267 266/266/266 265/265/265
f 257/257/257 262/262/262 268/268/268
f 269/269/269 257/257/257 268/268/268
f 253/253/253 257/257/257 269/269/269
f 270/270/270 262/262/262 259/259/259
f 270/270/270 271/271/271 262/262/262
f 271/271/271 268/268/268 262/262/262
f 272/272/272 270/270/270 259/259/259
f 271/271/271 270/270/270 272/272/272
f 260/260/260 273/273/273 259/259/259
f 272/272/272 259/259/259 274/274/274
f 273/273/273 274/274/274 259/259/259
f 273/273/273 275/275/275 274/274/274
f 276/276/276 271/271/271 272/272/272
f 276/276/276 272/272/272 274/274/274
f 271/271/271 277/277/277 268/268/268
f 277/277/277 271/271/271 276/276/276
f 278/278/278 273/273/273 260/260/260
f 266/266/266 278/278/278 260/260/260
f 276/276/276 274/274/274 279/279/279
f 275/275/275 279/279/279 274/274/274
f 277/277/277 280/280/280 268/268/268
f 269/269/269 268/268/268 280/280/280
f 281/281/281 277/277/277 276/276/276
f 281/281/281 276/276/276 279/279/279
f 277/277/277 281/281/281 280/280/280
f 281/281/281 279/279/279 280/280/280
f 282/282/282 280/280/280 279/279/279
f 282/282/282 279/279/279 275/275/275
f 283/283/283 269/269/269 280/280/280
f 283/283/283 280/280/280 282/282/282
f 284/284/284 275/275/275 273/273/273
f 278/278/278 284/284/284 273/273/273
f 285/285/285 269/269/269 283/283/283
f 285/285/285 253/253/253 269/269/269
f 275/275/275 284/284/284 286/286/286
f 286/286/286 287/287/287 275/275/275
f 287/287/287 288/288/288 275/275/275
f 288/288/288 282/282/282 275/275/275
f 289/289/289 282/282/282 288/288/288
f 282/282/282 289/289/289 283/283/283
f 290/290/290 289/289/289 288/288/288
f 289/289/289 290/290/290 291/291/291
f 292/292/292 289/289/289 291/291/291
f 292/292/292 291/291/291 293/293/293
f 294/294/294 292/292/292 293/293/293
f 292/292/292 294/294/294 295/295/295
f 289/289/289 292/292/292 296/296/296
f 283/283/283 289/289/289 296/296/296
f 296/296/296 292/292/292 295/295/295
f 283/283/283 296/296/296 297/297/297
f 297/297/297 285/285/285 283/283/283
f 298/298/298 296/296/296 295/295/295
f 297/297/297 296/296/296 298/298/298
f 299/299/299 298/298/298 295/295/295
f 298/298/298 299/299/299 300/300/300
f 301/301/301 297/297/297 298/298/298
f 297/297/297 301/301/301 285/285/285
f 301/301/301 298/298/298 300/300/300
f 301/301/301 302/302/302 285/285/285
f 285/285/285 302/302/302 253/253/253
f 302/302/302 254/254/254 253/253/253
f 254/254/254 302/302/302 303/303/303
f 301/301/301 300/300/300 304/304/304
f 300/300/300 305/305/305 304/304/304
f 302/302/302 301/301/301 306/306/306
f 302/302/302 306/306/306 303/303/303
f 301/301/301 304/304/304 306/306/306
f 307/307/307 304/304/304 305/305/305
f 308/308/308 307/307/307 305/305/305
f 307/307/307 309/309/309 304/304/304
f 309/309/309 306/306/306 304/304/304
f 309/309/309 310/310/310 306/306/306
f 310/310/310 303/303/303 306/306/306
f 310/310/310 311/311/311 303/303/303
f 314/314/314 313/313/313 312/312/312
f 314/314/314 312/312/312 315/315/315
f 316/316/316 314/314/314 315/315/315
f 317/317/317 314/314/314 316/316/316
f 318/318/318 316/316/316 315/315/315
f 318/318/318 317/317/317 316/316/316
f 319/319/319 318/318/318 315/315/315
f 320/320/320 317/317/317 318/318/318
f 320/320/320 318/318/318 319/319/319
f 320/320/320 321/321/321 317/317/317
f 322/322/322 320/320/320 319/319/319
f 321/321/321 320/320/320 323/323/323
f 320/320/320 322/322/322 323/323/323
f 323/323/323 322/322/322 324/324/324
f 327/327/327 326/326/326 325/325/325
f 328/328/328 327/327/327 325/325/325
f 328/328/328 325/325/325 329/329/329
f 325/325/325 330/330/330 329/329/329
f 330/330/330 331/331/331 329/329/329
f 328/328/328 329/329/329 332/332/332
f 332/332/332 333/333/333 328/328/328
f 333/333/333 332/332/332 334/334/334
f 332/332/332 335/335/335 334/334/334
f 334/334/334 335/335/335 336/336/336
f 334/334/334 336/336/336 337/337/337
f 338/338/338 337/337/337 336/336/336
f 337/337/337 338/338/338 334/334/334
f 341/341/341 340/340/340 339/339/339
f 339/339/339 342/342/342 341/341/341
f 341/341/341 342/342/342 343/343/343
f 344/344/344 340/340/340 341/341/341
f 343/343/343 345/345/345 341/341/341
f 346/346/346 344/344/344 341/341/341
f 347/347/347 344/344/344 346/346/346
f 345/345/345 348/348/348 341/341/341
f 346/346/346 341/341/341 348/348/348
f 348/348/348 345/345/345 349/349/349
f 350/350/350 348/348/348 349/349/349
f 351/351/351 348/348/348 350/350/350
f 351/351/351 346/346/346 348/348/348
f 352/352/352 351/351/351 350/350/350
f 353/353/353 347/347/347 346/346/346
f 353/353/353 346/346/346 351/351/351
f 354/354/354 351/351/351 352/352/352
f 351/351/351 354/354/354 353/353/353
f 355/355/355 354/354/354 352/352/352
f 355/355/355 356/356/356 354/354/354
f 356/356/356 357/357/357 354/354/354
f 356/356/356 358/358/358 357/357/357
f 354/354/354 357/357/357 359/359/359
f 354/354/354 359/359/359 353/353/353
f 358/358/358 360/360/360 357/357/357
f 357/357/357 360/360/360 359/359/359
f 360/360/360 358/358/358 361/361/361
f 359/359/359 360/360/360 361/361/361
f 361/361/361 362/362/362 359/359/359
f 362/362/362 363/363/363 359/359/359
f 359/359/359 363/363/363 353/353/353
f 363/363/363 362/362/362 364/364/364
f 365/365/365 364/364/364 347/347/347
f 353/353/353 365/365/365 347/347/347
f 365/365/365 363/363/363 364/364/364
f 363/363/363 365/365/365 353/353/353
f 368/368/368 367/367/367 366/366/366
f 368/368/368 366/366/366 369/369/369
f 368/368/368 369/369/369 370/370/370
f 368/368/368 371/371/371 367/367/367
f 368/368/368 370/370/370 372/372/372
f 368/368/368 373/373/373 371/371/371
f 374/374/374 371/371/371 373/373/373
f 374/374/374 373/373/373 375/375/375
f 368/368/368 375/375/375 373/373/373
f 376/376/376 374/374/374 375/375/375
f 376/376/376 375/375/375 377/377/377
f 368/368/368 377/377/377 375/375/375
f 378/378/378 376/376/376 377/377/377
f 368/368/368 372/372/372 379/379/379
f 368/368/368 379/379/379 377/377/377
f 378/378/378 377/377/377 379/379/379
f 380/380/380 379/379/379 372/372/372
f 380/380/380 378/378/378 379/379/379
f 383/383/383 382/382/382 381/381/381
f 381/381/381 382/382/382 384/384/384
f 384/384/384 382/382/382 385/385/385
f 386/386/386 382/382/382 383/383/383
f 385/385/385 382/382/382 387/387/387
f 388/388/388 382/382/382 386/386/386
f 386/386/386 389/389/389 388/388/388
f 388/388/388 389/389/389 390/390/390
f 390/390/390 382/382/382 388/388/388
f 389/389/389 391/391/391 390/390/390
f 390/390/390 391/391/391 392/392/392
f 392/392/392 382/382/382 390/390/390
f 391/391/391 393/393/393 392/392/392
f 387/387/387 382/382/382 394/394/394
f 394/394/394 382/382/382 392/392/392
f 392/392/392 393/393/393 394/394/394
f 394/394/394 395/395/395 387/387/387
f 393/393/393 395/395/395 394/394/394
f 396/396/396 284/284/284 278/278/278
f 397/397/397 396/396/396 278/278/278
f 397/397/397 278/278/278 266/266/266
f 284/284/284 396/396/396 398/398/398
f 398/398/398 396/396/396 397/397/397
f 399/399/399 284/284/284 398/398/398
f 398/398/398 400/400/400 399/399/399
f 400/400/400 398/398/398 397/397/397
f 400/400/400 401/401/401 399/399/399
f 402/402/402 397/397/397 266/266/266
f 400/400/400 397/397/397 402/402/402
f 402/402/402 266/266/266 403/403/403
f 404/404/404 403/403/403 401/401/401
f 400/400/400 404/404/404 401/401/401
f 404/404/404 402/402/402 403/403/403
f 404/404/404 400/400/400 402/402/402
f 105/105/105 405/405/405 99/99/99
f 405/405/405 406/406/406 99/99/99
f 99/99/99 406/406/406 87/87/87
f 405/405/405 105/105/105 407/407/407
f 405/405/405 407/407/407 406/406/406
f 105/105/105 408/408/408 407/407/407
f 409/409/409 407/407/407 408/408/408
f 407/407/407 409/409/409 406/406/406
f 410/410/410 409/409/409 408/408/408
f 406/406/406 411/411/411 87/87/87
f 406/406/406 409/409/409 411/411/411
f 87/87/87 411/411/411 412/412/412
f 413/413/413 409/409/409 410/410/410
f 412/412/412 413/413/413 410/410/410
f 411/411/411 413/413/413 412/412/412
f 409/409/409 413/413/413 411/411/411
