g CharredSpawnerFragment_06
v -0.243675053 0.398369431 -1.20946169
v -0.344780385 0.348750234 -1.19966316
v -0.0896570012 0.391819 -1.50273585
v -0.344780385 0.348750234 -1.19966316
v -0.455194533 0.398921996 -1.18472147
v -0.0896570012 0.391819 -1.50273585
v -0.597904325 0.392049968 -1.49240518
v -0.455194533 0.398921996 -1.18472147
v -0.543634713 0.399153084 -1.17437708
v -0.0896570012 0.391819 -1.50273585
v 0.182579607 0.379615992 -2.04907393
v -0.737869561 0.373730034 -2.31262302
v 0.218976244 0.391966283 -1.49614525
v -0.243675053 0.398369431 -1.20946169
v 0.234168202 0.397121191 -1.26535201
v 0.1604442 0.372105092 -2.38535047
v -0.639443099 0.37141791 -2.41613984
v 0.12911965 0.361476511 -2.86122775
v 0.0683190003 0.358460009 -2.99628711
v -0.0612894297 0.357836664 -3.02419424
v 0.120331846 0.358494699 -2.99473047
v -0.0053550303 0.350815684 -3.08032131
v 0.106807232 0.354032278 -3.20105243
v -0.597904325 0.392049968 -1.49240518
v -0.678222179 0.149070218 -2.30091143
v -0.737869561 0.373730034 -2.31262302
v -0.552181125 0.165567607 -1.56229186
v -0.543634713 0.399153084 -1.17437708
v -0.503310442 0.171964064 -1.27590215
v 0.234168202 0.397121191 -1.26535201
v 0.197113872 0.170134306 -1.35782671
v -0.233191863 0.17125839 -1.30749643
v -0.243675053 0.398369431 -1.20946169
v -0.324238837 0.12657547 -1.29867256
v -0.344780385 0.348750234 -1.19966316
v -0.423668653 0.171755955 -1.28521752
v -0.455194533 0.398921996 -1.18472147
v -0.503310442 0.171964064 -1.27590215
v -0.543634713 0.399153084 -1.17437708
v -0.0053550303 0.350815684 -3.08032131
v 0.0824232101 0.131332025 -3.10095692
v 0.106807232 0.354032278 -3.20105243
v -0.043765679 0.131596714 -2.96696472
v -0.0612894297 0.357836664 -3.02419424
v -0.639443099 0.37141791 -2.41613984
v -0.58958751 0.146988079 -2.39412999
v -0.737869561 0.373730034 -2.31262302
v -0.678222179 0.149070218 -2.30091143
v 0.106807232 0.354032278 -3.20105243
v 0.0824232101 0.131332025 -3.10095692
v 0.0985591412 0.136693105 -2.85504961
v 0.120331846 0.358494699 -2.99473047
v 0.12911965 0.361476511 -2.86122775
v 0.130724192 0.147606894 -2.36640334
v 0.1604442 0.372105092 -2.38535047
v 0.150657475 0.154370621 -2.06358099
v 0.182579607 0.379615992 -2.04907393
v 0.183433264 0.165492222 -1.56565976
v 0.218976244 0.391966283 -1.49614525
v 0.197113872 0.170134306 -1.35782671
v 0.234168202 0.397121191 -1.26535201
v 0.0985591412 0.136693105 -2.85504961
v 0.0824232101 0.131332025 -3.10095692
v -0.043765679 0.131596714 -2.96696472
v -0.58958751 0.146988079 -2.39412999
v 0.130724192 0.147606894 -2.36640334
v -0.678222179 0.149070218 -2.30091143
v 0.150657475 0.154370621 -2.06358099
v -0.552181125 0.165567607 -1.56229186
v 0.183433264 0.165492222 -1.56565976
v 0.197113872 0.170134306 -1.35782671
v -0.324238837 0.12657547 -1.29867256
v -0.233191863 0.17125839 -1.30749643
v -0.503310442 0.171964064 -1.27590215
v -0.423668653 0.171755955 -1.28521752
vt 0.582519531 0.637207031
vt 0.576660156 0.631835938
vt 0.575195312 0.66015625
vt 0.576660156 0.631835938
vt 0.5703125 0.625488281
vt 0.575195312 0.66015625
vt 0.387207031 0.215332031
vt 0.398193359 0.191894531
vt 0.391357422 0.191040039
vt 0.426025391 0.216064453
vt 0.446777344 0.2578125
vt 0.376708984 0.277832031
vt 0.449462891 0.215576172
vt 0.414306641 0.193725586
vt 0.450683594 0.197998047
vt 0.445068359 0.283447266
vt 0.384033203 0.285644531
vt 0.442626953 0.319580078
vt 0.437988281 0.330078125
vt 0.428222656 0.33203125
vt 0.442138672 0.329833984
vt 0.432128906 0.336181641
vt 0.440917969 0.345703125
vt 0.348632812 0.302490234
vt 0.361572266 0.233764648
vt 0.342529297 0.23425293
vt 0.367431641 0.295410156
vt 0.350585938 0.329345703
vt 0.369140625 0.319824219
vt 0.432128906 0.335449219
vt 0.428222656 0.314941406
vt 0.391845703 0.317626953
vt 0.391601562 0.338867188
vt 0.383544922 0.317382812
vt 0.383056641 0.3359375
vt 0.375976562 0.319580078
vt 0.374023438 0.340576172
vt 0.369140625 0.319824219
vt 0.366455078 0.341064453
vt 0.410888672 0.16394043
vt 0.427734375 0.173095703
vt 0.420410156 0.154541016
vt 0.416748047 0.183349609
vt 0.405761719 0.16784668
vt 0.355224609 0.214111328
vt 0.369140625 0.22668457
vt 0.346679688 0.221923828
vt 0.361572266 0.233764648
vt 0.446289062 0.165527344
vt 0.427734375 0.173095703
vt 0.427734375 0.193237305
vt 0.446289062 0.182373047
vt 0.446289062 0.193237305
vt 0.427734375 0.233032227
vt 0.446044922 0.232177734
vt 0.427734375 0.2578125
vt 0.446044922 0.259521484
vt 0.427978516 0.298339844
vt 0.446289062 0.304199219
vt 0.428222656 0.314941406
vt 0.446289062 0.322753906
vt 0.427734375 0.193237305
vt 0.427734375 0.173095703
vt 0.416748047 0.183349609
vt 0.369140625 0.22668457
vt 0.427734375 0.233032227
vt 0.361572266 0.233764648
vt 0.427734375 0.2578125
vt 0.367431641 0.295410156
vt 0.427978516 0.298339844
vt 0.428222656 0.314941406
vt 0.383544922 0.317382812
vt 0.391845703 0.317626953
vt 0.369140625 0.319824219
vt 0.375976562 0.319580078
vn -0.313232422 0.931640625 -0.185302734
vn -0.445800781 0.858398438 -0.253417969
vn -0.00465774536 1 -0.0165710449
vn 0.41796875 0.781738281 0.462890625
vn 0.0934448242 0.9921875 0.0852050781
vn -0.00465774536 1 -0.0165710449
vn 5.36441803E-07 0.999511719 -0.0223236084
vn 0.0934448242 0.9921875 0.0852050781
vn 4.76837158E-07 0.999511719 -0.0223236084
vn -0.00465774536 1 -0.0165710449
vn 4.76837158E-07 0.999511719 -0.0223236084
vn 5.96046448E-07 0.999511719 -0.0223236084
vn -2.38418579E-07 0.999511719 -0.0223236084
vn -0.313232422 0.931640625 -0.185302734
vn -1.78813934E-07 0.999511719 -0.0223236084
vn 5.96046448E-07 0.999511719 -0.0223236084
vn 5.96046448E-07 0.999511719 -0.0223236084
vn 4.76837158E-07 0.999511719 -0.0223236084
vn -0.0133056641 0.999511719 -0.0335083008
vn 0.00582122803 0.998535156 -0.0493469238
vn -0.0192871094 0.999511719 -0.0256195068
vn -0.0131072998 0.997558594 -0.0657958984
vn -0.0410461426 0.998535156 -0.0293121338
vn -0.955078125 -0.244750977 0.168457031
vn -0.955078125 -0.244750977 0.168457031
vn -0.955078125 -0.244750977 0.168457031
vn -0.955078125 -0.244750977 0.168457031
vn -0.955078125 -0.244750977 0.168457031
vn -0.955078125 -0.244750977 0.168457031
vn 0.105957031 -0.389892578 0.914550781
vn 0.105957031 -0.389892578 0.914550781
vn 0.193481445 -0.381347656 0.903808594
vn 0.180419922 -0.3828125 0.90625
vn 0.120361328 -0.394775391 0.910644531
vn 0.0939941406 -0.397949219 0.912597656
vn 0.00333786011 -0.404296875 0.914550781
vn 0.0440673828 -0.399169922 0.916015625
vn 0.105957031 -0.389892578 0.914550781
vn 0.105957031 -0.389892578 0.914550781
vn -0.708496094 -0.22277832 -0.669921875
vn -0.7109375 -0.221435547 -0.667480469
vn -0.7109375 -0.221435547 -0.667480469
vn -0.708984375 -0.223022461 -0.668945312
vn -0.706542969 -0.224243164 -0.671386719
vn -0.708984375 -0.223388672 -0.668945312
vn -0.708984375 -0.223388672 -0.668945312
vn -0.708984375 -0.223144531 -0.668945312
vn -0.708984375 -0.223144531 -0.668945312
vn 0.988769531 -0.136108398 -0.0618896484
vn 0.988769531 -0.136108398 -0.0618896484
vn 0.988769531 -0.136108398 -0.0619812012
vn 0.988769531 -0.136108398 -0.0619506836
vn 0.988769531 -0.136108398 -0.0620422363
vn 0.988769531 -0.136108398 -0.0620422363
vn 0.988769531 -0.136108398 -0.0620422363
vn 0.988769531 -0.136108398 -0.0620422363
vn 0.988769531 -0.136108398 -0.0620422363
vn 0.988769531 -0.136108398 -0.0620422363
vn 0.988769531 -0.136108398 -0.0620422363
vn 0.988769531 -0.136108398 -0.0620422363
vn 0.988769531 -0.136108398 -0.0620422363
vn 0.000395298004 -1 0.0191497803
vn 0.000395298004 -1 0.0191497803
vn 0.000395298004 -1 0.0191497803
vn 0.000395298004 -1 0.0191497803
vn 0.000395298004 -1 0.0191497803
vn 0.000395298004 -1 0.0191497803
vn 0.000395298004 -1 0.0191497803
vn 0.000395298004 -1 0.0191497803
vn 0.000395298004 -1 0.0191497803
vn 0.000395298004 -1 0.0191497803
vn 0.000395298004 -1 0.0191497803
vn 0.000395298004 -1 0.0191497803
vn 0.000395298004 -1 0.0191497803
vn 0.000395298004 -1 0.0191497803
g CharredSpawnerFragment_06_0
f 3/3/3 2/2/2 1/1/1
f 6/6/6 5/5/5 4/4/4
f 9/9/9 8/8/8 7/7/7
f 8/8/8 10/10/10 7/7/7
f 7/7/7 10/10/10 11/11/11
f 12/12/12 7/7/7 11/11/11
f 10/10/10 13/13/13 11/11/11
f 10/10/10 14/14/14 13/13/13
f 14/14/14 15/15/15 13/13/13
f 12/12/12 11/11/11 16/16/16
f 16/16/16 17/17/17 12/12/12
f 17/17/17 16/16/16 18/18/18
f 17/17/17 18/18/18 19/19/19
f 19/19/19 20/20/20 17/17/17
f 18/18/18 21/21/21 19/19/19
f 19/19/19 22/22/22 20/20/20
f 21/21/21 23/23/23 19/19/19
f 23/23/23 22/22/22 19/19/19
f 26/26/26 25/25/25 24/24/24
f 25/25/25 27/27/27 24/24/24
f 24/24/24 27/27/27 28/28/28
f 27/27/27 29/29/29 28/28/28
f 32/32/32 31/31/31 30/30/30
f 33/33/33 32/32/32 30/30/30
f 34/34/34 32/32/32 33/33/33
f 35/35/35 34/34/34 33/33/33
f 36/36/36 34/34/34 35/35/35
f 37/37/37 36/36/36 35/35/35
f 38/38/38 36/36/36 37/37/37
f 39/39/39 38/38/38 37/37/37
f 42/42/42 41/41/41 40/40/40
f 41/41/41 43/43/43 40/40/40
f 40/40/40 43/43/43 44/44/44
f 44/44/44 43/43/43 45/45/45
f 43/43/43 46/46/46 45/45/45
f 45/45/45 46/46/46 47/47/47
f 46/46/46 48/48/48 47/47/47
f 51/51/51 50/50/50 49/49/49
f 52/52/52 51/51/51 49/49/49
f 53/53/53 51/51/51 52/52/52
f 54/54/54 51/51/51 53/53/53
f 55/55/55 54/54/54 53/53/53
f 56/56/56 54/54/54 55/55/55
f 57/57/57 56/56/56 55/55/55
f 58/58/58 56/56/56 57/57/57
f 59/59/59 58/58/58 57/57/57
f 60/60/60 58/58/58 59/59/59
f 61/61/61 60/60/60 59/59/59
f 64/64/64 63/63/63 62/62/62
f 62/62/62 65/65/65 64/64/64
f 62/62/62 66/66/66 65/65/65
f 66/66/66 67/67/67 65/65/65
f 66/66/66 68/68/68 67/67/67
f 68/68/68 69/69/69 67/67/67
f 68/68/68 70/70/70 69/69/69
f 70/70/70 71/71/71 69/69/69
f 71/71/71 72/72/72 69/69/69
f 71/71/71 73/73/73 72/72/72
f 72/72/72 74/74/74 69/69/69
f 72/72/72 75/75/75 74/74/74
