g Charred_Gib01
v -0.0425839983 -0.00239956379 -0.00221276283
v -0.0239775777 -0.025647521 0.0144062489
v -0.0425839983 -0.0185915232 0.0090177469
v -0.0336076021 0.00437605381 -0.0055205673
v -0.00686514378 -0.0156439543 0.0101648076
v -0.0030772686 0.000201463699 -0.0050137192
v 0.0990109444 -0.0101753473 0.0118053742
v 0.0990109444 -0.00285303593 0.0010150224
v 0.216984689 -0.0131899118 0.00357590243
v 0.216891289 0.00465619564 -0.0142168542
v 0.237244904 -0.0103756189 0.0150998458
v 0.246608138 0.00465619564 -0.00785467029
v 0.246194601 -0.0128430128 -0.0190584958
v 0.237244904 -0.0103756189 0.0150998458
v 0.241993114 -0.0376781225 -0.00628079474
v 0.216891289 -0.00688099861 -0.0215126649
v 0.0990109444 -0.0125362873 -0.00509373844
v -0.00399744511 -0.0104423761 -0.0189518109
v 0.216731176 -0.030395627 -0.0126563078
v 0.0990109444 -0.0233266354 0.00232212618
v 0.216984689 -0.0131899118 0.00357590243
v 0.237244904 -0.0103756189 0.0150998458
v 0.0990109444 -0.0101753473 0.0118053742
v -0.00686514378 -0.0156439543 0.0101648076
v -0.0118401647 -0.0409060717 -0.0042001009
v -0.0239775777 -0.025647521 0.0144062489
v -0.0296862125 -0.0376514196 -0.00832152367
v -0.0425839983 -0.0185915232 0.0090177469
v -0.0449582338 -0.0267944336 -0.00613410771
v -0.0278989673 -0.0127897263 -0.0232466236
v -0.0425839983 -0.0149502754 -0.0106823146
v -0.0425839983 -0.0185915232 0.0090177469
v -0.0425839983 -0.0206058025 -0.0255140588
v -0.0316869617 -0.0176848173 -0.0173245892
v -0.0425839983 -0.0237001181 -0.0230732169
v -0.0336076021 -0.00444018841 -0.0299955737
v -0.0143210888 -0.0176848173 -0.0194986686
v -0.0143210888 -0.00896167755 -0.0323697105
v 0.100918293 -0.0233932734 -0.0150037855
v 0.100918293 -0.0146701336 -0.0278748404
v 0.216744587 -0.0176848173 -0.0220728591
v 0.216891289 -0.00896167755 -0.0398655981
v 0.230962694 -0.031956315 -0.00857491791
v 0.100918293 -0.0262075663 -0.0351573303
v -0.0143210888 -0.020498991 -0.03966555
v 0.216891289 -0.020498991 -0.0471480824
v -0.0425839983 -0.0245137215 -0.029582113
v -0.0386093259 -0.020498991 -0.0437869579
v -0.0434376001 -0.0278482437 -0.0277414918
v -0.0425839983 -0.0237001181 -0.0230732169
v -0.0386093259 -0.0333834887 -0.0349306092
v -0.0143210888 -0.0333834887 -0.0308091771
v -0.0316869617 -0.0176848173 -0.0173245892
v -0.0425839983 -0.0237001181 -0.0230732169
v -0.0143210888 -0.0176848173 -0.0194986686
v 0.100918293 -0.0390919447 -0.0263143107
v 0.100918293 -0.0233932734 -0.0150037855
v 0.216731176 -0.0440137386 -0.0383050665
v 0.216744587 -0.0176848173 -0.0220728591
v 0.244540691 -0.0288219452 -0.0407859161
v 0.241993114 -0.0512962341 -0.0319295526
v 0.230962694 -0.031956315 -0.00857491791
v 0.259599209 -0.031956315 -0.0043868199
v 0.264307439 -0.0506160259 -0.0328231975
v 0.246608138 -0.00896167755 -0.0335034281
v 0.273177087 -0.0288219452 -0.0365978181
v 0.259599209 -0.031956315 -0.0043868199
v 0.275244474 -0.0190850496 -0.022659719
v 0.259599209 -0.031956315 -0.0043868199
v -0.0515502058 -0.0237972736 -0.0311032906
v -0.0731265545 -0.0129451752 -0.0470469221
v -0.0959419608 -0.0103572607 -0.0376164094
v -0.146124125 0.00537610054 -0.0371238664
v -0.149008989 0.0216231346 -0.0234475341
v -0.0404060446 -0.0240950584 0.016728621
v -0.151722431 0.0402776003 -0.0029675737
v -0.149362028 0.05435884 0.0239517633
v -0.0653955936 -0.00617802143 0.0381671712
v -0.0804849789 0.00275623798 0.0370504372
v -0.0982268378 0.0237677097 0.0410548151
v -0.135542274 0.050366044 0.0572862141
v -0.0907406211 -0.0266827345 0.0708865821
v -0.0679110885 -0.0257160664 0.030866133
v -0.081497483 -0.013774395 0.0233954377
v -0.100468338 -0.0165933371 0.0634211749
v -0.0721675754 0.00163185596 0.0310601182
v -0.1100403 -0.0247019529 0.0801210105
v -0.0979921818 -0.00144374371 0.0674978048
v -0.112550072 -0.0177927017 0.0739813298
v -0.113050573 -0.0299788713 0.0803086534
v -0.113025665 -0.0115540028 0.081213586
v -0.117277086 -0.0182520151 0.0699020252
v -0.118088603 -0.00765657425 0.0821723714
v -0.156346023 -0.0287106037 0.0889261216
v -0.15917021 -0.0208755732 0.0819677562
v -0.159721553 -0.0137716532 0.090170972
v -0.189557135 -0.0197190046 0.0896226987
v -0.187777519 -0.0229235888 0.085631609
v -0.187871754 -0.0271641016 0.0889949501
v -0.166943178 0.0526845455 0.073215358
v -0.130802035 0.0557229519 0.0581078082
v -0.135669813 0.0457518101 0.0485788509
v -0.170639873 0.0462713242 0.06324628
v -0.139887094 0.0564457178 0.0395338275
v -0.190091237 0.0407459736 0.0766958296
v -0.176028356 0.053407073 0.0546413884
v -0.190458596 0.036211133 0.0709057674
v -0.191189036 0.0392826796 0.0809851885
v -0.194653139 0.0411098003 0.0673520863
v -0.191814646 0.0315995216 0.0711647719
v -0.198933423 0.0398995876 0.0651365668
v -0.215683147 0.0279874802 0.0865914598
v -0.216055453 0.0234663486 0.0807895809
v -0.220249712 0.028351903 0.0772351995
v -0.230634734 0.0131392479 0.0846412331
v -0.227781117 0.011333704 0.0860538632
v -0.228364632 0.0129574537 0.0893026963
v -0.176028356 0.053407073 0.0546413884
v -0.139887094 0.0564457178 0.0395338275
v -0.135006666 0.0664176941 0.0490585305
v -0.172318518 0.0598074198 0.0646054
v -0.130802035 0.0557229519 0.0581078082
v -0.166943178 0.0526845455 0.073215358
v -0.194653139 0.0411098003 0.0673520863
v -0.194285274 0.0456317663 0.0731414109
v -0.190091237 0.0407459736 0.0766958296
v -0.191189036 0.0392826796 0.0809851885
v -0.198307514 0.0475693941 0.0749562755
v -0.198933423 0.0398995876 0.0651365668
v -0.215683147 0.0279874802 0.0865914598
v -0.219877779 0.0328866243 0.0830378234
v -0.220249712 0.028351903 0.0772351995
v -0.228364632 0.0129574537 0.0893026963
v -0.231222674 0.0147631168 0.08787743
v -0.227781117 0.011333704 0.0860538632
v -0.230634734 0.0131392479 0.0846412331
v -0.227781117 0.011333704 0.0860538632
v -0.135006666 0.0664176941 0.0490585305
v -0.139887094 0.0564457178 0.0395338275
v -0.135669813 0.0457518101 0.0485788509
v -0.130802035 0.0557229519 0.0581078082
v -0.166388035 0.0706857443 0.01322411
v -0.143686399 0.0369371176 0.00442194939
v -0.155730009 0.0332658291 -0.00461090356
v -0.174600706 0.0678272247 0.0033687239
v -0.14893733 0.040399909 -0.0165697858
v -0.190078199 0.0852570534 0.014224343
v -0.17163229 0.0741375685 -0.00777114136
v -0.194560349 0.0816035271 0.00898387656
v -0.191837132 0.0865254402 0.0186655149
v -0.192713559 0.0869879723 0.00366086885
v -0.199445888 0.0803375244 0.00977650937
v -0.196320593 0.089480035 0.000739879906
v -0.215637848 0.103175879 0.0214418694
v -0.220125139 0.0995303318 0.0162178501
v -0.218280137 0.104917765 0.0108819744
v -0.237480327 0.10762167 0.0190199278
v -0.237416789 0.104508035 0.0213580858
v -0.236173928 0.106747739 0.0242809858
v -0.17163229 0.0741375685 -0.00777114136
v -0.14893733 0.040399909 -0.0165697858
v -0.136887372 0.044060111 -0.00754045695
v -0.163419724 0.0769962072 0.00208429992
v -0.143686399 0.0369371176 0.00442194939
v -0.166388035 0.0706857443 0.01322411
v -0.192713559 0.0869879723 0.00366086885
v -0.18824254 0.0906345844 0.0089017516
v -0.190078199 0.0852570534 0.014224343
v -0.191837132 0.0865254402 0.0186655149
v -0.188732371 0.0956747532 0.00962002575
v -0.196320593 0.089480035 0.000739879906
v -0.215637848 0.103175879 0.0214418694
v -0.213797733 0.108571529 0.0161224678
v -0.218280137 0.104917765 0.0108819744
v -0.236173928 0.106747739 0.0242809858
v -0.236230671 0.109850168 0.0219392218
v -0.237480327 0.10762167 0.0190199278
v -0.237416789 0.104508035 0.0213580858
v -0.136887372 0.044060111 -0.00754045695
v -0.14893733 0.040399909 -0.0165697858
v -0.155730009 0.0332658291 -0.00461090356
v -0.143686399 0.0369371176 0.00442194939
v -0.160801038 0.0387601852 -0.0401322544
v -0.140480578 0.0219581127 -0.0253941789
v -0.148861408 0.0144695044 -0.0248793066
v -0.166573286 0.0311989784 -0.0408942029
v -0.145278156 0.00980305672 -0.0344601348
v -0.179576933 0.043689847 -0.0457467102
v -0.165598392 0.02660501 -0.0491982065
v -0.1824442 0.0389010906 -0.0448345616
v -0.180871308 0.0468689203 -0.044699654
v -0.181985915 0.0375744104 -0.0503164232
v -0.185748816 0.0387427807 -0.0431372449
v -0.184964955 0.0364969969 -0.0524461158
v -0.199935853 0.0536780357 -0.0509421676
v -0.202815354 0.048887372 -0.0500247702
v -0.202357113 0.0475606918 -0.0555066541
v -0.216171324 0.0528709888 -0.0518006831
v -0.215659305 0.0532252789 -0.0490456037
v -0.21497409 0.0559145212 -0.0495197996
v -0.165598392 0.02660501 -0.0491982065
v -0.145278156 0.00980305672 -0.0344601348
v -0.136892855 0.0172812939 -0.0349679217
v -0.159822226 0.0341558456 -0.0484291203
v -0.140480578 0.0219581127 -0.0253941789
v -0.160801038 0.0387601852 -0.0401322544
v -0.181985915 0.0375744104 -0.0503164232
v -0.179118872 0.0423634052 -0.0512286164
v -0.179576933 0.043689847 -0.0457467102
v -0.180871308 0.0468689203 -0.044699654
v -0.180099785 0.0446214676 -0.0540033132
v -0.184964955 0.0364969969 -0.0524461158
v -0.199935853 0.0536780357 -0.0509421676
v -0.199477732 0.0523514748 -0.0564241149
v -0.202357113 0.0475606918 -0.0555066541
v -0.21497409 0.0559145212 -0.0495197996
v -0.215482876 0.0555683374 -0.0522647798
v -0.216171324 0.0528709888 -0.0518006831
v -0.215659305 0.0532252789 -0.0490456037
v -0.136892855 0.0172812939 -0.0349679217
v -0.145278156 0.00980305672 -0.0344601348
v -0.148861408 0.0144695044 -0.0248793066
v -0.140480578 0.0219581127 -0.0253941789
v -0.0585811138 -0.0103100538 0.0385308005
v -0.0721675754 0.00163185596 0.0310601182
v -0.081497483 -0.013774395 0.0233954377
v -0.0979921818 -0.00144374371 0.0674978048
v -0.0679110885 -0.0257160664 0.030866133
v -0.0882644653 -0.0115332603 0.0749632269
v -0.0907406211 -0.0266827345 0.0708865821
v -0.113025665 -0.0115540028 0.081213586
v -0.110526673 -0.018455863 0.0873566419
v -0.1100403 -0.0247019529 0.0801210105
v -0.113050573 -0.0299788713 0.0803086534
v -0.113855362 -0.019372344 0.0925774872
v -0.118088603 -0.00765657425 0.0821723714
v -0.156346023 -0.0287106037 0.0889261216
v -0.156882867 -0.0216139555 0.0971388221
v -0.159721553 -0.0137716532 0.090170972
v -0.187871754 -0.0271641016 0.0889949501
v -0.18965137 -0.0239597559 0.0929860249
v -0.189557135 -0.0197190046 0.0896226987
v -0.187777519 -0.0229235888 0.085631609
v -0.0959419608 -0.0103572607 -0.0376164094
v -0.0731265545 -0.0129451752 -0.0470469221
v -0.0609749556 -0.00358319283 -0.0355615839
v -0.0515502058 -0.0237972736 -0.0311032906
v -0.0928866863 0.010559082 -0.0338599756
v -0.146124125 0.00537610054 -0.0371238664
v -0.0478300452 -0.00125896931 0.0115898587
v -0.0404060446 -0.0240950584 0.016728621
v -0.066357255 0.0120255947 0.0274903718
v -0.0653955936 -0.00617802143 0.0381671712
v -0.0693408251 0.0170544386 0.00308966986
v -0.0768893957 0.0184247494 0.0279299207
v -0.0804849789 0.00275623798 0.0370504372
v -0.0907142162 0.0342304707 0.0296291225
v -0.0982268378 0.0237677097 0.0410548151
v -0.0993689895 0.0403426886 0.00794740394
v -0.118392281 0.0539629459 0.0416610576
v -0.135542274 0.050366044 0.0572862141
v -0.128635645 0.0569274426 0.0169540234
v -0.149362028 0.05435884 0.0239517633
v -0.0732953548 0.0098631382 -0.0198063925
v -0.0966402218 0.0246624947 -0.0128398165
v -0.130384266 0.0464806557 -0.00301866978
v -0.151722431 0.0402776003 -0.0029675737
v -0.126240969 0.0205956697 -0.0283486452
v -0.149008989 0.0216231346 -0.0234475341
vt 0.686508298 0.63243866
vt 0.675822139 0.63290143
vt 0.68184936 0.628662586
vt 0.685990453 0.635126948
vt 0.677161813 0.640300393
vt 0.684309185 0.64239949
vt 0.681882739 0.674359083
vt 0.686017156 0.674502492
vt 0.676245689 0.710861325
vt 0.683514237 0.711323202
vt 0.674125373 0.717632949
vt 0.682603061 0.719848752
vt 0.687825978 0.718469679
vt 0.686637044 0.727707565
vt 0.694797039 0.720794201
vt 0.687375307 0.711487591
vt 0.68975091 0.674531221
vt 0.689089239 0.642324865
vt 0.694542646 0.71245873
vt 0.69395119 0.674595833
vt 0.701627672 0.71185267
vt 0.705293715 0.718124568
vt 0.699300647 0.674883246
vt 0.705293715 0.641480386
vt 0.697024643 0.640475988
vt 0.702573597 0.635202289
vt 0.695581555 0.636433423
vt 0.698597789 0.629362822
vt 0.69374615 0.632122755
vt 0.690060794 0.637415767
vt 0.690495908 0.63317287
vt 0.690536022 0.627827108
vt 0.72895354 0.623432279
vt 0.723781526 0.625885546
vt 0.727982461 0.622137666
vt 0.728004098 0.628316104
vt 0.723009408 0.631603539
vt 0.727563918 0.632200658
vt 0.725514591 0.667116702
vt 0.730366111 0.66691649
vt 0.726604462 0.702751994
vt 0.732497692 0.70219028
vt 0.721862376 0.708899558
vt 0.734621406 0.666673958
vt 0.731171012 0.63252598
vt 0.736254692 0.701952398
vt 0.730629742 0.62467581
vt 0.730304599 0.62789613
vt 0.731938601 0.624150693
vt 0.730124056 0.622302651
vt 0.732371211 0.626980186
vt 0.735368967 0.631573379
vt 0.738645673 0.622460663
vt 0.733123302 0.622288287
vt 0.741277099 0.628941
vt 0.739352882 0.66624701
vt 0.745297909 0.665236592
vt 0.743691802 0.702342212
vt 0.753227711 0.700355053
vt 0.737809658 0.709596634
vt 0.744212747 0.710509539
vt 0.753368378 0.707836747
vt 0.753368378 0.717137516
vt 0.742523193 0.716912687
vt 0.732231975 0.710088968
vt 0.736557305 0.715803385
vt 0.737472236 0.724966049
vt 0.733057916 0.718836784
vt 0.724486768 0.717801094
vt 0.611940503 0.37398392
vt 0.605213284 0.368719637
vt 0.606111705 0.361448109
vt 0.600611806 0.346931159
vt 0.605318725 0.342704594
vt 0.626414418 0.373169601
vt 0.611527026 0.337323248
vt 0.619731903 0.333638847
vt 0.630295634 0.362808287
vt 0.628668785 0.357883513
vt 0.628532588 0.349681914
vt 0.630295634 0.335441172
vt 0.576221466 0.417811066
vt 0.575006425 0.403923184
vt 0.580560803 0.403290659
vt 0.581246674 0.417422175
vt 0.586173713 0.403409183
vt 0.578764439 0.423479259
vt 0.586431146 0.416951358
vt 0.582025826 0.423455089
vt 0.577988744 0.424431741
vt 0.585068047 0.423712105
vt 0.581733108 0.425172299
vt 0.586035848 0.425508261
vt 0.578411579 0.435940236
vt 0.58171016 0.436359644
vt 0.584720254 0.436905175
vt 0.582798243 0.44550994
vt 0.581360817 0.444878101
vt 0.579827309 0.445067823
vt 0.611607969 0.41560027
vt 0.610319257 0.402851135
vt 0.615089357 0.402888536
vt 0.615757823 0.415660232
vt 0.619534016 0.40272516
vt 0.61404407 0.423653007
vt 0.619957566 0.415394723
vt 0.616441011 0.42407012
vt 0.613156557 0.424540728
vt 0.618738532 0.423528254
vt 0.616409659 0.425349087
vt 0.619905591 0.424814135
vt 0.613941073 0.432976037
vt 0.616544247 0.433264554
vt 0.619012833 0.433085352
vt 0.617574811 0.439569145
vt 0.616430402 0.439466476
vt 0.61527276 0.439541399
vt 0.539380491 0.414142221
vt 0.539140046 0.404473484
vt 0.542882919 0.404000461
vt 0.542340517 0.413856506
vt 0.546609759 0.404601574
vt 0.545283854 0.414199471
vt 0.53959316 0.42145592
vt 0.541898012 0.421983659
vt 0.544196606 0.421557486
vt 0.545048952 0.422393262
vt 0.541955948 0.42322883
vt 0.538402498 0.422782779
vt 0.544064343 0.430096775
vt 0.541826129 0.42975983
vt 0.539838791 0.43036741
vt 0.543471277 0.436317176
vt 0.542316794 0.436290562
vt 0.543442011 0.437474668
vt 0.541176915 0.436454266
vt 0.541337132 0.437592059
vt 0.649749935 0.368743569
vt 0.649749756 0.364425808
vt 0.654067278 0.364427596
vt 0.654067278 0.368744642
vt 0.554777861 0.418628991
vt 0.553939819 0.406257212
vt 0.558553278 0.406447053
vt 0.558786988 0.418823183
vt 0.562857449 0.406433344
vt 0.556874275 0.426496863
vt 0.562857449 0.418696404
vt 0.559180737 0.426978171
vt 0.55598557 0.42732656
vt 0.561418831 0.426527083
vt 0.559107959 0.428216696
vt 0.562507451 0.427809715
vt 0.556476653 0.435509562
vt 0.558982134 0.435878217
vt 0.561380506 0.435780406
vt 0.559786737 0.442008674
vt 0.558677733 0.441873789
vt 0.557558239 0.441908836
vt 0.594884276 0.415011823
vt 0.593583345 0.403485596
vt 0.598007441 0.402527213
vt 0.598391652 0.414360523
vt 0.602524877 0.402853966
vt 0.601947188 0.41446346
vt 0.595906258 0.423730135
vt 0.598719835 0.424119353
vt 0.601418018 0.423371971
vt 0.602524877 0.424278557
vt 0.59891808 0.425603628
vt 0.594617605 0.42544347
vt 0.602131963 0.433544695
vt 0.599462152 0.433346093
vt 0.597166061 0.434348643
vt 0.601424575 0.439609945
vt 0.600434422 0.439201057
vt 0.59961462 0.439880311
vt 0.600670218 0.440746129
vt 0.679300189 0.368994415
vt 0.674726188 0.368994594
vt 0.674726367 0.364421427
vt 0.679300189 0.36442107
vt 0.666453362 0.413909644
vt 0.665845156 0.404926628
vt 0.66919589 0.405064672
vt 0.669365168 0.414048165
vt 0.672320366 0.405053109
vt 0.667979956 0.419622451
vt 0.672320366 0.41395995
vt 0.669651985 0.419970483
vt 0.667334318 0.42022416
vt 0.671277404 0.419645518
vt 0.669597387 0.420871347
vt 0.672065377 0.420576364
vt 0.667684317 0.426162571
vt 0.669505358 0.426429838
vt 0.671243668 0.426362842
vt 0.670084715 0.430878907
vt 0.669280648 0.430781931
vt 0.668469906 0.430805236
vt 0.682947636 0.41302371
vt 0.682003021 0.40465486
vt 0.685214043 0.403958499
vt 0.685492635 0.412549615
vt 0.688491821 0.404197574
vt 0.688073397 0.412624359
vt 0.683687806 0.419353008
vt 0.685729146 0.419635177
vt 0.687689424 0.419091702
vt 0.688491821 0.419751048
vt 0.685875416 0.420711398
vt 0.682753325 0.420594096
vt 0.688206673 0.426478028
vt 0.686268806 0.426333606
vt 0.68460238 0.427062511
vt 0.687691689 0.430879772
vt 0.68697536 0.430584431
vt 0.686378241 0.431077778
vt 0.687146425 0.431702852
vt 0.686313987 0.369006187
vt 0.686313808 0.365686387
vt 0.689632475 0.36568591
vt 0.689632475 0.369006842
vt 0.702062607 0.391259342
vt 0.696951032 0.388551265
vt 0.701424718 0.383608609
vt 0.696568012 0.401821882
vt 0.706365824 0.388082057
vt 0.701214671 0.401679307
vt 0.706365824 0.401876003
vt 0.698460579 0.409099132
vt 0.701699376 0.410116225
vt 0.704847097 0.409036785
vt 0.706359148 0.41023317
vt 0.701770544 0.411920696
vt 0.696602345 0.410894424
vt 0.704663396 0.424035698
vt 0.701168418 0.424013525
vt 0.697436333 0.424875408
vt 0.702488542 0.433297068
vt 0.700946212 0.432781249
vt 0.69965601 0.433621198
vt 0.701242566 0.435082108
vt 0.550564528 0.359127581
vt 0.553126693 0.351540864
vt 0.558897495 0.351388514
vt 0.559190631 0.344546497
vt 0.556892395 0.361268103
vt 0.548201799 0.375696719
vt 0.572373509 0.350164473
vt 0.574424624 0.343110144
vt 0.576809168 0.356669009
vt 0.581767201 0.352371514
vt 0.569638968 0.358052313
vt 0.577134728 0.360425889
vt 0.582641363 0.358129084
vt 0.57663238 0.366928399
vt 0.581926346 0.36714226
vt 0.570038438 0.369001925
vt 0.577921271 0.37665683
vt 0.582641363 0.38156575
vt 0.571190238 0.378216326
vt 0.571680427 0.384769142
vt 0.562693119 0.356988966
vt 0.563430309 0.365311205
vt 0.565171838 0.377081215
vt 0.562217832 0.38295418
vt 0.555716157 0.371992171
vt 0.554185271 0.379198134
vn -0.730016291 0.654248893 0.197571665
vn -0.102818526 -0.270454377 0.957226574
vn -0.673960388 -0.0209027268 0.738471687
vn -0.291674286 0.956290066 0.0208693277
vn 0.0248819813 0.133227214 0.990773201
vn 0.0442838781 0.998750567 0.0231573731
vn 0.0296591725 0.12187887 0.992101729
vn -0.0116753168 0.998904586 -0.045312576
vn -0.201098874 0.0649675056 0.977414131
vn -0.0510610379 0.969738126 -0.238748372
vn 0.256990701 0.107682973 0.960395813
vn 0.630399048 0.776213109 0.00949439406
vn 0.734757125 -0.0312689506 -0.677609265
vn 0.256990701 0.107682973 0.960395813
vn 0.426814735 -0.904199243 0.0159054678
vn -0.00615507783 0.0986798406 -0.9951002
vn -0.0177957863 0.0829392895 -0.996395648
vn 0.139771178 0.176948845 -0.974244893
vn -0.160459623 -0.952963054 -0.25712651
vn 0.0372279286 -0.99909091 -0.0207710452
vn -0.201098874 0.0649675056 0.977414131
vn 0.256990701 0.107682973 0.960395813
vn 0.0296591725 0.12187887 0.992101729
vn 0.0248819813 0.133227214 0.990773201
vn 0.201405987 -0.977910161 -0.0559226982
vn -0.102818526 -0.270454377 0.957226574
vn -0.212649748 -0.939445257 -0.268743008
vn -0.673960388 -0.0209027268 0.738471687
vn -0.843274474 -0.514719963 -0.154762894
vn -0.183689147 0.118948229 -0.975761056
vn -0.837717056 0.0579944067 -0.543016374
vn -0.673960388 -0.0209027268 0.738471687
vn -0.884132981 0.415383577 0.213928431
vn -0.173311308 0.077946648 0.981777668
vn -0.670459986 -0.243255779 0.700935125
vn -0.32040447 0.946995795 -0.0232363679
vn 0.0373561904 0.133132383 0.990394056
vn 0.126065105 0.971318185 -0.201614991
vn 0.00955683086 0.178630322 0.983869851
vn -0.0117647871 0.980214357 -0.197588503
vn -0.154743493 0.367236942 0.917164922
vn 0.0570937507 0.948361158 -0.312012017
vn -0.333428353 -0.0892791003 0.938538671
vn -0.0423698276 0.00284681865 -0.999097943
vn 0.0919606835 0.00873970892 -0.99572432
vn 0.0491220728 0.0757824332 -0.995913684
vn -0.971756101 0.0991006717 -0.214170888
vn -0.473246694 0.0819473192 -0.877110183
vn -0.745991409 -0.595369577 0.298382014
vn -0.670459986 -0.243255779 0.700935125
vn -0.393309504 -0.899511933 -0.190225914
vn 0.0151104731 -0.99985075 -0.00838099234
vn -0.173311308 0.077946648 0.981777668
vn -0.670459986 -0.243255779 0.700935125
vn 0.0373561904 0.133132383 0.990394056
vn -0.0333074331 -0.999430239 0.00545600103
vn 0.00955683086 0.178630322 0.983869851
vn -0.236209169 -0.923308551 -0.302831024
vn -0.154743493 0.367236942 0.917164922
vn 0.193792775 0.035172198 -0.980411768
vn -0.164807275 -0.957625628 -0.236202419
vn -0.333428353 -0.0892791003 0.938538671
vn 0.331687301 -0.0563427471 0.941705406
vn 0.448195934 -0.856391907 -0.256345928
vn 0.202587068 0.961516798 -0.185590729
vn 0.769122422 -0.0682115257 -0.635451019
vn 0.331687301 -0.0563427471 0.941705406
vn 0.847798109 0.501375079 0.172804415
vn 0.331687301 -0.0563427471 0.941705406
vn 0.617943108 -0.76495719 -0.181622729
vn -0.266988307 -0.385874987 -0.883072913
vn -0.514564335 -0.406279564 -0.755089641
vn -0.620955825 -0.396428883 -0.676208615
vn -0.801061332 -0.165200621 -0.575334191
vn 0.630345404 -0.555378258 0.542420149
vn -0.908157289 0.00422585057 -0.41860795
vn -0.908614099 0.370634139 0.192485526
vn 0.131939039 -0.329988986 0.934718847
vn -0.0667741969 -0.291179717 0.954335153
vn 0.164755821 -0.296801507 0.940619171
vn -0.308474302 0.123722993 0.943152308
vn 0.196951538 -0.950228512 0.241403952
vn 0.462890357 -0.757469714 -0.460404366
vn -0.411301047 -0.127108067 -0.902593553
vn -0.761404216 -0.232512668 -0.605145872
vn 0.157992065 0.840276837 -0.518626392
vn 0.656777501 -0.753793299 0.0209518485
vn -0.276301384 0.957262158 0.0854789093
vn 0.019867219 0.0176235326 -0.99964726
vn 0.43324706 -0.893208683 -0.120312631
vn 0.309976757 0.946045995 0.0943998471
vn 0.146609202 0.0734060332 -0.986467063
vn 0.188068077 0.982138157 0.00591384387
vn -0.0406717733 -0.999090075 -0.0128361285
vn -0.203256354 0.0497284383 -0.977861941
vn -0.163883746 0.97915411 0.119997941
vn -0.727765143 0.685820162 0.00294477562
vn -0.518870056 0.00760193961 -0.854819357
vn -0.491520107 -0.863167167 -0.115543947
vn 0.274647623 0.0150497733 0.961427212
vn 0.872534454 -0.00218469813 0.488547683
vn 0.496722192 -0.829331517 -0.255883455
vn 0.181998044 -0.97528857 -0.125255406
vn 0.196173757 0.058006227 -0.978851914
vn 0.75669533 0.143936321 0.637726009
vn -0.499749273 0.109099373 -0.859271884
vn 0.71270448 -0.600296736 -0.362899721
vn 0.636327982 0.0764325112 0.767622769
vn 0.0575572886 0.2397504 -0.96912688
vn 0.599045753 -0.738977849 -0.308311522
vn -0.140146405 0.17486544 -0.974567115
vn 0.238567024 -0.052989576 0.969679236
vn 0.441927463 -0.856481373 -0.266720593
vn -0.572500467 0.0453058444 -0.818651676
vn -0.724096954 -0.446132064 -0.525975108
vn 0.158199847 -0.980525672 -0.116371505
vn -0.0439501405 -0.500556111 0.864587724
vn -0.499749273 0.109099373 -0.859271884
vn 0.196173757 0.058006227 -0.978851914
vn 0.480737448 0.857810199 -0.181805432
vn -0.292121708 0.940317035 0.174552724
vn 0.872534454 -0.00218469813 0.488547683
vn 0.274647623 0.0150497733 0.961427212
vn 0.0575572886 0.2397504 -0.96912688
vn 0.00774669508 0.999125659 0.0410830714
vn 0.75669533 0.143936321 0.637726009
vn 0.636327982 0.0764325112 0.767622769
vn -0.103405707 0.989375949 0.102188781
vn -0.140146405 0.17486544 -0.974567115
vn 0.238567024 -0.052989576 0.969679236
vn -0.607611835 0.733012915 0.305777639
vn -0.572500467 0.0453058444 -0.818651676
vn -0.0439501405 -0.500556111 0.864587724
vn -0.896042645 0.0600213446 0.439891934
vn 0.158199847 -0.980525672 -0.116371505
vn -0.724096954 -0.446132064 -0.525975108
vn 0.158199847 -0.980525672 -0.116371505
vn 0.480737448 0.857810199 -0.181805432
vn 0.196173757 0.058006227 -0.978851914
vn 0.496722192 -0.829331517 -0.255883455
vn 0.872534454 -0.00218469813 0.488547683
vn 0.195350647 0.0186290964 0.980556488
vn 0.485053867 -0.598105907 0.637959301
vn -0.441217721 -0.897189498 -0.0194396228
vn -0.728348196 -0.681449771 0.0716599897
vn 0.118205488 -0.37246722 -0.920486629
vn 0.552298963 -0.391626924 0.7359308
vn -0.208482727 0.254956782 -0.944209695
vn -0.135720447 -0.983394742 -0.120476529
vn 0.434787065 -0.295138866 0.850795686
vn 0.197531179 -0.163108379 -0.96663183
vn -0.312008977 -0.94780767 -0.0656574294
vn 0.0362281054 -0.0352244675 -0.998722494
vn 0.119113877 0.0158304684 0.9927544
vn -0.493816584 -0.868858695 -0.0350694284
vn -0.299527675 0.292528987 -0.908135474
vn -0.784434021 0.237573564 -0.572906673
vn -0.745666683 -0.661829412 0.0772208124
vn -0.414515316 -0.00701132184 0.910015345
vn -0.208482727 0.254956782 -0.944209695
vn 0.118205488 -0.37246722 -0.920486629
vn 0.974382937 0.00075519766 -0.224894166
vn 0.641618848 0.766029537 -0.0390374698
vn 0.485053867 -0.598105907 0.637959301
vn 0.195350647 0.0186290964 0.980556488
vn 0.197531179 -0.163108379 -0.96663183
vn 0.847686291 0.516513705 -0.121001773
vn 0.552298963 -0.391626924 0.7359308
vn 0.434787065 -0.295138866 0.850795686
vn 0.781709552 0.618275344 -0.0816442147
vn 0.0362281054 -0.0352244675 -0.998722494
vn 0.119113877 0.0158304684 0.9927544
vn 0.302242637 0.95116657 0.0627019554
vn -0.299527675 0.292528987 -0.908135474
vn -0.414515316 -0.00701132184 0.910015345
vn -0.413190931 0.876268983 0.247842416
vn -0.784434021 0.237573564 -0.572906673
vn -0.745666683 -0.661829412 0.0772208124
vn 0.974382937 0.00075519766 -0.224894166
vn 0.118205488 -0.37246722 -0.920486629
vn -0.441217721 -0.897189498 -0.0194396228
vn 0.485053867 -0.598105907 0.637959301
vn 0.227571845 0.869083881 0.439208567
vn 0.608871579 0.281989276 0.74145627
vn -0.274553895 -0.487431377 0.828873098
vn -0.591627955 -0.317323953 0.741135478
vn 0.14633067 -0.975634515 -0.163476974
vn 0.642087519 0.472681463 0.60356921
vn -0.287653804 -0.702244222 -0.651235998
vn 0.0376150049 -0.601469159 0.798010051
vn 0.514143407 0.613632381 0.599259496
vn 0.185202658 -0.906532347 -0.379340202
vn -0.1397499 -0.545684636 0.8262555
vn 0.00231426791 -0.87987566 -0.475198269
vn 0.153446302 0.873853266 0.461340159
vn -0.331964523 -0.490383148 0.805806398
vn -0.382540077 -0.656921506 -0.64970547
vn -0.835170925 -0.422252297 -0.352409482
vn -0.613030672 -0.303164959 0.729578197
vn -0.369909078 0.761183143 0.532698274
vn -0.287653804 -0.702244222 -0.651235998
vn 0.14633067 -0.975634515 -0.163476974
vn 0.948959231 -0.140553862 -0.282348961
vn 0.492522329 0.382796645 -0.781593502
vn 0.608871579 0.281989276 0.74145627
vn 0.227571845 0.869083881 0.439208567
vn 0.185202658 -0.906532347 -0.379340202
vn 0.735829771 0.199037239 -0.647254825
vn 0.642087519 0.472681463 0.60356921
vn 0.514143407 0.613632381 0.599259496
vn 0.654717207 0.281026125 -0.701690674
vn 0.00231426791 -0.87987566 -0.475198269
vn 0.153446302 0.873853266 0.461340159
vn 0.129904851 0.544496179 -0.828642666
vn -0.382540077 -0.656921506 -0.64970547
vn -0.369909078 0.761183143 0.532698274
vn -0.552666426 0.628144979 -0.547716737
vn -0.835170925 -0.422252297 -0.352409482
vn -0.613030672 -0.303164959 0.729578197
vn 0.948959231 -0.140553862 -0.282348961
vn 0.14633067 -0.975634515 -0.163476974
vn -0.274553895 -0.487431377 0.828873098
vn 0.608871579 0.281989276 0.74145627
vn 0.980495334 0.196122512 0.0128400866
vn 0.157992065 0.840276837 -0.518626392
vn -0.411301047 -0.127108067 -0.902593553
vn -0.276301384 0.957262158 0.0854789093
vn 0.462890357 -0.757469714 -0.460404366
vn 0.60774231 0.210110366 0.765834749
vn 0.196951538 -0.950228512 0.241403952
vn 0.309976757 0.946045995 0.0943998471
vn 0.691381872 0.12802887 0.711055338
vn 0.656777501 -0.753793299 0.0209518485
vn 0.43324706 -0.893208683 -0.120312631
vn 0.46928069 -0.0130406255 0.88295275
vn 0.188068077 0.982138157 0.00591384387
vn -0.0406717733 -0.999090075 -0.0128361285
vn 0.00211348641 -0.0667619705 0.997766733
vn -0.163883746 0.97915411 0.119997941
vn -0.491520107 -0.863167167 -0.115543947
vn -0.713672519 -0.152266875 0.683729768
vn -0.727765143 0.685820162 0.00294477562
vn -0.518870056 0.00760193961 -0.854819357
vn -0.514564335 -0.406279564 -0.755089641
vn -0.266988307 -0.385874987 -0.883072913
vn 0.600258172 0.499198765 -0.624892533
vn 0.617943108 -0.76495719 -0.181622729
vn 0.164780304 0.626363516 -0.761916161
vn -0.620955825 -0.396428883 -0.676208615
vn 0.837739229 0.536281109 0.102934778
vn 0.630345404 -0.555378258 0.542420149
vn 0.569291532 0.648307204 0.505573988
vn 0.131939039 -0.329988986 0.934718847
vn 0.598683298 0.784784138 -0.160287932
vn 0.592883289 0.63865155 0.490523785
vn -0.0667741969 -0.291179717 0.954335153
vn 0.65038234 0.659081697 0.377643019
vn 0.164755821 -0.296801507 0.940619171
vn 0.495848238 0.829609632 -0.256675571
vn 0.412899911 0.827766478 0.379889756
vn -0.308474302 0.123722993 0.943152308
vn 0.109792598 0.970483959 -0.214724109
vn -0.908614099 0.370634139 0.192485526
vn 0.487702757 0.786936224 -0.377991199
vn 0.345032871 0.786695063 -0.511921108
vn 0.0288602095 0.821052074 -0.570123255
vn -0.908157289 0.00422585057 -0.41860795
vn 0.0283704903 0.601148188 -0.798633754
vn -0.801061332 -0.165200621 -0.575334191
g Charred_Gib01_0
f 3/3/3 2/2/2 1/1/1
f 2/2/2 4/4/4 1/1/1
f 2/2/2 5/5/5 4/4/4
f 5/5/5 6/6/6 4/4/4
f 5/5/5 7/7/7 6/6/6
f 7/7/7 8/8/8 6/6/6
f 7/7/7 9/9/9 8/8/8
f 9/9/9 10/10/10 8/8/8
f 9/9/9 11/11/11 10/10/10
f 11/11/11 12/12/12 10/10/10
f 10/10/10 12/12/12 13/13/13
f 12/12/12 14/14/14 13/13/13
f 14/14/14 15/15/15 13/13/13
f 8/8/8 10/10/10 16/16/16
f 16/16/16 10/10/10 13/13/13
f 6/6/6 8/8/8 17/17/17
f 17/17/17 8/8/8 16/16/16
f 4/4/4 6/6/6 18/18/18
f 18/18/18 6/6/6 17/17/17
f 15/15/15 19/19/19 13/13/13
f 19/19/19 16/16/16 13/13/13
f 20/20/20 17/17/17 16/16/16
f 19/19/19 20/20/20 16/16/16
f 21/21/21 19/19/19 15/15/15
f 22/22/22 21/21/21 15/15/15
f 21/21/21 23/23/23 19/19/19
f 23/23/23 20/20/20 19/19/19
f 23/23/23 24/24/24 20/20/20
f 20/20/20 25/25/25 17/17/17
f 24/24/24 25/25/25 20/20/20
f 25/25/25 18/18/18 17/17/17
f 24/24/24 26/26/26 25/25/25
f 26/26/26 27/27/27 25/25/25
f 25/25/25 27/27/27 18/18/18
f 26/26/26 28/28/28 27/27/27
f 28/28/28 29/29/29 27/27/27
f 27/27/27 30/30/30 18/18/18
f 27/27/27 29/29/29 30/30/30
f 30/30/30 4/4/4 18/18/18
f 1/1/1 4/4/4 30/30/30
f 29/29/29 31/31/31 30/30/30
f 31/31/31 1/1/1 30/30/30
f 31/31/31 29/29/29 32/32/32
f 1/1/1 31/31/31 32/32/32
f 35/35/35 34/34/34 33/33/33
f 34/34/34 36/36/36 33/33/33
f 34/34/34 37/37/37 36/36/36
f 37/37/37 38/38/38 36/36/36
f 37/37/37 39/39/39 38/38/38
f 39/39/39 40/40/40 38/38/38
f 39/39/39 41/41/41 40/40/40
f 41/41/41 42/42/42 40/40/40
f 41/41/41 43/43/43 42/42/42
f 38/38/38 40/40/40 44/44/44
f 36/36/36 38/38/38 45/45/45
f 45/45/45 38/38/38 44/44/44
f 40/40/40 42/42/42 46/46/46
f 44/44/44 40/40/40 46/46/46
f 47/47/47 33/33/33 36/36/36
f 48/48/48 47/47/47 36/36/36
f 48/48/48 36/36/36 45/45/45
f 33/33/33 47/47/47 49/49/49
f 49/49/49 47/47/47 48/48/48
f 50/50/50 33/33/33 49/49/49
f 51/51/51 48/48/48 45/45/45
f 51/51/51 49/49/49 48/48/48
f 52/52/52 45/45/45 44/44/44
f 52/52/52 51/51/51 45/45/45
f 49/49/49 51/51/51 53/53/53
f 53/53/53 51/51/51 52/52/52
f 54/54/54 49/49/49 53/53/53
f 55/55/55 53/53/53 52/52/52
f 56/56/56 52/52/52 44/44/44
f 55/55/55 52/52/52 56/56/56
f 56/56/56 44/44/44 46/46/46
f 57/57/57 55/55/55 56/56/56
f 57/57/57 56/56/56 58/58/58
f 58/58/58 56/56/56 46/46/46
f 59/59/59 57/57/57 58/58/58
f 58/58/58 46/46/46 60/60/60
f 46/46/46 42/42/42 60/60/60
f 59/59/59 58/58/58 61/61/61
f 61/61/61 58/58/58 60/60/60
f 62/62/62 59/59/59 61/61/61
f 63/63/63 62/62/62 61/61/61
f 64/64/64 63/63/63 61/61/61
f 64/64/64 61/61/61 60/60/60
f 42/42/42 65/65/65 60/60/60
f 43/43/43 65/65/65 42/42/42
f 66/66/66 64/64/64 60/60/60
f 66/66/66 60/60/60 65/65/65
f 67/67/67 64/64/64 66/66/66
f 68/68/68 67/67/67 66/66/66
f 68/68/68 66/66/66 65/65/65
f 68/68/68 65/65/65 43/43/43
f 69/69/69 68/68/68 43/43/43
f 72/72/72 71/71/71 70/70/70
f 70/70/70 73/73/73 72/72/72
f 70/70/70 74/74/74 73/73/73
f 70/70/70 75/75/75 74/74/74
f 75/75/75 76/76/76 74/74/74
f 75/75/75 77/77/77 76/76/76
f 75/75/75 78/78/78 77/77/77
f 78/78/78 79/79/79 77/77/77
f 77/77/77 79/79/79 80/80/80
f 80/80/80 81/81/81 77/77/77
f 84/84/84 83/83/83 82/82/82
f 85/85/85 84/84/84 82/82/82
f 86/86/86 84/84/84 85/85/85
f 85/85/85 82/82/82 87/87/87
f 88/88/88 86/86/86 85/85/85
f 89/89/89 85/85/85 87/87/87
f 88/88/88 85/85/85 89/89/89
f 87/87/87 90/90/90 89/89/89
f 91/91/91 88/88/88 89/89/89
f 90/90/90 92/92/92 89/89/89
f 89/89/89 92/92/92 91/91/91
f 92/92/92 93/93/93 91/91/91
f 90/90/90 94/94/94 92/92/92
f 92/92/92 95/95/95 93/93/93
f 94/94/94 95/95/95 92/92/92
f 95/95/95 96/96/96 93/93/93
f 97/97/97 96/96/96 95/95/95
f 98/98/98 97/97/97 95/95/95
f 98/98/98 95/95/95 94/94/94
f 99/99/99 98/98/98 94/94/94
f 102/102/102 101/101/101 100/100/100
f 103/103/103 102/102/102 100/100/100
f 104/104/104 102/102/102 103/103/103
f 103/103/103 100/100/100 105/105/105
f 106/106/106 104/104/104 103/103/103
f 107/107/107 103/103/103 105/105/105
f 106/106/106 103/103/103 107/107/107
f 105/105/105 108/108/108 107/107/107
f 109/109/109 106/106/106 107/107/107
f 108/108/108 110/110/110 107/107/107
f 107/107/107 110/110/110 109/109/109
f 110/110/110 111/111/111 109/109/109
f 108/108/108 112/112/112 110/110/110
f 110/110/110 113/113/113 111/111/111
f 112/112/112 113/113/113 110/110/110
f 113/113/113 114/114/114 111/111/111
f 115/115/115 114/114/114 113/113/113
f 116/116/116 115/115/115 113/113/113
f 116/116/116 113/113/113 112/112/112
f 117/117/117 116/116/116 112/112/112
f 120/120/120 119/119/119 118/118/118
f 121/121/121 120/120/120 118/118/118
f 122/122/122 120/120/120 121/121/121
f 123/123/123 122/122/122 121/121/121
f 121/121/121 118/118/118 124/124/124
f 123/123/123 121/121/121 125/125/125
f 125/125/125 121/121/121 124/124/124
f 126/126/126 123/123/123 125/125/125
f 127/127/127 126/126/126 125/125/125
f 128/128/128 125/125/125 124/124/124
f 128/128/128 127/127/127 125/125/125
f 129/129/129 128/128/128 124/124/124
f 127/127/127 128/128/128 130/130/130
f 128/128/128 129/129/129 131/131/131
f 128/128/128 131/131/131 130/130/130
f 129/129/129 132/132/132 131/131/131
f 133/133/133 130/130/130 131/131/131
f 134/134/134 131/131/131 132/132/132
f 134/134/134 133/133/133 131/131/131
f 135/135/135 133/133/133 134/134/134
f 136/136/136 134/134/134 132/132/132
f 137/137/137 134/134/134 136/136/136
f 140/140/140 139/139/139 138/138/138
f 141/141/141 140/140/140 138/138/138
f 144/144/144 143/143/143 142/142/142
f 145/145/145 144/144/144 142/142/142
f 146/146/146 144/144/144 145/145/145
f 145/145/145 142/142/142 147/147/147
f 148/148/148 146/146/146 145/145/145
f 149/149/149 145/145/145 147/147/147
f 148/148/148 145/145/145 149/149/149
f 147/147/147 150/150/150 149/149/149
f 151/151/151 148/148/148 149/149/149
f 150/150/150 152/152/152 149/149/149
f 149/149/149 152/152/152 151/151/151
f 152/152/152 153/153/153 151/151/151
f 150/150/150 154/154/154 152/152/152
f 152/152/152 155/155/155 153/153/153
f 154/154/154 155/155/155 152/152/152
f 155/155/155 156/156/156 153/153/153
f 157/157/157 156/156/156 155/155/155
f 158/158/158 157/157/157 155/155/155
f 158/158/158 155/155/155 154/154/154
f 159/159/159 158/158/158 154/154/154
f 162/162/162 161/161/161 160/160/160
f 163/163/163 162/162/162 160/160/160
f 164/164/164 162/162/162 163/163/163
f 165/165/165 164/164/164 163/163/163
f 163/163/163 160/160/160 166/166/166
f 165/165/165 163/163/163 167/167/167
f 167/167/167 163/163/163 166/166/166
f 168/168/168 165/165/165 167/167/167
f 169/169/169 168/168/168 167/167/167
f 170/170/170 167/167/167 166/166/166
f 170/170/170 169/169/169 167/167/167
f 171/171/171 170/170/170 166/166/166
f 169/169/169 170/170/170 172/172/172
f 170/170/170 171/171/171 173/173/173
f 170/170/170 173/173/173 172/172/172
f 171/171/171 174/174/174 173/173/173
f 175/175/175 172/172/172 173/173/173
f 176/176/176 173/173/173 174/174/174
f 176/176/176 175/175/175 173/173/173
f 177/177/177 176/176/176 174/174/174
f 178/178/178 175/175/175 176/176/176
f 178/178/178 176/176/176 177/177/177
f 181/181/181 180/180/180 179/179/179
f 182/182/182 181/181/181 179/179/179
f 185/185/185 184/184/184 183/183/183
f 186/186/186 185/185/185 183/183/183
f 187/187/187 185/185/185 186/186/186
f 186/186/186 183/183/183 188/188/188
f 189/189/189 187/187/187 186/186/186
f 190/190/190 186/186/186 188/188/188
f 189/189/189 186/186/186 190/190/190
f 188/188/188 191/191/191 190/190/190
f 192/192/192 189/189/189 190/190/190
f 191/191/191 193/193/193 190/190/190
f 190/190/190 193/193/193 192/192/192
f 193/193/193 194/194/194 192/192/192
f 191/191/191 195/195/195 193/193/193
f 193/193/193 196/196/196 194/194/194
f 195/195/195 196/196/196 193/193/193
f 196/196/196 197/197/197 194/194/194
f 198/198/198 197/197/197 196/196/196
f 199/199/199 198/198/198 196/196/196
f 199/199/199 196/196/196 195/195/195
f 200/200/200 199/199/199 195/195/195
f 203/203/203 202/202/202 201/201/201
f 204/204/204 203/203/203 201/201/201
f 205/205/205 203/203/203 204/204/204
f 206/206/206 205/205/205 204/204/204
f 204/204/204 201/201/201 207/207/207
f 206/206/206 204/204/204 208/208/208
f 208/208/208 204/204/204 207/207/207
f 209/209/209 206/206/206 208/208/208
f 210/210/210 209/209/209 208/208/208
f 211/211/211 208/208/208 207/207/207
f 211/211/211 210/210/210 208/208/208
f 212/212/212 211/211/211 207/207/207
f 210/210/210 211/211/211 213/213/213
f 211/211/211 212/212/212 214/214/214
f 211/211/211 214/214/214 213/213/213
f 212/212/212 215/215/215 214/214/214
f 216/216/216 213/213/213 214/214/214
f 217/217/217 214/214/214 215/215/215
f 217/217/217 216/216/216 214/214/214
f 218/218/218 217/217/217 215/215/215
f 219/219/219 216/216/216 217/217/217
f 219/219/219 217/217/217 218/218/218
f 222/222/222 221/221/221 220/220/220
f 223/223/223 222/222/222 220/220/220
f 226/226/226 225/225/225 224/224/224
f 224/224/224 225/225/225 227/227/227
f 228/228/228 226/226/226 224/224/224
f 229/229/229 224/224/224 227/227/227
f 228/228/228 224/224/224 229/229/229
f 230/230/230 228/228/228 229/229/229
f 229/229/229 227/227/227 231/231/231
f 230/230/230 229/229/229 232/232/232
f 232/232/232 229/229/229 231/231/231
f 233/233/233 230/230/230 232/232/232
f 234/234/234 233/233/233 232/232/232
f 235/235/235 232/232/232 231/231/231
f 235/235/235 234/234/234 232/232/232
f 236/236/236 235/235/235 231/231/231
f 234/234/234 235/235/235 237/237/237
f 235/235/235 236/236/236 238/238/238
f 235/235/235 238/238/238 237/237/237
f 236/236/236 239/239/239 238/238/238
f 240/240/240 237/237/237 238/238/238
f 241/241/241 238/238/238 239/239/239
f 241/241/241 240/240/240 238/238/238
f 242/242/242 241/241/241 239/239/239
f 243/243/243 240/240/240 241/241/241
f 243/243/243 241/241/241 242/242/242
f 246/246/246 245/245/245 244/244/244
f 246/246/246 247/247/247 245/245/245
f 248/248/248 246/246/246 244/244/244
f 248/248/248 244/244/244 249/249/249
f 246/246/246 250/250/250 247/247/247
f 250/250/250 251/251/251 247/247/247
f 250/250/250 252/252/252 251/251/251
f 252/252/252 253/253/253 251/251/251
f 254/254/254 250/250/250 246/246/246
f 250/250/250 254/254/254 252/252/252
f 252/252/252 255/255/255 253/253/253
f 254/254/254 255/255/255 252/252/252
f 255/255/255 256/256/256 253/253/253
f 255/255/255 257/257/257 256/256/256
f 257/257/257 258/258/258 256/256/256
f 257/257/257 255/255/255 259/259/259
f 255/255/255 254/254/254 259/259/259
f 257/257/257 260/260/260 258/258/258
f 260/260/260 257/257/257 259/259/259
f 260/260/260 261/261/261 258/258/258
f 260/260/260 262/262/262 261/261/261
f 262/262/262 260/260/260 259/259/259
f 262/262/262 263/263/263 261/261/261
f 264/264/264 254/254/254 246/246/246
f 246/246/246 248/248/248 264/264/264
f 259/259/259 254/254/254 265/265/265
f 254/254/254 264/264/264 265/265/265
f 262/262/262 259/259/259 265/265/265
f 248/248/248 265/265/265 264/264/264
f 262/262/262 266/266/266 263/263/263
f 266/266/266 262/262/262 265/265/265
f 266/266/266 265/265/265 248/248/248
f 266/266/266 267/267/267 263/263/263
f 268/268/268 266/266/266 248/248/248
f 266/266/266 268/268/268 267/267/267
f 268/268/268 248/248/248 249/249/249
f 268/268/268 269/269/269 267/267/267
f 268/268/268 249/249/249 269/269/269
