g CharredSpawnerFragment_12
v -0.963168025 -0.382149011 -1.45229197
v -0.781561017 -0.395734966 -1.32739985
v -0.951280951 -0.392201006 -1.48565996
v -0.872185946 -0.337693006 -1.37346697
v -0.799328446 -0.399095863 -1.17693686
v -0.856364429 -0.327042788 -1.16734374
v -1.00235558 -0.264667124 -1.14774859
v -0.989947975 -0.279619008 -1.37603784
v -0.984552979 -0.359761983 -1.47531092
v -0.951280951 -0.392201006 -1.48565996
v -1.00248861 -0.204837263 -1.1453017
v -1.00235558 -0.264667124 -1.14774859
v -0.989947975 -0.279619008 -1.37603784
v -0.989287019 -0.204314113 -1.38820136
v -0.967129648 -0.203436166 -1.79590189
v -0.971276402 -0.355400652 -1.71960068
v -0.984552979 -0.359761983 -1.47531092
v -0.951280951 -0.392201006 -1.48565996
v -0.938979447 -0.386538118 -1.7391957
v -0.543309093 -0.377044857 -2.16421771
v -0.938979447 -0.386538118 -1.7391957
v -0.951280951 -0.392201006 -1.48565996
v -0.423268944 -0.391885012 -1.49979854
v -0.373911381 -0.39798674 -1.22660518
v -0.781561017 -0.395734966 -1.32739985
v -0.799328446 -0.399095863 -1.17693686
v -0.670271993 -0.152878433 -1.98005974
v -0.543309093 -0.377044857 -2.16421771
v -0.423268944 -0.391885012 -1.49979854
v -0.621330619 -0.16073747 -1.44399989
v -0.373911381 -0.39798674 -1.22660518
v -0.603252649 -0.164049894 -1.18595338
v -0.989287019 -0.204314113 -1.38820136
v -0.603252649 -0.164049894 -1.18595338
v -1.00248861 -0.204837263 -1.1453017
v -0.621330619 -0.16073747 -1.44399989
v -0.967129648 -0.203436166 -1.79590189
v -0.670271993 -0.152878433 -1.98005974
v -0.971276402 -0.355400652 -1.71960068
v -0.938979447 -0.386538118 -1.7391957
v -0.543309093 -0.377044857 -2.16421771
v -0.670271993 -0.152878433 -1.98005974
v -0.967129648 -0.203436166 -1.79590189
v -0.603252649 -0.164049894 -1.18595338
v -0.373911381 -0.39798674 -1.22660518
v -0.799328446 -0.399095863 -1.17693686
v -0.856364429 -0.327042788 -1.16734374
v -1.00248861 -0.204837263 -1.1453017
v -1.00235558 -0.264667124 -1.14774859
vt 0.556640625 0.65234375
vt 0.54296875 0.641113281
vt 0.5546875 0.654296875
vt 0.551757812 0.643554688
vt 0.54296875 0.629394531
vt 0.549804688 0.628417969
vt 0.562011719 0.625976562
vt 0.562011719 0.643554688
vt 0.559570312 0.652832031
vt 0.556152344 0.654785156
vt 0.278320312 0.171875
vt 0.273681641 0.172119141
vt 0.272460938 0.190063477
vt 0.278564453 0.191040039
vt 0.278564453 0.223388672
vt 0.266357422 0.217407227
vt 0.266113281 0.197998047
vt 0.262451172 0.198852539
vt 0.262939453 0.219116211
vt 0.185668945 0.266601562
vt 0.215942383 0.234130859
vt 0.216796875 0.21484375
vt 0.176513672 0.215820312
vt 0.172851562 0.195068359
vt 0.203857422 0.202758789
vt 0.205200195 0.19128418
vt 0.189575195 0.0882568359
vt 0.171875 0.0695800781
vt 0.165405273 0.126220703
vt 0.191772461 0.126586914
vt 0.16784668 0.151000977
vt 0.193481445 0.145385742
vt 0.223999023 0.129516602
vt 0.193481445 0.145385742
vt 0.224243164 0.153198242
vt 0.191772461 0.126586914
vt 0.216674805 0.092956543
vt 0.189575195 0.0882568359
vt 0.224243164 0.078918457
vt 0.221313477 0.075378418
vt 0.171875 0.0695800781
vt 0.189575195 0.0882568359
vt 0.216674805 0.092956543
vt 0.193481445 0.145385742
vt 0.16784668 0.151000977
vt 0.201904297 0.167358398
vt 0.208984375 0.162353516
vt 0.224243164 0.153198242
vt 0.223388672 0.158691406
vn -0.55859375 -0.663574219 0.498046875
vn -0.357910156 -0.930175781 0.0784301758
vn -0.676269531 -0.716796875 0.169433594
vn -0.524414062 -0.758300781 0.386474609
vn -0.399169922 -0.916992188 -0.00335502625
vn -0.536621094 -0.843261719 0.0358886719
vn -0.411621094 -0.909667969 0.056854248
vn -0.462158203 -0.821777344 0.333496094
vn -0.877929688 -0.458496094 0.137817383
vn -0.676269531 -0.716796875 0.169433594
vn -0.998535156 -1.37090683E-06 -0.0542602539
vn -0.998535156 -1.37090683E-06 -0.0542602539
vn -0.998535156 -4.76837158E-07 -0.0542602539
vn -0.998535156 -4.76837158E-07 -0.0542602539
vn -0.998535156 2.38418579E-07 -0.0542602539
vn -0.924316406 -0.377197266 -0.0567016602
vn -0.877929688 -0.458496094 0.137817383
vn -0.676269531 -0.716796875 0.169433594
vn -0.70703125 -0.705566406 -0.0505371094
vn 2.38418579E-07 -0.999511719 -0.0223236084
vn 2.38418579E-07 -0.999511719 -0.0223236084
vn -0 -0.999511719 -0.0223236084
vn -2.38418579E-07 -0.999511719 -0.0223236084
vn -6.55651093E-07 -0.999511719 -0.0223236084
vn -0.357910156 -0.930175781 0.0784301758
vn -0.399169922 -0.916992188 -0.00335502625
vn 0.784667969 0.612304688 -0.0988769531
vn 0.784667969 0.612304688 -0.0988769531
vn 0.756835938 0.647460938 -0.0897827148
vn 0.75390625 0.651367188 -0.0888061523
vn 0.725585938 0.68359375 -0.0800170898
vn 0.725585938 0.68359375 -0.0800170898
vn -0.120117188 0.992675781 0.010559082
vn -0.108215332 0.994140625 0.00866699219
vn -0.108215332 0.994140625 0.00866699219
vn -0.122558594 0.9921875 0.0109405518
vn -0.135620117 0.990722656 0.0130157471
vn -0.135620117 0.990722656 0.0130157471
vn -0.662109375 -0.0273132324 -0.749023438
vn -0.662109375 -0.0273132324 -0.749023438
vn -0.662109375 -0.0273132324 -0.749023438
vn -0.662109375 -0.0273132324 -0.749023438
vn -0.662109375 -0.0273132324 -0.749023438
vn 0.111572266 -0.0545349121 0.9921875
vn 0.111572266 -0.0545349121 0.9921875
vn 0.111572266 -0.0545349121 0.9921875
vn 0.111572266 -0.0545349121 0.9921875
vn 0.111572266 -0.0545349121 0.9921875
vn 0.111572266 -0.0545349121 0.9921875
g CharredSpawnerFragment_12_0
f 3/3/3 2/2/2 1/1/1
f 2/2/2 4/4/4 1/1/1
f 2/2/2 5/5/5 4/4/4
f 5/5/5 6/6/6 4/4/4
f 4/4/4 6/6/6 7/7/7
f 8/8/8 4/4/4 7/7/7
f 8/8/8 9/9/9 4/4/4
f 9/9/9 1/1/1 4/4/4
f 10/10/10 1/1/1 9/9/9
f 13/13/13 12/12/12 11/11/11
f 14/14/14 13/13/13 11/11/11
f 13/13/13 14/14/14 15/15/15
f 13/13/13 15/15/15 16/16/16
f 16/16/16 17/17/17 13/13/13
f 18/18/18 17/17/17 16/16/16
f 19/19/19 18/18/18 16/16/16
f 22/22/22 21/21/21 20/20/20
f 23/23/23 22/22/22 20/20/20
f 22/22/22 23/23/23 24/24/24
f 24/24/24 25/25/25 22/22/22
f 24/24/24 26/26/26 25/25/25
f 29/29/29 28/28/28 27/27/27
f 30/30/30 29/29/29 27/27/27
f 31/31/31 29/29/29 30/30/30
f 32/32/32 31/31/31 30/30/30
f 35/35/35 34/34/34 33/33/33
f 34/34/34 36/36/36 33/33/33
f 33/33/33 36/36/36 37/37/37
f 36/36/36 38/38/38 37/37/37
f 41/41/41 40/40/40 39/39/39
f 39/39/39 42/42/42 41/41/41
f 39/39/39 43/43/43 42/42/42
f 46/46/46 45/45/45 44/44/44
f 44/44/44 47/47/47 46/46/46
f 44/44/44 48/48/48 47/47/47
f 48/48/48 49/49/49 47/47/47
