g CharredSpawnerFragment_05
v 0.913505018 0.376675993 -2.18073392
v 0.927592993 0.364621013 -2.19245601
v 0.946412921 0.344086975 -2.17708993
v 0.891977012 0.35155499 -2.96594167
v 0.346574008 0.372265011 -2.37818599
v 0.880065978 0.359001994 -2.97199392
v 0.721042991 0.232513994 -2.44278502
v 0.90329814 0.328646004 -2.96974754
v 0.90306592 0.333983988 -2.97469068
v 0.91471076 0.0663211048 -2.7268126
v 0.788480818 0.0496813953 -2.41319203
v 0.721042991 0.232513994 -2.44278502
v 0.927592993 0.364621013 -2.19245601
v 0.913505018 0.376675993 -2.18073392
v 0.346574008 0.372265011 -2.37818599
v 0.891977012 0.35155499 -2.96594167
v 0.880065978 0.359001994 -2.97199392
v 0.8199718 0.337134689 -3.95103168
v 0.90306592 0.333983988 -2.97469068
v 0.849118948 0.306069911 -3.96731353
v 0.90329814 0.328646004 -2.96974754
v 0.899101317 0.0623127483 -3.02477717
v 0.91471076 0.0663211048 -2.7268126
v 0.854638875 0.0510168076 -3.85251498
v 0.913505018 0.376675993 -2.18073392
v 0.946412921 0.344086975 -2.17708993
v 0.98393935 0.3595092 -1.48661113
v 0.951561511 0.392315894 -1.48050106
v 0.958649039 0.395228654 -1.35009062
v 0.991080582 0.362444043 -1.35521281
v 0.120331846 0.358494699 -2.99473047
v 0.106807232 0.354032278 -3.20105243
v 0.8199718 0.337134689 -3.95103168
v 0.880065978 0.359001994 -2.97199392
v 0.12911965 0.361476511 -2.86122775
v 0.346574008 0.372265011 -2.37818599
v 0.1604442 0.372105092 -2.38535047
v 0.182579607 0.379615992 -2.04907393
v 0.913505018 0.376675993 -2.18073392
v 0.951561511 0.392315894 -1.48050106
v 0.218976244 0.391966283 -1.49614525
v 0.234168202 0.397121191 -1.26535201
v 0.958649039 0.395228654 -1.35009062
v 0.991080582 0.362444043 -1.35521281
v 0.982408524 0.0833032653 -1.50395095
v 0.990100741 0.0852249488 -1.36636412
v 0.98393935 0.3595092 -1.48661113
v 0.940867305 0.0729332268 -2.24558663
v 0.946412921 0.344086975 -2.17708993
v 0.721042991 0.232513994 -2.44278502
v 0.788480818 0.0496813953 -2.41319203
v 0.940867305 0.0729332268 -2.24558663
v 0.946412921 0.344086975 -2.17708993
v 0.927592993 0.364621013 -2.19245601
v 0.854638875 0.0510168076 -3.85251498
v 0.106807232 0.354032278 -3.20105243
v 0.120331846 0.358494699 -2.99473047
v 0.899101317 0.0623127483 -3.02477717
v 0.12911965 0.361476511 -2.86122775
v 0.91471076 0.0663211048 -2.7268126
v 0.1604442 0.372105092 -2.38535047
v 0.788480818 0.0496813953 -2.41319203
v 0.182579607 0.379615992 -2.04907393
v 0.940867305 0.0729332268 -2.24558663
v 0.218976244 0.391966283 -1.49614525
v 0.982408524 0.0833032653 -1.50395095
v 0.234168202 0.397121191 -1.26535201
v 0.990100741 0.0852249488 -1.36636412
v 0.854638875 0.0510168076 -3.85251498
v 0.849118948 0.306069911 -3.96731353
v 0.8199718 0.337134689 -3.95103168
v 0.106807232 0.354032278 -3.20105243
v 0.991080582 0.362444043 -1.35521281
v 0.990100741 0.0852249488 -1.36636412
v 0.234168202 0.397121191 -1.26535201
v 0.958649039 0.395228654 -1.35009062
vt 0.481445312 0.606445312
vt 0.482910156 0.606933594
vt 0.483886719 0.604980469
vt 0.527832031 0.659179688
vt 0.472412109 0.647460938
vt 0.52734375 0.66015625
vt 0.496826172 0.629394531
vt 0.529296875 0.658203125
vt 0.529296875 0.658691406
vt 0.529296875 0.633300781
vt 0.507324219 0.618164062
vt 0.496826172 0.629394531
vt 0.482910156 0.606933594
vt 0.481445312 0.607421875
vt 0.472412109 0.647460938
vt 0.544921875 0.323974609
vt 0.543945312 0.324462891
vt 0.545410156 0.401611328
vt 0.546875 0.324462891
vt 0.548828125 0.402587891
vt 0.546875 0.32421875
vt 0.568359375 0.328857422
vt 0.567871094 0.305419922
vt 0.568847656 0.393798828
vt 0.542480469 0.263427734
vt 0.545898438 0.263183594
vt 0.544921875 0.208374023
vt 0.541503906 0.208007812
vt 0.541503906 0.197631836
vt 0.544921875 0.197998047
vt 0.442138672 0.329833984
vt 0.440917969 0.345703125
vt 0.495361328 0.402832031
vt 0.5 0.328125
vt 0.442626953 0.319580078
vt 0.459228516 0.282958984
vt 0.445068359 0.283447266
vt 0.446777344 0.2578125
vt 0.502441406 0.267822266
vt 0.505371094 0.214355469
vt 0.449462891 0.215576172
vt 0.450683594 0.197998047
vt 0.505859375 0.204467773
vt 0.544921875 0.197998047
vt 0.567382812 0.209960938
vt 0.566894531 0.19909668
vt 0.544921875 0.208374023
vt 0.567382812 0.268310547
vt 0.545898438 0.263183594
vt 0.496826172 0.629394531
vt 0.507324219 0.618164062
vt 0.501953125 0.601074219
vt 0.483886719 0.604980469
vt 0.482910156 0.606933594
vt 0.437988281 0.236572266
vt 0.408203125 0.157104492
vt 0.392089844 0.152587891
vt 0.372802734 0.218017578
vt 0.381347656 0.149658203
vt 0.349121094 0.211303711
vt 0.343994141 0.138793945
vt 0.327392578 0.194213867
vt 0.317382812 0.131225586
vt 0.309570312 0.199584961
vt 0.274169922 0.117919922
vt 0.251464844 0.181396484
vt 0.255859375 0.112365723
vt 0.240722656 0.177978516
vt 0.437988281 0.236572266
vt 0.459228516 0.228149414
vt 0.459716797 0.224365234
vt 0.408203125 0.157104492
vt 0.222290039 0.164916992
vt 0.240722656 0.177978516
vt 0.255859375 0.112365723
vt 0.221679688 0.161132812
vn 0.340087891 0.9140625 -0.221191406
vn 0.694335938 0.712402344 0.101745605
vn 0.704589844 0.708984375 -0.0223999023
vn 0.702148438 0.682128906 0.203979492
vn 0.0637207031 0.997070312 -0.0372314453
vn 0.372802734 0.925292969 0.0708007812
vn 0.647460938 0.669433594 0.363769531
vn 0.968261719 0.19152832 0.160522461
vn 0.931152344 0.356445312 0.075378418
vn 0.923828125 0.281005859 0.260498047
vn 0.854003906 0.373046875 0.36328125
vn 0.195556641 0.791503906 -0.579101562
vn 0.195556641 0.791503906 -0.579101562
vn 0.340087891 0.9140625 -0.221191406
vn 0.0637207031 0.997070312 -0.0372314453
vn 0.702148438 0.682128906 0.203979492
vn 0.372802734 0.925292969 0.0708007812
vn 0.720703125 0.690429688 -0.0606079102
vn 0.931152344 0.356445312 0.075378418
vn 0.923828125 0.377685547 -0.0617980957
vn 0.968261719 0.19152832 0.160522461
vn 0.998535156 -0.00422286987 -0.0531921387
vn 0.923828125 0.281005859 0.260498047
vn 0.998535156 -0.00367736816 -0.053894043
vn 0.340087891 0.9140625 -0.221191406
vn 0.704589844 0.708984375 -0.0223999023
vn 0.705566406 0.706542969 -0.0541381836
vn 0.381835938 0.923339844 -0.0413818359
vn 0.36328125 0.930664062 -0.0405273438
vn 0.705566406 0.706542969 -0.0541381836
vn 8.29696655E-05 0.999511719 -0.0222625732
vn 0.000155806541 0.999511719 -0.0222167969
vn 0.000155806541 0.999511719 -0.0222167969
vn 0.372802734 0.925292969 0.0708007812
vn 7.15255737E-07 0.999511719 -0.0223236084
vn 0.0637207031 0.997070312 -0.0372314453
vn 8.94069672E-07 0.999511719 -0.0223236084
vn -3.57627869E-07 0.999511719 -0.0223236084
vn 0.340087891 0.9140625 -0.221191406
vn 0.381835938 0.923339844 -0.0413818359
vn -4.76837158E-07 0.999511719 -0.0223236084
vn -2.38418579E-07 0.999511719 -0.0223236084
vn 0.36328125 0.930664062 -0.0405273438
vn 0.998535156 -0.00169658661 -0.0550231934
vn 0.998535156 -0.00304985046 -0.0550537109
vn 0.998535156 -0.00169658661 -0.0550231934
vn 0.998535156 -0.00291633606 -0.0550537109
vn 0.889160156 0.0958251953 -0.447753906
vn 0.907714844 0.0863647461 -0.411132812
vn 0.720214844 0.156005859 -0.676269531
vn 0.720214844 0.156005859 -0.676269531
vn 0.889160156 0.0958251953 -0.447753906
vn 0.907714844 0.0863647461 -0.411132812
vn 0.720214844 0.156005859 -0.676269531
vn -0.352050781 -0.935546875 0.033996582
vn -0.352050781 -0.935546875 0.033996582
vn -0.353759766 -0.934570312 0.0346069336
vn -0.353759766 -0.934570312 0.0346069336
vn -0.373535156 -0.927734375 -0.00362586975
vn -0.376464844 -0.926269531 -0.0100479126
vn -0.391357422 -0.91796875 0.0660400391
vn -0.390869141 -0.917480469 0.0725708008
vn -0.375732422 -0.920898438 0.104492188
vn -0.375976562 -0.920410156 0.106872559
vn -0.372558594 -0.927246094 0.0397949219
vn -0.372802734 -0.927246094 0.039855957
vn -0.375244141 -0.92578125 0.0411071777
vn -0.375244141 -0.92578125 0.0411071777
vn -0.692871094 -0.308349609 -0.651855469
vn -0.692871094 -0.308349609 -0.651855469
vn -0.692871094 -0.308349609 -0.651855469
vn -0.692871094 -0.308349609 -0.651855469
vn 0.115966797 -0.0403442383 0.992675781
vn 0.115966797 -0.0403442383 0.992675781
vn 0.115966797 -0.0403442383 0.992675781
vn 0.115966797 -0.0403442383 0.992675781
g CharredSpawnerFragment_05_0
f 3/3/3 2/2/2 1/1/1
f 6/6/6 5/5/5 4/4/4
f 5/5/5 7/7/7 4/4/4
f 8/8/8 4/4/4 7/7/7
f 8/8/8 9/9/9 4/4/4
f 10/10/10 8/8/8 7/7/7
f 7/7/7 11/11/11 10/10/10
f 14/14/14 13/13/13 12/12/12
f 15/15/15 14/14/14 12/12/12
f 18/18/18 17/17/17 16/16/16
f 18/18/18 16/16/16 19/19/19
f 19/19/19 20/20/20 18/18/18
f 20/20/20 19/19/19 21/21/21
f 20/20/20 21/21/21 22/22/22
f 21/21/21 23/23/23 22/22/22
f 22/22/22 24/24/24 20/20/20
f 27/27/27 26/26/26 25/25/25
f 28/28/28 27/27/27 25/25/25
f 28/28/28 29/29/29 27/27/27
f 29/29/29 30/30/30 27/27/27
f 33/33/33 32/32/32 31/31/31
f 34/34/34 33/33/33 31/31/31
f 34/34/34 31/31/31 35/35/35
f 36/36/36 34/34/34 35/35/35
f 36/36/36 35/35/35 37/37/37
f 38/38/38 36/36/36 37/37/37
f 39/39/39 36/36/36 38/38/38
f 38/38/38 40/40/40 39/39/39
f 38/38/38 41/41/41 40/40/40
f 41/41/41 42/42/42 40/40/40
f 42/42/42 43/43/43 40/40/40
f 46/46/46 45/45/45 44/44/44
f 45/45/45 47/47/47 44/44/44
f 45/45/45 48/48/48 47/47/47
f 48/48/48 49/49/49 47/47/47
f 52/52/52 51/51/51 50/50/50
f 50/50/50 53/53/53 52/52/52
f 50/50/50 54/54/54 53/53/53
f 57/57/57 56/56/56 55/55/55
f 58/58/58 57/57/57 55/55/55
f 59/59/59 57/57/57 58/58/58
f 60/60/60 59/59/59 58/58/58
f 61/61/61 59/59/59 60/60/60
f 62/62/62 61/61/61 60/60/60
f 63/63/63 61/61/61 62/62/62
f 64/64/64 63/63/63 62/62/62
f 65/65/65 63/63/63 64/64/64
f 66/66/66 65/65/65 64/64/64
f 67/67/67 65/65/65 66/66/66
f 68/68/68 67/67/67 66/66/66
f 71/71/71 70/70/70 69/69/69
f 72/72/72 71/71/71 69/69/69
f 75/75/75 74/74/74 73/73/73
f 76/76/76 75/75/75 73/73/73
