g CharredSpawnerFragment_01
v -0.197631106 -0.107173555 -5.39984894
v -0.452156514 -0.148864001 -5.37337399
v -0.177900821 -0.0606225617 -5.37028742
v -0.197631106 -0.107173555 -5.39984894
v -0.116623513 0.10231299 -5.4029355
v -0.513743997 0.10231299 -5.4029355
v -0.513743997 -0.10231299 -5.4029355
v -0.0197966322 0.296450645 -5.02526474
v -0.783436775 0.308175176 -4.8091898
v -0.780607998 0.296135008 -5.03108215
v -0.0298743844 0.280476004 -5.09325695
v -0.749582946 0.280476004 -5.09325695
v -0.529551983 0.148864001 -5.37337399
v -0.0968932211 0.148864001 -5.37337399
v -0.116623513 0.10231299 -5.4029355
v -0.513743997 0.10231299 -5.4029355
v -0.783436775 0.308175176 -4.8091898
v -0.816218138 0.275887847 -4.80176449
v -0.813294947 0.263446987 -5.03103685
v -0.780607998 0.296135008 -5.03108215
v -0.792702913 0.247477978 -5.08938122
v -0.749582946 0.280476004 -5.09325695
v -0.813294947 -0.199684098 -5.03103685
v -0.816218138 0.275887847 -4.80176449
v -0.815922499 -0.198874414 -4.82494736
v -0.792702913 -0.197011277 -5.08938122
v -0.682829022 -0.181756526 -5.22925901
v -0.566582024 0.112222992 -5.37725019
v -0.529551983 0.148864001 -5.37337399
v -0.513743997 0.10231299 -5.4029355
v -0.566582024 -0.112222992 -5.37725019
v -0.513743997 -0.10231299 -5.4029355
v -0.529551983 -0.148864001 -5.37337399
v -0.554189265 -0.163600817 -5.34200859
v -0.554189265 -0.163600817 -5.34200859
v -0.452156514 -0.148864001 -5.37337399
v -0.529551983 -0.148864001 -5.37337399
v -0.513743997 -0.10231299 -5.4029355
v -0.197631106 -0.107173555 -5.39984894
v -0.0298743844 0.280476004 -5.09325695
v -0.0907989368 0.00533976406 -5.02129793
v -0.0197966322 0.296450645 -5.02526474
v -0.100876689 -0.0106348759 -5.08929014
v -0.0968932211 0.148864001 -5.37337399
v -0.177900821 -0.0606225617 -5.37028742
v -0.116623513 0.10231299 -5.4029355
v -0.197631106 -0.107173555 -5.39984894
v -0.783436775 0.308175176 -4.8091898
v -0.0197966322 0.296450645 -5.02526474
v -0.0907989368 0.00533976406 -5.02129793
v -0.815922499 -0.198874414 -4.82494736
v -0.816218138 0.275887847 -4.80176449
v -0.0907989368 0.00533976406 -5.02129793
v -0.813294947 -0.199684098 -5.03103685
v -0.815922499 -0.198874414 -4.82494736
v -0.792702913 -0.197011277 -5.08938122
v -0.100876689 -0.0106348759 -5.08929014
v -0.682829022 -0.181756526 -5.22925901
v -0.554189265 -0.163600817 -5.34200859
v -0.452156514 -0.148864001 -5.37337399
v -0.177900821 -0.0606225617 -5.37028742
vt 0.495117188 0.538085938
vt 0.515136719 0.545410156
vt 0.494628906 0.533691406
vt 0.450927734 0.645507812
vt 0.435302734 0.639648438
vt 0.435302734 0.669921875
vt 0.450927734 0.669921875
vt 0.431396484 0.484863281
vt 0.373046875 0.468261719
vt 0.373291016 0.485107422
vt 0.430664062 0.489990234
vt 0.375732422 0.489990234
vt 0.392578125 0.513671875
vt 0.425537109 0.513671875
vt 0.424072266 0.518066406
vt 0.393798828 0.518066406
vt 0.319335938 0.459960938
vt 0.315917969 0.458740234
vt 0.313964844 0.475830078
vt 0.317382812 0.4765625
vt 0.313232422 0.480224609
vt 0.316650391 0.482177734
vt 0.281982422 0.476806641
vt 0.315917969 0.458740234
vt 0.28125 0.461181641
vt 0.282226562 0.481201172
vt 0.283447266 0.494140625
vt 0.3046875 0.507324219
vt 0.308105469 0.509277344
vt 0.304443359 0.51171875
vt 0.288330078 0.5078125
vt 0.288818359 0.512207031
vt 0.284912109 0.509765625
vt 0.283935547 0.506835938
vt 0.186523438 0.511230469
vt 0.178710938 0.513671875
vt 0.184692383 0.513671875
vt 0.18347168 0.518066406
vt 0.159301758 0.517578125
vt 0.430664062 0.489990234
vt 0.431396484 0.484863281
vt 0.431396484 0.484863281
vt 0.430664062 0.489990234
vt 0.425537109 0.513671875
vt 0.425537109 0.513671875
vt 0.424072266 0.518066406
vt 0.424072266 0.518066406
vt 0.560546875 0.478759766
vt 0.495361328 0.48046875
vt 0.501464844 0.504394531
vt 0.562988281 0.520019531
vt 0.562988281 0.481201172
vt 0.501464844 0.504394531
vt 0.5546875 0.534667969
vt 0.562988281 0.520019531
vt 0.551269531 0.538085938
vt 0.499755859 0.509765625
vt 0.537597656 0.543945312
vt 0.523925781 0.546875
vt 0.515136719 0.545410156
vt 0.494628906 0.533691406
vn 0.177734375 -0.580078125 0.794921875
vn 0.177734375 -0.580078125 0.794921875
vn 0.177734375 -0.580078125 0.794921875
vn 0.00390434265 -0.0610046387 -0.998046875
vn 0.00171375275 0.339355469 -0.940917969
vn -0.184448242 0.238647461 -0.953613281
vn -0.184204102 -0.241333008 -0.952636719
vn 0.000601768494 0.978515625 -0.206176758
vn -0.435302734 0.8984375 -0.0543212891
vn -0.391845703 0.895019531 -0.212402344
vn 0.000403881073 0.946777344 -0.321289062
vn -0.298339844 0.83203125 -0.467529297
vn -0.192504883 0.697753906 -0.689941406
vn -0 0.784667969 -0.619628906
vn 0.00171375275 0.339355469 -0.940917969
vn -0.184448242 0.238647461 -0.953613281
vn -0.435302734 0.8984375 -0.0543212891
vn -0.706542969 0.706054688 -0.0473327637
vn -0.895507812 0.387207031 -0.218994141
vn -0.391845703 0.895019531 -0.212402344
vn -0.779785156 0.337890625 -0.52734375
vn -0.298339844 0.83203125 -0.467529297
vn -0.984863281 0 -0.173095703
vn -1 0 -0.0127487183
vn -1 0 -0.0127487183
vn -0.879394531 2.38418579E-07 -0.475585938
vn -0.772460938 -0.0559082031 -0.6328125
vn -0.578125 0.246337891 -0.777832031
vn -0.192504883 0.697753906 -0.689941406
vn -0.184448242 0.238647461 -0.953613281
vn -0.578125 -0.246337891 -0.777832031
vn -0.184204102 -0.241333008 -0.952636719
vn -0.192504883 -0.697753906 -0.689941406
vn -0.147094727 -0.932128906 -0.330810547
vn -0.147094727 -0.932128906 -0.330810547
vn 0.125732422 -0.900390625 -0.416748047
vn -0.192504883 -0.697753906 -0.689941406
vn -0.184204102 -0.241333008 -0.952636719
vn 0.00390434265 -0.0610046387 -0.998046875
vn 0.959960938 -0.257080078 -0.11114502
vn 0.967285156 -0.237182617 -0.0877075195
vn 0.967285156 -0.237182617 -0.0877075195
vn 0.955566406 -0.267333984 -0.123046875
vn 0.943847656 -0.3046875 -0.129150391
vn 0.9375 -0.337158203 -0.0858154297
vn 0.931152344 -0.360839844 -0.0532226562
vn 0.931152344 -0.360839844 -0.0532226562
vn 0.272460938 -0.0494689941 0.9609375
vn 0.272460938 -0.0494689941 0.9609375
vn 0.272460938 -0.0494689941 0.9609375
vn 0.272460938 -0.0494689941 0.9609375
vn 0.272460938 -0.0494689941 0.9609375
vn 0.260009766 -0.954101562 0.149536133
vn 0.272460938 -0.961914062 0.027053833
vn 0.272949219 -0.961914062 0.0072593689
vn 0.267333984 -0.9609375 0.071472168
vn 0.262939453 -0.952148438 0.155395508
vn 0.256103516 -0.960449219 0.109069824
vn -0.147094727 -0.932128906 -0.330810547
vn 0.125732422 -0.900390625 -0.416748047
vn 0.304199219 -0.948730469 0.0853881836
g CharredSpawnerFragment_01_0
f 3/3/3 2/2/2 1/1/1
f 6/6/6 5/5/5 4/4/4
f 7/7/7 6/6/6 4/4/4
f 10/10/10 9/9/9 8/8/8
f 10/10/10 8/8/8 11/11/11
f 12/12/12 10/10/10 11/11/11
f 13/13/13 12/12/12 11/11/11
f 14/14/14 13/13/13 11/11/11
f 13/13/13 14/14/14 15/15/15
f 16/16/16 13/13/13 15/15/15
f 19/19/19 18/18/18 17/17/17
f 20/20/20 19/19/19 17/17/17
f 19/19/19 20/20/20 21/21/21
f 20/20/20 22/22/22 21/21/21
f 23/23/23 19/19/19 21/21/21
f 19/19/19 23/23/23 24/24/24
f 23/23/23 25/25/25 24/24/24
f 26/26/26 23/23/23 21/21/21
f 27/27/27 26/26/26 21/21/21
f 28/28/28 21/21/21 22/22/22
f 29/29/29 28/28/28 22/22/22
f 30/30/30 28/28/28 29/29/29
f 21/21/21 28/28/28 31/31/31
f 31/31/31 28/28/28 30/30/30
f 21/21/21 31/31/31 27/27/27
f 32/32/32 31/31/31 30/30/30
f 32/32/32 33/33/33 31/31/31
f 27/27/27 31/31/31 33/33/33
f 34/34/34 27/27/27 33/33/33
f 37/37/37 36/36/36 35/35/35
f 36/36/36 37/37/37 38/38/38
f 39/39/39 36/36/36 38/38/38
f 42/42/42 41/41/41 40/40/40
f 41/41/41 43/43/43 40/40/40
f 40/40/40 43/43/43 44/44/44
f 43/43/43 45/45/45 44/44/44
f 44/44/44 45/45/45 46/46/46
f 45/45/45 47/47/47 46/46/46
f 50/50/50 49/49/49 48/48/48
f 48/48/48 51/51/51 50/50/50
f 48/48/48 52/52/52 51/51/51
f 55/55/55 54/54/54 53/53/53
f 54/54/54 56/56/56 53/53/53
f 53/53/53 56/56/56 57/57/57
f 56/56/56 58/58/58 57/57/57
f 58/58/58 59/59/59 57/57/57
f 59/59/59 60/60/60 57/57/57
f 57/57/57 60/60/60 61/61/61
