g Charred_Leg
v 0.0122241825 0.2327528 -0.0166723896
v 0.010957092 0.256854355 -0.013044483
v 0.010957092 0.261869371 -0.0447086319
v 0.0122241825 0.237781212 -0.0483365282
v -0.0128643652 0.191725552 -0.023074571
v -0.0646153912 0.262843072 -0.0438416563
v -0.0228944551 0.194833219 -0.0546853617
v -0.00450153649 0.0183462799 -0.0464158654
v -0.0674163476 0.242876276 -0.0493768826
v -0.0646153912 0.257814705 -0.0121775158
v -0.0142515153 0.0233613253 -0.0780800134
v -0.0317508243 0.19519335 -0.05573906
v -0.0674163401 0.237847909 -0.0177127384
v -0.0205603372 0.217307568 0.00517507643
v -0.021960808 0.262056172 0.00906973705
v 0.010957092 0.256854355 -0.013044483
v 0.0122241825 0.2327528 -0.0166723896
v -0.0128643652 0.191725552 -0.023074571
v -0.0476362593 0.19017829 -0.0240749065
v -0.0201468468 0.172798961 -0.00120043382
v -0.00450153649 0.0183462799 -0.0464158654
v -0.0136779686 0.0153718591 -0.023754796
v -0.0207870901 0.0282028615 -0.0767328888
v -0.0215740204 -0.1293841 -0.0444818623
v 0.00860960782 -0.128930658 -0.0668495148
v -0.0219874829 -0.173892662 -0.0508573763
v 0.011557281 -0.163489133 -0.0734384209
v 0.00998342037 -0.198074266 -0.0767462105
v -0.0207470786 -0.204142988 -0.0551921874
v -0.0457822867 -0.194366395 -0.0777598917
v -0.0305504203 0.0231745839 -0.0450687408
v -0.0442084223 -0.126009732 -0.0658891723
v -0.0283229947 -0.120981269 -0.0975533202
v -0.0492367968 -0.163609177 -0.0725447834
v -0.0492368005 -0.158594087 -0.104208924
v -0.0457822867 -0.189351216 -0.109424025
v -0.00727580488 -0.123915642 -0.0985136554
v 0.00860960782 -0.128930658 -0.0668495148
v 0.0115572661 -0.158474028 -0.105115905
v 0.00998342037 -0.193045899 -0.10842371
v 0.011557281 -0.163489133 -0.0734384209
v 0.00998342037 -0.198074266 -0.0767462105
v -0.0148250312 0.242889568 -0.0299836006
v -0.000420108438 0.253159821 -0.0225143824
v 0.0100101084 0.210064992 -0.0281296317
v -0.0113438508 0.222936153 -0.0337582193
v -0.0116506219 0.224523306 -0.0439617038
v -0.0151184797 0.244463444 -0.0401870832
v 0.00107370317 0.169091105 -0.0402404331
v 0.0138247311 0.156820267 -0.0342383832
v 0.0154519528 0.0256687403 -0.0575663447
v 0.00936987996 0.173145652 -0.0505239442
v 0.0190798491 0.227310956 -0.0443218313
v 0.0132245272 0.25062561 -0.0407872945
v 0.0127710402 0.172892421 -0.0501905009
v 0.0193732977 0.225737095 -0.0341050103
v 0.013517946 0.249051675 -0.0305838045
v 0.0210805386 0.172145471 -0.0398002863
v 0.0221341979 0.0248818994 -0.0648888499
v 0.0100101084 0.210064992 -0.0281296317
v -0.000420108438 0.253159821 -0.0225143824
v 0.0138247311 0.156820267 -0.0342383832
v 0.0154519528 0.0256687403 -0.0575663447
v 0.0101301372 -0.124048948 -0.0781466961
v 0.0221742392 0.0264957547 -0.0751056671
v 0.0216807257 -0.125942945 -0.0856559351
v 0.00997008383 -0.16855751 -0.0845222101
v 0.0196667016 0.031404078 -0.0741853565
v 0.0156119913 -0.12432909 -0.0958594084
v 0.0026742667 0.0311107337 -0.0640218779
v 0.00147384405 -0.122968696 -0.0850557312
v 0.0101301372 -0.124048948 -0.0781466961
v 0.00997008383 -0.16855751 -0.0845222101
v 0.00755591691 -0.121341407 -0.0952592045
v -0.000446796417 -0.160701558 -0.0908710435
v -0.000446796417 -0.159087628 -0.101074524
v 0.00086030364 -0.191552103 -0.0955526456
v 0.0104502439 -0.19880788 -0.0888570175
v 0.00086030364 -0.189924881 -0.105756119
v 0.0228144377 -0.159060985 -0.101367965
v 0.0222142339 -0.193472818 -0.105769448
v 0.0228144377 -0.160688281 -0.0911644697
v 0.0222142339 -0.195086643 -0.0955526456
v 0.0104502439 -0.19880788 -0.0888570175
v -0.057693027 -0.249425083 -0.122014999
v 0.0131578296 -0.254133373 -0.136273205
v -0.0280428976 -0.254133373 -0.135072798
v 0.0404604934 -0.254333407 -0.0960728228
v -0.0552255176 -0.236860901 -0.0992338806
v 0.0415942222 -0.233099565 -0.0811343715
v -0.0523178428 -0.237247571 -0.0633816496
v 0.0444485098 -0.245357201 -0.0472294688
v -0.0479430221 -0.239621744 -0.00934986211
v 0.0474362075 -0.257307827 -0.0118440539
v 0.0645087063 -0.262843072 0.0374927931
v -0.049076736 -0.258081347 0.0759859532
v 0.0345384926 -0.262216151 0.131044745
v 0.067416355 -0.255307108 0.0697971508
v -0.0457022339 -0.254306853 0.143035501
v 0.0346985459 -0.255654037 0.132952034
v -0.00434143841 -0.262216151 0.157307059
v -0.00419473648 -0.255654037 0.159214377
v -0.0646153912 0.262843072 -0.0438416563
v 0.010957092 0.261869371 -0.0447086319
v 0.010957092 0.256854355 -0.013044483
v -0.0646153912 0.257814705 -0.0121775158
v -0.021960808 0.262056172 0.00906973705
v -0.00419473648 -0.255654037 0.159214377
v -0.0457022339 -0.254306853 0.143035501
v -0.0334447175 -0.238221273 0.128137082
v -0.049076736 -0.258081347 0.0759859532
v -0.0367925242 -0.234193161 0.0771330073
v -0.0479430221 -0.239621744 -0.00934986211
v -0.00543515384 -0.241529122 0.143929154
v -0.0382730439 -0.203076094 -0.00192066282
v -0.0523178428 -0.237247571 -0.0633816496
v 0.0334580988 -0.241529122 0.117666833
v 0.0346985459 -0.255654037 0.132952034
v 0.067416355 -0.255307108 0.0697971508
v -0.0102634728 -0.236994281 0.084202081
v -0.0444485024 -0.188297495 -0.0532715321
v -0.0552255176 -0.236860901 -0.0992338806
v 0.0309372395 -0.236994281 0.0830016583
v 0.0666294247 -0.246304065 0.0600604899
v 0.0645087063 -0.243423134 0.0374927931
v 0.0645087063 -0.262843072 0.0374927931
v -0.0170791447 -0.190071478 0.000120032579
v 0.0241215676 -0.190071478 -0.00108038075
v 0.0474362075 -0.213546231 -0.010003428
v 0.0474362075 -0.257307827 -0.0118440539
v 0.0194266569 -0.169891357 -0.0588867851
v 0.0444485098 -0.200701877 -0.0468026586
v 0.0444485098 -0.245357201 -0.0472294688
v -0.0217607301 -0.169891357 -0.0576863699
v 0.0162922274 -0.15779385 -0.0975800008
v 0.0424611717 -0.19300583 -0.0714377463
v 0.0415942222 -0.233099565 -0.0811343715
v -0.0549054146 -0.163835898 -0.0876432806
v -0.0249084961 -0.15779385 -0.096379593
v 0.0149451038 -0.182002068 -0.114305712
v -0.0561191589 -0.185349971 -0.102488324
v -0.057693027 -0.249425083 -0.122014999
v -0.0262556206 -0.182002068 -0.113105305
v 0.0115306079 -0.198647782 -0.156346738
v -0.059146855 -0.200128227 -0.139834434
v -0.0296701323 -0.198647782 -0.155146301
v 0.0394201539 -0.219014734 -0.108850524
v 0.0404604934 -0.254333407 -0.0960728228
v -0.0593469255 -0.226564035 -0.142381966
v -0.0298968554 -0.228417978 -0.158013925
v -0.0280428976 -0.254133373 -0.135072798
v 0.0131578296 -0.254133373 -0.136273205
v 0.011303856 -0.228417978 -0.159214377
v 0.0392734408 -0.237954646 -0.110664472
vt 0.250521958 0.777515888
vt 0.248222172 0.784218073
vt 0.256909013 0.786846101
vt 0.25794223 0.780592263
vt 0.257049501 0.766140044
vt 0.275398523 0.788219571
vt 0.267245799 0.768403828
vt 0.258943677 0.712865949
vt 0.275315285 0.783321381
vt 0.283450395 0.787872434
vt 0.269058079 0.712997317
vt 0.270041406 0.768492103
vt 0.282243043 0.783019483
vt 0.294609398 0.775379658
vt 0.295979321 0.787904978
vt 0.306519747 0.784692526
vt 0.306252986 0.77797389
vt 0.30028376 0.765932441
vt 0.281506389 0.76849854
vt 0.292341828 0.762328863
vt 0.297283947 0.713268459
vt 0.289864689 0.713262081
vt 0.270962566 0.714558661
vt 0.292808503 0.66906631
vt 0.304011941 0.669409275
vt 0.29441902 0.655881286
vt 0.306125253 0.659229517
vt 0.306519747 0.649002314
vt 0.295513898 0.647045374
vt 0.285253644 0.648071706
vt 0.281226188 0.714599609
vt 0.283383578 0.667757988
vt 0.272353113 0.667214394
vt 0.284387171 0.656903446
vt 0.27641502 0.656102717
vt 0.275935888 0.647680044
vt 0.265806705 0.66681385
vt 0.254869491 0.667832196
vt 0.261498749 0.656461477
vt 0.26053673 0.647521734
vt 0.253091067 0.657622099
vt 0.251779675 0.648189783
vt 0.0506327674 0.858075559
vt 0.045656018 0.856317282
vt 0.0465542898 0.868602097
vt 0.0513801649 0.863672316
vt 0.0541456714 0.863203168
vt 0.0534873828 0.85777241
vt 0.0536382124 0.88046056
vt 0.0495000556 0.884755731
vt 0.0500899181 0.924248517
vt 0.0579105541 0.879582882
vt 0.0615920946 0.863704741
vt 0.0616957173 0.857146323
vt 0.058974348 0.879687071
vt 0.0643096641 0.863944292
vt 0.0647674426 0.857303917
vt 0.0632265583 0.879635811
vt 0.0640161112 0.924813509
vt 0.0677095875 0.86791867
vt 0.0691280887 0.855292857
vt 0.0664725527 0.884070277
vt 0.0669393465 0.924207032
vt 0.0679693595 0.969677866
vt 0.0609789267 0.924843371
vt 0.0639518723 0.970793307
vt 0.0691280887 0.982833922
vt 0.0601817891 0.923270702
vt 0.060255073 0.970849633
vt 0.0544377044 0.922920883
vt 0.0540574864 0.96989125
vt 0.0507334694 0.969660938
vt 0.0492139533 0.982619166
vt 0.057732828 0.969970286
vt 0.0529866442 0.980911255
vt 0.055821456 0.981066465
vt 0.0526384488 0.9898175
vt 0.0490066633 0.99161303
vt 0.0556750819 0.98988229
vt 0.0618824884 0.981194675
vt 0.0620494708 0.99091965
vt 0.0647437349 0.981090367
vt 0.0650381967 0.990943253
vt 0.0690457597 0.99172163
vt 0.820429802 0.207906842
vt 0.841669917 0.202998757
vt 0.829276145 0.203565359
vt 0.850222468 0.214865208
vt 0.82094276 0.215756178
vt 0.849793911 0.222675443
vt 0.821264386 0.22657907
vt 0.850061178 0.233558059
vt 0.821444631 0.242910504
vt 0.850590229 0.244823575
vt 0.854570031 0.260116696
vt 0.819583952 0.269127011
vt 0.842177987 0.285313487
vt 0.854570031 0.270150781
vt 0.820476174 0.289450645
vt 0.843347907 0.286975861
vt 0.832569897 0.292281747
vt 0.832726836 0.294288158
vt 0.288581192 0.64130789
vt 0.288581192 0.618997991
vt 0.279118836 0.618910909
vt 0.279120505 0.641533554
vt 0.272819817 0.628895581
vt 0.893600225 0.192672491
vt 0.877680898 0.197312951
vt 0.882755756 0.204982758
vt 0.869384289 0.220621943
vt 0.879371762 0.223004341
vt 0.865790844 0.253205299
vt 0.892540574 0.200107813
vt 0.879199386 0.25326705
vt 0.866245031 0.273745894
vt 0.905556202 0.209526896
vt 0.908027768 0.202306271
vt 0.920915723 0.225015759
vt 0.88943398 0.220833659
vt 0.879884124 0.268580675
vt 0.869521141 0.285448074
vt 0.904580712 0.222108006
vt 0.918683529 0.229268909
vt 0.918755889 0.237354755
vt 0.926041007 0.236250877
vt 0.886754036 0.253430605
vt 0.899242043 0.254326344
vt 0.91001761 0.256090641
vt 0.926041007 0.256408811
vt 0.895768285 0.269820571
vt 0.906254172 0.267876983
vt 0.921296358 0.270314336
vt 0.887026548 0.26926887
vt 0.893454432 0.276303768
vt 0.902701259 0.274127603
vt 0.913377166 0.28248167
vt 0.883358598 0.275840521
vt 0.88766849 0.27667284
vt 0.894515514 0.281339407
vt 0.881670475 0.279950738
vt 0.87014997 0.293452382
vt 0.887182832 0.281018019
vt 0.892406106 0.288206816
vt 0.882335305 0.286245704
vt 0.886743069 0.288165331
vt 0.903835893 0.286365032
vt 0.914060712 0.293298483
vt 0.880089045 0.290469646
vt 0.885713816 0.292993784
vt 0.881280899 0.30472362
vt 0.898285151 0.301382065
vt 0.893009543 0.293331027
vt 0.906549811 0.290980458
vn 0.914825737 -0.236463875 0.327381611
vn 0.704413474 0.555733383 0.44154498
vn 0.542395413 0.66959697 -0.507392406
vn 0.731455088 -0.0889239013 -0.676066518
vn 0.959837914 -0.258591324 0.10881947
vn -0.52709192 0.693131745 -0.491673201
vn 0.512751639 -0.0147112459 -0.858410954
vn 0.994475543 0.0315925628 0.100101173
vn -0.704254568 -0.0217733867 -0.709613562
vn -0.647202313 0.559275806 0.518015206
vn 0.567168832 0.145383641 -0.81066829
vn -0.468019366 -0.0269995909 -0.883305669
vn -0.90701139 -0.192015946 0.374780178
vn 0.115979902 -0.265925944 0.956991136
vn 0.0397759974 0.575088263 0.81712383
vn 0.704413474 0.555733383 0.44154498
vn 0.914825737 -0.236463875 0.327381611
vn 0.959837914 -0.258591324 0.10881947
vn -0.927264214 -0.277880669 0.250925273
vn 0.178333551 -0.245412335 0.952874541
vn 0.994475543 0.0315925628 0.100101173
vn 0.111945994 -0.108314402 0.987793505
vn -0.54602319 0.107232131 -0.830879033
vn -0.0307904594 -0.10550718 0.993941784
vn 0.954640865 0.0728264973 0.288716257
vn -0.0655758157 -0.148043618 0.986804366
vn 0.917516351 0.0251925066 0.396899134
vn 0.873493969 -0.0823860392 0.479813308
vn -0.0121656992 -0.166430861 0.985978127
vn -0.898378849 -0.15142107 0.412295014
vn -0.982424915 -0.0324988179 0.183807418
vn -0.957267404 0.102940001 0.270263612
vn -0.533487082 0.2318874 -0.813400149
vn -0.936775565 0.00883497857 0.349818945
vn -0.720571339 0.18005459 -0.669595003
vn -0.659818113 0.0240261033 -0.751041114
vn 0.509182215 0.232563198 -0.82864213
vn 0.954640865 0.0728264973 0.288716257
vn 0.700904071 0.1985154 -0.685073018
vn 0.725188911 0.056582503 -0.686221242
vn 0.917516351 0.0251925066 0.396899134
vn 0.873493969 -0.0823860392 0.479813308
vn -0.745011806 -0.233956844 0.624677122
vn 0.065895021 -0.121140391 0.990445733
vn 0.141705081 -0.123134129 0.982220709
vn -0.858727217 -0.261733294 0.440548986
vn -0.642338276 -0.0457421727 -0.765054941
vn -0.71948874 -0.00918070693 -0.694443345
vn -0.954854429 -0.174637675 0.240321994
vn 0.149081737 -0.160808742 0.975661397
vn 0.102735505 -0.150002286 0.983333409
vn -0.394726068 0.0487807989 -0.917502999
vn 0.643912435 0.171850771 -0.745549619
vn 0.650960088 0.283612967 -0.704141021
vn 0.54697746 0.117748491 -0.828825057
vn 0.924976587 0.0726907402 0.373007149
vn 0.814085007 0.124353826 0.567275703
vn 0.970110416 -0.0116490806 0.242383957
vn 0.970065773 -0.0347357355 0.240345061
vn 0.141705081 -0.123134129 0.982220709
vn 0.065895021 -0.121140391 0.990445733
vn 0.149081737 -0.160808742 0.975661397
vn 0.102735505 -0.150002286 0.983333409
vn -0.0056902091 -0.135566518 0.990751863
vn 0.57636869 0.122433424 -0.807966113
vn 0.938918293 -0.0214019343 0.343473881
vn -0.0577155575 -0.145146459 0.987725317
vn -0.312430143 0.152109206 -0.937683463
vn 0.554981291 0.148737699 -0.818457663
vn -0.997828543 -0.0130352257 0.0645620897
vn -0.972907424 0.031010557 0.229105756
vn -0.0056902091 -0.135566518 0.990751863
vn -0.0577155575 -0.145146459 0.987725317
vn -0.46326074 0.167952806 -0.870161653
vn -0.925520301 -0.0288249012 0.377599448
vn -0.677797377 0.135917261 -0.722576857
vn -0.864572585 -0.104099564 0.491607159
vn 0.0247313995 -0.148726404 0.98856914
vn -0.661817312 0.0757365152 -0.745829642
vn 0.668775082 0.142259985 -0.729727387
vn 0.747845888 0.0787694007 -0.659182787
vn 0.905101299 -0.0287673678 0.424221873
vn 0.848773956 -0.0803813711 0.522610247
vn 0.0247313995 -0.148726404 0.98856914
vn -0.716843486 -0.696777105 0.0252374243
vn 0.316314638 -0.841790974 -0.437416255
vn -0.156255573 -0.906154871 -0.3930237
vn 0.585590839 -0.784320176 0.204756618
vn -0.789820969 -0.530195475 0.308343202
vn 0.874965489 -0.483167589 -0.0313763879
vn -0.759021819 -0.651063502 0.00152660487
vn 0.67431277 -0.716960967 -0.176831245
vn -0.841041267 -0.540369153 -0.0255104378
vn 0.568893194 -0.775014699 -0.275159478
vn 0.650516391 -0.728997231 -0.213052854
vn -0.837739229 -0.545980752 0.00989867561
vn 0.500758946 -0.742744625 0.444489598
vn 0.866811931 -0.417865843 0.272075742
vn -0.780074894 -0.24127166 0.577296436
vn 0.695747197 0.224859342 0.682183266
vn 0.0421542861 -0.73768115 0.673832059
vn 0.105518274 0.23961556 0.96511668
vn -0.52709192 0.693131745 -0.491673201
vn 0.542395413 0.66959697 -0.507392406
vn 0.704413474 0.555733383 0.44154498
vn -0.647202313 0.559275806 0.518015206
vn 0.0397759974 0.575088263 0.81712383
vn 0.105518274 0.23961556 0.96511668
vn -0.780074894 -0.24127166 0.577296436
vn -0.407653183 0.877119601 0.253929019
vn -0.837739229 -0.545980752 0.00989867561
vn -0.614731252 0.761926353 0.203896403
vn -0.841041267 -0.540369153 -0.0255104378
vn 0.0709024146 0.875124753 0.478674829
vn -0.745402753 0.607952893 0.273437381
vn -0.759021819 -0.651063502 0.00152660487
vn 0.438402295 0.833678544 0.335832626
vn 0.695747197 0.224859342 0.682183266
vn 0.866811931 -0.417865843 0.272075742
vn -0.0160415042 0.965461254 0.260052204
vn -0.818558335 0.489556849 0.30049324
vn -0.789820969 -0.530195475 0.308343202
vn 0.228946298 0.946873069 0.225865275
vn 0.814939737 0.573698997 0.0821143389
vn 0.917408466 0.396774948 -0.0305172633
vn 0.650516391 -0.728997231 -0.213052854
vn -0.203201294 0.895011961 0.397067696
vn 0.373440921 0.860467136 0.346609533
vn 0.909412861 0.412262917 0.0548397377
vn 0.568893194 -0.775014699 -0.275159478
vn 0.405366778 0.877759218 0.255375296
vn 0.932070792 0.359481752 0.0449113809
vn 0.67431277 -0.716960967 -0.176831245
vn -0.192073599 0.90963614 0.368333995
vn 0.434097886 0.829658866 -0.351034492
vn 0.922767162 0.353573143 -0.153253555
vn 0.874965489 -0.483167589 -0.0313763879
vn -0.738201857 0.672475636 -0.0532392077
vn -0.193623185 0.932435989 -0.305079043
vn 0.545476258 0.647380114 -0.532310665
vn -0.876638114 0.405945182 -0.258290708
vn -0.716843486 -0.696777105 0.0252374243
vn -0.156313509 0.789612532 -0.593361735
vn 0.444163233 0.540416479 -0.714611173
vn -0.767315388 0.454285562 -0.452605456
vn -0.214053556 0.569779932 -0.793430507
vn 0.931524873 0.283794165 -0.227425084
vn 0.585590839 -0.784320176 0.204756618
vn -0.817239523 -0.211061284 -0.536258161
vn -0.243356809 -0.298301846 -0.922926605
vn -0.156255573 -0.906154871 -0.3930237
vn 0.316314638 -0.841790974 -0.437416255
vn 0.423589051 -0.254214704 -0.869452238
vn 0.918793321 -0.152785167 -0.363971889
g Charred_Leg_0
f 3/3/3 2/2/2 1/1/1
f 4/4/4 3/3/3 1/1/1
f 4/4/4 1/1/1 5/5/5
f 3/3/3 4/4/4 6/6/6
f 7/7/7 4/4/4 5/5/5
f 7/7/7 5/5/5 8/8/8
f 4/4/4 9/9/9 6/6/6
f 4/4/4 7/7/7 9/9/9
f 6/6/6 9/9/9 10/10/10
f 11/11/11 7/7/7 8/8/8
f 7/7/7 12/12/12 9/9/9
f 7/7/7 11/11/11 12/12/12
f 9/9/9 13/13/13 10/10/10
f 9/9/9 12/12/12 13/13/13
f 13/13/13 14/14/14 10/10/10
f 14/14/14 15/15/15 10/10/10
f 15/15/15 14/14/14 16/16/16
f 14/14/14 17/17/17 16/16/16
f 18/18/18 17/17/17 14/14/14
f 12/12/12 19/19/19 13/13/13
f 14/14/14 13/13/13 19/19/19
f 20/20/20 18/18/18 14/14/14
f 20/20/20 14/14/14 19/19/19
f 21/21/21 18/18/18 20/20/20
f 22/22/22 21/21/21 20/20/20
f 22/22/22 20/20/20 19/19/19
f 12/12/12 23/23/23 19/19/19
f 11/11/11 23/23/23 12/12/12
f 21/21/21 22/22/22 24/24/24
f 25/25/25 21/21/21 24/24/24
f 25/25/25 24/24/24 26/26/26
f 27/27/27 25/25/25 26/26/26
f 27/27/27 26/26/26 28/28/28
f 26/26/26 29/29/29 28/28/28
f 29/29/29 26/26/26 30/30/30
f 31/31/31 22/22/22 19/19/19
f 23/23/23 31/31/31 19/19/19
f 24/24/24 22/22/22 32/32/32
f 22/22/22 31/31/31 32/32/32
f 26/26/26 24/24/24 32/32/32
f 31/31/31 23/23/23 32/32/32
f 23/23/23 11/11/11 33/33/33
f 23/23/23 33/33/33 32/32/32
f 34/34/34 26/26/26 32/32/32
f 26/26/26 34/34/34 30/30/30
f 32/32/32 33/33/33 34/34/34
f 34/34/34 35/35/35 30/30/30
f 33/33/33 35/35/35 34/34/34
f 35/35/35 36/36/36 30/30/30
f 11/11/11 37/37/37 33/33/33
f 33/33/33 37/37/37 35/35/35
f 37/37/37 11/11/11 8/8/8
f 38/38/38 37/37/37 8/8/8
f 35/35/35 39/39/39 36/36/36
f 37/37/37 39/39/39 35/35/35
f 39/39/39 37/37/37 38/38/38
f 39/39/39 40/40/40 36/36/36
f 41/41/41 39/39/39 38/38/38
f 40/40/40 39/39/39 41/41/41
f 42/42/42 40/40/40 41/41/41
f 45/45/45 44/44/44 43/43/43
f 46/46/46 45/45/45 43/43/43
f 47/47/47 46/46/46 43/43/43
f 48/48/48 47/47/47 43/43/43
f 45/45/45 46/46/46 49/49/49
f 50/50/50 45/45/45 49/49/49
f 51/51/51 50/50/50 49/49/49
f 47/47/47 52/52/52 46/46/46
f 52/52/52 49/49/49 46/46/46
f 53/53/53 47/47/47 48/48/48
f 54/54/54 53/53/53 48/48/48
f 55/55/55 52/52/52 47/47/47
f 53/53/53 55/55/55 47/47/47
f 53/53/53 54/54/54 56/56/56
f 54/54/54 57/57/57 56/56/56
f 53/53/53 56/56/56 58/58/58
f 55/55/55 53/53/53 58/58/58
f 55/55/55 58/58/58 59/59/59
f 60/60/60 56/56/56 57/57/57
f 58/58/58 56/56/56 60/60/60
f 61/61/61 60/60/60 57/57/57
f 62/62/62 58/58/58 60/60/60
f 59/59/59 58/58/58 62/62/62
f 63/63/63 59/59/59 62/62/62
f 59/59/59 63/63/63 64/64/64
f 55/55/55 65/65/65 52/52/52
f 65/65/65 55/55/55 59/59/59
f 66/66/66 59/59/59 64/64/64
f 66/66/66 64/64/64 67/67/67
f 65/65/65 68/68/68 52/52/52
f 52/52/52 68/68/68 49/49/49
f 69/69/69 65/65/65 59/59/59
f 66/66/66 69/69/69 59/59/59
f 68/68/68 70/70/70 49/49/49
f 70/70/70 51/51/51 49/49/49
f 51/51/51 70/70/70 71/71/71
f 70/70/70 68/68/68 71/71/71
f 72/72/72 51/51/51 71/71/71
f 73/73/73 72/72/72 71/71/71
f 68/68/68 65/65/65 74/74/74
f 68/68/68 74/74/74 71/71/71
f 65/65/65 69/69/69 74/74/74
f 75/75/75 73/73/73 71/71/71
f 71/71/71 74/74/74 75/75/75
f 74/74/74 69/69/69 76/76/76
f 74/74/74 76/76/76 75/75/75
f 73/73/73 75/75/75 77/77/77
f 75/75/75 76/76/76 77/77/77
f 78/78/78 73/73/73 77/77/77
f 76/76/76 79/79/79 77/77/77
f 69/69/69 80/80/80 76/76/76
f 76/76/76 80/80/80 79/79/79
f 80/80/80 69/69/69 66/66/66
f 80/80/80 81/81/81 79/79/79
f 82/82/82 80/80/80 66/66/66
f 81/81/81 80/80/80 82/82/82
f 82/82/82 66/66/66 67/67/67
f 83/83/83 81/81/81 82/82/82
f 82/82/82 67/67/67 83/83/83
f 67/67/67 84/84/84 83/83/83
f 87/87/87 86/86/86 85/85/85
f 86/86/86 88/88/88 85/85/85
f 85/85/85 88/88/88 89/89/89
f 88/88/88 90/90/90 89/89/89
f 89/89/89 90/90/90 91/91/91
f 90/90/90 92/92/92 91/91/91
f 91/91/91 92/92/92 93/93/93
f 92/92/92 94/94/94 93/93/93
f 94/94/94 95/95/95 93/93/93
f 95/95/95 96/96/96 93/93/93
f 96/96/96 95/95/95 97/97/97
f 95/95/95 98/98/98 97/97/97
f 96/96/96 97/97/97 99/99/99
f 97/97/97 98/98/98 100/100/100
f 97/97/97 101/101/101 99/99/99
f 101/101/101 97/97/97 100/100/100
f 102/102/102 99/99/99 101/101/101
f 102/102/102 101/101/101 100/100/100
f 105/105/105 104/104/104 103/103/103
f 103/103/103 106/106/106 105/105/105
f 106/106/106 107/107/107 105/105/105
f 110/110/110 109/109/109 108/108/108
f 109/109/109 110/110/110 111/111/111
f 110/110/110 112/112/112 111/111/111
f 113/113/113 111/111/111 112/112/112
f 114/114/114 110/110/110 108/108/108
f 112/112/112 110/110/110 114/114/114
f 115/115/115 113/113/113 112/112/112
f 116/116/116 113/113/113 115/115/115
f 114/114/114 108/108/108 117/117/117
f 108/108/108 118/118/118 117/117/117
f 118/118/118 119/119/119 117/117/117
f 120/120/120 112/112/112 114/114/114
f 115/115/115 112/112/112 120/120/120
f 121/121/121 116/116/116 115/115/115
f 122/122/122 116/116/116 121/121/121
f 114/114/114 117/117/117 123/123/123
f 120/120/120 114/114/114 123/123/123
f 119/119/119 124/124/124 117/117/117
f 117/117/117 124/124/124 123/123/123
f 124/124/124 119/119/119 125/125/125
f 124/124/124 125/125/125 123/123/123
f 119/119/119 126/126/126 125/125/125
f 127/127/127 115/115/115 120/120/120
f 121/121/121 115/115/115 127/127/127
f 120/120/120 123/123/123 128/128/128
f 123/123/123 125/125/125 128/128/128
f 127/127/127 120/120/120 128/128/128
f 125/125/125 126/126/126 129/129/129
f 125/125/125 129/129/129 128/128/128
f 126/126/126 130/130/130 129/129/129
f 127/127/127 128/128/128 131/131/131
f 128/128/128 129/129/129 131/131/131
f 129/129/129 130/130/130 132/132/132
f 129/129/129 132/132/132 131/131/131
f 130/130/130 133/133/133 132/132/132
f 134/134/134 121/121/121 127/127/127
f 134/134/134 127/127/127 131/131/131
f 131/131/131 132/132/132 135/135/135
f 134/134/134 131/131/131 135/135/135
f 132/132/132 133/133/133 136/136/136
f 132/132/132 136/136/136 135/135/135
f 133/133/133 137/137/137 136/136/136
f 138/138/138 121/121/121 134/134/134
f 138/138/138 122/122/122 121/121/121
f 139/139/139 134/134/134 135/135/135
f 139/139/139 138/138/138 134/134/134
f 135/135/135 136/136/136 140/140/140
f 136/136/136 137/137/137 140/140/140
f 139/139/139 135/135/135 140/140/140
f 138/138/138 141/141/141 122/122/122
f 141/141/141 138/138/138 139/139/139
f 141/141/141 142/142/142 122/122/122
f 143/143/143 139/139/139 140/140/140
f 143/143/143 141/141/141 139/139/139
f 140/140/140 137/137/137 144/144/144
f 143/143/143 140/140/140 144/144/144
f 145/145/145 141/141/141 143/143/143
f 142/142/142 141/141/141 145/145/145
f 146/146/146 145/145/145 143/143/143
f 146/146/146 143/143/143 144/144/144
f 137/137/137 147/147/147 144/144/144
f 137/137/137 148/148/148 147/147/147
f 149/149/149 142/142/142 145/145/145
f 149/149/149 145/145/145 146/146/146
f 142/142/142 149/149/149 150/150/150
f 150/150/150 149/149/149 146/146/146
f 151/151/151 142/142/142 150/150/150
f 151/151/151 150/150/150 152/152/152
f 146/146/146 144/144/144 153/153/153
f 150/150/150 146/146/146 153/153/153
f 144/144/144 147/147/147 153/153/153
f 150/150/150 153/153/153 152/152/152
f 154/154/154 148/148/148 152/152/152
f 148/148/148 154/154/154 147/147/147
f 153/153/153 154/154/154 152/152/152
f 147/147/147 154/154/154 153/153/153
