g CharredSpawnerFragment_04
v 0.817511976 0.281374007 -4.7003088
v 0.817800939 0.304434001 -4.679667
v 0.785159945 0.315411985 -4.67581987
v 0.817826033 0.0418683179 -4.50262737
v 0.817511976 0.281374007 -4.7003088
v 0.813294947 0.263428003 -5.03103685
v 0.813294947 0.0381447971 -5.03103685
v 0.792702913 0.0347960144 -5.08938122
v 0.792702913 0.247477978 -5.08938122
v 0.690407157 0.186289445 -5.21961164
v 0.685124099 0.0182731878 -5.22633696
v 0.658690989 0.22610876 -5.20896959
v 0.749582946 0.280476004 -5.09325695
v 0.780629933 0.296135008 -5.03108215
v 0.817511976 0.281374007 -4.7003088
v 0.785159945 0.315411985 -4.67581987
v 0.672122002 0.324817985 -4.50247478
v 0.821641982 0.307778001 -4.33953619
v 0.796599925 0.328629971 -4.33180094
v 0.744376004 0.226764992 -4.50297403
v 0.817826033 0.0418683179 -4.50262737
v 0.830625951 0.296501011 -4.30758286
v 0.796599925 0.328629971 -4.33180094
v 0.817826033 0.0418683179 -4.50262737
v 0.817800939 0.304434001 -4.679667
v 0.817511976 0.281374007 -4.7003088
v 0.744376004 0.226764992 -4.50297403
v 0.785159945 0.315411985 -4.67581987
v 0.672122002 0.324817985 -4.50247478
v 0.106807232 0.354032278 -3.20105243
v 0.796599925 0.328629971 -4.33180094
v 0.8199718 0.337134689 -3.95103168
v 0.0403404795 0.332196027 -4.21565866
v 0.672122002 0.324817985 -4.50247478
v 0.0210841894 0.324817985 -4.50247478
v 0.785159945 0.315411985 -4.67581987
v -0.0193417538 0.296766281 -5.0194478
v 0.780629933 0.296135008 -5.03108215
v 0.0229376424 0.296135008 -5.03108215
v 0.749582946 0.280476004 -5.09325695
v 0.246707544 0.280476004 -5.09325695
v 0.658690989 0.22610876 -5.20896959
v 0.796599925 0.328629971 -4.33180094
v 0.849118948 0.306069911 -3.96731353
v 0.8199718 0.337134689 -3.95103168
v 0.830625951 0.296501011 -4.30758286
v 0.835438848 0.0461267233 -4.21205664
v 0.854638875 0.0510168076 -3.85251498
v 0.817826033 0.0418683179 -4.50262737
v -0.0193417538 0.296766281 -5.0194478
v 0.00709135644 0.0889307112 -5.03681564
v 0.0493707545 0.0882994309 -5.04844999
v 0.0229376424 0.296135008 -5.03108215
v 0.273140669 0.0726404339 -5.11062479
v 0.246707544 0.280476004 -5.09325695
v 0.685124099 0.0182731878 -5.22633696
v 0.658690989 0.22610876 -5.20896959
v 0.690407157 0.186289445 -5.21961164
v 0.8199718 0.337134689 -3.95103168
v 0.133240327 0.146196708 -3.21842027
v 0.106807232 0.354032278 -3.20105243
v 0.854638875 0.0510168076 -3.85251498
v 0.849118948 0.306069911 -3.96731353
v 0.0210841894 0.324817985 -4.50247478
v 0.00709135644 0.0889307112 -5.03681564
v -0.0193417538 0.296766281 -5.0194478
v 0.0475172997 0.11698243 -4.51984262
v 0.0403404795 0.332196027 -4.21565866
v 0.0667735934 0.124360472 -4.2330265
v 0.106807232 0.354032278 -3.20105243
v 0.133240327 0.146196708 -3.21842027
v 0.792702913 0.0347960144 -5.08938122
v 0.685124099 0.0182731878 -5.22633696
v 0.273140669 0.0726404339 -5.11062479
v 0.0493707545 0.0882994309 -5.04844999
v 0.0475172997 0.11698243 -4.51984262
v 0.00709135644 0.0889307112 -5.03681564
v 0.813294947 0.0381447971 -5.03103685
v 0.817826033 0.0418683179 -4.50262737
v 0.0667735934 0.124360472 -4.2330265
v 0.835438848 0.0461267233 -4.21205664
v 0.854638875 0.0510168076 -3.85251498
v 0.133240327 0.146196708 -3.21842027
vt 0.481201172 0.577148438
vt 0.479003906 0.578125
vt 0.479003906 0.580566406
vt 0.569335938 0.445556641
vt 0.55078125 0.461181641
vt 0.555664062 0.486572266
vt 0.571289062 0.485595703
vt 0.571777344 0.489990234
vt 0.557128906 0.490966797
vt 0.562011719 0.502929688
vt 0.573730469 0.502441406
vt 0.558105469 0.50390625
vt 0.553710938 0.493164062
vt 0.552246094 0.487548828
vt 0.55078125 0.461181641
vt 0.546875 0.459960938
vt 0.463134766 0.571777344
vt 0.457275391 0.556640625
vt 0.455566406 0.558105469
vt 0.469970703 0.564941406
vt 0.480957031 0.5546875
vt 0.456542969 0.554199219
vt 0.454833984 0.557617188
vt 0.480957031 0.5546875
vt 0.479003906 0.578125
vt 0.481201172 0.577148438
vt 0.469970703 0.564941406
vt 0.476806641 0.578613281
vt 0.463134766 0.571777344
vt 0.440917969 0.345703125
vt 0.493652344 0.431884766
vt 0.495361328 0.402832031
vt 0.436035156 0.423095703
vt 0.484130859 0.444824219
vt 0.434570312 0.444824219
vt 0.492675781 0.458007812
vt 0.431396484 0.484375
vt 0.492431641 0.485107422
vt 0.434570312 0.485107422
vt 0.489990234 0.489990234
vt 0.451660156 0.489990234
vt 0.483154297 0.499755859
vt 0.545898438 0.431640625
vt 0.548828125 0.402587891
vt 0.545410156 0.401611328
vt 0.549804688 0.429443359
vt 0.569335938 0.422119141
vt 0.568847656 0.393798828
vt 0.569335938 0.443847656
vt 0.534179688 0.259277344
vt 0.541015625 0.276855469
vt 0.544433594 0.276123047
vt 0.538085938 0.258544922
vt 0.565429688 0.272705078
vt 0.558105469 0.255371094
vt 0.603027344 0.267089844
vt 0.595703125 0.250244141
vt 0.599609375 0.252685547
vt 0.609375 0.416748047
vt 0.545410156 0.407714844
vt 0.53515625 0.420166016
vt 0.602539062 0.389404297
vt 0.611816406 0.413330078
vt 0.520507812 0.324707031
vt 0.541015625 0.276855469
vt 0.522460938 0.278564453
vt 0.539550781 0.322753906
vt 0.521484375 0.350585938
vt 0.539550781 0.34765625
vt 0.53515625 0.420166016
vt 0.545410156 0.407714844
vt 0.610839844 0.280273438
vt 0.603027344 0.267089844
vt 0.565429688 0.272705078
vt 0.544433594 0.276123047
vt 0.539550781 0.322753906
vt 0.541015625 0.276855469
vt 0.611816406 0.285644531
vt 0.606933594 0.33203125
vt 0.539550781 0.34765625
vt 0.604980469 0.357666016
vt 0.602539062 0.389404297
vt 0.545410156 0.407714844
vn 0.134887695 0.66015625 -0.739257812
vn 0.134887695 0.66015625 -0.739257812
vn 0.134887695 0.66015625 -0.739257812
vn 0.974121094 0.127319336 0.186035156
vn 0.977050781 0.119873047 0.174926758
vn 0.896484375 0.385986328 -0.218261719
vn 0.984375 -0.00179767609 -0.176879883
vn 0.872558594 0 -0.488525391
vn 0.779785156 0.337890625 -0.52734375
vn 0.696289062 0.260009766 -0.668945312
vn 0.786621094 0 -0.617675781
vn 0.24230957 0.791015625 -0.562011719
vn 0.298339844 0.830566406 -0.469970703
vn 0.392089844 0.89453125 -0.213867188
vn 0.70703125 0.706054688 -0.0473022461
vn 0.221313477 0.973632812 -0.0556640625
vn 0.639160156 0.559570312 -0.527832031
vn 0.771972656 0.53515625 -0.342285156
vn 0.690429688 0.666992188 -0.279052734
vn 0.761230469 0.409179688 -0.502929688
vn 0.958007812 0.12878418 -0.256591797
vn 0.90625 0.399902344 -0.136108398
vn 0.690429688 0.666992188 -0.279052734
vn 0.974121094 0.127319336 0.186035156
vn 0.80078125 0.412841797 0.433837891
vn 0.977050781 0.119873047 0.174926758
vn 0.789550781 0.430419922 0.4375
vn 0.647949219 0.604980469 0.463134766
vn 0.647949219 0.604980469 0.463134766
vn 0.00106906891 1 -0.0218048096
vn 0.000828266144 0.999511719 -0.0229949951
vn 0.00106906891 1 -0.0218048096
vn 0.000801086426 0.999511719 -0.0231323242
vn 0.000254154205 0.999023438 -0.0392150879
vn 0.000239610672 0.999023438 -0.0400695801
vn 0.221313477 0.973632812 -0.0556640625
vn -0 0.998535156 -0.0541687012
vn 0.392089844 0.89453125 -0.213867188
vn -0 0.997558594 -0.071105957
vn 0.298339844 0.830566406 -0.469970703
vn -0 0.965332031 -0.261962891
vn 0.24230957 0.791015625 -0.562011719
vn 0.690429688 0.666992188 -0.279052734
vn 0.925292969 0.373779297 -0.0608215332
vn 0.709472656 0.702148438 -0.058807373
vn 0.90625 0.399902344 -0.136108398
vn 0.998535156 -0.00269699097 -0.0563354492
vn 0.998535156 -0.00195026398 -0.0537414551
vn 0.958007812 0.12878418 -0.256591797
vn -0.264404297 0.046875 -0.963378906
vn -0.264404297 0.046875 -0.963378906
vn -0.264404297 0.046875 -0.963378906
vn -0.264404297 0.046875 -0.963378906
vn -0.264404297 0.046875 -0.963378906
vn -0.264404297 0.046875 -0.963378906
vn -0.264404297 0.046875 -0.963378906
vn -0.264404297 0.046875 -0.963378906
vn -0.264404297 0.046875 -0.963378906
vn 0.69140625 0.242919922 0.680664062
vn 0.688476562 0.199707031 0.697265625
vn 0.688476562 0.199707031 0.697265625
vn 0.688964844 0.208007812 0.694335938
vn 0.692871094 0.308349609 0.651855469
vn -0.98828125 -0.132080078 0.0765991211
vn -0.987792969 -0.13269043 0.0844116211
vn -0.987792969 -0.13269043 0.0844116211
vn -0.98828125 -0.132202148 0.0776367188
vn -0.988769531 -0.131469727 0.0686035156
vn -0.988769531 -0.131469727 0.0687866211
vn -0.989257812 -0.131469727 0.0676269531
vn -0.989257812 -0.131469727 0.0676269531
vn -0.0606384277 -0.995605469 0.0704956055
vn -0.0675048828 -0.995605469 0.06640625
vn -0.0675048828 -0.995605469 0.06640625
vn -0.0675048828 -0.995605469 0.06640625
vn -0.087097168 -0.995605469 0.0333862305
vn -0.0675048828 -0.995605469 0.06640625
vn -0.0681152344 -0.99609375 0.0547180176
vn -0.0991821289 -0.995117188 0.0181427002
vn -0.101501465 -0.994628906 0.0212860107
vn -0.101745605 -0.994628906 0.0198059082
vn -0.104064941 -0.994140625 0.0238494873
vn -0.106201172 -0.994140625 0.0283508301
g CharredSpawnerFragment_04_0
f 3/3/3 2/2/2 1/1/1
f 6/6/6 5/5/5 4/4/4
f 7/7/7 6/6/6 4/4/4
f 6/6/6 7/7/7 8/8/8
f 9/9/9 6/6/6 8/8/8
f 10/10/10 9/9/9 8/8/8
f 11/11/11 10/10/10 8/8/8
f 9/9/9 10/10/10 12/12/12
f 13/13/13 9/9/9 12/12/12
f 9/9/9 13/13/13 6/6/6
f 13/13/13 14/14/14 6/6/6
f 6/6/6 14/14/14 15/15/15
f 14/14/14 16/16/16 15/15/15
f 19/19/19 18/18/18 17/17/17
f 18/18/18 20/20/20 17/17/17
f 21/21/21 20/20/20 18/18/18
f 22/22/22 21/21/21 18/18/18
f 22/22/22 18/18/18 23/23/23
f 26/26/26 25/25/25 24/24/24
f 25/25/25 27/27/27 24/24/24
f 25/25/25 28/28/28 27/27/27
f 28/28/28 29/29/29 27/27/27
f 32/32/32 31/31/31 30/30/30
f 31/31/31 33/33/33 30/30/30
f 31/31/31 34/34/34 33/33/33
f 34/34/34 35/35/35 33/33/33
f 35/35/35 34/34/34 36/36/36
f 37/37/37 35/35/35 36/36/36
f 37/37/37 36/36/36 38/38/38
f 38/38/38 39/39/39 37/37/37
f 39/39/39 38/38/38 40/40/40
f 41/41/41 39/39/39 40/40/40
f 42/42/42 41/41/41 40/40/40
f 45/45/45 44/44/44 43/43/43
f 44/44/44 46/46/46 43/43/43
f 47/47/47 46/46/46 44/44/44
f 48/48/48 47/47/47 44/44/44
f 47/47/47 49/49/49 46/46/46
f 52/52/52 51/51/51 50/50/50
f 53/53/53 52/52/52 50/50/50
f 54/54/54 52/52/52 53/53/53
f 55/55/55 54/54/54 53/53/53
f 56/56/56 54/54/54 55/55/55
f 57/57/57 56/56/56 55/55/55
f 57/57/57 58/58/58 56/56/56
f 61/61/61 60/60/60 59/59/59
f 60/60/60 62/62/62 59/59/59
f 62/62/62 63/63/63 59/59/59
f 66/66/66 65/65/65 64/64/64
f 65/65/65 67/67/67 64/64/64
f 64/64/64 67/67/67 68/68/68
f 67/67/67 69/69/69 68/68/68
f 68/68/68 69/69/69 70/70/70
f 69/69/69 71/71/71 70/70/70
f 74/74/74 73/73/73 72/72/72
f 72/72/72 75/75/75 74/74/74
f 72/72/72 76/76/76 75/75/75
f 76/76/76 77/77/77 75/75/75
f 76/76/76 72/72/72 78/78/78
f 76/76/76 78/78/78 79/79/79
f 80/80/80 76/76/76 79/79/79
f 81/81/81 80/80/80 79/79/79
f 82/82/82 80/80/80 81/81/81
f 83/83/83 80/80/80 82/82/82
