g leatherhelmet.002_leath_erhelmet.002
v -0.579980016 0.279864997 -1.30190897
v -0.911065996 -0.0257680006 -0.964016974
v -0.636439025 -0.0757270008 -1.23183405
v 0.579980016 0.279864997 -1.30190897
v 0.636439025 -0.0757270008 -1.23183405
v 0.911065996 -0.0257680006 -0.964016974
v -0.571965992 0.279475003 -1.28025401
v -0.180267006 0.286495 -1.40014899
v -0.171525002 0.841789007 -1.14937401
v -0.480349004 0.819880009 -1.042781
v -0.775403976 0.804602027 -0.591606975
v -0.803309023 0.272706985 -1.02640498
v -0.968802989 0.256936014 -0.761023998
v -0.159807995 1.19777405 -0.885011971
v -1.16798103 0.259662002 0.0122830002
v -0.318277001 1.21089697 -0.764989972
v -0.139433995 1.479357 -0.525382996
v -0.962351978 0.813048005 0.0116210002
v -1.00107098 0.264423996 0.748016
v -0.575971007 1.21657801 -0.453503996
v -0.246105 1.46709704 -0.480468005
v -0.141578004 1.66935694 -0.252175987
v -0.828257024 0.814348996 0.600597024
v -0.549762011 0.282045007 1.27726495
v -0.710008979 1.24659598 0.0124829998
v -0.393159986 1.50351 -0.272323012
v -0.448343992 0.819812 0.991353989
v -0.165693 0.281208992 1.42934096
v -0.161523998 0.837489009 1.16500497
v -0.598460972 1.22811794 0.443385005
v -0.328759998 1.21110499 0.764171004
v -0.15478 1.23417902 0.888770998
v -0.474920988 1.53170097 0.0126379998
v -0.245963007 1.67656398 -0.130200997
v -0.141405001 1.74390697 -0.0732389987
v -0.141218007 1.76528001 0.0111149997
v -0.305848002 1.69845605 0.0126820002
v -0.141139001 1.74321699 0.0899249986
v -0.223609 1.68393695 0.134270996
v -0.141009003 1.69368994 0.237042993
v -0.366384 1.51588202 0.261546999
v -0.268173009 1.469257 0.491881013
v -0.146481007 1.48385096 0.543556988
v -1.00693703 -0.0103669995 -0.798204005
v -1.00901306 -0.00404299982 -0.79290098
v -1.06206 -0.00464100018 -0.580968022
v -1.05982697 -0.357695013 -0.589789987
v -1.20941401 -0.0063029998 0.00773000019
v -0.974828005 -0.406334996 -0.739832997
v -1.00312603 -0.00461299997 -0.795556009
v -0.97370398 -0.0086099999 -0.771183014
v -0.941080987 -0.410919994 -0.711876988
v -0.874943018 -0.664175987 -0.588684022
v -0.908689976 -0.659591973 -0.616639972
v -1.04393196 -0.679799974 -0.448924989
v -1.00647497 -0.681526005 -0.444656014
v -1.220451 -0.388720006 0.00684100017
v -1.04012203 0.00227400009 0.761144996
v -1.23148799 -0.725733995 0.00595099991
v -1.201617 -0.725821972 0.0105039999
v -1.12592804 -0.364286005 0.764464974
v -1.00818396 0.00227400009 0.745984018
v -1.06890202 -0.364286005 0.74930501
v -1.169276 -0.638826013 0.690994024
v -1.137339 -0.638826013 0.675834
v -0.168272004 0.0167970005 1.438061
v -0 0.0155300004 1.44185805
v -0 0.916293025 1.10837805
v -0.353258014 0.838818014 0.92374301
v -0.549601018 0.0155300004 1.25366902
v -0 1.30274105 0.708034992
v -1.00818396 0.00227400009 0.745984018
v -0.263078988 1.25521398 0.652437985
v -0 1.67010999 0.0122840004
v -0.763638973 0.830613017 0.609517992
v -1.17954302 -0.006391 0.0122830002
v -0.498622 1.24840498 0.391674995
v -0.896292984 0.823594987 0.0152669996
v -0.603218973 1.24395502 0.0148219997
v -0.712581992 0.821798027 -0.629395008
v -1.01968896 -0.00811399985 -0.596156001
v -0.97370398 -0.0086099999 -0.771183014
v -0.447678 1.24281502 -0.360285014
v -0.263078988 1.25521398 -0.622794986
v -0 1.25521398 -0.714752972
v -0.369132996 0.837001979 -0.946922004
v -0.884741008 -0.0360990018 -0.919782996
v -0 0.841349006 -1.13518
v -0.622780979 -0.079106003 -1.19995403
v -0.767943978 -0.280061007 -1.03259397
v -0.473758012 -0.00467499997 -1.30916703
v -0.608805001 -0.190623 -1.190889
v -0.653360009 -0.455457002 -1.12596297
v -0.514666021 -0.308326989 -1.25732195
v -0.444480002 -0.593768001 -1.26514697
v -0.364336014 -0.37993899 -1.33992004
v -0 0.0155300004 -1.40813601
v -0.253385991 -0.0825280026 -1.38069105
v -0.119029999 -0.212900996 -1.410079
v -0 -0.130831003 -1.41725695
v -0.167423993 -0.734457016 -1.40415299
v -0.0952280015 -0.416023999 -1.41905606
v -0 -0.462173998 -1.43790698
v -0 -0.773060977 -1.45728195
v -0.823270023 0.272924989 -1.04393303
v -0.911065996 -0.0257680006 -0.964016974
v -0.579980016 0.279864997 -1.30190897
v -0.803309023 0.272706985 -1.02640498
v -0.968802989 0.256936014 -0.761023998
v -0.571965992 0.279475003 -1.28025401
v -0.992307007 0.257394999 -0.783960998
v -1.16798103 0.259662002 0.0122830002
v -1.197896 0.259710014 0.00775100011
v -1.00107098 0.264423996 0.748016
v -0.911065996 -0.0257680006 -0.964016974
v -0.37747699 0.280806988 -1.35987997
v -0.180267006 0.286495 -1.40014899
v -0.636439025 -0.0757270008 -1.23183405
v -1.00706697 0.00260100001 -0.798753977
v -0.91099602 -0.0321049988 -0.955704987
v -1.00901306 -0.00404299982 -0.79290098
v -1.06206 -0.00464100018 -0.580968022
v -1.20941401 -0.0063029998 0.00773000019
v -1.04012203 0.00227400009 0.761144996
v -1.00312603 -0.00461299997 -0.795556009
v -1.03300905 0.264423996 0.763176024
v -0.556753993 0.0156399999 1.27913296
v -0.549762011 0.282045007 1.27726495
v -0.55677402 0.282209992 1.30107403
v -0.168272004 0.0176880006 1.47002304
v -0.165693 0.281208992 1.42934096
v -0.165693 0.285272002 1.455248
v -0 0.0164209995 1.47381997
v -0.161523998 0.837489009 1.16500497
v -0 0.284570009 1.46621799
v -0.161523998 0.863595009 1.19696701
v -0.15478 1.23417902 0.888770998
v -0 0.846345007 1.23269403
v -0.15478 1.25201702 0.920732975
v -0.146481007 1.48385096 0.543556988
v -0 1.23863494 0.963591993
v -0.146481007 1.51347196 0.575519025
v -0 1.49981797 0.617906988
v -0.141009003 1.69368994 0.237042993
v -0 1.72205901 0.309018999
v -0.141009003 1.72330999 0.269003987
v -0.141139001 1.74321699 0.0899249986
v -0.141139001 1.772838 0.0723479986
v -0.141218007 1.76528001 0.0111149997
v -0 1.80077899 -0.00488599995
v -0.141218007 1.79490101 -0.00646300009
v -0.141405001 1.74390697 -0.0732389987
v -0.141405001 1.77352798 -0.090816997
v -0.141578004 1.66935694 -0.252175987
v -0.141578004 1.69897795 -0.269753993
v -0 1.69399095 -0.279689997
v -0.139433995 1.479357 -0.525382996
v -0 1.49332404 -0.581001997
v -0.139433995 1.50897706 -0.542961001
v -0.159807995 1.19777405 -0.885011971
v -0.159807995 1.22739506 -0.902589023
v -0 1.23267901 -0.923361003
v -0.171525002 0.841789007 -1.14937401
v -0.171525002 0.879676998 -1.16695201
v -0 0.858128011 -1.19209003
v -0.175407007 0.281746 -1.41772699
v -0 0.279662997 -1.42400301
v -0.25228399 -0.0710920021 -1.41430604
v -0 0.0204019994 -1.42571294
v -0 -0.141774997 -1.44252503
v -0.478408992 0.00493599987 -1.34320605
v -0.479463011 -0.00275700004 -1.33552599
v -0.629140973 -0.0787800029 -1.23016798
v -0.112081997 -0.204785004 -1.43980598
v -0 -0.453393996 -1.474828
v -0.25504601 -0.079053998 -1.40672004
v -0.118803002 -0.209628001 -1.43217194
v -0.0872680023 -0.418397009 -1.46298695
v -0 -0.762117028 -1.50683105
v -0.165811002 -0.723882973 -1.45456505
v -0 -0.769343019 -1.50073302
v -0.0951389968 -0.411027998 -1.45308495
v -0.167423993 -0.730738997 -1.44760501
v -0 -0.773060977 -1.45728195
v -0.167423993 -0.734457016 -1.40415299
v -0.444480002 -0.593768001 -1.26514697
v -0.253385991 -0.0825280026 -1.38069105
v -0.473758012 -0.00467499997 -1.30916703
v -0.119029999 -0.212900996 -1.410079
v -0.622780979 -0.079106003 -1.19995403
v -0.0952280015 -0.416023999 -1.41905606
v -0.608805001 -0.190623 -1.190889
v -0.361247003 -0.378933996 -1.373438
v -0.364336014 -0.37993899 -1.33992004
v -0.0872680023 -0.418397009 -1.46298695
v -0.608968019 -0.192009002 -1.23766804
v -0.514666021 -0.308326989 -1.25732195
v -0.508637011 -0.311232001 -1.29035997
v -0.363373011 -0.385740012 -1.37898195
v -0.614142001 -0.194665 -1.24030006
v -0.636439025 -0.0757270008 -1.23183405
v -0.911065996 -0.0257680006 -0.964016974
v -0.512392998 -0.316359997 -1.29428995
v -0.444442004 -0.586458981 -1.31494105
v -0.165811002 -0.723882973 -1.45456505
v -0.78264302 -0.274378985 -1.08409405
v -0.671001971 -0.450323999 -1.16856694
v -0.446419001 -0.59236902 -1.30637705
v -0.653360009 -0.455457002 -1.12596297
v -0.672748029 -0.454522014 -1.15948904
v -0.767943978 -0.280061007 -1.03259397
v -0.785589993 -0.277296007 -1.07351398
v -0.884741008 -0.0360990018 -0.919782996
v -0.97370398 -0.0086099999 -0.771183014
v -0.941080987 -0.410919994 -0.711876988
v -0.874943018 -0.664175987 -0.588684022
v -1.00647497 -0.681526005 -0.444656014
v -1.01062906 -0.360294998 -0.595247984
v -0.97370398 -0.0086099999 -0.771183014
v -1.201617 -0.725821972 0.0105039999
v -1.01968896 -0.00811399985 -0.596156001
v -1.17367399 -0.388808012 0.0113939997
v -1.137339 -0.638826013 0.675834
v -1.17954302 -0.006391 0.0122830002
v -1.06890202 -0.364286005 0.74930501
v -1.00818396 0.00227400009 0.745984018
v -0.921687007 -0.657975018 1.06546605
v -0.924040973 -1.00074005 1.28446698
v -0.551908016 -1.00626099 1.68473494
v -0.54955399 -0.663496017 1.465734
v -1.00815797 -0.317133009 0.827603996
v -0.170578003 -1.00499403 1.86912799
v -0.549574971 -0.303876996 1.33528805
v -1.00818396 0.00227400009 0.745984018
v -0.549601018 0.0155300004 1.25366902
v -0.168225005 -0.662227988 1.65012705
v -0 -1.00626099 1.87292504
v -0 -0.663496017 1.65392399
v -0.168246001 -0.30261001 1.51968098
v -0.168272004 0.0167970005 1.438061
v -0 -0.303876996 1.52347803
v -0 0.0155300004 1.44185805
v -1.04012203 0.00227400009 0.761144996
v -1.00815797 -0.317133009 0.827603996
v -1.00818396 0.00227400009 0.745984018
v -1.04009604 -0.317133009 0.84276402
v -0.556753993 0.0156399999 1.27913296
v -0.921687007 -0.657975018 1.06546605
v -0.556726992 -0.303766996 1.36075306
v -0.168272004 0.0176880006 1.47002304
v -0.953625023 -0.657975018 1.08062601
v -0.924040973 -1.00074005 1.28446698
v -0.168246001 -0.30171901 1.55164301
v -0 0.0164209995 1.47381997
v -0 -0.302985996 1.55543995
v -0.556706011 -0.663384974 1.49119902
v -0.168225005 -0.661337018 1.68208897
v -0 -0.662603974 1.68588603
v -0.955977976 -1.00074005 1.29962695
v -0.559059978 -1.00615096 1.71019995
v -0.551908016 -1.00626099 1.68473494
v -0.170578003 -1.00410295 1.90109003
v -0 -1.00537002 1.90488696
v -0.170578003 -1.00499403 1.86912799
v -0 -1.00626099 1.87292504
v -1.00706697 0.00260100001 -0.798753977
v -1.00901306 -0.00404299982 -0.79290098
v -1.00693703 -0.0103669995 -0.798204005
v -1.00312603 -0.00461299997 -0.795556009
v 0.571965992 0.279475003 -1.28025401
v 0.171525002 0.841789007 -1.14937401
v 0.180267006 0.286495 -1.40014899
v 0.480349004 0.819880009 -1.042781
v 0.775403976 0.804602027 -0.591606975
v 0.803309023 0.272706985 -1.02640498
v 0.968802989 0.256936014 -0.761023998
v 0.159807995 1.19777405 -0.885011971
v 1.16798103 0.259662002 0.0122830002
v 0.318277001 1.21089697 -0.764989972
v 0.139433995 1.479357 -0.525382996
v 0.962351978 0.813048005 0.0116210002
v 1.00107098 0.264423996 0.748016
v 0.575971007 1.21657801 -0.453503996
v 0.246105 1.46709704 -0.480468005
v 0.141578004 1.66935694 -0.252175987
v 0.828257024 0.814348996 0.600597024
v 0.549762011 0.282045007 1.27726495
v 0.710008979 1.24659598 0.0124829998
v 0.393159986 1.50351 -0.272323012
v 0.448343992 0.819812 0.991353989
v 0.165693 0.281208992 1.42934096
v 0.161523998 0.837489009 1.16500497
v 0.598460972 1.22811794 0.443385005
v 0.328759998 1.21110499 0.764171004
v 0.15478 1.23417902 0.888770998
v 0.474920988 1.53170097 0.0126379998
v 0.245963007 1.67656398 -0.130200997
v 0.141405001 1.74390697 -0.0732389987
v 0.141218007 1.76528001 0.0111149997
v 0.305848002 1.69845605 0.0126820002
v 0.141139001 1.74321699 0.0899249986
v 0.223609 1.68393695 0.134270996
v 0.141009003 1.69368994 0.237042993
v 0.366384 1.51588202 0.261546999
v 0.268173009 1.469257 0.491881013
v 0.146481007 1.48385096 0.543556988
v 1.06206 -0.00464100018 -0.580968022
v 1.00901306 -0.00404299982 -0.79290098
v 1.00693703 -0.0103669995 -0.798204005
v 1.05982697 -0.357695013 -0.589789987
v 1.20941401 -0.0063029998 0.00773000019
v 0.974828005 -0.406334996 -0.739832997
v 1.00312603 -0.00461299997 -0.795556009
v 0.97370398 -0.0086099999 -0.771183014
v 0.941080987 -0.410919994 -0.711876988
v 0.874943018 -0.664175987 -0.588684022
v 0.908689976 -0.659591973 -0.616639972
v 1.04393196 -0.679799974 -0.448924989
v 1.00647497 -0.681526005 -0.444656014
v 1.220451 -0.388720006 0.00684100017
v 1.04012203 0.00227400009 0.761144996
v 1.23148799 -0.725733995 0.00595099991
v 1.201617 -0.725821972 0.0105039999
v 1.12592804 -0.364286005 0.764464974
v 1.00818396 0.00227400009 0.745984018
v 1.06890202 -0.364286005 0.74930501
v 1.169276 -0.638826013 0.690994024
v 1.137339 -0.638826013 0.675834
v -0 0.916293025 1.10837805
v -0 0.0155300004 1.44185805
v 0.168272004 0.0167970005 1.438061
v 0.353258014 0.838818014 0.92374301
v 0.549601018 0.0155300004 1.25366902
v -0 1.30274105 0.708034992
v 1.00818396 0.00227400009 0.745984018
v 0.263078988 1.25521398 0.652437985
v -0 1.67010999 0.0122840004
v 0.763638973 0.830613017 0.609517992
v 1.17954302 -0.006391 0.0122830002
v 0.498622 1.24840498 0.391674995
v 0.896292984 0.823594987 0.0152669996
v 0.603218973 1.24395502 0.0148219997
v 0.712581992 0.821798027 -0.629395008
v 1.01968896 -0.00811399985 -0.596156001
v 0.97370398 -0.0086099999 -0.771183014
v 0.447678 1.24281502 -0.360285014
v 0.263078988 1.25521398 -0.622794986
v -0 1.25521398 -0.714752972
v 0.369132996 0.837001979 -0.946922004
v 0.884741008 -0.0360990018 -0.919782996
v -0 0.841349006 -1.13518
v 0.622780979 -0.079106003 -1.19995403
v 0.767943978 -0.280061007 -1.03259397
v 0.473758012 -0.00467499997 -1.30916703
v 0.608805001 -0.190623 -1.190889
v 0.653360009 -0.455457002 -1.12596297
v 0.514666021 -0.308326989 -1.25732195
v 0.444480002 -0.593768001 -1.26514697
v 0.364336014 -0.37993899 -1.33992004
v -0 0.0155300004 -1.40813601
v 0.253385991 -0.0825280026 -1.38069105
v 0.119029999 -0.212900996 -1.410079
v -0 -0.130831003 -1.41725695
v 0.167423993 -0.734457016 -1.40415299
v 0.0952280015 -0.416023999 -1.41905606
v -0 -0.462173998 -1.43790698
v -0 -0.773060977 -1.45728195
v 0.823270023 0.272924989 -1.04393303
v 0.579980016 0.279864997 -1.30190897
v 0.911065996 -0.0257680006 -0.964016974
v 0.803309023 0.272706985 -1.02640498
v 0.968802989 0.256936014 -0.761023998
v 0.571965992 0.279475003 -1.28025401
v 0.992307007 0.257394999 -0.783960998
v 1.16798103 0.259662002 0.0122830002
v 1.197896 0.259710014 0.00775100011
v 1.00107098 0.264423996 0.748016
v 0.911065996 -0.0257680006 -0.964016974
v 0.37747699 0.280806988 -1.35987997
v 0.180267006 0.286495 -1.40014899
v 0.636439025 -0.0757270008 -1.23183405
v 1.00706697 0.00260100001 -0.798753977
v 0.91099602 -0.0321049988 -0.955704987
v 1.00901306 -0.00404299982 -0.79290098
v 1.06206 -0.00464100018 -0.580968022
v 1.20941401 -0.0063029998 0.00773000019
v 1.04012203 0.00227400009 0.761144996
v 1.00312603 -0.00461299997 -0.795556009
v 1.03300905 0.264423996 0.763176024
v 0.556753993 0.0156399999 1.27913296
v 0.549762011 0.282045007 1.27726495
v 0.55677402 0.282209992 1.30107403
v 0.168272004 0.0176880006 1.47002304
v 0.165693 0.281208992 1.42934096
v 0.165693 0.285272002 1.455248
v -0 0.0164209995 1.47381997
v 0.161523998 0.837489009 1.16500497
v -0 0.284570009 1.46621799
v 0.161523998 0.863595009 1.19696701
v 0.15478 1.23417902 0.888770998
v -0 0.846345007 1.23269403
v 0.15478 1.25201702 0.920732975
v 0.146481007 1.48385096 0.543556988
v -0 1.23863494 0.963591993
v 0.146481007 1.51347196 0.575519025
v -0 1.49981797 0.617906988
v 0.141009003 1.69368994 0.237042993
v -0 1.72205901 0.309018999
v 0.141009003 1.72330999 0.269003987
v 0.141139001 1.74321699 0.0899249986
v 0.141139001 1.772838 0.0723479986
v 0.141218007 1.76528001 0.0111149997
v -0 1.80077899 -0.00488599995
v 0.141218007 1.79490101 -0.00646300009
v 0.141405001 1.74390697 -0.0732389987
v 0.141405001 1.77352798 -0.090816997
v 0.141578004 1.66935694 -0.252175987
v 0.141578004 1.69897795 -0.269753993
v -0 1.69399095 -0.279689997
v 0.139433995 1.479357 -0.525382996
v -0 1.49332404 -0.581001997
v 0.139433995 1.50897706 -0.542961001
v 0.159807995 1.19777405 -0.885011971
v 0.159807995 1.22739506 -0.902589023
v -0 1.23267901 -0.923361003
v 0.171525002 0.841789007 -1.14937401
v 0.171525002 0.879676998 -1.16695201
v -0 0.858128011 -1.19209003
v 0.175407007 0.281746 -1.41772699
v -0 0.279662997 -1.42400301
v 0.25228399 -0.0710920021 -1.41430604
v -0 0.0204019994 -1.42571294
v -0 -0.141774997 -1.44252503
v 0.478408992 0.00493599987 -1.34320605
v 0.479463011 -0.00275700004 -1.33552599
v 0.629140973 -0.0787800029 -1.23016798
v 0.112081997 -0.204785004 -1.43980598
v -0 -0.453393996 -1.474828
v 0.25504601 -0.079053998 -1.40672004
v 0.118803002 -0.209628001 -1.43217194
v 0.0872680023 -0.418397009 -1.46298695
v -0 -0.762117028 -1.50683105
v 0.165811002 -0.723882973 -1.45456505
v -0 -0.769343019 -1.50073302
v 0.0951389968 -0.411027998 -1.45308495
v 0.167423993 -0.730738997 -1.44760501
v -0 -0.773060977 -1.45728195
v 0.167423993 -0.734457016 -1.40415299
v 0.444480002 -0.593768001 -1.26514697
v 0.253385991 -0.0825280026 -1.38069105
v 0.473758012 -0.00467499997 -1.30916703
v 0.119029999 -0.212900996 -1.410079
v 0.622780979 -0.079106003 -1.19995403
v 0.0952280015 -0.416023999 -1.41905606
v 0.608805001 -0.190623 -1.190889
v 0.361247003 -0.378933996 -1.373438
v 0.364336014 -0.37993899 -1.33992004
v 0.0872680023 -0.418397009 -1.46298695
v 0.608968019 -0.192009002 -1.23766804
v 0.514666021 -0.308326989 -1.25732195
v 0.508637011 -0.311232001 -1.29035997
v 0.363373011 -0.385740012 -1.37898195
v 0.614142001 -0.194665 -1.24030006
v 0.636439025 -0.0757270008 -1.23183405
v 0.911065996 -0.0257680006 -0.964016974
v 0.512392998 -0.316359997 -1.29428995
v 0.444442004 -0.586458981 -1.31494105
v 0.165811002 -0.723882973 -1.45456505
v 0.78264302 -0.274378985 -1.08409405
v 0.671001971 -0.450323999 -1.16856694
v 0.446419001 -0.59236902 -1.30637705
v 0.653360009 -0.455457002 -1.12596297
v 0.672748029 -0.454522014 -1.15948904
v 0.767943978 -0.280061007 -1.03259397
v 0.785589993 -0.277296007 -1.07351398
v 0.884741008 -0.0360990018 -0.919782996
v 0.97370398 -0.0086099999 -0.771183014
v 0.941080987 -0.410919994 -0.711876988
v 1.00647497 -0.681526005 -0.444656014
v 0.874943018 -0.664175987 -0.588684022
v 1.01062906 -0.360294998 -0.595247984
v 0.97370398 -0.0086099999 -0.771183014
v 1.201617 -0.725821972 0.0105039999
v 1.01968896 -0.00811399985 -0.596156001
v 1.17367399 -0.388808012 0.0113939997
v 1.137339 -0.638826013 0.675834
v 1.17954302 -0.006391 0.0122830002
v 1.06890202 -0.364286005 0.74930501
v 1.00818396 0.00227400009 0.745984018
v 0.921687007 -0.657975018 1.06546605
v 0.551908016 -1.00626099 1.68473494
v 0.924040973 -1.00074005 1.28446698
v 0.54955399 -0.663496017 1.465734
v 1.00815797 -0.317133009 0.827603996
v 0.170578003 -1.00499403 1.86912799
v 0.549574971 -0.303876996 1.33528805
v 1.00818396 0.00227400009 0.745984018
v 0.549601018 0.0155300004 1.25366902
v 0.168225005 -0.662227988 1.65012705
v -0 -1.00626099 1.87292504
v -0 -0.663496017 1.65392399
v 0.168246001 -0.30261001 1.51968098
v 0.168272004 0.0167970005 1.438061
v -0 -0.303876996 1.52347803
v -0 0.0155300004 1.44185805
v 1.04012203 0.00227400009 0.761144996
v 1.00818396 0.00227400009 0.745984018
v 1.00815797 -0.317133009 0.827603996
v 1.04009604 -0.317133009 0.84276402
v 0.556753993 0.0156399999 1.27913296
v 0.921687007 -0.657975018 1.06546605
v 0.556726992 -0.303766996 1.36075306
v 0.168272004 0.0176880006 1.47002304
v 0.953625023 -0.657975018 1.08062601
v 0.924040973 -1.00074005 1.28446698
v 0.168246001 -0.30171901 1.55164301
v -0 0.0164209995 1.47381997
v -0 -0.302985996 1.55543995
v 0.556706011 -0.663384974 1.49119902
v 0.168225005 -0.661337018 1.68208897
v -0 -0.662603974 1.68588603
v 0.955977976 -1.00074005 1.29962695
v 0.559059978 -1.00615096 1.71019995
v 0.551908016 -1.00626099 1.68473494
v 0.170578003 -1.00410295 1.90109003
v -0 -1.00537002 1.90488696
v 0.170578003 -1.00499403 1.86912799
v -0 -1.00626099 1.87292504
v 1.00706697 0.00260100001 -0.798753977
v 1.00312603 -0.00461299997 -0.795556009
v 1.00693703 -0.0103669995 -0.798204005
v 1.00901306 -0.00404299982 -0.79290098
vt 0.507866025 0.222200006
vt 0.598091006 0.171924993
vt 0.516964018 0.160129994
vt 0.507866025 0.222200006
vt 0.516964018 0.160129994
vt 0.598091006 0.171924993
vt 0.103807002 0.622115016
vt 0.0310050007 0.646225989
vt 0.0765819997 0.750788987
vt 0.132780999 0.728386998
vt 0.230072007 0.728475988
vt 0.169173002 0.616692007
vt 0.228292003 0.616733015
vt 0.119057998 0.823665023
vt 0.376359999 0.647912979
vt 0.156239003 0.817784011
vt 0.173887998 0.891288996
vt 0.340588003 0.750995994
vt 0.504872978 0.711511016
vt 0.229489997 0.814293027
vt 0.193037003 0.880303979
vt 0.220367 0.935059011
vt 0.437141001 0.796913028
vt 0.603568017 0.797474027
vt 0.312175989 0.833689988
vt 0.240029007 0.882270992
vt 0.509881973 0.863871992
vt 0.650039017 0.859552026
vt 0.547940016 0.913807988
vt 0.382670999 0.866348028
vt 0.440421999 0.915839016
vt 0.463358015 0.949236989
vt 0.291016012 0.893911004
vt 0.250517011 0.929776013
vt 0.252023011 0.95599699
vt 0.267486006 0.963321984
vt 0.278127015 0.932819009
vt 0.282986999 0.966175973
vt 0.297075987 0.950564981
vt 0.312757999 0.970095992
vt 0.332296014 0.919973016
vt 0.374157012 0.940217972
vt 0.383361012 0.963582993
vt 0.128066003 0.0717910007
vt 0.126335993 0.0731310025
vt 0.119329996 0.131999001
vt 0.208773002 0.137397006
vt 0.121227004 0.299957007
vt 0.223206997 0.0963120013
vt 0.127304003 0.0700749978
vt 0.132486999 0.0610789992
vt 0.230350003 0.0883029997
vt 0.292665005 0.112979002
vt 0.282867014 0.117597997
vt 0.289333999 0.166538998
vt 0.297221005 0.161599994
vt 0.219770998 0.28649801
vt 0.178260997 0.49239099
vt 0.303445011 0.276363999
vt 0.309825987 0.276055992
vt 0.255344987 0.451317996
vt 0.180613995 0.500526011
vt 0.26137799 0.463131011
vt 0.296276003 0.412265986
vt 0.304174989 0.414828986
vt 0.121965997 0.0360280015
vt 0.0980549976 0.0253630001
vt 0.0392360017 0.162698999
vt 0.0964929983 0.184086993
vt 0.177304998 0.0717829987
vt 0.0288810004 0.248083994
vt 0.256527007 0.146488994
vt 0.0696249977 0.252005011
vt 0.04177 0.368530989
vt 0.156359002 0.226163998
vt 0.317086011 0.247284994
vt 0.108989999 0.281277001
vt 0.200457007 0.296139985
vt 0.138435006 0.324030995
vt 0.224861994 0.383574009
vt 0.342355996 0.340611994
vt 0.349624991 0.367458999
vt 0.147943005 0.377555013
vt 0.147756994 0.422666997
vt 0.130655006 0.460997999
vt 0.220080003 0.44916901
vt 0.356305003 0.392735988
vt 0.208090007 0.510115981
vt 0.360302001 0.450100988
vt 0.392520994 0.419270009
vt 0.348307014 0.475896001
vt 0.376812011 0.451994985
vt 0.41763401 0.44383499
vt 0.392863005 0.470568001
vt 0.435218006 0.484165013
vt 0.401151001 0.497175008
vt 0.335173994 0.545476973
vt 0.355473995 0.510029972
vt 0.372123003 0.532581985
vt 0.357315004 0.54877001
vt 0.451703012 0.533710003
vt 0.402150005 0.539871991
vt 0.407476008 0.555372
vt 0.454860002 0.561083972
vt 0.567375004 0.226839006
vt 0.597927988 0.171961993
vt 0.507866025 0.222200006
vt 0.567138016 0.231279001
vt 0.618822992 0.239596993
vt 0.508862019 0.225906
vt 0.618318975 0.234130993
vt 0.73724103 0.288619995
vt 0.738924026 0.284200996
vt 0.830600023 0.353998005
vt 0.597922981 0.171889007
vt 0.474317014 0.230093002
vt 0.442683011 0.240355998
vt 0.516507983 0.159692004
vt 0.631069005 0.189741001
vt 0.599937022 0.170197994
vt 0.632390022 0.189026996
vt 0.665974975 0.204013005
vt 0.759268999 0.245639995
vt 0.859408021 0.316926003
vt 0.632129014 0.187837005
vt 0.833754003 0.350134999
vt 0.936909974 0.401585013
vt 0.903078973 0.430142999
vt 0.906985998 0.429044008
vt 0.973371983 0.458438993
vt 0.930559993 0.481864005
vt 0.935778022 0.483631015
vt 0.992074013 0.479211003
vt 0.841485977 0.533985019
vt 0.952588022 0.508435011
vt 0.843200028 0.54033798
vt 0.767991006 0.559364021
vt 0.858672023 0.56219703
vt 0.770651996 0.564644992
vt 0.697139025 0.564247012
vt 0.78252399 0.589175999
vt 0.69897002 0.571309984
vt 0.707459986 0.596574008
vt 0.637291014 0.565383017
vt 0.641462028 0.596562028
vt 0.639020979 0.572057009
vt 0.613538027 0.560033977
vt 0.608685017 0.562669992
vt 0.601033986 0.556659997
vt 0.586179018 0.581050992
vt 0.596747994 0.559275985
vt 0.590408981 0.548551977
vt 0.586242974 0.552133024
vt 0.565846026 0.528838992
vt 0.561607003 0.532824993
vt 0.543168008 0.549066007
vt 0.530821025 0.484526008
vt 0.501462996 0.497644007
vt 0.526215971 0.488447011
vt 0.489845008 0.416853011
vt 0.485312998 0.420749992
vt 0.458837986 0.432033986
vt 0.463295996 0.346091002
vt 0.458880007 0.351489007
vt 0.428934991 0.354781002
vt 0.439635992 0.238275006
vt 0.407231003 0.242964998
vt 0.443459004 0.173844993
vt 0.399075001 0.194068998
vt 0.397163987 0.163570002
vt 0.48586601 0.182012007
vt 0.486202002 0.179523006
vt 0.514207006 0.158665001
vt 0.418403 0.150135994
vt 0.396230996 0.0984710008
vt 0.444748998 0.171391994
vt 0.420791 0.148771003
vt 0.413848013 0.105893999
vt 0.392731011 0.0375460014
vt 0.425090998 0.045646999
vt 0.393344998 0.0350719988
vt 0.417084992 0.108635001
vt 0.426057011 0.0433709994
vt 0.397754997 0.0276309997
vt 0.430756003 0.0367290005
vt 0.491611987 0.0570369996
vt 0.447320014 0.167523995
vt 0.486330986 0.175010994
vt 0.424127012 0.147089005
vt 0.509977996 0.154991001
vt 0.424504012 0.112952001
vt 0.510580003 0.141277999
vt 0.465539992 0.103458002
vt 0.467285007 0.109811001
vt 0.413886994 0.106340997
vt 0.51840502 0.137554005
vt 0.496681005 0.123585999
vt 0.496764004 0.117831998
vt 0.465777993 0.100713
vt 0.520919979 0.136573002
vt 0.516812027 0.160165995
vt 0.59781599 0.172014996
vt 0.497994989 0.115639001
vt 0.484158993 0.0645290017
vt 0.425092995 0.045655001
vt 0.56269598 0.123752996
vt 0.534694016 0.0917590037
vt 0.485653996 0.0625939965
vt 0.541729987 0.0844760016
vt 0.536610007 0.0901449993
vt 0.572242975 0.118220001
vt 0.565016985 0.122727998
vt 0.607177019 0.164713994
vt 0.637080014 0.182742998
vt 0.225090995 0.461172998
vt 0.289582014 0.44224
vt 0.288917005 0.396811992
vt 0.213155001 0.429571986
vt 0.130431995 0.470256001
vt 0.300960004 0.281702012
vt 0.130903006 0.428133994
vt 0.221526995 0.282074988
vt 0.280131996 0.125967994
vt 0.132009 0.281446993
vt 0.214945003 0.107357003
vt 0.128294006 0.105738997
vt 0.322293013 0.279864997
vt 0.316125989 0.203823
vt 0.219271004 0.169161007
vt 0.223229006 0.246723995
vt 0.344657004 0.35661
vt 0.141063005 0.153301001
vt 0.219519004 0.320528001
vt 0.337646991 0.418523014
vt 0.213302001 0.382972986
vt 0.142265007 0.231543005
vt 0.108522996 0.153301001
vt 0.109938003 0.230859995
vt 0.139559999 0.305364996
vt 0.135054007 0.367621988
vt 0.107761003 0.303346992
vt 0.103689998 0.365042001
vt 0.100208998 0.0702909976
vt 0.173464 0.0808050036
vt 0.101351999 0.0623920001
vt 0.171551004 0.0883440003
vt 0.099278003 0.237752005
vt 0.257739007 0.117941998
vt 0.179842994 0.245333001
vt 0.102677003 0.348185986
vt 0.254866987 0.125126004
vt 0.323323995 0.169724002
vt 0.186170995 0.352212995
vt 0.101154 0.391097009
vt 0.185404003 0.394993007
vt 0.264813006 0.253677011
vt 0.281670988 0.353246987
vt 0.28421101 0.396180004
vt 0.31823799 0.173363
vt 0.352506995 0.263130009
vt 0.356936991 0.259559005
vt 0.373576999 0.348385006
vt 0.384211987 0.384662986
vt 0.379554003 0.344949991
vt 0.391799003 0.382082999
vt 0.631069005 0.189741001
vt 0.631401002 0.188585997
vt 0.631335974 0.188550994
vt 0.631401002 0.188585997
vt 0.103807002 0.622115016
vt 0.0765819997 0.750788987
vt 0.0310050007 0.646225989
vt 0.132780999 0.728386998
vt 0.230072007 0.728475988
vt 0.169173002 0.616692007
vt 0.228292003 0.616733015
vt 0.119057998 0.823665023
vt 0.376359999 0.647912979
vt 0.156239003 0.817784011
vt 0.173887998 0.891288996
vt 0.340588003 0.750995994
vt 0.504872978 0.711511016
vt 0.229489997 0.814293027
vt 0.193037003 0.880303979
vt 0.220367 0.935059011
vt 0.437141001 0.796913028
vt 0.603568017 0.797474027
vt 0.312175989 0.833689988
vt 0.240029007 0.882270992
vt 0.509881973 0.863871992
vt 0.650039017 0.859552026
vt 0.547940016 0.913807988
vt 0.382670999 0.866348028
vt 0.440421999 0.915839016
vt 0.463358015 0.949236989
vt 0.291016012 0.893911004
vt 0.250517011 0.929776013
vt 0.252023011 0.95599699
vt 0.267486006 0.963321984
vt 0.278127015 0.932819009
vt 0.282986999 0.966175973
vt 0.297075987 0.950564981
vt 0.312757999 0.970095992
vt 0.332296014 0.919973016
vt 0.374157012 0.940217972
vt 0.383361012 0.963582993
vt 0.119329996 0.131999001
vt 0.126335993 0.0731310025
vt 0.128066003 0.0717910007
vt 0.208773002 0.137397006
vt 0.121227004 0.299957007
vt 0.223206997 0.0963120013
vt 0.127304003 0.0700749978
vt 0.132486999 0.0610789992
vt 0.230350003 0.0883029997
vt 0.292665005 0.112979002
vt 0.282867014 0.117597997
vt 0.289333999 0.166538998
vt 0.297221005 0.161599994
vt 0.219770998 0.28649801
vt 0.178260997 0.49239099
vt 0.303445011 0.276363999
vt 0.309825987 0.276055992
vt 0.255344987 0.451317996
vt 0.180613995 0.500526011
vt 0.26137799 0.463131011
vt 0.296276003 0.412265986
vt 0.304174989 0.414828986
vt 0.0392360017 0.162698999
vt 0.0980549976 0.0253630001
vt 0.121965997 0.0360280015
vt 0.0964929983 0.184086993
vt 0.177304998 0.0717829987
vt 0.0288810004 0.248083994
vt 0.256527007 0.146488994
vt 0.0696249977 0.252005011
vt 0.04177 0.368530989
vt 0.156359002 0.226163998
vt 0.317086011 0.247284994
vt 0.108989999 0.281277001
vt 0.200457007 0.296139985
vt 0.138435006 0.324030995
vt 0.224861994 0.383574009
vt 0.342355996 0.340611994
vt 0.349624991 0.367458999
vt 0.147943005 0.377555013
vt 0.147756994 0.422666997
vt 0.130655006 0.460997999
vt 0.220080003 0.44916901
vt 0.356305003 0.392735988
vt 0.208090007 0.510115981
vt 0.360302001 0.450100988
vt 0.392520994 0.419270009
vt 0.348307014 0.475896001
vt 0.376812011 0.451994985
vt 0.41763401 0.44383499
vt 0.392863005 0.470568001
vt 0.435218006 0.484165013
vt 0.401151001 0.497175008
vt 0.335173994 0.545476973
vt 0.355473995 0.510029972
vt 0.372123003 0.532581985
vt 0.357315004 0.54877001
vt 0.451703012 0.533710003
vt 0.402150005 0.539871991
vt 0.407476008 0.555372
vt 0.454860002 0.561083972
vt 0.567375004 0.226839006
vt 0.507866025 0.222200006
vt 0.597927988 0.171961993
vt 0.567138016 0.231279001
vt 0.618822992 0.239596993
vt 0.508862019 0.225906
vt 0.618318975 0.234130993
vt 0.73724103 0.288619995
vt 0.738924026 0.284200996
vt 0.830600023 0.353998005
vt 0.597922981 0.171889007
vt 0.474317014 0.230093002
vt 0.442683011 0.240355998
vt 0.516507983 0.159692004
vt 0.631069005 0.189741001
vt 0.599937022 0.170197994
vt 0.632390022 0.189026996
vt 0.665974975 0.204013005
vt 0.759268999 0.245639995
vt 0.859408021 0.316926003
vt 0.632129014 0.187837005
vt 0.833754003 0.350134999
vt 0.936909974 0.401585013
vt 0.903078973 0.430142999
vt 0.906985998 0.429044008
vt 0.973371983 0.458438993
vt 0.930559993 0.481864005
vt 0.935778022 0.483631015
vt 0.992074013 0.479211003
vt 0.841485977 0.533985019
vt 0.952588022 0.508435011
vt 0.843200028 0.54033798
vt 0.767991006 0.559364021
vt 0.858672023 0.56219703
vt 0.770651996 0.564644992
vt 0.697139025 0.564247012
vt 0.78252399 0.589175999
vt 0.69897002 0.571309984
vt 0.707459986 0.596574008
vt 0.637291014 0.565383017
vt 0.641462028 0.596562028
vt 0.639020979 0.572057009
vt 0.613538027 0.560033977
vt 0.608685017 0.562669992
vt 0.601033986 0.556659997
vt 0.586179018 0.581050992
vt 0.596747994 0.559275985
vt 0.590408981 0.548551977
vt 0.586242974 0.552133024
vt 0.565846026 0.528838992
vt 0.561607003 0.532824993
vt 0.543168008 0.549066007
vt 0.530821025 0.484526008
vt 0.501462996 0.497644007
vt 0.526215971 0.488447011
vt 0.489845008 0.416853011
vt 0.485312998 0.420749992
vt 0.458837986 0.432033986
vt 0.463295996 0.346091002
vt 0.458880007 0.351489007
vt 0.428934991 0.354781002
vt 0.439635992 0.238275006
vt 0.407231003 0.242964998
vt 0.443459004 0.173844993
vt 0.399075001 0.194068998
vt 0.397163987 0.163570002
vt 0.48586601 0.182012007
vt 0.486202002 0.179523006
vt 0.514207006 0.158665001
vt 0.418403 0.150135994
vt 0.396230996 0.0984710008
vt 0.444748998 0.171391994
vt 0.420791 0.148771003
vt 0.413848013 0.105893999
vt 0.392731011 0.0375460014
vt 0.425090998 0.045646999
vt 0.393344998 0.0350719988
vt 0.417084992 0.108635001
vt 0.426057011 0.0433709994
vt 0.397754997 0.0276309997
vt 0.430756003 0.0367290005
vt 0.491611987 0.0570369996
vt 0.447320014 0.167523995
vt 0.486330986 0.175010994
vt 0.424127012 0.147089005
vt 0.509977996 0.154991001
vt 0.424504012 0.112952001
vt 0.510580003 0.141277999
vt 0.465539992 0.103458002
vt 0.467285007 0.109811001
vt 0.413886994 0.106340997
vt 0.51840502 0.137554005
vt 0.496681005 0.123585999
vt 0.496764004 0.117831998
vt 0.465777993 0.100713
vt 0.520919979 0.136573002
vt 0.516812027 0.160165995
vt 0.59781599 0.172014996
vt 0.497994989 0.115639001
vt 0.484158993 0.0645290017
vt 0.425092995 0.045655001
vt 0.56269598 0.123752996
vt 0.534694016 0.0917590037
vt 0.485653996 0.0625939965
vt 0.541729987 0.0844760016
vt 0.536610007 0.0901449993
vt 0.572242975 0.118220001
vt 0.565016985 0.122727998
vt 0.607177019 0.164713994
vt 0.637080014 0.182742998
vt 0.225090995 0.461172998
vt 0.288917005 0.396811992
vt 0.289582014 0.44224
vt 0.213155001 0.429571986
vt 0.130431995 0.470256001
vt 0.300960004 0.281702012
vt 0.130903006 0.428133994
vt 0.221526995 0.282074988
vt 0.280131996 0.125967994
vt 0.132009 0.281446993
vt 0.214945003 0.107357003
vt 0.128294006 0.105738997
vt 0.322293013 0.279864997
vt 0.219271004 0.169161007
vt 0.316125989 0.203823
vt 0.223229006 0.246723995
vt 0.344657004 0.35661
vt 0.141063005 0.153301001
vt 0.219519004 0.320528001
vt 0.337646991 0.418523014
vt 0.213302001 0.382972986
vt 0.142265007 0.231543005
vt 0.108522996 0.153301001
vt 0.109938003 0.230859995
vt 0.139559999 0.305364996
vt 0.135054007 0.367621988
vt 0.107761003 0.303346992
vt 0.103689998 0.365042001
vt 0.100208998 0.0702909976
vt 0.101351999 0.0623920001
vt 0.173464 0.0808050036
vt 0.171551004 0.0883440003
vt 0.099278003 0.237752005
vt 0.257739007 0.117941998
vt 0.179842994 0.245333001
vt 0.102677003 0.348185986
vt 0.254866987 0.125126004
vt 0.323323995 0.169724002
vt 0.186170995 0.352212995
vt 0.101154 0.391097009
vt 0.185404003 0.394993007
vt 0.264813006 0.253677011
vt 0.281670988 0.353246987
vt 0.28421101 0.396180004
vt 0.31823799 0.173363
vt 0.352506995 0.263130009
vt 0.356936991 0.259559005
vt 0.373576999 0.348385006
vt 0.384211987 0.384662986
vt 0.379554003 0.344949991
vt 0.391799003 0.382082999
vt 0.631069005 0.189741001
vt 0.631401002 0.188585997
vt 0.631335974 0.188550994
vt 0.631401002 0.188585997
vn -0.4283171 0.625624955 -0.652026057
vn -0.833641768 -0.133906707 -0.535826862
vn -0.459202051 -0.133100599 -0.878303945
vn 0.4283171 0.625624955 -0.652026057
vn 0.459202051 -0.133100599 -0.878303945
vn 0.833641768 -0.133906707 -0.535826862
vn -0.533688307 0.432390541 -0.72678417
vn -0.295700759 0.411301047 -0.862202168
vn -0.327509463 0.504914582 -0.798623145
vn -0.542390466 0.505291104 -0.671188176
vn -0.801274896 0.45894292 -0.383835882
vn -0.747407436 0.418104142 -0.516305208
vn -0.82598263 0.39759165 -0.399591595
vn -0.357324898 0.654345572 -0.666446447
vn -0.93157959 0.36273098 -0.0242020674
vn -0.49072206 0.656029522 -0.573425829
vn -0.337599099 0.757697999 -0.558498502
vn -0.899891436 0.43529585 -0.026699746
vn -0.815438926 0.390018612 0.427720428
vn -0.710605204 0.589104295 -0.384702832
vn -0.43641746 0.735729456 -0.517920732
vn -0.422900766 0.790901423 -0.442300767
vn -0.788882613 0.458548009 0.409142822
vn -0.537116289 0.435113192 0.722621918
vn -0.809883714 0.586388171 -0.0153996907
vn -0.609089434 0.698687911 -0.375293493
vn -0.558907986 0.481506824 0.675109625
vn -0.400710613 0.442211747 0.802421272
vn -0.443087727 0.47868675 0.757979035
vn -0.698297858 0.604598165 0.383198798
vn -0.526517868 0.619421065 0.582319796
vn -0.469117463 0.606622577 0.641823888
vn -0.709906936 0.704106867 0.0163001586
vn -0.481385231 0.805675268 -0.345189393
vn -0.377205372 0.877112448 -0.297304213
vn -0.401906192 0.915414155 0.0221003406
vn -0.563129783 0.825643718 0.0346018337
vn -0.406408668 0.860818386 0.306306571
vn -0.504827738 0.792443573 0.342318803
vn -0.498613775 0.781121552 0.375810415
vn -0.611622393 0.703825831 0.361313224
vn -0.474276066 0.731963038 0.48917529
vn -0.377713203 0.750626266 0.542119026
vn -0.293997914 -0.0947993249 -0.951093197
vn -0.869996607 -0.0159999374 -0.49279806
vn -0.961916268 0.0155002614 -0.272904605
vn -0.922105312 -0.122900702 -0.366902113
vn -0.997795224 0.0595997162 -0.029199861
vn -0.206098542 -0.262398154 -0.942693293
vn -0.206905052 -0.572013974 -0.793719351
vn 0.393809676 -0.691217065 -0.60591495
vn 0.617220163 -0.157205135 -0.770925224
vn 0.275603473 -0.835710526 -0.475005984
vn -0.0494002663 -0.684003651 -0.727803886
vn -0.610899746 -0.717199743 -0.335299879
vn -0.02020045 -0.991722167 -0.126802832
vn -0.996325195 0.0356009007 -0.0779019669
vn -0.886299372 -0.00349999755 0.463099658
vn -0.725489736 -0.684090316 -0.0753989369
vn 0.00350012863 -0.9999367 0.0107003935
vn -0.513025641 -0.0744037181 0.855142653
vn -0.352086157 -0.928563476 0.11749538
vn 0.318004489 -0.168402374 0.933013201
vn -0.530022562 -0.559023857 0.637627184
vn 0.182711095 -0.795148313 0.578235149
vn 0.302597255 -0.31519714 -0.899491847
vn -0 -0.335601449 -0.942004025
vn -0 -0.54731667 -0.836925566
vn 0.495188653 -0.490488768 -0.717083573
vn 0.5633111 -0.289905697 -0.773715198
vn -0 -0.787334025 -0.616526663
vn 0.863062203 -0.238989532 -0.444980502
vn 0.422787488 -0.714778841 -0.557083488
vn -0 -0.999896288 0.0143999467
vn 0.764124036 -0.46641469 -0.44561404
vn 0.984245598 -0.174208075 0.0302013997
vn 0.615727425 -0.710631669 -0.34041518
vn 0.888833106 -0.457417011 0.0273010172
vn 0.713297546 -0.69979763 0.0385998674
vn 0.759928286 -0.47611773 0.442516476
vn 0.948993146 -0.138399005 0.283297956
vn 0.866403401 -0.218500853 0.449001789
vn 0.623921573 -0.707124412 0.332711518
vn 0.410920382 -0.74233681 0.529226303
vn -0 -0.773319721 0.634016216
vn 0.523006916 -0.515706778 0.678609014
vn 0.691527069 -0.265910387 0.67162627
vn -0 -0.538931668 0.84234947
vn 0.661788821 -0.207896486 0.7202878
vn 0.696318865 0.0646017492 0.714819372
vn 0.389798194 -0.363098294 0.846296012
vn 0.691704214 0.065500401 0.719204426
vn 0.6274212 0.0903030559 0.773426175
vn 0.611569583 0.0982951224 0.785060942
vn 0.479995847 0.0823992863 0.873392403
vn 0.47002843 0.0785047486 0.879153192
vn -0 -0.219597861 0.975590467
vn 0.183303282 -0.232704163 0.955117106
vn 0.128501669 -0.0613007993 0.989812911
vn -0 -0.0677999258 0.997698963
vn 0.314906657 0.00220004655 0.949120104
vn 0.239815027 -0.0175010972 0.970660806
vn -0 -0.0416014306 0.999134362
vn -0 -0.0371004269 0.999311566
vn -0.558506668 0.712408543 -0.424905092
vn -0.833641768 -0.133906707 -0.535826862
vn -0.4283171 0.625624955 -0.652026057
vn -0.0163006317 0.999338686 0.032501258
vn -0.00380020216 0.999853253 0.0167008881
vn -0.0227998085 0.999091625 -0.0359996967
vn -0.669232905 0.694034159 -0.265413076
vn 0.0043999278 0.999983549 -0.00369993923
vn -0.736119986 0.676718354 -0.0134003637
vn -0.00799985789 0.999882221 -0.0130997673
vn -0.833641768 -0.133906707 -0.535826862
vn -0.25070098 0.674502671 -0.694402754
vn -0.715516031 0.685915351 -0.132502958
vn -0.459202051 -0.133100599 -0.878303945
vn -0.883654475 -0.09290573 -0.4588283
vn -0.777396917 -0.619997561 -0.106099576
vn -0.869996607 -0.0159999374 -0.49279806
vn -0.961916268 0.0155002614 -0.272904605
vn -0.997795224 0.0595997162 -0.029199861
vn -0.886299372 -0.00349999755 0.463099658
vn -0.206905052 -0.572013974 -0.793719351
vn -0.674206972 0.65400672 0.343103558
vn -0.598430097 0.092304647 0.795840025
vn 0.00270000356 0.999001324 -0.0446000583
vn -0.440808862 0.672313452 0.5947119
vn -0.234592184 0.130695656 0.963267922
vn -0.678166687 0.732364058 -0.0610970035
vn -0.412296206 0.3604967 0.836692333
vn -0 0.146305829 0.989239454
vn -0.999949813 0.00850042421 -0.00530026387
vn -0 0.220402077 0.975409091
vn -0.732495487 0.344797879 0.586996377
vn -0.999846101 0.0142006548 -0.0103004752
vn -0 0.476096302 0.87939316
vn -0.717040062 0.502628088 0.482926965
vn -0.999850988 0.0133006778 -0.0110005606
vn -0 0.676575422 0.736373305
vn -0.73851639 0.553012252 0.385708541
vn -0 0.806764066 0.590873659
vn -0.999984741 0.00419993559 -0.00359994499
vn -0 0.896319151 0.443409473
vn -0.69732815 0.661726713 0.275411129
vn -0.999999762 0 0.000799999805
vn -0.732207358 0.659806609 0.168901697
vn -0.999998689 0.00089999882 0.00139999809
vn -0 0.998605072 -0.0528002642
vn -0.664500713 0.746100843 -0.0421000458
vn -0.999998689 0.000799998932 0.00139999809
vn -0.70102644 0.667725205 -0.250409454
vn -0.999996424 -0.00139999494 -0.0022999919
vn -0.688417792 0.644916713 -0.331908584
vn -0 0.884829283 -0.465915412
vn -0.999783576 0.0105998246 0.0178997051
vn -0 0.807107031 -0.590405107
vn -0.716698945 0.573699176 -0.396499395
vn -0.999353588 0.0175009388 0.0314016826
vn -0.715498745 0.507699132 -0.479899168
vn -0 0.696223915 -0.717824638
vn -0.997846603 0.0385017991 -0.0531024821
vn -0.701102793 0.367601454 -0.611002445
vn -0 0.478613853 -0.878025472
vn -0.288714111 0.332716256 -0.897743821
vn -0 0.192403123 -0.98131597
vn -0.316914707 -0.204509497 -0.926142991
vn -0 0.0418010876 -0.999126017
vn -0 0.102503367 -0.994732738
vn -0.373506337 -0.249604225 -0.893415213
vn -0.179003149 -0.854115009 -0.488308579
vn 0.505142033 -0.501941741 -0.702058375
vn -0.345300764 -0.0385000855 -0.937702119
vn -0 0.0806037411 -0.996746182
vn -0.548900485 -0.704100609 -0.450500399
vn -0.831322312 -0.346809298 -0.434311628
vn -0.295114338 0.123505987 -0.947445989
vn -0 -0.33920452 -0.940712571
vn -0.410532624 -0.315925092 -0.855367959
vn -0 -0.874793291 -0.484496295
vn -0.641608596 0.51590693 -0.567607582
vn -0.438432336 -0.813059986 -0.383028209
vn -0 -0.996363461 -0.0852054209
vn -0.381494403 -0.922486424 -0.0589991324
vn -0.475825608 -0.877947211 0.0529028475
vn -0.521207273 -0.851011872 -0.064200893
vn 0.0739025772 -0.992834568 -0.0939032733
vn -0.899755538 -0.433126718 -0.0533032939
vn 0.923628747 -0.362811297 -0.123603851
vn -0.583223581 0.809332788 0.0695028156
vn 0.929586411 0.366394639 -0.0402994081
vn 0.0564978346 0.912665009 -0.404784501
vn 0.338898093 0.939094782 0.0569996797
vn -0.295114338 0.123505987 -0.947445989
vn 0.686721921 0.446514249 -0.573618293
vn 0.691786468 0.721585929 0.0272994693
vn 0.344900489 0.816501141 -0.463000655
vn -0.334396303 0.315396518 -0.888090193
vn -0.310812563 0.130005255 -0.941538155
vn -0.459202051 -0.133100599 -0.878303945
vn -0.833641768 -0.133906707 -0.535826862
vn -0.360517621 0.249212176 -0.898843884
vn -0.571226776 -0.327015311 -0.752835214
vn -0.410532624 -0.315925092 -0.855367959
vn -0.803591669 -0.213697791 -0.555494189
vn -0.714436233 -0.328616649 -0.617731333
vn -0.581089795 -0.766186595 -0.274395198
vn -0.613036454 -0.757245064 0.22531341
vn -0.739728332 -0.667425573 -0.0857032761
vn -0.731431484 -0.583125114 0.353515238
vn -0.865286767 -0.500992298 0.0168997403
vn -0.480521768 -0.849938452 0.216109782
vn 0.393809676 -0.691217065 -0.60591495
vn 0.85169214 0.235797808 0.467995673
vn 0.762287259 0.352094114 0.54309088
vn 0.898092628 0.156298712 0.411096632
vn 0.916557789 0.128708109 0.378623873
vn 0.866403401 -0.218500853 0.449001789
vn 0.992341638 -0.0523021966 0.111904703
vn 0.948993146 -0.138399005 0.283297956
vn 0.996312201 -0.0402004942 0.0758009329
vn 0.984043419 -0.142006263 -0.10720472
vn 0.984245598 -0.174208075 0.0302013997
vn 0.983345509 -0.102904759 -0.149806932
vn 0.863062203 -0.238989532 -0.444980502
vn 0.700024307 -0.307710707 -0.644422412
vn 0.667023718 -0.404414386 -0.625722229
vn 0.49840197 -0.469201803 -0.729002833
vn 0.558299124 -0.375499368 -0.739798784
vn 0.727329969 -0.199908227 -0.656527042
vn 0.184802502 -0.530007184 -0.827611268
vn 0.585094869 -0.244297862 -0.773293257
vn 0.863062203 -0.238989532 -0.444980502
vn 0.5633111 -0.289905697 -0.773715198
vn 0.213205159 -0.438210607 -0.873221099
vn -0 -0.538440585 -0.842663467
vn -0 -0.443409473 -0.896319151
vn 0.225714162 -0.288618088 -0.930458367
vn 0.302597255 -0.31519714 -0.899491847
vn -0 -0.294999212 -0.955497503
vn -0 -0.335601449 -0.942004025
vn -0.886299372 -0.00349999755 0.463099658
vn -0.391325712 -0.408826888 -0.824454188
vn -0.352086157 -0.928563476 0.11749538
vn -0.954766929 -0.224215716 -0.195313692
vn -0.598430097 0.092304647 0.795840025
vn -0.357612103 -0.551918745 -0.753325522
vn -0.580521464 0.2462091 0.776128709
vn -0.234592184 0.130695656 0.963267922
vn -0.972505212 -0.211901128 -0.0966005176
vn -0.215308666 -0.868534982 -0.446417958
vn -0.229011461 0.288314432 0.929746509
vn -0 0.146305829 0.989239454
vn -0 0.294999212 0.955497503
vn -0.552800894 0.377700627 0.742801189
vn -0.216512471 0.437925249 0.872550249
vn -0 0.443409473 0.896319151
vn -0.848825872 -0.519715846 0.096902959
vn -0.494031191 -0.475730032 0.72774595
vn -0.00669981027 -0.999971747 0.00339990389
vn -0.200807273 -0.428115517 0.881131947
vn -0 -0.466311008 0.884620905
vn -0.0057002753 -0.99974829 0.0217010491
vn -0 -0.999610722 0.0279002991
vn -0.883654475 -0.09290573 -0.4588283
vn -0.869996607 -0.0159999374 -0.49279806
vn -0.293997914 -0.0947993249 -0.951093197
vn -0.206905052 -0.572013974 -0.793719351
vn 0.533688307 0.432390541 -0.72678417
vn 0.327509463 0.504914582 -0.798623145
vn 0.295700759 0.411301047 -0.862202168
vn 0.542390466 0.505291104 -0.671188176
vn 0.801274896 0.45894292 -0.383835882
vn 0.747407436 0.418104142 -0.516305208
vn 0.82598263 0.39759165 -0.399591595
vn 0.357324898 0.654345572 -0.666446447
vn 0.93157959 0.36273098 -0.0242020674
vn 0.49072206 0.656029522 -0.573425829
vn 0.337599099 0.757697999 -0.558498502
vn 0.899891436 0.43529585 -0.026699746
vn 0.815438926 0.390018612 0.427720428
vn 0.710605204 0.589104295 -0.384702832
vn 0.43641746 0.735729456 -0.517920732
vn 0.422900766 0.790901423 -0.442300767
vn 0.788882613 0.458548009 0.409142822
vn 0.537116289 0.435113192 0.722621918
vn 0.809883714 0.586388171 -0.0153996907
vn 0.609089434 0.698687911 -0.375293493
vn 0.558907986 0.481506824 0.675109625
vn 0.400710613 0.442211747 0.802421272
vn 0.443087727 0.47868675 0.757979035
vn 0.698297858 0.604598165 0.383198798
vn 0.526517868 0.619421065 0.582319796
vn 0.469117463 0.606622577 0.641823888
vn 0.709906936 0.704106867 0.0163001586
vn 0.481385231 0.805675268 -0.345189393
vn 0.377205372 0.877112448 -0.297304213
vn 0.401906192 0.915414155 0.0221003406
vn 0.563129783 0.825643718 0.0346018337
vn 0.406408668 0.860818386 0.306306571
vn 0.504827738 0.792443573 0.342318803
vn 0.498613775 0.781121552 0.375810415
vn 0.611622393 0.703825831 0.361313224
vn 0.474276066 0.731963038 0.48917529
vn 0.377713203 0.750626266 0.542119026
vn 0.961916268 0.0155002614 -0.272904605
vn 0.869997919 -0.0158999618 -0.492798805
vn 0.293997914 -0.0947993249 -0.951093197
vn 0.922105312 -0.122900702 -0.366902113
vn 0.997795224 0.0595997162 -0.029199861
vn 0.206098542 -0.262398154 -0.942693293
vn 0.206905052 -0.572013974 -0.793719351
vn -0.393809676 -0.691217065 -0.60591495
vn -0.617220163 -0.157205135 -0.770925224
vn -0.275603473 -0.835710526 -0.475005984
vn 0.0494002663 -0.684003651 -0.727803886
vn 0.610899746 -0.717199743 -0.335299879
vn 0.02020045 -0.991722167 -0.126802832
vn 0.996325195 0.0356009007 -0.0779019669
vn 0.886299372 -0.00349999755 0.463099658
vn 0.725489736 -0.684090316 -0.0753989369
vn -0.00350012863 -0.9999367 0.0107003935
vn 0.513025641 -0.0744037181 0.855142653
vn 0.352086157 -0.928563476 0.11749538
vn -0.318004489 -0.168402374 0.933013201
vn 0.530022562 -0.559023857 0.637627184
vn -0.182711095 -0.795148313 0.578235149
vn -0 -0.54731667 -0.836925566
vn -0 -0.335601449 -0.942004025
vn -0.302597255 -0.31519714 -0.899491847
vn -0.495188653 -0.490488768 -0.717083573
vn -0.5633111 -0.289905697 -0.773715198
vn -0 -0.787334025 -0.616526663
vn -0.863062203 -0.238989532 -0.444980502
vn -0.422787488 -0.714778841 -0.557083488
vn -0 -0.999896288 0.0143999467
vn -0.764124036 -0.46641469 -0.44561404
vn -0.984245598 -0.174208075 0.0302013997
vn -0.615727425 -0.710631669 -0.34041518
vn -0.888833106 -0.457417011 0.0273010172
vn -0.713297546 -0.69979763 0.0385998674
vn -0.759928286 -0.47611773 0.442516476
vn -0.948993146 -0.138399005 0.283297956
vn -0.866403401 -0.218500853 0.449001789
vn -0.623921573 -0.707124412 0.332711518
vn -0.410920382 -0.74233681 0.529226303
vn -0 -0.773319721 0.634016216
vn -0.523006916 -0.515706778 0.678609014
vn -0.691527069 -0.265910387 0.67162627
vn -0 -0.538931668 0.84234947
vn -0.661788821 -0.207896486 0.7202878
vn -0.696318865 0.0646017492 0.714819372
vn -0.389798194 -0.363098294 0.846296012
vn -0.691704214 0.065500401 0.719204426
vn -0.6274212 0.0903030559 0.773426175
vn -0.611569583 0.0982951224 0.785060942
vn -0.479995847 0.0823992863 0.873392403
vn -0.47002843 0.0785047486 0.879153192
vn -0 -0.219597861 0.975590467
vn -0.183303282 -0.232704163 0.955117106
vn -0.128501669 -0.0613007993 0.989812911
vn -0 -0.0677999258 0.997698963
vn -0.314906657 0.00220004655 0.949120104
vn -0.239815027 -0.0175010972 0.970660806
vn -0 -0.0416014306 0.999134362
vn -0 -0.0371004269 0.999311566
vn 0.558506668 0.712408543 -0.424905092
vn 0.4283171 0.625624955 -0.652026057
vn 0.833641768 -0.133906707 -0.535826862
vn 0.0163006317 0.999338686 0.032501258
vn 0.00380020216 0.999853253 0.0167008881
vn 0.0227998085 0.999091625 -0.0359996967
vn 0.669232905 0.694034159 -0.265413076
vn -0.0043999278 0.999983549 -0.00369993923
vn 0.736119986 0.676718354 -0.0134003637
vn 0.00799985789 0.999882221 -0.0130997673
vn 0.833641768 -0.133906707 -0.535826862
vn 0.25070098 0.674502671 -0.694402754
vn 0.715516031 0.685915351 -0.132502958
vn 0.459202051 -0.133100599 -0.878303945
vn 0.883654475 -0.09290573 -0.4588283
vn 0.777396917 -0.619997561 -0.106099576
vn 0.869997919 -0.0158999618 -0.492798805
vn 0.961916268 0.0155002614 -0.272904605
vn 0.997795224 0.0595997162 -0.029199861
vn 0.886299372 -0.00349999755 0.463099658
vn 0.206905052 -0.572013974 -0.793719351
vn 0.674206972 0.65400672 0.343103558
vn 0.598430097 0.092304647 0.795840025
vn -0.00270000356 0.999001324 -0.0446000583
vn 0.440808862 0.672313452 0.5947119
vn 0.234592184 0.130695656 0.963267922
vn 0.678166687 0.732364058 -0.0610970035
vn 0.412296206 0.3604967 0.836692333
vn -0 0.146305829 0.989239454
vn 0.999949813 0.00850042421 -0.00530026387
vn -0 0.220402077 0.975409091
vn 0.732495487 0.344797879 0.586996377
vn 0.999846101 0.0142006548 -0.0103004752
vn -0 0.476096302 0.87939316
vn 0.717040062 0.502628088 0.482926965
vn 0.999850988 0.0133006778 -0.0110005606
vn -0 0.676575422 0.736373305
vn 0.73851639 0.553012252 0.385708541
vn -0 0.806764066 0.590873659
vn 0.999984741 0.00419993559 -0.00359994499
vn -0 0.896319151 0.443409473
vn 0.69732815 0.661726713 0.275411129
vn 0.999999762 0 0.000799999805
vn 0.732207358 0.659806609 0.168901697
vn 0.999998689 0.00089999882 0.00139999809
vn -0 0.998605072 -0.0528002642
vn 0.664500713 0.746100843 -0.0421000458
vn 0.999998689 0.000799998932 0.00139999809
vn 0.70102644 0.667725205 -0.250409454
vn 0.999996424 -0.00139999494 -0.0022999919
vn 0.688417792 0.644916713 -0.331908584
vn -0 0.884829283 -0.465915412
vn 0.999783576 0.0105998246 0.0178997051
vn -0 0.807107031 -0.590405107
vn 0.716698945 0.573699176 -0.396499395
vn 0.999353588 0.0175009388 0.0314016826
vn 0.715498745 0.507699132 -0.479899168
vn -0 0.696223915 -0.717824638
vn 0.997846603 0.0385017991 -0.0531024821
vn 0.701102793 0.367601454 -0.611002445
vn -0 0.478613853 -0.878025472
vn 0.288714111 0.332716256 -0.897743821
vn -0 0.192403123 -0.98131597
vn 0.316914707 -0.204509497 -0.926142991
vn -0 0.0418010876 -0.999126017
vn -0 0.102503367 -0.994732738
vn 0.373506337 -0.249604225 -0.893415213
vn 0.179003149 -0.854115009 -0.488308579
vn -0.505142033 -0.501941741 -0.702058375
vn 0.345300764 -0.0385000855 -0.937702119
vn -0 0.0806037411 -0.996746182
vn 0.548900485 -0.704100609 -0.450500399
vn 0.831322312 -0.346809298 -0.434311628
vn 0.295114338 0.123505987 -0.947445989
vn -0 -0.33920452 -0.940712571
vn 0.410532624 -0.315925092 -0.855367959
vn -0 -0.874793291 -0.484496295
vn 0.641608596 0.51590693 -0.567607582
vn 0.438432336 -0.813059986 -0.383028209
vn -0 -0.996363461 -0.0852054209
vn 0.381494403 -0.922486424 -0.0589991324
vn 0.475825608 -0.877947211 0.0529028475
vn 0.521207273 -0.851011872 -0.064200893
vn -0.0739025772 -0.992834568 -0.0939032733
vn 0.899755538 -0.433126718 -0.0533032939
vn -0.923628747 -0.362811297 -0.123603851
vn 0.583223581 0.809332788 0.0695028156
vn -0.929586411 0.366394639 -0.0402994081
vn -0.0564978346 0.912665009 -0.404784501
vn -0.338898093 0.939094782 0.0569996797
vn 0.295114338 0.123505987 -0.947445989
vn -0.686721921 0.446514249 -0.573618293
vn -0.691786468 0.721585929 0.0272994693
vn -0.344900489 0.816501141 -0.463000655
vn 0.334396303 0.315396518 -0.888090193
vn 0.310812563 0.130005255 -0.941538155
vn 0.459202051 -0.133100599 -0.878303945
vn 0.833641768 -0.133906707 -0.535826862
vn 0.360517621 0.249212176 -0.898843884
vn 0.571226776 -0.327015311 -0.752835214
vn 0.410532624 -0.315925092 -0.855367959
vn 0.803591669 -0.213697791 -0.555494189
vn 0.714436233 -0.328616649 -0.617731333
vn 0.581089795 -0.766186595 -0.274395198
vn 0.613036454 -0.757245064 0.22531341
vn 0.739728332 -0.667425573 -0.0857032761
vn 0.731431484 -0.583125114 0.353515238
vn 0.865286767 -0.500992298 0.0168997403
vn 0.480521768 -0.849938452 0.216109782
vn -0.393809676 -0.691217065 -0.60591495
vn -0.85169214 0.235797808 0.467995673
vn -0.898092628 0.156298712 0.411096632
vn -0.762287259 0.352094114 0.54309088
vn -0.916557789 0.128708109 0.378623873
vn -0.866403401 -0.218500853 0.449001789
vn -0.992341638 -0.0523021966 0.111904703
vn -0.948993146 -0.138399005 0.283297956
vn -0.996312201 -0.0402004942 0.0758009329
vn -0.984043419 -0.142006263 -0.10720472
vn -0.984245598 -0.174208075 0.0302013997
vn -0.983345509 -0.102904759 -0.149806932
vn -0.863062203 -0.238989532 -0.444980502
vn -0.700024307 -0.307710707 -0.644422412
vn -0.49840197 -0.469201803 -0.729002833
vn -0.667023718 -0.404414386 -0.625722229
vn -0.558299124 -0.375499368 -0.739798784
vn -0.727329969 -0.199908227 -0.656527042
vn -0.184802502 -0.530007184 -0.827611268
vn -0.585094869 -0.244297862 -0.773293257
vn -0.863062203 -0.238989532 -0.444980502
vn -0.5633111 -0.289905697 -0.773715198
vn -0.213205159 -0.438210607 -0.873221099
vn -0 -0.538440585 -0.842663467
vn -0 -0.443409473 -0.896319151
vn -0.225714162 -0.288618088 -0.930458367
vn -0.302597255 -0.31519714 -0.899491847
vn -0 -0.294999212 -0.955497503
vn -0 -0.335601449 -0.942004025
vn 0.886299372 -0.00349999755 0.463099658
vn 0.352086157 -0.928563476 0.11749538
vn 0.391325712 -0.408826888 -0.824454188
vn 0.954766929 -0.224215716 -0.195313692
vn 0.598430097 0.092304647 0.795840025
vn 0.357612103 -0.551918745 -0.753325522
vn 0.580521464 0.2462091 0.776128709
vn 0.234592184 0.130695656 0.963267922
vn 0.972505212 -0.211901128 -0.0966005176
vn 0.215308666 -0.868534982 -0.446417958
vn 0.229011461 0.288314432 0.929746509
vn -0 0.146305829 0.989239454
vn -0 0.294999212 0.955497503
vn 0.552800894 0.377700627 0.742801189
vn 0.216512471 0.437925249 0.872550249
vn -0 0.443409473 0.896319151
vn 0.848825872 -0.519715846 0.096902959
vn 0.494031191 -0.475730032 0.72774595
vn 0.00669981027 -0.999971747 0.00339990389
vn 0.200807273 -0.428115517 0.881131947
vn -0 -0.466311008 0.884620905
vn 0.0057002753 -0.99974829 0.0217010491
vn -0 -0.999610722 0.0279002991
vn 0.883654475 -0.09290573 -0.4588283
vn 0.206905052 -0.572013974 -0.793719351
vn 0.293997914 -0.0947993249 -0.951093197
vn 0.869997919 -0.0158999618 -0.492798805
g leatherhelmet.002_leath_erhelmet.002_0
f 3/3/3 2/2/2 1/1/1
f 6/6/6 5/5/5 4/4/4
f 9/9/9 8/8/8 7/7/7
f 10/10/10 9/9/9 7/7/7
f 11/11/11 10/10/10 7/7/7
f 11/11/11 7/7/7 12/12/12
f 12/12/12 13/13/13 11/11/11
f 14/14/14 9/9/9 10/10/10
f 13/13/13 15/15/15 11/11/11
f 16/16/16 14/14/14 10/10/10
f 10/10/10 11/11/11 16/16/16
f 17/17/17 14/14/14 16/16/16
f 15/15/15 18/18/18 11/11/11
f 15/15/15 19/19/19 18/18/18
f 11/11/11 20/20/20 16/16/16
f 11/11/11 18/18/18 20/20/20
f 21/21/21 17/17/17 16/16/16
f 16/16/16 20/20/20 21/21/21
f 22/22/22 17/17/17 21/21/21
f 19/19/19 23/23/23 18/18/18
f 19/19/19 24/24/24 23/23/23
f 18/18/18 25/25/25 20/20/20
f 18/18/18 23/23/23 25/25/25
f 20/20/20 26/26/26 21/21/21
f 22/22/22 21/21/21 26/26/26
f 20/20/20 25/25/25 26/26/26
f 24/24/24 27/27/27 23/23/23
f 27/27/27 24/24/24 28/28/28
f 29/29/29 27/27/27 28/28/28
f 23/23/23 30/30/30 25/25/25
f 23/23/23 27/27/27 30/30/30
f 31/31/31 27/27/27 29/29/29
f 27/27/27 31/31/31 30/30/30
f 32/32/32 31/31/31 29/29/29
f 25/25/25 30/30/30 33/33/33
f 25/25/25 33/33/33 26/26/26
f 34/34/34 22/22/22 26/26/26
f 35/35/35 22/22/22 34/34/34
f 36/36/36 35/35/35 34/34/34
f 34/34/34 26/26/26 37/37/37
f 37/37/37 36/36/36 34/34/34
f 26/26/26 33/33/33 37/37/37
f 38/38/38 36/36/36 37/37/37
f 39/39/39 38/38/38 37/37/37
f 37/37/37 33/33/33 39/39/39
f 40/40/40 38/38/38 39/39/39
f 30/30/30 41/41/41 33/33/33
f 33/33/33 41/41/41 39/39/39
f 30/30/30 31/31/31 41/41/41
f 40/40/40 39/39/39 41/41/41
f 42/42/42 31/31/31 32/32/32
f 31/31/31 42/42/42 41/41/41
f 42/42/42 40/40/40 41/41/41
f 43/43/43 42/42/42 32/32/32
f 43/43/43 40/40/40 42/42/42
f 46/46/46 45/45/45 44/44/44
f 47/47/47 46/46/46 44/44/44
f 46/46/46 47/47/47 48/48/48
f 44/44/44 49/49/49 47/47/47
f 49/49/49 44/44/44 50/50/50
f 49/49/49 50/50/50 51/51/51
f 51/51/51 52/52/52 49/49/49
f 52/52/52 53/53/53 49/49/49
f 53/53/53 54/54/54 49/49/49
f 49/49/49 54/54/54 47/47/47
f 55/55/55 54/54/54 53/53/53
f 54/54/54 55/55/55 47/47/47
f 56/56/56 55/55/55 53/53/53
f 47/47/47 57/57/57 48/48/48
f 47/47/47 55/55/55 57/57/57
f 48/48/48 57/57/57 58/58/58
f 59/59/59 55/55/55 56/56/56
f 55/55/55 59/59/59 57/57/57
f 60/60/60 59/59/59 56/56/56
f 57/57/57 61/61/61 58/58/58
f 57/57/57 59/59/59 61/61/61
f 58/58/58 61/61/61 62/62/62
f 61/61/61 63/63/63 62/62/62
f 64/64/64 59/59/59 60/60/60
f 59/59/59 64/64/64 61/61/61
f 61/61/61 64/64/64 63/63/63
f 65/65/65 64/64/64 60/60/60
f 64/64/64 65/65/65 63/63/63
f 68/68/68 67/67/67 66/66/66
f 66/66/66 69/69/69 68/68/68
f 66/66/66 70/70/70 69/69/69
f 68/68/68 69/69/69 71/71/71
f 69/69/69 70/70/70 72/72/72
f 69/69/69 73/73/73 71/71/71
f 71/71/71 73/73/73 74/74/74
f 75/75/75 69/69/69 72/72/72
f 73/73/73 69/69/69 75/75/75
f 75/75/75 72/72/72 76/76/76
f 77/77/77 73/73/73 75/75/75
f 74/74/74 73/73/73 77/77/77
f 78/78/78 75/75/75 76/76/76
f 77/77/77 75/75/75 78/78/78
f 74/74/74 77/77/77 79/79/79
f 79/79/79 77/77/77 78/78/78
f 80/80/80 78/78/78 76/76/76
f 80/80/80 76/76/76 81/81/81
f 81/81/81 82/82/82 80/80/80
f 83/83/83 79/79/79 78/78/78
f 83/83/83 74/74/74 79/79/79
f 80/80/80 83/83/83 78/78/78
f 84/84/84 74/74/74 83/83/83
f 84/84/84 83/83/83 80/80/80
f 85/85/85 74/74/74 84/84/84
f 86/86/86 80/80/80 82/82/82
f 86/86/86 84/84/84 80/80/80
f 85/85/85 84/84/84 86/86/86
f 86/86/86 82/82/82 87/87/87
f 88/88/88 85/85/85 86/86/86
f 87/87/87 89/89/89 86/86/86
f 88/88/88 86/86/86 89/89/89
f 89/89/89 87/87/87 90/90/90
f 91/91/91 88/88/88 89/89/89
f 92/92/92 89/89/89 90/90/90
f 92/92/92 90/90/90 93/93/93
f 94/94/94 92/92/92 93/93/93
f 94/94/94 93/93/93 95/95/95
f 96/96/96 94/94/94 95/95/95
f 97/97/97 88/88/88 91/91/91
f 98/98/98 97/97/97 91/91/91
f 98/98/98 99/99/99 97/97/97
f 99/99/99 100/100/100 97/97/97
f 96/96/96 95/95/95 101/101/101
f 99/99/99 102/102/102 100/100/100
f 102/102/102 96/96/96 101/101/101
f 102/102/102 103/103/103 100/100/100
f 102/102/102 101/101/101 103/103/103
f 101/101/101 104/104/104 103/103/103
f 107/107/107 106/106/106 105/105/105
f 107/107/107 105/105/105 108/108/108
f 108/108/108 105/105/105 109/109/109
f 110/110/110 107/107/107 108/108/108
f 105/105/105 111/111/111 109/109/109
f 109/109/109 111/111/111 112/112/112
f 111/111/111 113/113/113 112/112/112
f 112/112/112 113/113/113 114/114/114
f 105/105/105 115/115/115 111/111/111
f 116/116/116 107/107/107 110/110/110
f 116/116/116 110/110/110 117/117/117
f 107/107/107 116/116/116 118/118/118
f 115/115/115 119/119/119 111/111/111
f 113/113/113 111/111/111 119/119/119
f 119/119/119 115/115/115 120/120/120
f 113/113/113 119/119/119 121/121/121
f 113/113/113 121/121/121 122/122/122
f 122/122/122 123/123/123 113/113/113
f 123/123/123 124/124/124 113/113/113
f 125/125/125 119/119/119 120/120/120
f 124/124/124 126/126/126 113/113/113
f 113/113/113 126/126/126 114/114/114
f 124/124/124 127/127/127 126/126/126
f 114/114/114 126/126/126 128/128/128
f 127/127/127 129/129/129 126/126/126
f 126/126/126 129/129/129 128/128/128
f 129/129/129 127/127/127 130/130/130
f 128/128/128 129/129/129 131/131/131
f 132/132/132 129/129/129 130/130/130
f 129/129/129 132/132/132 131/131/131
f 132/132/132 130/130/130 133/133/133
f 131/131/131 132/132/132 134/134/134
f 135/135/135 132/132/132 133/133/133
f 132/132/132 136/136/136 134/134/134
f 136/136/136 132/132/132 135/135/135
f 134/134/134 136/136/136 137/137/137
f 138/138/138 136/136/136 135/135/135
f 136/136/136 139/139/139 137/137/137
f 139/139/139 136/136/136 138/138/138
f 137/137/137 139/139/139 140/140/140
f 141/141/141 139/139/139 138/138/138
f 139/139/139 142/142/142 140/140/140
f 142/142/142 139/139/139 141/141/141
f 143/143/143 142/142/142 141/141/141
f 140/140/140 142/142/142 144/144/144
f 143/143/143 145/145/145 142/142/142
f 142/142/142 146/146/146 144/144/144
f 145/145/145 146/146/146 142/142/142
f 144/144/144 146/146/146 147/147/147
f 148/148/148 146/146/146 145/145/145
f 146/146/146 148/148/148 147/147/147
f 147/147/147 148/148/148 149/149/149
f 148/148/148 145/145/145 150/150/150
f 148/148/148 151/151/151 149/149/149
f 150/150/150 151/151/151 148/148/148
f 149/149/149 151/151/151 152/152/152
f 151/151/151 153/153/153 152/152/152
f 153/153/153 151/151/151 150/150/150
f 152/152/152 153/153/153 154/154/154
f 155/155/155 153/153/153 150/150/150
f 153/153/153 155/155/155 154/154/154
f 150/150/150 156/156/156 155/155/155
f 154/154/154 155/155/155 157/157/157
f 156/156/156 158/158/158 155/155/155
f 155/155/155 159/159/159 157/157/157
f 158/158/158 159/159/159 155/155/155
f 157/157/157 159/159/159 160/160/160
f 159/159/159 158/158/158 161/161/161
f 159/159/159 161/161/161 160/160/160
f 158/158/158 162/162/162 161/161/161
f 160/160/160 161/161/161 163/163/163
f 161/161/161 162/162/162 164/164/164
f 161/161/161 164/164/164 163/163/163
f 162/162/162 165/165/165 164/164/164
f 163/163/163 164/164/164 117/117/117
f 164/164/164 165/165/165 166/166/166
f 164/164/164 166/166/166 117/117/117
f 165/165/165 167/167/167 166/166/166
f 166/166/166 167/167/167 168/168/168
f 167/167/167 169/169/169 168/168/168
f 117/117/117 166/166/166 116/116/116
f 169/169/169 170/170/170 168/168/168
f 116/116/116 166/166/166 171/171/171
f 166/166/166 168/168/168 171/171/171
f 116/116/116 171/171/171 118/118/118
f 171/171/171 172/172/172 118/118/118
f 172/172/172 173/173/173 118/118/118
f 170/170/170 174/174/174 168/168/168
f 170/170/170 175/175/175 174/174/174
f 168/168/168 176/176/176 171/171/171
f 176/176/176 172/172/172 171/171/171
f 177/177/177 176/176/176 168/168/168
f 174/174/174 177/177/177 168/168/168
f 175/175/175 178/178/178 174/174/174
f 175/175/175 179/179/179 178/178/178
f 179/179/179 180/180/180 178/178/178
f 179/179/179 181/181/181 180/180/180
f 178/178/178 182/182/182 174/174/174
f 182/182/182 177/177/177 174/174/174
f 181/181/181 183/183/183 180/180/180
f 183/183/183 181/181/181 184/184/184
f 185/185/185 183/183/183 184/184/184
f 185/185/185 186/186/186 183/183/183
f 172/172/172 176/176/176 187/187/187
f 176/176/176 177/177/177 187/187/187
f 188/188/188 172/172/172 187/187/187
f 177/177/177 189/189/189 187/187/187
f 177/177/177 182/182/182 189/189/189
f 173/173/173 172/172/172 188/188/188
f 190/190/190 173/173/173 188/188/188
f 182/182/182 191/191/191 189/189/189
f 173/173/173 190/190/190 192/192/192
f 182/182/182 193/193/193 191/191/191
f 193/193/193 194/194/194 191/191/191
f 193/193/193 182/182/182 195/195/195
f 196/196/196 173/173/173 192/192/192
f 196/196/196 192/192/192 197/197/197
f 198/198/198 197/197/197 194/194/194
f 193/193/193 198/198/198 194/194/194
f 198/198/198 196/196/196 197/197/197
f 199/199/199 193/193/193 195/195/195
f 198/198/198 193/193/193 199/199/199
f 173/173/173 196/196/196 200/200/200
f 201/201/201 173/173/173 200/200/200
f 202/202/202 201/201/201 200/200/200
f 196/196/196 198/198/198 203/203/203
f 200/200/200 196/196/196 203/203/203
f 203/203/203 198/198/198 199/199/199
f 204/204/204 199/199/199 195/195/195
f 205/205/205 204/204/204 195/195/195
f 204/204/204 205/205/205 183/183/183
f 206/206/206 202/202/202 200/200/200
f 206/206/206 200/200/200 203/203/203
f 207/207/207 203/203/203 199/199/199
f 204/204/204 207/207/207 199/199/199
f 207/207/207 206/206/206 203/203/203
f 208/208/208 204/204/204 183/183/183
f 207/207/207 204/204/204 208/208/208
f 186/186/186 208/208/208 183/183/183
f 186/186/186 209/209/209 208/208/208
f 210/210/210 207/207/207 208/208/208
f 209/209/209 210/210/210 208/208/208
f 207/207/207 210/210/210 206/206/206
f 209/209/209 211/211/211 210/210/210
f 206/206/206 212/212/212 202/202/202
f 210/210/210 212/212/212 206/206/206
f 211/211/211 212/212/212 210/210/210
f 212/212/212 120/120/120 202/202/202
f 211/211/211 213/213/213 212/212/212
f 213/213/213 120/120/120 212/212/212
f 125/125/125 120/120/120 213/213/213
f 214/214/214 125/125/125 213/213/213
f 217/217/217 216/216/216 215/215/215
f 218/218/218 217/217/217 215/215/215
f 218/218/218 215/215/215 219/219/219
f 220/220/220 217/217/217 218/218/218
f 221/221/221 218/218/218 219/219/219
f 222/222/222 220/220/220 218/218/218
f 222/222/222 218/218/218 221/221/221
f 223/223/223 220/220/220 222/222/222
f 224/224/224 222/222/222 221/221/221
f 225/225/225 223/223/223 222/222/222
f 225/225/225 222/222/222 224/224/224
f 226/226/226 225/225/225 224/224/224
f 229/229/229 228/228/228 227/227/227
f 230/230/230 229/229/229 227/227/227
f 230/230/230 227/227/227 231/231/231
f 232/232/232 229/229/229 230/230/230
f 233/233/233 230/230/230 231/231/231
f 233/233/233 231/231/231 234/234/234
f 235/235/235 233/233/233 234/234/234
f 236/236/236 232/232/232 230/230/230
f 236/236/236 230/230/230 233/233/233
f 237/237/237 232/232/232 236/236/236
f 238/238/238 237/237/237 236/236/236
f 239/239/239 233/233/233 235/235/235
f 239/239/239 236/236/236 233/233/233
f 238/238/238 236/236/236 239/239/239
f 240/240/240 239/239/239 235/235/235
f 241/241/241 238/238/238 239/239/239
f 241/241/241 239/239/239 240/240/240
f 242/242/242 241/241/241 240/240/240
f 245/245/245 244/244/244 243/243/243
f 244/244/244 246/246/246 243/243/243
f 243/243/243 246/246/246 247/247/247
f 244/244/244 248/248/248 246/246/246
f 246/246/246 249/249/249 247/247/247
f 247/247/247 249/249/249 250/250/250
f 248/248/248 251/251/251 246/246/246
f 246/246/246 251/251/251 249/249/249
f 248/248/248 252/252/252 251/251/251
f 249/249/249 253/253/253 250/250/250
f 250/250/250 253/253/253 254/254/254
f 253/253/253 255/255/255 254/254/254
f 251/251/251 256/256/256 249/249/249
f 249/249/249 256/256/256 253/253/253
f 253/253/253 257/257/257 255/255/255
f 256/256/256 257/257/257 253/253/253
f 257/257/257 258/258/258 255/255/255
f 252/252/252 259/259/259 251/251/251
f 251/251/251 259/259/259 256/256/256
f 260/260/260 259/259/259 252/252/252
f 259/259/259 260/260/260 256/256/256
f 256/256/256 260/260/260 257/257/257
f 261/261/261 260/260/260 252/252/252
f 257/257/257 262/262/262 258/258/258
f 260/260/260 262/262/262 257/257/257
f 262/262/262 260/260/260 261/261/261
f 262/262/262 263/263/263 258/258/258
f 264/264/264 262/262/262 261/261/261
f 263/263/263 262/262/262 264/264/264
f 265/265/265 263/263/263 264/264/264
f 268/268/268 267/267/267 266/266/266
f 269/269/269 268/268/268 266/266/266
f 272/272/272 271/271/271 270/270/270
f 271/271/271 273/273/273 270/270/270
f 270/270/270 273/273/273 274/274/274
f 275/275/275 270/270/270 274/274/274
f 274/274/274 276/276/276 275/275/275
f 271/271/271 277/277/277 273/273/273
f 278/278/278 276/276/276 274/274/274
f 277/277/277 279/279/279 273/273/273
f 274/274/274 273/273/273 279/279/279
f 277/277/277 280/280/280 279/279/279
f 281/281/281 278/278/278 274/274/274
f 282/282/282 278/278/278 281/281/281
f 283/283/283 274/274/274 279/279/279
f 281/281/281 274/274/274 283/283/283
f 280/280/280 284/284/284 279/279/279
f 283/283/283 279/279/279 284/284/284
f 280/280/280 285/285/285 284/284/284
f 286/286/286 282/282/282 281/281/281
f 287/287/287 282/282/282 286/286/286
f 288/288/288 281/281/281 283/283/283
f 286/286/286 281/281/281 288/288/288
f 289/289/289 283/283/283 284/284/284
f 284/284/284 285/285/285 289/289/289
f 288/288/288 283/283/283 289/289/289
f 290/290/290 287/287/287 286/286/286
f 287/287/287 290/290/290 291/291/291
f 290/290/290 292/292/292 291/291/291
f 293/293/293 286/286/286 288/288/288
f 290/290/290 286/286/286 293/293/293
f 290/290/290 294/294/294 292/292/292
f 294/294/294 290/290/290 293/293/293
f 294/294/294 295/295/295 292/292/292
f 293/293/293 288/288/288 296/296/296
f 296/296/296 288/288/288 289/289/289
f 285/285/285 297/297/297 289/289/289
f 285/285/285 298/298/298 297/297/297
f 298/298/298 299/299/299 297/297/297
f 289/289/289 297/297/297 300/300/300
f 299/299/299 300/300/300 297/297/297
f 296/296/296 289/289/289 300/300/300
f 299/299/299 301/301/301 300/300/300
f 301/301/301 302/302/302 300/300/300
f 296/296/296 300/300/300 302/302/302
f 301/301/301 303/303/303 302/302/302
f 304/304/304 293/293/293 296/296/296
f 304/304/304 296/296/296 302/302/302
f 294/294/294 293/293/293 304/304/304
f 302/302/302 303/303/303 304/304/304
f 294/294/294 305/305/305 295/295/295
f 305/305/305 294/294/294 304/304/304
f 303/303/303 305/305/305 304/304/304
f 305/305/305 306/306/306 295/295/295
f 303/303/303 306/306/306 305/305/305
f 309/309/309 308/308/308 307/307/307
f 309/309/309 307/307/307 310/310/310
f 310/310/310 307/307/307 311/311/311
f 310/310/310 312/312/312 309/309/309
f 313/313/313 309/309/309 312/312/312
f 312/312/312 314/314/314 313/313/313
f 312/312/312 315/315/315 314/314/314
f 316/316/316 315/315/315 312/312/312
f 317/317/317 316/316/316 312/312/312
f 317/317/317 312/312/312 310/310/310
f 317/317/317 318/318/318 316/316/316
f 318/318/318 317/317/317 310/310/310
f 318/318/318 319/319/319 316/316/316
f 320/320/320 310/310/310 311/311/311
f 318/318/318 310/310/310 320/320/320
f 320/320/320 311/311/311 321/321/321
f 318/318/318 322/322/322 319/319/319
f 322/322/322 318/318/318 320/320/320
f 322/322/322 323/323/323 319/319/319
f 324/324/324 320/320/320 321/321/321
f 322/322/322 320/320/320 324/324/324
f 324/324/324 321/321/321 325/325/325
f 326/326/326 324/324/324 325/325/325
f 322/322/322 327/327/327 323/323/323
f 327/327/327 322/322/322 324/324/324
f 327/327/327 324/324/324 326/326/326
f 327/327/327 328/328/328 323/323/323
f 328/328/328 327/327/327 326/326/326
f 331/331/331 330/330/330 329/329/329
f 331/331/331 329/329/329 332/332/332
f 332/332/332 333/333/333 331/331/331
f 332/332/332 329/329/329 334/334/334
f 333/333/333 332/332/332 335/335/335
f 336/336/336 332/332/332 334/334/334
f 336/336/336 334/334/334 337/337/337
f 332/332/332 338/338/338 335/335/335
f 332/332/332 336/336/336 338/338/338
f 335/335/335 338/338/338 339/339/339
f 336/336/336 340/340/340 338/338/338
f 336/336/336 337/337/337 340/340/340
f 338/338/338 341/341/341 339/339/339
f 338/338/338 340/340/340 341/341/341
f 340/340/340 337/337/337 342/342/342
f 340/340/340 342/342/342 341/341/341
f 339/339/339 341/341/341 343/343/343
f 344/344/344 339/339/339 343/343/343
f 343/343/343 345/345/345 344/344/344
f 342/342/342 346/346/346 341/341/341
f 337/337/337 346/346/346 342/342/342
f 346/346/346 343/343/343 341/341/341
f 337/337/337 347/347/347 346/346/346
f 346/346/346 347/347/347 343/343/343
f 337/337/337 348/348/348 347/347/347
f 345/345/345 343/343/343 349/349/349
f 347/347/347 349/349/349 343/343/343
f 347/347/347 348/348/348 349/349/349
f 350/350/350 345/345/345 349/349/349
f 348/348/348 351/351/351 349/349/349
f 349/349/349 352/352/352 350/350/350
f 349/349/349 351/351/351 352/352/352
f 350/350/350 352/352/352 353/353/353
f 351/351/351 354/354/354 352/352/352
f 352/352/352 355/355/355 353/353/353
f 353/353/353 355/355/355 356/356/356
f 355/355/355 357/357/357 356/356/356
f 356/356/356 357/357/357 358/358/358
f 357/357/357 359/359/359 358/358/358
f 351/351/351 360/360/360 354/354/354
f 360/360/360 361/361/361 354/354/354
f 362/362/362 361/361/361 360/360/360
f 363/363/363 362/362/362 360/360/360
f 358/358/358 359/359/359 364/364/364
f 365/365/365 362/362/362 363/363/363
f 359/359/359 365/365/365 364/364/364
f 366/366/366 365/365/365 363/363/363
f 364/364/364 365/365/365 366/366/366
f 367/367/367 364/364/364 366/366/366
f 370/370/370 369/369/369 368/368/368
f 368/368/368 369/369/369 371/371/371
f 368/368/368 371/371/371 372/372/372
f 369/369/369 373/373/373 371/371/371
f 374/374/374 368/368/368 372/372/372
f 374/374/374 372/372/372 375/375/375
f 376/376/376 374/374/374 375/375/375
f 376/376/376 375/375/375 377/377/377
f 378/378/378 368/368/368 374/374/374
f 373/373/373 369/369/369 379/379/379
f 380/380/380 373/373/373 379/379/379
f 379/379/379 369/369/369 381/381/381
f 382/382/382 378/378/378 374/374/374
f 382/382/382 374/374/374 376/376/376
f 378/378/378 382/382/382 383/383/383
f 384/384/384 382/382/382 376/376/376
f 385/385/385 384/384/384 376/376/376
f 376/376/376 386/386/386 385/385/385
f 387/387/387 386/386/386 376/376/376
f 382/382/382 388/388/388 383/383/383
f 389/389/389 387/387/387 376/376/376
f 389/389/389 376/376/376 377/377/377
f 390/390/390 387/387/387 389/389/389
f 389/389/389 377/377/377 391/391/391
f 392/392/392 390/390/390 389/389/389
f 392/392/392 389/389/389 391/391/391
f 390/390/390 392/392/392 393/393/393
f 392/392/392 391/391/391 394/394/394
f 392/392/392 395/395/395 393/393/393
f 395/395/395 392/392/392 394/394/394
f 393/393/393 395/395/395 396/396/396
f 395/395/395 394/394/394 397/397/397
f 395/395/395 398/398/398 396/396/396
f 399/399/399 395/395/395 397/397/397
f 395/395/395 399/399/399 398/398/398
f 399/399/399 397/397/397 400/400/400
f 399/399/399 401/401/401 398/398/398
f 402/402/402 399/399/399 400/400/400
f 399/399/399 402/402/402 401/401/401
f 402/402/402 400/400/400 403/403/403
f 402/402/402 404/404/404 401/401/401
f 405/405/405 402/402/402 403/403/403
f 402/402/402 405/405/405 404/404/404
f 405/405/405 406/406/406 404/404/404
f 405/405/405 403/403/403 407/407/407
f 408/408/408 406/406/406 405/405/405
f 409/409/409 405/405/405 407/407/407
f 409/409/409 408/408/408 405/405/405
f 409/409/409 407/407/407 410/410/410
f 408/408/408 409/409/409 411/411/411
f 411/411/411 409/409/409 410/410/410
f 411/411/411 410/410/410 412/412/412
f 413/413/413 408/408/408 411/411/411
f 414/414/414 411/411/411 412/412/412
f 411/411/411 414/414/414 413/413/413
f 414/414/414 412/412/412 415/415/415
f 416/416/416 414/414/414 415/415/415
f 413/413/413 414/414/414 416/416/416
f 416/416/416 415/415/415 417/417/417
f 413/413/413 416/416/416 418/418/418
f 418/418/418 416/416/416 417/417/417
f 418/418/418 419/419/419 413/413/413
f 418/418/418 417/417/417 420/420/420
f 421/421/421 419/419/419 418/418/418
f 422/422/422 418/418/418 420/420/420
f 422/422/422 421/421/421 418/418/418
f 422/422/422 420/420/420 423/423/423
f 421/421/421 422/422/422 424/424/424
f 424/424/424 422/422/422 423/423/423
f 425/425/425 421/421/421 424/424/424
f 424/424/424 423/423/423 426/426/426
f 425/425/425 424/424/424 427/427/427
f 427/427/427 424/424/424 426/426/426
f 428/428/428 425/425/425 427/427/427
f 427/427/427 426/426/426 380/380/380
f 428/428/428 427/427/427 429/429/429
f 429/429/429 427/427/427 380/380/380
f 430/430/430 428/428/428 429/429/429
f 430/430/430 429/429/429 431/431/431
f 432/432/432 430/430/430 431/431/431
f 379/379/379 429/429/429 380/380/380
f 433/433/433 432/432/432 431/431/431
f 429/429/429 379/379/379 434/434/434
f 431/431/431 429/429/429 434/434/434
f 434/434/434 379/379/379 381/381/381
f 435/435/435 434/434/434 381/381/381
f 436/436/436 435/435/435 381/381/381
f 437/437/437 433/433/433 431/431/431
f 438/438/438 433/433/433 437/437/437
f 439/439/439 431/431/431 434/434/434
f 435/435/435 439/439/439 434/434/434
f 439/439/439 440/440/440 431/431/431
f 440/440/440 437/437/437 431/431/431
f 441/441/441 438/438/438 437/437/437
f 442/442/442 438/438/438 441/441/441
f 443/443/443 442/442/442 441/441/441
f 444/444/444 442/442/442 443/443/443
f 445/445/445 441/441/441 437/437/437
f 440/440/440 445/445/445 437/437/437
f 446/446/446 444/444/444 443/443/443
f 444/444/444 446/446/446 447/447/447
f 446/446/446 448/448/448 447/447/447
f 449/449/449 448/448/448 446/446/446
f 439/439/439 435/435/435 450/450/450
f 440/440/440 439/439/439 450/450/450
f 435/435/435 451/451/451 450/450/450
f 452/452/452 440/440/440 450/450/450
f 445/445/445 440/440/440 452/452/452
f 435/435/435 436/436/436 451/451/451
f 436/436/436 453/453/453 451/451/451
f 454/454/454 445/445/445 452/452/452
f 453/453/453 436/436/436 455/455/455
f 456/456/456 445/445/445 454/454/454
f 457/457/457 456/456/456 454/454/454
f 445/445/445 456/456/456 458/458/458
f 436/436/436 459/459/459 455/455/455
f 455/455/455 459/459/459 460/460/460
f 460/460/460 461/461/461 457/457/457
f 461/461/461 456/456/456 457/457/457
f 459/459/459 461/461/461 460/460/460
f 456/456/456 462/462/462 458/458/458
f 456/456/456 461/461/461 462/462/462
f 459/459/459 436/436/436 463/463/463
f 436/436/436 464/464/464 463/463/463
f 464/464/464 465/465/465 463/463/463
f 461/461/461 459/459/459 466/466/466
f 459/459/459 463/463/463 466/466/466
f 461/461/461 466/466/466 462/462/462
f 462/462/462 467/467/467 458/458/458
f 467/467/467 468/468/468 458/458/458
f 468/468/468 467/467/467 446/446/446
f 465/465/465 469/469/469 463/463/463
f 463/463/463 469/469/469 466/466/466
f 466/466/466 470/470/470 462/462/462
f 470/470/470 467/467/467 462/462/462
f 469/469/469 470/470/470 466/466/466
f 467/467/467 471/471/471 446/446/446
f 467/467/467 470/470/470 471/471/471
f 471/471/471 449/449/449 446/446/446
f 472/472/472 449/449/449 471/471/471
f 470/470/470 473/473/473 471/471/471
f 473/473/473 472/472/472 471/471/471
f 473/473/473 470/470/470 469/469/469
f 474/474/474 472/472/472 473/473/473
f 475/475/475 469/469/469 465/465/465
f 475/475/475 473/473/473 469/469/469
f 475/475/475 474/474/474 473/473/473
f 383/383/383 475/475/475 465/465/465
f 476/476/476 474/474/474 475/475/475
f 383/383/383 476/476/476 475/475/475
f 383/383/383 388/388/388 476/476/476
f 388/388/388 477/477/477 476/476/476
f 480/480/480 479/479/479 478/478/478
f 479/479/479 481/481/481 478/478/478
f 478/478/478 481/481/481 482/482/482
f 479/479/479 483/483/483 481/481/481
f 481/481/481 484/484/484 482/482/482
f 483/483/483 485/485/485 481/481/481
f 481/481/481 485/485/485 484/484/484
f 483/483/483 486/486/486 485/485/485
f 485/485/485 487/487/487 484/484/484
f 486/486/486 488/488/488 485/485/485
f 485/485/485 488/488/488 487/487/487
f 488/488/488 489/489/489 487/487/487
f 492/492/492 491/491/491 490/490/490
f 491/491/491 493/493/493 490/490/490
f 490/490/490 493/493/493 494/494/494
f 491/491/491 495/495/495 493/493/493
f 493/493/493 496/496/496 494/494/494
f 494/494/494 496/496/496 497/497/497
f 496/496/496 498/498/498 497/497/497
f 495/495/495 499/499/499 493/493/493
f 493/493/493 499/499/499 496/496/496
f 495/495/495 500/500/500 499/499/499
f 500/500/500 501/501/501 499/499/499
f 496/496/496 502/502/502 498/498/498
f 499/499/499 502/502/502 496/496/496
f 499/499/499 501/501/501 502/502/502
f 502/502/502 503/503/503 498/498/498
f 501/501/501 504/504/504 502/502/502
f 502/502/502 504/504/504 503/503/503
f 504/504/504 505/505/505 503/503/503
f 508/508/508 507/507/507 506/506/506
f 509/509/509 508/508/508 506/506/506
f 509/509/509 506/506/506 510/510/510
f 511/511/511 508/508/508 509/509/509
f 512/512/512 509/509/509 510/510/510
f 512/512/512 510/510/510 513/513/513
f 514/514/514 511/511/511 509/509/509
f 514/514/514 509/509/509 512/512/512
f 515/515/515 511/511/511 514/514/514
f 516/516/516 512/512/512 513/513/513
f 516/516/516 513/513/513 517/517/517
f 518/518/518 516/516/516 517/517/517
f 519/519/519 514/514/514 512/512/512
f 519/519/519 512/512/512 516/516/516
f 520/520/520 516/516/516 518/518/518
f 520/520/520 519/519/519 516/516/516
f 521/521/521 520/520/520 518/518/518
f 522/522/522 515/515/515 514/514/514
f 522/522/522 514/514/514 519/519/519
f 522/522/522 523/523/523 515/515/515
f 523/523/523 522/522/522 519/519/519
f 523/523/523 519/519/519 520/520/520
f 523/523/523 524/524/524 515/515/515
f 525/525/525 520/520/520 521/521/521
f 525/525/525 523/523/523 520/520/520
f 523/523/523 525/525/525 524/524/524
f 526/526/526 525/525/525 521/521/521
f 525/525/525 527/527/527 524/524/524
f 525/525/525 526/526/526 527/527/527
f 526/526/526 528/528/528 527/527/527
f 531/531/531 530/530/530 529/529/529
f 532/532/532 531/531/531 529/529/529
