g bronzehelmet
v -0.571965992 0.279475003 -1.28025401
v -0.180267006 0.286495 -1.40014899
v -0.171525002 0.841789007 -1.14937401
v -0.480349004 0.819880009 -1.042781
v -0.968802989 0.256936014 -0.761023998
v -0.159807995 1.19777405 -0.885011971
v -0.775403976 0.804602027 -0.591606975
v -1.16798103 0.259662002 0.0122830002
v -0.318277001 1.21089697 -0.764989972
v -0.139433995 1.479357 -0.525382996
v -0.962351978 0.813048005 0.0116210002
v -1.00107098 0.264423996 0.748016
v -0.575971007 1.21657801 -0.453503996
v -0.246105 1.46709704 -0.480468005
v -0.141578004 1.66935694 -0.252175987
v -0.828257024 0.814348996 0.600597024
v -0.549762011 0.282045007 1.27726495
v -0.710008979 1.24659598 0.0124829998
v -0.393159986 1.50351 -0.272323012
v -0.448343992 0.819812 0.991353989
v -0.165693 0.281208992 1.42934096
v -0.161523998 0.837489009 1.16500497
v -0.598460972 1.22811794 0.443385005
v -0.328759998 1.21110499 0.764171004
v -0.15478 1.23417902 0.888770998
v -0.474920988 1.53170097 0.0126379998
v -0.245963007 1.67656398 -0.130200997
v -0.141405001 1.74390697 -0.0732389987
v -0.141218007 1.76528001 0.0111149997
v -0.305848002 1.69845605 0.0126820002
v -0.141139001 1.74321699 0.0899249986
v -0.223609 1.68393695 0.134270996
v -0.141009003 1.69368994 0.237042993
v -0.366384 1.51588202 0.261546999
v -0.268173009 1.469257 0.491881013
v -0.146481007 1.48385096 0.543556988
v -0.168272004 0.0167970005 1.438061
v -0 0.0155300004 1.44185805
v -0 0.916293025 1.10837805
v -0.353258014 0.838818014 0.92374301
v -0.549601018 0.0155300004 1.25366902
v -0 1.30274105 0.708034992
v -1.00818396 0.00227400009 0.745984018
v -0.263078988 1.25521398 0.652437985
v -0 1.67010999 0.0122840004
v -0.763638973 0.830613017 0.609517992
v -1.17954302 -0.006391 0.0122830002
v -0.498622 1.24840498 0.391674995
v -0.896292984 0.823594987 0.0152669996
v -0.603218973 1.24395502 0.0148219997
v -0.712581992 0.821798027 -0.629395008
v -0.97370398 -0.0086099999 -0.771183014
v -0.369132996 0.837001979 -0.946922004
v -0.581510007 0.0155300004 -1.27788603
v -0.106816001 0.0227959994 -1.40121806
v -0.447678 1.24281502 -0.360285014
v -0.263078988 1.25521398 -0.622794986
v -0 1.25521398 -0.714752972
v -0 0.841349006 -1.13518
v -0 0.0155300004 -1.40813601
v -0.167423993 -0.892749012 -1.52209401
v -0 -0.899158001 -1.52901101
v -0.168272004 0.0167970005 1.438061
v -0 0.0164209995 1.47381997
v -0 0.0155300004 1.44185805
v -0.168272004 0.0176880006 1.47002304
v -0.549601018 0.0155300004 1.25366902
v -0.165693 0.285272002 1.455248
v -0 0.284570009 1.46621799
v -0.556753993 0.0156399999 1.27913296
v -1.00818396 0.00227400009 0.745984018
v -0.161523998 0.863595009 1.19696701
v -0 0.846345007 1.23269403
v -0.55677402 0.282209992 1.30107403
v -1.04012203 0.00227400009 0.761144996
v -1.17954302 -0.006391 0.0122830002
v -0.15478 1.25201702 0.920732975
v -0 1.23863494 0.963591993
v -1.03300905 0.264423996 0.763176024
v -1.20941401 -0.0063029998 0.00773000019
v -0.97370398 -0.0086099999 -0.771183014
v -0.146481007 1.51347196 0.575519025
v -0 1.49981797 0.617906988
v -0 1.72205901 0.309018999
v -1.197896 0.259710014 0.00775100011
v -0.997301996 -0.00811900012 -0.793865979
v -0.581510007 0.0155300004 -1.27788603
v -0.992307007 0.257394999 -0.783960998
v -0.589389026 0.0159339998 -1.29973304
v -0.106816001 0.0227959994 -1.40121806
v -0.579980016 0.279864997 -1.30190897
v -0.175407007 0.281746 -1.41772699
v -0.106816001 0.0276689995 -1.41879594
v -0.167423993 -0.88845098 -1.57233202
v -0.167423993 -0.892749012 -1.52209401
v -0 -0.899158001 -1.52901101
v -0 -0.894860029 -1.57924998
v -0 0.0204019994 -1.42571294
v -0 0.279662997 -1.42400301
v -0 0.858128011 -1.19209003
v -0.171525002 0.879676998 -1.16695201
v -0 1.23267901 -0.923361003
v -0.159807995 1.22739506 -0.902589023
v -0 1.49332404 -0.581001997
v -0.571965992 0.279475003 -1.28025401
v -0.180267006 0.286495 -1.40014899
v -0.968802989 0.256936014 -0.761023998
v -0.171525002 0.841789007 -1.14937401
v -1.16798103 0.259662002 0.0122830002
v -1.00107098 0.264423996 0.748016
v -0.549762011 0.282045007 1.27726495
v -0.165693 0.281208992 1.42934096
v -0.161523998 0.837489009 1.16500497
v -0.15478 1.23417902 0.888770998
v -0.146481007 1.48385096 0.543556988
v -0.141009003 1.69368994 0.237042993
v -0.141009003 1.72330999 0.269003987
v -0.141139001 1.74321699 0.0899249986
v -0.141139001 1.772838 0.0723479986
v -0.141218007 1.76528001 0.0111149997
v -0 1.80077899 -0.00488599995
v -0.141218007 1.79490101 -0.00646300009
v -0.141405001 1.74390697 -0.0732389987
v -0.141405001 1.77352798 -0.090816997
v -0.141578004 1.66935694 -0.252175987
v -0.141578004 1.69897795 -0.269753993
v -0 1.69399095 -0.279689997
v -0.139433995 1.479357 -0.525382996
v -0.139433995 1.50897706 -0.542961001
v -0.159807995 1.19777405 -0.885011971
v 0.571965992 0.279475003 -1.28025401
v 0.171525002 0.841789007 -1.14937401
v 0.180267006 0.286495 -1.40014899
v 0.480349004 0.819880009 -1.042781
v 0.968802989 0.256936014 -0.761023998
v 0.159807995 1.19777405 -0.885011971
v 0.775403976 0.804602027 -0.591606975
v 1.16798103 0.259662002 0.0122830002
v 0.318277001 1.21089697 -0.764989972
v 0.139433995 1.479357 -0.525382996
v 0.962351978 0.813048005 0.0116210002
v 1.00107098 0.264423996 0.748016
v 0.575971007 1.21657801 -0.453503996
v 0.246105 1.46709704 -0.480468005
v 0.141578004 1.66935694 -0.252175987
v 0.828257024 0.814348996 0.600597024
v 0.549762011 0.282045007 1.27726495
v 0.710008979 1.24659598 0.0124829998
v 0.393159986 1.50351 -0.272323012
v 0.448343992 0.819812 0.991353989
v 0.165693 0.281208992 1.42934096
v 0.161523998 0.837489009 1.16500497
v 0.598460972 1.22811794 0.443385005
v 0.328759998 1.21110499 0.764171004
v 0.15478 1.23417902 0.888770998
v 0.474920988 1.53170097 0.0126379998
v 0.245963007 1.67656398 -0.130200997
v 0.141405001 1.74390697 -0.0732389987
v 0.141218007 1.76528001 0.0111149997
v 0.305848002 1.69845605 0.0126820002
v 0.141139001 1.74321699 0.0899249986
v 0.223609 1.68393695 0.134270996
v 0.141009003 1.69368994 0.237042993
v 0.366384 1.51588202 0.261546999
v 0.268173009 1.469257 0.491881013
v 0.146481007 1.48385096 0.543556988
v -0 0.916293025 1.10837805
v -0 0.0155300004 1.44185805
v 0.168272004 0.0167970005 1.438061
v 0.353258014 0.838818014 0.92374301
v 0.549601018 0.0155300004 1.25366902
v -0 1.30274105 0.708034992
v 1.00818396 0.00227400009 0.745984018
v 0.263078988 1.25521398 0.652437985
v -0 1.67010999 0.0122840004
v 0.763638973 0.830613017 0.609517992
v 1.17954302 -0.006391 0.0122830002
v 0.498622 1.24840498 0.391674995
v 0.896292984 0.823594987 0.0152669996
v 0.603218973 1.24395502 0.0148219997
v 0.712581992 0.821798027 -0.629395008
v 0.97370398 -0.0086099999 -0.771183014
v 0.447678 1.24281502 -0.360285014
v 0.263078988 1.25521398 -0.622794986
v -0 1.25521398 -0.714752972
v 0.369132996 0.837001979 -0.946922004
v 0.581510007 0.0155300004 -1.27788603
v -0 0.841349006 -1.13518
v 0.106816001 0.0227959994 -1.40121806
v -0 0.0155300004 -1.40813601
v 0.167423993 -0.892749012 -1.52209401
v -0 -0.899158001 -1.52901101
v 0.168272004 0.0167970005 1.438061
v -0 0.0155300004 1.44185805
v -0 0.0164209995 1.47381997
v 0.168272004 0.0176880006 1.47002304
v 0.549601018 0.0155300004 1.25366902
v 0.165693 0.285272002 1.455248
v -0 0.284570009 1.46621799
v 0.556753993 0.0156399999 1.27913296
v 1.00818396 0.00227400009 0.745984018
v 0.161523998 0.863595009 1.19696701
v -0 0.846345007 1.23269403
v 0.55677402 0.282209992 1.30107403
v 1.04012203 0.00227400009 0.761144996
v 1.17954302 -0.006391 0.0122830002
v 0.15478 1.25201702 0.920732975
v -0 1.23863494 0.963591993
v 1.03300905 0.264423996 0.763176024
v 1.20941401 -0.0063029998 0.00773000019
v 0.97370398 -0.0086099999 -0.771183014
v 0.146481007 1.51347196 0.575519025
v -0 1.49981797 0.617906988
v -0 1.72205901 0.309018999
v 1.197896 0.259710014 0.00775100011
v 0.997301996 -0.00811900012 -0.793865979
v 0.581510007 0.0155300004 -1.27788603
v 0.992307007 0.257394999 -0.783960998
v 0.589389026 0.0159339998 -1.29973304
v 0.106816001 0.0227959994 -1.40121806
v 0.579980016 0.279864997 -1.30190897
v 0.175407007 0.281746 -1.41772699
v 0.106816001 0.0276689995 -1.41879594
v 0.167423993 -0.88845098 -1.57233202
v 0.167423993 -0.892749012 -1.52209401
v -0 -0.899158001 -1.52901101
v -0 -0.894860029 -1.57924998
v -0 0.0204019994 -1.42571294
v -0 0.279662997 -1.42400301
v -0 0.858128011 -1.19209003
v 0.171525002 0.879676998 -1.16695201
v -0 1.23267901 -0.923361003
v 0.159807995 1.22739506 -0.902589023
v -0 1.49332404 -0.581001997
v 0.571965992 0.279475003 -1.28025401
v 0.180267006 0.286495 -1.40014899
v 0.968802989 0.256936014 -0.761023998
v 0.171525002 0.841789007 -1.14937401
v 1.16798103 0.259662002 0.0122830002
v 1.00107098 0.264423996 0.748016
v 0.549762011 0.282045007 1.27726495
v 0.165693 0.281208992 1.42934096
v 0.161523998 0.837489009 1.16500497
v 0.15478 1.23417902 0.888770998
v 0.146481007 1.48385096 0.543556988
v 0.141009003 1.69368994 0.237042993
v 0.141009003 1.72330999 0.269003987
v 0.141139001 1.74321699 0.0899249986
v 0.141139001 1.772838 0.0723479986
v 0.141218007 1.76528001 0.0111149997
v -0 1.80077899 -0.00488599995
v 0.141218007 1.79490101 -0.00646300009
v 0.141405001 1.74390697 -0.0732389987
v 0.141405001 1.77352798 -0.090816997
v 0.141578004 1.66935694 -0.252175987
v 0.141578004 1.69897795 -0.269753993
v -0 1.69399095 -0.279689997
v 0.139433995 1.479357 -0.525382996
v 0.139433995 1.50897706 -0.542961001
v 0.159807995 1.19777405 -0.885011971
vt 0.135413006 0.722972989
vt 0.0793519989 0.773685992
vt 0.141064003 0.830272019
vt 0.184392005 0.787975013
vt 0.223511994 0.674984992
vt 0.190110996 0.866801023
vt 0.247828007 0.751676977
vt 0.326918989 0.651351988
vt 0.220240995 0.839161992
vt 0.245554999 0.896686971
vt 0.326839 0.733723998
vt 0.430334002 0.672125995
vt 0.268269986 0.811357975
vt 0.256101012 0.880979002
vt 0.288839012 0.911562026
vt 0.401551008 0.748175979
vt 0.521480024 0.723500013
vt 0.326986015 0.799978018
vt 0.291761994 0.855875015
vt 0.468466997 0.788505971
vt 0.578692019 0.77798301
vt 0.514238 0.833009005
vt 0.381076992 0.810132027
vt 0.431221992 0.838925004
vt 0.459762007 0.871433973
vt 0.327540994 0.84878099
vt 0.307709008 0.897309005
vt 0.314880997 0.917055011
vt 0.326638013 0.918554008
vt 0.327100009 0.890348971
vt 0.337814003 0.91741699
vt 0.344134003 0.901507974
vt 0.359030008 0.914232016
vt 0.35947901 0.860772014
vt 0.39526701 0.878639996
vt 0.407151014 0.896641016
vt 0.0362970009 0.145521998
vt 0.0169660002 0.167154998
vt 0.119456999 0.256547004
vt 0.165351003 0.196748003
vt 0.0979299992 0.0910819992
vt 0.188399002 0.291619986
vt 0.192457005 0.040155001
vt 0.206835002 0.251810998
vt 0.290767998 0.321990013
vt 0.223211005 0.151930004
vt 0.297645003 0.0220689997
vt 0.245950997 0.223183006
vt 0.294093996 0.135512993
vt 0.292461008 0.211797997
vt 0.365658998 0.158208996
vt 0.403834999 0.0482000001
vt 0.420993 0.203883007
vt 0.490687996 0.0993840024
vt 0.551451981 0.160753995
vt 0.338808 0.227659002
vt 0.37538299 0.254851013
vt 0.400462002 0.291891009
vt 0.473408014 0.255688012
vt 0.567200005 0.177719995
vt 0.653303981 0.0517169982
vt 0.680530012 0.0823210031
vt 0.916709006 0.461580008
vt 0.938517988 0.479999989
vt 0.940788984 0.476123989
vt 0.914955974 0.465364009
vt 0.857967019 0.416595995
vt 0.892354012 0.494774014
vt 0.915867984 0.512089014
vt 0.856810987 0.419791013
vt 0.765878022 0.371264011
vt 0.841134012 0.565841019
vt 0.862649977 0.580381989
vt 0.841742992 0.449654013
vt 0.762969971 0.375957012
vt 0.666607022 0.357044995
vt 0.794597983 0.607016981
vt 0.814504027 0.624857008
vt 0.755477011 0.409622997
vt 0.666119993 0.361860007
vt 0.56674403 0.371870011
vt 0.745050013 0.637974977
vt 0.762727976 0.657229006
vt 0.715174973 0.681774974
vt 0.667564988 0.394405991
vt 0.567858994 0.376394004
vt 0.481445014 0.414638996
vt 0.578517973 0.410760999
vt 0.482645005 0.417697996
vt 0.40198499 0.459739
vt 0.496928006 0.447982997
vt 0.436087012 0.492033005
vt 0.401849985 0.463178992
vt 0.271898001 0.40902701
vt 0.271118999 0.401789993
vt 0.238753006 0.426899999
vt 0.244275004 0.433764011
vt 0.385405988 0.485049993
vt 0.412358999 0.511790991
vt 0.468327999 0.584417999
vt 0.492538005 0.567421973
vt 0.519308984 0.629625022
vt 0.537280023 0.607392013
vt 0.574761987 0.661558986
vt 0.498764992 0.450452
vt 0.439224005 0.492516994
vt 0.580045998 0.414617985
vt 0.493645012 0.561855972
vt 0.667944014 0.398699999
vt 0.755001009 0.41455999
vt 0.839583993 0.451958001
vt 0.888023019 0.495099992
vt 0.838105023 0.561785996
vt 0.790803015 0.603913009
vt 0.741225004 0.633517981
vt 0.699460983 0.656684995
vt 0.703072011 0.660857022
vt 0.680849016 0.661522985
vt 0.678353012 0.665203989
vt 0.670853972 0.663654029
vt 0.668873012 0.690917015
vt 0.668730021 0.667057991
vt 0.660426021 0.661391973
vt 0.658670008 0.665525973
vt 0.635151029 0.655354977
vt 0.633574009 0.659927011
vt 0.624877989 0.683205009
vt 0.593074977 0.636699021
vt 0.591297984 0.641259015
vt 0.539026976 0.602871001
vt 0.135413006 0.722972989
vt 0.141064003 0.830272019
vt 0.0793519989 0.773685992
vt 0.184392005 0.787975013
vt 0.223511994 0.674984992
vt 0.190110996 0.866801023
vt 0.247828007 0.751676977
vt 0.326918989 0.651351988
vt 0.220240995 0.839161992
vt 0.245554999 0.896686971
vt 0.326839 0.733723998
vt 0.430334002 0.672125995
vt 0.268269986 0.811357975
vt 0.256101012 0.880979002
vt 0.288839012 0.911562026
vt 0.401551008 0.748175979
vt 0.521480024 0.723500013
vt 0.326986015 0.799978018
vt 0.291761994 0.855875015
vt 0.468466997 0.788505971
vt 0.578692019 0.77798301
vt 0.514238 0.833009005
vt 0.381076992 0.810132027
vt 0.431221992 0.838925004
vt 0.459762007 0.871433973
vt 0.327540994 0.84878099
vt 0.307709008 0.897309005
vt 0.314880997 0.917055011
vt 0.326638013 0.918554008
vt 0.327100009 0.890348971
vt 0.337814003 0.91741699
vt 0.344134003 0.901507974
vt 0.359030008 0.914232016
vt 0.35947901 0.860772014
vt 0.39526701 0.878639996
vt 0.407151014 0.896641016
vt 0.119456999 0.256547004
vt 0.0169660002 0.167154998
vt 0.0362970009 0.145521998
vt 0.165351003 0.196748003
vt 0.0979299992 0.0910819992
vt 0.188399002 0.291619986
vt 0.192457005 0.040155001
vt 0.206835002 0.251810998
vt 0.290767998 0.321990013
vt 0.223211005 0.151930004
vt 0.297645003 0.0220689997
vt 0.245950997 0.223183006
vt 0.294093996 0.135512993
vt 0.292461008 0.211797997
vt 0.365658998 0.158208996
vt 0.403834999 0.0482000001
vt 0.338808 0.227659002
vt 0.37538299 0.254851013
vt 0.400462002 0.291891009
vt 0.420993 0.203883007
vt 0.490687996 0.0993840024
vt 0.473408014 0.255688012
vt 0.551451981 0.160753995
vt 0.567200005 0.177719995
vt 0.653303981 0.0517169982
vt 0.680530012 0.0823210031
vt 0.916709006 0.461580008
vt 0.940788984 0.476123989
vt 0.938517988 0.479999989
vt 0.914955974 0.465364009
vt 0.857967019 0.416595995
vt 0.892354012 0.494774014
vt 0.915867984 0.512089014
vt 0.856810987 0.419791013
vt 0.765878022 0.371264011
vt 0.841134012 0.565841019
vt 0.862649977 0.580381989
vt 0.841742992 0.449654013
vt 0.762969971 0.375957012
vt 0.666607022 0.357044995
vt 0.794597983 0.607016981
vt 0.814504027 0.624857008
vt 0.755477011 0.409622997
vt 0.666119993 0.361860007
vt 0.56674403 0.371870011
vt 0.745050013 0.637974977
vt 0.762727976 0.657229006
vt 0.715174973 0.681774974
vt 0.667564988 0.394405991
vt 0.567858994 0.376394004
vt 0.481445014 0.414638996
vt 0.578517973 0.410760999
vt 0.482645005 0.417697996
vt 0.40198499 0.459739
vt 0.496928006 0.447982997
vt 0.436087012 0.492033005
vt 0.401849985 0.463178992
vt 0.271898001 0.40902701
vt 0.271118999 0.401789993
vt 0.238753006 0.426899999
vt 0.244275004 0.433764011
vt 0.385405988 0.485049993
vt 0.412358999 0.511790991
vt 0.468327999 0.584417999
vt 0.492538005 0.567421973
vt 0.519308984 0.629625022
vt 0.537280023 0.607392013
vt 0.574761987 0.661558986
vt 0.498764992 0.450452
vt 0.439224005 0.492516994
vt 0.580045998 0.414617985
vt 0.493645012 0.561855972
vt 0.667944014 0.398699999
vt 0.755001009 0.41455999
vt 0.839583993 0.451958001
vt 0.888023019 0.495099992
vt 0.838105023 0.561785996
vt 0.790803015 0.603913009
vt 0.741225004 0.633517981
vt 0.699460983 0.656684995
vt 0.703072011 0.660857022
vt 0.680849016 0.661522985
vt 0.678353012 0.665203989
vt 0.670853972 0.663654029
vt 0.668873012 0.690917015
vt 0.668730021 0.667057991
vt 0.660426021 0.661391973
vt 0.658670008 0.665525973
vt 0.635151029 0.655354977
vt 0.633574009 0.659927011
vt 0.624877989 0.683205009
vt 0.593074977 0.636699021
vt 0.591297984 0.641259015
vt 0.539026976 0.602871001
vn -0.536402047 0.420401603 -0.731802821
vn -0.295700759 0.411301047 -0.862202168
vn -0.327509463 0.504914582 -0.798623145
vn -0.545425892 0.498323619 -0.673931956
vn -0.830959976 0.384181529 -0.402380615
vn -0.357324898 0.654345572 -0.666446447
vn -0.803706288 0.453003556 -0.385803044
vn -0.93157959 0.36273098 -0.0242020674
vn -0.49072206 0.656029522 -0.573425829
vn -0.337599099 0.757697999 -0.558498502
vn -0.899891436 0.43529585 -0.026699746
vn -0.815438926 0.390018612 0.427720428
vn -0.710605204 0.589104295 -0.384702832
vn -0.43641746 0.735729456 -0.517920732
vn -0.422900766 0.790901423 -0.442300767
vn -0.788882613 0.458548009 0.409142822
vn -0.537116289 0.435113192 0.722621918
vn -0.809883714 0.586388171 -0.0153996907
vn -0.609089434 0.698687911 -0.375293493
vn -0.558907986 0.481506824 0.675109625
vn -0.400710613 0.442211747 0.802421272
vn -0.443087727 0.47868675 0.757979035
vn -0.698297858 0.604598165 0.383198798
vn -0.526517868 0.619421065 0.582319796
vn -0.469117463 0.606622577 0.641823888
vn -0.709906936 0.704106867 0.0163001586
vn -0.481385231 0.805675268 -0.345189393
vn -0.377205372 0.877112448 -0.297304213
vn -0.401906192 0.915414155 0.0221003406
vn -0.563129783 0.825643718 0.0346018337
vn -0.406408668 0.860818386 0.306306571
vn -0.504827738 0.792443573 0.342318803
vn -0.498613775 0.781121552 0.375810415
vn -0.611622393 0.703825831 0.361313224
vn -0.474276066 0.731963038 0.48917529
vn -0.377713203 0.750626266 0.542119026
vn 0.376906067 -0.397306412 -0.836713552
vn -0 -0.429001749 -0.903303683
vn -0 -0.54731667 -0.836925566
vn 0.495188653 -0.490488768 -0.717083573
vn 0.514500618 -0.385000437 -0.7662009
vn -0 -0.787334025 -0.616526663
vn 0.817716002 -0.350106865 -0.456908941
vn 0.422787488 -0.714778841 -0.557083488
vn -0 -0.999896288 0.0143999467
vn 0.764124036 -0.46641469 -0.44561404
vn 0.945386291 -0.325195283 0.0221996773
vn 0.615727425 -0.710631669 -0.34041518
vn 0.888833106 -0.457417011 0.0273010172
vn 0.713297546 -0.69979763 0.0385998674
vn 0.766032457 -0.479220361 0.428418159
vn 0.825546324 -0.35581997 0.438024551
vn 0.484827995 -0.520130038 0.703140616
vn 0.516726434 -0.385719687 0.76433903
vn 0.212000608 -0.294300824 0.931902707
vn 0.623921573 -0.707124412 0.332711518
vn 0.410920382 -0.74233681 0.529226303
vn -0 -0.773319721 0.634016216
vn -0 -0.525307596 0.850912333
vn -0 -0.254493296 0.967074454
vn 0.0432990082 -0.132196963 0.99027729
vn -0 -0.132399529 0.991196394
vn -0.00580027653 -0.999747694 0.021701036
vn -0 -0.678915322 0.734216571
vn -0 -0.999610722 0.0279002991
vn -0.174404502 -0.6459167 0.743219197
vn 0.00590036856 -0.999862432 0.0155009674
vn -0.412296206 0.3604967 0.836692333
vn -0 0.220402077 0.975409091
vn -0.433600545 -0.668800831 0.603900731
vn 0.0065999506 -0.999892473 0.0130999014
vn -0.732495487 0.344797879 0.586996377
vn -0 0.476096302 0.87939316
vn -0.440808862 0.672313452 0.5947119
vn -0.671541512 -0.651140213 0.35362184
vn -0.00459986925 -0.999971509 0.00599982915
vn -0.717040062 0.502628088 0.482926965
vn -0 0.676575422 0.736373305
vn -0.674206972 0.65400672 0.343103558
vn -0.765189588 -0.643691242 -0.0120998351
vn 0.00130000513 -0.999903917 -0.0138000539
vn -0.73851639 0.553012252 0.385708541
vn -0 0.806764066 0.590873659
vn -0 0.896319151 0.443409473
vn -0.740007043 0.672406375 -0.0161001533
vn -0.668799818 -0.654399812 -0.352799892
vn 0.004500126 -0.99712795 -0.0756021217
vn -0.667599857 0.672099888 -0.320299953
vn -0.413219452 -0.614728987 -0.671831667
vn -0.711669445 -0.696570098 -0.0911960825
vn -0.417804152 0.627206266 -0.657306552
vn -0.30441311 0.310713381 -0.900438726
vn -0.368100643 -0.187900335 -0.910601616
vn -0.616049528 -0.474638164 -0.628650546
vn -0.761823952 -0.645620346 -0.0529016666
vn -0 -0.996363461 -0.0852054209
vn -0 -0.614224434 -0.789131403
vn -0 0.0870999619 -0.996199548
vn -0 0.19080542 -0.981627882
vn -0 0.478613853 -0.878025472
vn -0.701102793 0.367601454 -0.611002445
vn -0 0.696223915 -0.717824638
vn -0.715498745 0.507699132 -0.479899168
vn -0 0.807107031 -0.590405107
vn -0.0277998 0.999192774 -0.0289997905
vn -0.715516031 0.685915351 -0.132502958
vn -0.00090002385 0.999926448 0.0121003203
vn -0.997846603 0.0385017991 -0.0531024821
vn 0.0043999278 0.999983549 -0.00369993923
vn -0.00799985789 0.999882221 -0.0130997673
vn 0.00270000356 0.999001324 -0.0446000583
vn -0.678166687 0.732364058 -0.0610970035
vn -0.999949813 0.00850042421 -0.00530026387
vn -0.999846101 0.0142006548 -0.0103004752
vn -0.999850988 0.0133006778 -0.0110005606
vn -0.999984741 0.00419993559 -0.00359994499
vn -0.69732815 0.661726713 0.275411129
vn -0.999999762 0 0.000799999805
vn -0.732207358 0.659806609 0.168901697
vn -0.999998689 0.00089999882 0.00139999809
vn -0 0.998605072 -0.0528002642
vn -0.664500713 0.746100843 -0.0421000458
vn -0.999998689 0.000799998932 0.00139999809
vn -0.70102644 0.667725205 -0.250409454
vn -0.999996424 -0.00139999494 -0.0022999919
vn -0.688417792 0.644916713 -0.331908584
vn -0 0.884829283 -0.465915412
vn -0.999783576 0.0105998246 0.0178997051
vn -0.716698945 0.573699176 -0.396499395
vn -0.999353588 0.0175009388 0.0314016826
vn 0.536402047 0.420401603 -0.731802821
vn 0.327509463 0.504914582 -0.798623145
vn 0.295700759 0.411301047 -0.862202168
vn 0.545425892 0.498323619 -0.673931956
vn 0.830959976 0.384181529 -0.402380615
vn 0.357324898 0.654345572 -0.666446447
vn 0.803706288 0.453003556 -0.385803044
vn 0.93157959 0.36273098 -0.0242020674
vn 0.49072206 0.656029522 -0.573425829
vn 0.337599099 0.757697999 -0.558498502
vn 0.899891436 0.43529585 -0.026699746
vn 0.815438926 0.390018612 0.427720428
vn 0.710605204 0.589104295 -0.384702832
vn 0.43641746 0.735729456 -0.517920732
vn 0.422900766 0.790901423 -0.442300767
vn 0.788882613 0.458548009 0.409142822
vn 0.537116289 0.435113192 0.722621918
vn 0.809883714 0.586388171 -0.0153996907
vn 0.609089434 0.698687911 -0.375293493
vn 0.558907986 0.481506824 0.675109625
vn 0.400710613 0.442211747 0.802421272
vn 0.443087727 0.47868675 0.757979035
vn 0.698297858 0.604598165 0.383198798
vn 0.526517868 0.619421065 0.582319796
vn 0.469117463 0.606622577 0.641823888
vn 0.709906936 0.704106867 0.0163001586
vn 0.481385231 0.805675268 -0.345189393
vn 0.377205372 0.877112448 -0.297304213
vn 0.401906192 0.915414155 0.0221003406
vn 0.563129783 0.825643718 0.0346018337
vn 0.406408668 0.860818386 0.306306571
vn 0.504827738 0.792443573 0.342318803
vn 0.498613775 0.781121552 0.375810415
vn 0.611622393 0.703825831 0.361313224
vn 0.474276066 0.731963038 0.48917529
vn 0.377713203 0.750626266 0.542119026
vn -0 -0.54731667 -0.836925566
vn -0 -0.429001749 -0.903303683
vn -0.376906067 -0.397306412 -0.836713552
vn -0.495188653 -0.490488768 -0.717083573
vn -0.514500618 -0.385000437 -0.7662009
vn -0 -0.787334025 -0.616526663
vn -0.817716002 -0.350106865 -0.456908941
vn -0.422787488 -0.714778841 -0.557083488
vn -0 -0.999896288 0.0143999467
vn -0.764124036 -0.46641469 -0.44561404
vn -0.945386291 -0.325195283 0.0221996773
vn -0.615727425 -0.710631669 -0.34041518
vn -0.888833106 -0.457417011 0.0273010172
vn -0.713297546 -0.69979763 0.0385998674
vn -0.766032457 -0.479220361 0.428418159
vn -0.825546324 -0.35581997 0.438024551
vn -0.623921573 -0.707124412 0.332711518
vn -0.410920382 -0.74233681 0.529226303
vn -0 -0.773319721 0.634016216
vn -0.484827995 -0.520130038 0.703140616
vn -0.516726434 -0.385719687 0.76433903
vn -0 -0.525307596 0.850912333
vn -0.212000608 -0.294300824 0.931902707
vn -0 -0.254493296 0.967074454
vn -0.0432990082 -0.132196963 0.99027729
vn -0 -0.132399529 0.991196394
vn 0.00580027653 -0.999747694 0.021701036
vn -0 -0.999610722 0.0279002991
vn -0 -0.678915322 0.734216571
vn 0.174404502 -0.6459167 0.743219197
vn -0.00590036856 -0.999862432 0.0155009674
vn 0.412296206 0.3604967 0.836692333
vn -0 0.220402077 0.975409091
vn 0.433600545 -0.668800831 0.603900731
vn -0.0065999506 -0.999892473 0.0130999014
vn 0.732495487 0.344797879 0.586996377
vn -0 0.476096302 0.87939316
vn 0.440808862 0.672313452 0.5947119
vn 0.671541512 -0.651140213 0.35362184
vn 0.00459986925 -0.999971509 0.00599982915
vn 0.717040062 0.502628088 0.482926965
vn -0 0.676575422 0.736373305
vn 0.674206972 0.65400672 0.343103558
vn 0.765189588 -0.643691242 -0.0120998351
vn -0.00130000513 -0.999903917 -0.0138000539
vn 0.73851639 0.553012252 0.385708541
vn -0 0.806764066 0.590873659
vn -0 0.896319151 0.443409473
vn 0.740007043 0.672406375 -0.0161001533
vn 0.668799818 -0.654399812 -0.352799892
vn -0.004500126 -0.99712795 -0.0756021217
vn 0.667599857 0.672099888 -0.320299953
vn 0.413219452 -0.614728987 -0.671831667
vn 0.711669445 -0.696570098 -0.0911960825
vn 0.417804152 0.627206266 -0.657306552
vn 0.30441311 0.310713381 -0.900438726
vn 0.368100643 -0.187900335 -0.910601616
vn 0.616049528 -0.474638164 -0.628650546
vn 0.761823952 -0.645620346 -0.0529016666
vn -0 -0.996363461 -0.0852054209
vn -0 -0.614224434 -0.789131403
vn -0 0.0870999619 -0.996199548
vn -0 0.19080542 -0.981627882
vn -0 0.478613853 -0.878025472
vn 0.701102793 0.367601454 -0.611002445
vn -0 0.696223915 -0.717824638
vn 0.715498745 0.507699132 -0.479899168
vn -0 0.807107031 -0.590405107
vn 0.0277998783 0.999195635 -0.0288998745
vn 0.715516031 0.685915351 -0.132502958
vn 0.00090002385 0.999926448 0.0121003203
vn 0.997846603 0.0385017991 -0.0531024821
vn -0.0043999278 0.999983549 -0.00369993923
vn 0.00799985789 0.999882221 -0.0130997673
vn -0.00270000356 0.999001324 -0.0446000583
vn 0.678166687 0.732364058 -0.0610970035
vn 0.999949813 0.00850042421 -0.00530026387
vn 0.999846101 0.0142006548 -0.0103004752
vn 0.999850988 0.0133006778 -0.0110005606
vn 0.999984741 0.00419993559 -0.00359994499
vn 0.69732815 0.661726713 0.275411129
vn 0.999999762 0 0.000799999805
vn 0.732207358 0.659806609 0.168901697
vn 0.999998689 0.00089999882 0.00139999809
vn -0 0.998605072 -0.0528002642
vn 0.664500713 0.746100843 -0.0421000458
vn 0.999998689 0.000799998932 0.00139999809
vn 0.70102644 0.667725205 -0.250409454
vn 0.999996424 -0.00139999494 -0.0022999919
vn 0.688417792 0.644916713 -0.331908584
vn -0 0.884829283 -0.465915412
vn 0.999783576 0.0105998246 0.0178997051
vn 0.716698945 0.573699176 -0.396499395
vn 0.999353588 0.0175009388 0.0314016826
g bronzehelmet_0
f 3/3/3 2/2/2 1/1/1
f 4/4/4 3/3/3 1/1/1
f 1/1/1 5/5/5 4/4/4
f 6/6/6 3/3/3 4/4/4
f 5/5/5 7/7/7 4/4/4
f 5/5/5 8/8/8 7/7/7
f 9/9/9 6/6/6 4/4/4
f 4/4/4 7/7/7 9/9/9
f 10/10/10 6/6/6 9/9/9
f 8/8/8 11/11/11 7/7/7
f 8/8/8 12/12/12 11/11/11
f 7/7/7 13/13/13 9/9/9
f 7/7/7 11/11/11 13/13/13
f 14/14/14 10/10/10 9/9/9
f 9/9/9 13/13/13 14/14/14
f 15/15/15 10/10/10 14/14/14
f 12/12/12 16/16/16 11/11/11
f 12/12/12 17/17/17 16/16/16
f 11/11/11 18/18/18 13/13/13
f 11/11/11 16/16/16 18/18/18
f 13/13/13 19/19/19 14/14/14
f 15/15/15 14/14/14 19/19/19
f 13/13/13 18/18/18 19/19/19
f 17/17/17 20/20/20 16/16/16
f 20/20/20 17/17/17 21/21/21
f 22/22/22 20/20/20 21/21/21
f 16/16/16 23/23/23 18/18/18
f 16/16/16 20/20/20 23/23/23
f 24/24/24 20/20/20 22/22/22
f 20/20/20 24/24/24 23/23/23
f 25/25/25 24/24/24 22/22/22
f 18/18/18 23/23/23 26/26/26
f 18/18/18 26/26/26 19/19/19
f 27/27/27 15/15/15 19/19/19
f 28/28/28 15/15/15 27/27/27
f 29/29/29 28/28/28 27/27/27
f 27/27/27 19/19/19 30/30/30
f 30/30/30 29/29/29 27/27/27
f 19/19/19 26/26/26 30/30/30
f 31/31/31 29/29/29 30/30/30
f 32/32/32 31/31/31 30/30/30
f 30/30/30 26/26/26 32/32/32
f 33/33/33 31/31/31 32/32/32
f 23/23/23 34/34/34 26/26/26
f 26/26/26 34/34/34 32/32/32
f 23/23/23 24/24/24 34/34/34
f 33/33/33 32/32/32 34/34/34
f 35/35/35 24/24/24 25/25/25
f 24/24/24 35/35/35 34/34/34
f 35/35/35 33/33/33 34/34/34
f 36/36/36 35/35/35 25/25/25
f 36/36/36 33/33/33 35/35/35
f 39/39/39 38/38/38 37/37/37
f 37/37/37 40/40/40 39/39/39
f 37/37/37 41/41/41 40/40/40
f 39/39/39 40/40/40 42/42/42
f 40/40/40 41/41/41 43/43/43
f 40/40/40 44/44/44 42/42/42
f 42/42/42 44/44/44 45/45/45
f 46/46/46 40/40/40 43/43/43
f 44/44/44 40/40/40 46/46/46
f 46/46/46 43/43/43 47/47/47
f 48/48/48 44/44/44 46/46/46
f 45/45/45 44/44/44 48/48/48
f 49/49/49 46/46/46 47/47/47
f 48/48/48 46/46/46 49/49/49
f 45/45/45 48/48/48 50/50/50
f 50/50/50 48/48/48 49/49/49
f 51/51/51 49/49/49 47/47/47
f 52/52/52 51/51/51 47/47/47
f 53/53/53 51/51/51 52/52/52
f 54/54/54 53/53/53 52/52/52
f 53/53/53 54/54/54 55/55/55
f 56/56/56 50/50/50 49/49/49
f 56/56/56 45/45/45 50/50/50
f 51/51/51 56/56/56 49/49/49
f 57/57/57 45/45/45 56/56/56
f 57/57/57 56/56/56 51/51/51
f 53/53/53 57/57/57 51/51/51
f 58/58/58 45/45/45 57/57/57
f 58/58/58 57/57/57 53/53/53
f 59/59/59 58/58/58 53/53/53
f 60/60/60 59/59/59 53/53/53
f 53/53/53 55/55/55 60/60/60
f 55/55/55 61/61/61 60/60/60
f 61/61/61 62/62/62 60/60/60
f 65/65/65 64/64/64 63/63/63
f 64/64/64 66/66/66 63/63/63
f 63/63/63 66/66/66 67/67/67
f 68/68/68 66/66/66 64/64/64
f 69/69/69 68/68/68 64/64/64
f 66/66/66 70/70/70 67/67/67
f 67/67/67 70/70/70 71/71/71
f 72/72/72 68/68/68 69/69/69
f 73/73/73 72/72/72 69/69/69
f 74/74/74 70/70/70 66/66/66
f 68/68/68 74/74/74 66/66/66
f 70/70/70 75/75/75 71/71/71
f 71/71/71 75/75/75 76/76/76
f 77/77/77 72/72/72 73/73/73
f 78/78/78 77/77/77 73/73/73
f 70/70/70 74/74/74 79/79/79
f 75/75/75 70/70/70 79/79/79
f 75/75/75 80/80/80 76/76/76
f 76/76/76 80/80/80 81/81/81
f 82/82/82 77/77/77 78/78/78
f 83/83/83 82/82/82 78/78/78
f 83/83/83 84/84/84 82/82/82
f 75/75/75 79/79/79 85/85/85
f 80/80/80 75/75/75 85/85/85
f 80/80/80 86/86/86 81/81/81
f 81/81/81 86/86/86 87/87/87
f 80/80/80 85/85/85 88/88/88
f 86/86/86 80/80/80 88/88/88
f 86/86/86 89/89/89 87/87/87
f 87/87/87 89/89/89 90/90/90
f 86/86/86 88/88/88 91/91/91
f 89/89/89 86/86/86 91/91/91
f 91/91/91 92/92/92 89/89/89
f 89/89/89 93/93/93 90/90/90
f 92/92/92 93/93/93 89/89/89
f 93/93/93 94/94/94 90/90/90
f 94/94/94 95/95/95 90/90/90
f 95/95/95 94/94/94 96/96/96
f 94/94/94 97/97/97 96/96/96
f 97/97/97 94/94/94 93/93/93
f 98/98/98 97/97/97 93/93/93
f 99/99/99 98/98/98 93/93/93
f 92/92/92 99/99/99 93/93/93
f 100/100/100 99/99/99 92/92/92
f 101/101/101 100/100/100 92/92/92
f 102/102/102 100/100/100 101/101/101
f 103/103/103 102/102/102 101/101/101
f 104/104/104 102/102/102 103/103/103
f 92/92/92 91/91/91 105/105/105
f 106/106/106 92/92/92 105/105/105
f 101/101/101 92/92/92 106/106/106
f 105/105/105 91/91/91 107/107/107
f 108/108/108 101/101/101 106/106/106
f 103/103/103 101/101/101 108/108/108
f 91/91/91 88/88/88 107/107/107
f 107/107/107 88/88/88 109/109/109
f 88/88/88 85/85/85 109/109/109
f 109/109/109 85/85/85 110/110/110
f 85/85/85 79/79/79 110/110/110
f 110/110/110 79/79/79 111/111/111
f 79/79/79 74/74/74 111/111/111
f 111/111/111 74/74/74 112/112/112
f 74/74/74 68/68/68 112/112/112
f 112/112/112 68/68/68 113/113/113
f 68/68/68 72/72/72 113/113/113
f 113/113/113 72/72/72 114/114/114
f 72/72/72 77/77/77 114/114/114
f 114/114/114 77/77/77 115/115/115
f 77/77/77 82/82/82 115/115/115
f 115/115/115 82/82/82 116/116/116
f 82/82/82 117/117/117 116/116/116
f 116/116/116 117/117/117 118/118/118
f 84/84/84 117/117/117 82/82/82
f 117/117/117 119/119/119 118/118/118
f 119/119/119 117/117/117 84/84/84
f 118/118/118 119/119/119 120/120/120
f 119/119/119 84/84/84 121/121/121
f 119/119/119 122/122/122 120/120/120
f 121/121/121 122/122/122 119/119/119
f 120/120/120 122/122/122 123/123/123
f 122/122/122 124/124/124 123/123/123
f 124/124/124 122/122/122 121/121/121
f 123/123/123 124/124/124 125/125/125
f 126/126/126 124/124/124 121/121/121
f 124/124/124 126/126/126 125/125/125
f 121/121/121 127/127/127 126/126/126
f 125/125/125 126/126/126 128/128/128
f 127/127/127 104/104/104 126/126/126
f 126/126/126 129/129/129 128/128/128
f 104/104/104 129/129/129 126/126/126
f 128/128/128 129/129/129 130/130/130
f 129/129/129 104/104/104 103/103/103
f 129/129/129 103/103/103 130/130/130
f 130/130/130 103/103/103 108/108/108
f 133/133/133 132/132/132 131/131/131
f 132/132/132 134/134/134 131/131/131
f 135/135/135 131/131/131 134/134/134
f 132/132/132 136/136/136 134/134/134
f 137/137/137 135/135/135 134/134/134
f 138/138/138 135/135/135 137/137/137
f 136/136/136 139/139/139 134/134/134
f 137/137/137 134/134/134 139/139/139
f 136/136/136 140/140/140 139/139/139
f 141/141/141 138/138/138 137/137/137
f 142/142/142 138/138/138 141/141/141
f 143/143/143 137/137/137 139/139/139
f 141/141/141 137/137/137 143/143/143
f 140/140/140 144/144/144 139/139/139
f 143/143/143 139/139/139 144/144/144
f 140/140/140 145/145/145 144/144/144
f 146/146/146 142/142/142 141/141/141
f 147/147/147 142/142/142 146/146/146
f 148/148/148 141/141/141 143/143/143
f 146/146/146 141/141/141 148/148/148
f 149/149/149 143/143/143 144/144/144
f 144/144/144 145/145/145 149/149/149
f 148/148/148 143/143/143 149/149/149
f 150/150/150 147/147/147 146/146/146
f 147/147/147 150/150/150 151/151/151
f 150/150/150 152/152/152 151/151/151
f 153/153/153 146/146/146 148/148/148
f 150/150/150 146/146/146 153/153/153
f 150/150/150 154/154/154 152/152/152
f 154/154/154 150/150/150 153/153/153
f 154/154/154 155/155/155 152/152/152
f 153/153/153 148/148/148 156/156/156
f 156/156/156 148/148/148 149/149/149
f 145/145/145 157/157/157 149/149/149
f 145/145/145 158/158/158 157/157/157
f 158/158/158 159/159/159 157/157/157
f 149/149/149 157/157/157 160/160/160
f 159/159/159 160/160/160 157/157/157
f 156/156/156 149/149/149 160/160/160
f 159/159/159 161/161/161 160/160/160
f 161/161/161 162/162/162 160/160/160
f 156/156/156 160/160/160 162/162/162
f 161/161/161 163/163/163 162/162/162
f 164/164/164 153/153/153 156/156/156
f 164/164/164 156/156/156 162/162/162
f 154/154/154 153/153/153 164/164/164
f 162/162/162 163/163/163 164/164/164
f 154/154/154 165/165/165 155/155/155
f 165/165/165 154/154/154 164/164/164
f 163/163/163 165/165/165 164/164/164
f 165/165/165 166/166/166 155/155/155
f 163/163/163 166/166/166 165/165/165
f 169/169/169 168/168/168 167/167/167
f 169/169/169 167/167/167 170/170/170
f 170/170/170 171/171/171 169/169/169
f 170/170/170 167/167/167 172/172/172
f 171/171/171 170/170/170 173/173/173
f 174/174/174 170/170/170 172/172/172
f 174/174/174 172/172/172 175/175/175
f 170/170/170 176/176/176 173/173/173
f 170/170/170 174/174/174 176/176/176
f 173/173/173 176/176/176 177/177/177
f 174/174/174 178/178/178 176/176/176
f 174/174/174 175/175/175 178/178/178
f 176/176/176 179/179/179 177/177/177
f 176/176/176 178/178/178 179/179/179
f 178/178/178 175/175/175 180/180/180
f 178/178/178 180/180/180 179/179/179
f 179/179/179 181/181/181 177/177/177
f 181/181/181 182/182/182 177/177/177
f 180/180/180 183/183/183 179/179/179
f 175/175/175 183/183/183 180/180/180
f 183/183/183 181/181/181 179/179/179
f 175/175/175 184/184/184 183/183/183
f 183/183/183 184/184/184 181/181/181
f 175/175/175 185/185/185 184/184/184
f 181/181/181 186/186/186 182/182/182
f 184/184/184 186/186/186 181/181/181
f 184/184/184 185/185/185 186/186/186
f 186/186/186 187/187/187 182/182/182
f 185/185/185 188/188/188 186/186/186
f 189/189/189 187/187/187 186/186/186
f 186/186/186 188/188/188 189/189/189
f 188/188/188 190/190/190 189/189/189
f 191/191/191 189/189/189 190/190/190
f 192/192/192 191/191/191 190/190/190
f 195/195/195 194/194/194 193/193/193
f 196/196/196 195/195/195 193/193/193
f 196/196/196 193/193/193 197/197/197
f 196/196/196 198/198/198 195/195/195
f 198/198/198 199/199/199 195/195/195
f 200/200/200 196/196/196 197/197/197
f 200/200/200 197/197/197 201/201/201
f 198/198/198 202/202/202 199/199/199
f 202/202/202 203/203/203 199/199/199
f 204/204/204 198/198/198 196/196/196
f 200/200/200 204/204/204 196/196/196
f 205/205/205 200/200/200 201/201/201
f 205/205/205 201/201/201 206/206/206
f 202/202/202 207/207/207 203/203/203
f 207/207/207 208/208/208 203/203/203
f 204/204/204 200/200/200 209/209/209
f 200/200/200 205/205/205 209/209/209
f 210/210/210 205/205/205 206/206/206
f 210/210/210 206/206/206 211/211/211
f 207/207/207 212/212/212 208/208/208
f 212/212/212 213/213/213 208/208/208
f 214/214/214 213/213/213 212/212/212
f 209/209/209 205/205/205 215/215/215
f 205/205/205 210/210/210 215/215/215
f 216/216/216 210/210/210 211/211/211
f 216/216/216 211/211/211 217/217/217
f 215/215/215 210/210/210 218/218/218
f 210/210/210 216/216/216 218/218/218
f 219/219/219 216/216/216 217/217/217
f 219/219/219 217/217/217 220/220/220
f 218/218/218 216/216/216 221/221/221
f 216/216/216 219/219/219 221/221/221
f 222/222/222 221/221/221 219/219/219
f 223/223/223 219/219/219 220/220/220
f 223/223/223 222/222/222 219/219/219
f 224/224/224 223/223/223 220/220/220
f 225/225/225 224/224/224 220/220/220
f 224/224/224 225/225/225 226/226/226
f 227/227/227 224/224/224 226/226/226
f 224/224/224 227/227/227 223/223/223
f 227/227/227 228/228/228 223/223/223
f 228/228/228 229/229/229 223/223/223
f 229/229/229 222/222/222 223/223/223
f 229/229/229 230/230/230 222/222/222
f 230/230/230 231/231/231 222/222/222
f 230/230/230 232/232/232 231/231/231
f 232/232/232 233/233/233 231/231/231
f 232/232/232 234/234/234 233/233/233
f 221/221/221 222/222/222 235/235/235
f 222/222/222 236/236/236 235/235/235
f 222/222/222 231/231/231 236/236/236
f 221/221/221 235/235/235 237/237/237
f 231/231/231 238/238/238 236/236/236
f 231/231/231 233/233/233 238/238/238
f 218/218/218 221/221/221 237/237/237
f 218/218/218 237/237/237 239/239/239
f 215/215/215 218/218/218 239/239/239
f 215/215/215 239/239/239 240/240/240
f 209/209/209 215/215/215 240/240/240
f 209/209/209 240/240/240 241/241/241
f 204/204/204 209/209/209 241/241/241
f 204/204/204 241/241/241 242/242/242
f 198/198/198 204/204/204 242/242/242
f 198/198/198 242/242/242 243/243/243
f 202/202/202 198/198/198 243/243/243
f 202/202/202 243/243/243 244/244/244
f 207/207/207 202/202/202 244/244/244
f 207/207/207 244/244/244 245/245/245
f 212/212/212 207/207/207 245/245/245
f 212/212/212 245/245/245 246/246/246
f 247/247/247 212/212/212 246/246/246
f 247/247/247 246/246/246 248/248/248
f 247/247/247 214/214/214 212/212/212
f 249/249/249 247/247/247 248/248/248
f 214/214/214 247/247/247 249/249/249
f 249/249/249 248/248/248 250/250/250
f 251/251/251 214/214/214 249/249/249
f 252/252/252 249/249/249 250/250/250
f 249/249/249 252/252/252 251/251/251
f 252/252/252 250/250/250 253/253/253
f 254/254/254 252/252/252 253/253/253
f 251/251/251 252/252/252 254/254/254
f 254/254/254 253/253/253 255/255/255
f 251/251/251 254/254/254 256/256/256
f 256/256/256 254/254/254 255/255/255
f 256/256/256 257/257/257 251/251/251
f 256/256/256 255/255/255 258/258/258
f 234/234/234 257/257/257 256/256/256
f 259/259/259 256/256/256 258/258/258
f 259/259/259 234/234/234 256/256/256
f 259/259/259 258/258/258 260/260/260
f 234/234/234 259/259/259 233/233/233
f 233/233/233 259/259/259 260/260/260
f 233/233/233 260/260/260 238/238/238
