g Helm
v 0.000276280654 -0.00182944979 0.0184869897
v 0.000263201888 -0.00176675676 0.0182013623
v 0.000108618828 -0.001943368 0.0181207433
v 0.000552242855 -0.00145295437 0.0184264854
v 0.000784231874 -0.00103519252 0.0186758246
v 0.000784946373 -0.00110198138 0.0182502139
v 0.000558757514 -0.0013874101 0.0180467088
v 0.000920769991 -0.0006221722 0.0183517467
v 0.000929648988 -0.000718636264 0.0188462883
v 0.000757714326 -0.000792759354 0.0175821111
v 0.0004048275 -0.00155877823 0.0179297868
v 0.000281580433 -0.00166984997 0.0178043954
v 0.000118063595 -0.00193384301 0.0179778468
v 0.000509001431 -0.00118920952 0.0173433013
v 0.000221568451 -0.00174697163 0.0177277103
v 0.000119758042 -0.00191613659 0.0176289715
v 0.000332579191 -0.00146862434 0.0171438344
v 0.000114383154 -0.00177696906 0.0170832518
v 5.08087505E-05 -0.0017736397 0.0170896128
v 0.000265662849 -0.00142412586 0.0171517506
v 0.000439331896 -0.00115053484 0.0173541941
v 0.000686701096 -0.000756134279 0.0175931342
v 0.00100852072 -0.00038233737 0.0177589785
v 0.000927925692 -0.000362276478 0.0177581422
v 0.000985135674 2.34311101E-05 0.017872287
v 0.000906116038 1.04221072E-05 0.0178621877
v 0.000949654495 -0.00017127968 0.0183856152
v 0.000818562054 0.000554068247 0.0179095063
v 0.000752269116 0.000504794938 0.017889116
v 0.00077832531 0.00041179551 0.0183841325
v 0.00043356992 0.000806198572 0.0179019291
v 0.000400140911 0.000737528724 0.0178767219
v 0.000968328794 -0.000243215749 0.0188930966
v 0.000786166929 0.000297823281 0.0188492667
v 0.00040722682 0.000559069042 0.0184769388
v -4.5654665E-06 0.000953471928 0.017902879
v -2.43316499E-05 0.00088201114 0.0178763978
v -4.5654665E-06 0.000706343038 0.0185697488
v 0.000380957616 0.000466609723 0.0188518129
v -4.5654665E-06 0.000613883487 0.0189514626
v 0.000414283626 0.000469624239 0.0192605145
v -4.5654665E-06 0.000611584808 0.0193748213
v 0.000796835404 0.000236785636 0.0191864651
v 0.000380287092 0.000273315294 0.0197789073
v -4.5654665E-06 0.00040595833 0.0198694933
v -4.5654665E-06 -0.000139852869 0.0202212594
v 0.000825438648 5.95309575E-05 0.0195372812
v 0.000961658778 -0.000269642769 0.0191854499
v 0.000489497965 -0.000235752232 0.0200461578
v 0.000948698027 -0.000753810222 0.0190909356
v 0.000834173814 -0.000331651623 0.0197025072
v 0.000387535809 -0.00084067561 0.0200660061
v -4.5654665E-06 -0.000875953934 0.0202205721
v 0.000885589223 -0.000984334969 0.0190420449
v 0.000814090774 -0.000982252299 0.0187919401
v 0.000779206806 -0.000870677875 0.0196644012
v 0.000328426948 -0.00137627986 0.0199173689
v -4.5654665E-06 -0.00144989497 0.020057831
v -4.5654665E-06 -0.00182797969 0.0196845941
v 0.000677582284 -0.0012754827 0.0195972398
v 0.00077149627 -0.00119705603 0.0190100148
v 0.000705777027 -0.00121174613 0.0187480617
v 0.000254713115 -0.00174516288 0.0195719041
v -4.5654665E-06 -0.00195258274 0.0191752147
v 0.00049838284 -0.00161164056 0.0194223467
v 0.000604323752 -0.0015145489 0.0190383326
v 0.000353508949 -0.00177254004 0.0186168216
v 0.00019944516 -0.00183791632 0.0191373844
v -4.5654665E-06 -0.00194770156 0.0188718978
v 0.000410481356 -0.00172325014 0.0190889109
v 0.000203653341 -0.00185976073 0.0187488627
v -4.5654665E-06 -0.00200875639 0.0187452268
v -4.5654665E-06 -0.0019452339 0.018564539
v -4.5654665E-06 -0.00194646756 0.0184634943
v 0.000213901265 -0.00183058798 0.0184855592
v 4.77121284E-05 -0.00194060034 0.0181220621
v 0.000201197865 -0.00176655233 0.0182023942
v 0.000487219484 -0.00140431314 0.0184173528
v 0.000714217313 -0.00102850306 0.0186765864
v 0.000710916414 -0.0010677086 0.018255258
v 0.000492623309 -0.0013436944 0.0180604793
v 0.000842444657 -0.000599343854 0.0183539595
v 0.000853872043 -0.000689746521 0.0188598614
v 0.000686701096 -0.000756134279 0.0175931342
v 0.000439331896 -0.00115053484 0.0173541941
v 0.000927925692 -0.000362276478 0.0177581422
v 0.000343969266 -0.00150831649 0.0179437827
v 0.000220550617 -0.00161750941 0.0178101044
v 4.70811756E-05 -0.0019306856 0.0179780852
v 0.000265662849 -0.00142412586 0.0171517506
v 0.000144584788 -0.00171638012 0.0177233536
v 4.80282761E-05 -0.00191593601 0.017630171
v 5.08087505E-05 -0.0017736397 0.0170896128
v 0.000868865056 -0.000181001204 0.0183812287
v 0.000906116038 1.04221072E-05 0.0178621877
v 0.000887237489 -0.000251858932 0.0188932195
v 0.000713797344 0.000355782511 0.0183661617
v 0.000752269116 0.000504794938 0.017889116
v 0.000400140911 0.000737528724 0.0178767219
v 0.000724926591 0.000235612795 0.0188394748
v 0.000375066622 0.000489585218 0.0184528865
v -4.5654665E-06 0.000634684984 0.0185474288
v -2.43316499E-05 0.00088201114 0.0178763978
v -4.5654665E-06 0.000706343038 0.0185697488
v 0.000350125134 0.000392363436 0.0188437011
v -4.5654665E-06 0.000539368019 0.0189427733
v 0.000378005876 0.000397843862 0.0192459319
v -4.5654665E-06 0.000537173939 0.0193599258
v 0.000731499225 0.000184020289 0.0191723257
v 0.00034027957 0.000217522858 0.0197317377
v -4.5654665E-06 0.000347139256 0.0198202077
v -4.5654665E-06 -0.000161137097 0.0201473795
v 0.000756968395 1.98009184E-05 0.0195033848
v 0.000881224987 -0.000278129563 0.0191750564
v 0.000443378201 -0.000252375205 0.0199773051
v 0.000868625822 -0.000740102783 0.0190846361
v 0.000762019074 -0.000335522374 0.0196598936
v 0.000344165979 -0.000827404263 0.019997431
v -4.5654665E-06 -0.000865516369 0.0201472603
v 0.000809152727 -0.000954654417 0.0190439355
v 0.000741917174 -0.000952972099 0.0188106224
v 0.000707926811 -0.000853080826 0.0196252596
v 0.000283382222 -0.00134004466 0.0198580753
v -4.5654665E-06 -0.00141262484 0.0199939497
v -4.5654665E-06 -0.0017629934 0.0196477938
v 0.000609440554 -0.00123967021 0.0195632763
v 0.000699794793 -0.0011598717 0.0190158226
v 0.000635606877 -0.00117682072 0.0187645983
v 0.000211458595 -0.0016816085 0.0195415635
v -4.5654665E-06 -0.00188111654 0.0191667955
v 0.000439224881 -0.00155602104 0.0194042549
v 0.0005363659 -0.00146984833 0.0190405045
v 0.000297131483 -0.00171286473 0.0186287109
v 0.000160329611 -0.00176815293 0.0191319231
v -4.5654665E-06 -0.00187992421 0.01885744
v 0.000360840437 -0.00165931997 0.0190843549
v 0.000159689254 -0.00179143436 0.0187450778
v -4.5654665E-06 -0.00194076949 0.0187408924
v -4.5654665E-06 -0.00187931967 0.0185795072
v -4.5654665E-06 -0.00189335062 0.018466929
v 0.00075736962 -0.000317991304 0.0196173321
v 0.00042402104 -0.000610280025 0.019753255
v 0.000257196109 -0.000317991304 0.0196173321
v 0.000924194523 -0.000610280025 0.019753255
v 0.000637925405 -0.000870103424 0.0196173321
v 0.00113809889 -0.000870103424 0.0196173321
v 0.000773609907 -0.000945258711 0.0192891881
v 0.00127378339 -0.000945258711 0.0192891881
v 0.000751589716 -0.00079172221 0.0189610422
v 0.0012517632 -0.00079172221 0.0189610422
v 0.000584765803 -0.000499432557 0.0188251212
v 0.00108493934 -0.000499432557 0.0188251212
v 0.0003708601 -0.000239609813 0.0189610422
v 0.000871033582 -0.000239609813 0.0189610422
v 0.000794914842 -0.000354816468 0.0195666775
v 0.000936053984 -0.000602101907 0.0196816716
v 0.000776285946 -0.000224919146 0.0192890577
v 0.00111702376 -0.000821920636 0.0195666775
v 0.000735350361 -0.000164454133 0.0192891881
v 0.00123181718 -0.000885504298 0.0192890577
v 0.000891078147 -0.000288503215 0.0190114342
v 0.00121318735 -0.000755607616 0.0190114342
v 0.00107204914 -0.000508321449 0.0188964419
v -0.000280846172 -0.00182944967 0.0184869897
v -0.000113184346 -0.001943368 0.0181207433
v -0.000267767347 -0.00176675676 0.0182013623
v -0.000556808372 -0.00145295437 0.0184264854
v -0.000788797333 -0.0010351924 0.0186758246
v -0.000789511832 -0.00110198138 0.0182502139
v -0.000563322974 -0.0013874101 0.0180467088
v -0.000925335509 -0.0006221722 0.0183517467
v -0.000934214506 -0.000718636264 0.0188462883
v -0.000762279844 -0.000792759354 0.0175821111
v -0.00040939296 -0.00155877823 0.0179297868
v -0.000286145922 -0.00166984997 0.0178043954
v -0.000122629077 -0.0019338429 0.0179778468
v -0.000513566891 -0.00118920952 0.0173433013
v -0.000226133896 -0.00174697163 0.0177277103
v -0.00012432356 -0.00191613636 0.0176289715
v -0.00033714468 -0.00146862434 0.0171438344
v -0.000118948636 -0.00177696906 0.0170832518
v -5.53741775E-05 -0.0017736397 0.0170896128
v -0.000270228367 -0.00142412586 0.0171517506
v -0.000443897356 -0.00115053472 0.0173541941
v -0.000691266556 -0.000756134279 0.0175931342
v -0.00101308629 -0.00038233737 0.0177589785
v -0.000932491152 -0.000362276478 0.0177581422
v -0.000989701017 2.34310701E-05 0.017872287
v -0.000910681556 1.0422058E-05 0.0178621877
v -0.000954219955 -0.000171279724 0.0183856152
v -0.000823127513 0.00055406813 0.0179095063
v -0.000756834575 0.00050479488 0.017889116
v -0.000782890827 0.000411795394 0.0183841325
v -0.000438135379 0.000806198572 0.0179019291
v -0.000404706399 0.000737528782 0.0178767219
v -0.000972894195 -0.000243215763 0.0188930966
v -0.000790732389 0.000297823193 0.0188492667
v -0.00041179228 0.000559068925 0.0184769388
v -4.5654665E-06 0.000953471928 0.017902879
v 1.97661175E-05 0.000882011198 0.0178763978
v -4.5654665E-06 0.000706343038 0.0185697488
v -0.000385523104 0.000466609694 0.0188518129
v -4.5654665E-06 0.000613883487 0.0189514626
v -0.000418849086 0.000469624123 0.0192605145
v -4.5654665E-06 0.000611584808 0.0193748213
v -0.000801400922 0.000236785592 0.0191864651
v -0.000384852552 0.000273315207 0.0197789073
v -4.5654665E-06 0.00040595833 0.0198694933
v -4.5654665E-06 -0.000139852869 0.0202212594
v -0.000830004108 5.95309211E-05 0.0195372812
v -0.000966224296 -0.000269642769 0.0191854499
v -0.000494063424 -0.000235752232 0.0200461578
v -0.000953263545 -0.000753810222 0.0190909356
v -0.000838739332 -0.000331651623 0.0197025072
v -0.000392101298 -0.000840675493 0.0200660061
v -4.5654665E-06 -0.000875953934 0.0202205721
v -0.000890154741 -0.000984334969 0.0190420449
v -0.000818656292 -0.000982252182 0.0187919401
v -0.000783772324 -0.000870677817 0.0196644012
v -0.000332992407 -0.00137627986 0.0199173689
v -4.5654665E-06 -0.00144989497 0.020057831
v -4.5654665E-06 -0.00182797969 0.0196845941
v -0.000682147802 -0.0012754827 0.0195972398
v -0.000776061788 -0.00119705603 0.0190100148
v -0.000710342487 -0.00121174613 0.0187480617
v -0.000259278546 -0.00174516288 0.0195719041
v -4.5654665E-06 -0.00195258274 0.0191752147
v -0.000502948358 -0.00161164056 0.0194223467
v -0.000608889211 -0.0015145489 0.0190383326
v -0.000358074409 -0.00177254004 0.0186168216
v -0.000204010663 -0.00183791621 0.0191373844
v -4.5654665E-06 -0.00194770156 0.0188718978
v -0.000415046845 -0.00172325014 0.0190889109
v -0.000208218815 -0.00185976049 0.0187488627
v -4.5654665E-06 -0.00200875639 0.0187452268
v -4.5654665E-06 -0.0019452339 0.018564539
v -4.5654665E-06 -0.00194646756 0.0184634943
v -0.000218466797 -0.00183058798 0.0184855592
v -0.000205763412 -0.00176655233 0.0182023942
v -5.2277639E-05 -0.00194060022 0.0181220621
v -0.000491785002 -0.00140431314 0.0184173528
v -0.000718782831 -0.00102850306 0.0186765864
v -0.000715481932 -0.0010677086 0.018255258
v -0.000497188827 -0.0013436944 0.0180604793
v -0.000847010175 -0.000599343854 0.0183539595
v -0.000858437561 -0.000689746521 0.0188598614
v -0.000691266556 -0.000756134279 0.0175931342
v -0.000443897356 -0.00115053472 0.0173541941
v -0.000932491152 -0.000362276478 0.0177581422
v -0.000348534755 -0.00150831649 0.0179437827
v -0.000225116135 -0.00161750941 0.0178101044
v -5.16466498E-05 -0.0019306856 0.0179780852
v -0.000270228367 -0.00142412586 0.0171517506
v -0.000149150306 -0.00171638012 0.0177233536
v -5.25937685E-05 -0.00191593601 0.017630171
v -5.53741775E-05 -0.0017736397 0.0170896128
v -0.000873430574 -0.000181001204 0.0183812287
v -0.000910681556 1.0422058E-05 0.0178621877
v -0.000891802949 -0.000251858932 0.0188932195
v -0.000718362862 0.000355782453 0.0183661617
v -0.000756834575 0.00050479488 0.017889116
v -0.000404706399 0.000737528782 0.0178767219
v -0.000729492051 0.000235612722 0.0188394748
v -0.000379632082 0.000489585102 0.0184528865
v -4.5654665E-06 0.000634684984 0.0185474288
v 1.97661175E-05 0.000882011198 0.0178763978
v -4.5654665E-06 0.000706343038 0.0185697488
v -0.000354690594 0.000392363465 0.0188437011
v -4.5654665E-06 0.000539368019 0.0189427733
v -0.000382571336 0.000397843833 0.0192459319
v -4.5654665E-06 0.000537173939 0.0193599258
v -0.000736064743 0.000184020217 0.0191723257
v -0.000344845001 0.000217522858 0.0197317377
v -4.5654665E-06 0.000347139256 0.0198202077
v -4.5654665E-06 -0.000161137097 0.0201473795
v -0.000761533913 1.98008856E-05 0.0195033848
v -0.000885790505 -0.000278129563 0.0191750564
v -0.000447943603 -0.000252375234 0.0199773051
v -0.00087319134 -0.000740102783 0.0190846361
v -0.000766584533 -0.000335522374 0.0196598936
v -0.000348731468 -0.000827404263 0.019997431
v -4.5654665E-06 -0.000865516369 0.0201472603
v -0.000813718187 -0.000954654417 0.0190439355
v -0.000746482692 -0.000952971983 0.0188106224
v -0.000712492329 -0.00085308071 0.0196252596
v -0.000287947623 -0.00134004466 0.0198580753
v -4.5654665E-06 -0.00141262484 0.0199939497
v -4.5654665E-06 -0.0017629934 0.0196477938
v -0.000614006014 -0.00123967021 0.0195632763
v -0.000704360311 -0.0011598717 0.0190158226
v -0.000640172337 -0.00117682072 0.0187645983
v -0.000216024055 -0.0016816085 0.0195415635
v -4.5654665E-06 -0.00188111654 0.0191667955
v -0.00044379037 -0.00155602104 0.0194042549
v -0.000540931418 -0.00146984833 0.0190405045
v -0.000301697 -0.00171286473 0.0186287109
v -0.000164895115 -0.00176815293 0.0191319231
v -4.5654665E-06 -0.00187992421 0.01885744
v -0.000365405926 -0.00165931997 0.0190843549
v -0.000164254729 -0.00179143436 0.0187450778
v -4.5654665E-06 -0.00194076949 0.0187408924
v -4.5654665E-06 -0.00187931967 0.0185795072
v -4.5654665E-06 -0.00189335062 0.018466929
v -4.5654665E-06 -0.00194646756 0.0184634943
v -4.5654665E-06 -0.00189335062 0.018466929
v -4.5654665E-06 -0.00187931967 0.0185795072
v -4.5654665E-06 -0.0019452339 0.018564539
v -4.5654665E-06 -0.00194076949 0.0187408924
v -4.5654665E-06 -0.00200875639 0.0187452268
v -4.5654665E-06 -0.00187992421 0.01885744
v -4.5654665E-06 -0.00194770156 0.0188718978
v -4.5654665E-06 -0.00188111654 0.0191667955
v -4.5654665E-06 -0.00195258274 0.0191752147
v -4.5654665E-06 -0.0017629934 0.0196477938
v -4.5654665E-06 -0.00182797969 0.0196845941
v -4.5654665E-06 -0.00141262484 0.0199939497
v -4.5654665E-06 -0.00144989497 0.020057831
v -4.5654665E-06 -0.000865516369 0.0201472603
v -4.5654665E-06 -0.000875953934 0.0202205721
v -4.5654665E-06 -0.000161137097 0.0201473795
v -4.5654665E-06 -0.000139852869 0.0202212594
v -4.5654665E-06 0.000347139256 0.0198202077
v -4.5654665E-06 0.00040595833 0.0198694933
v -4.5654665E-06 0.000537173939 0.0193599258
v -4.5654665E-06 0.000611584808 0.0193748213
v -4.5654665E-06 0.000539368019 0.0189427733
v -4.5654665E-06 0.000613883487 0.0189514626
v -4.5654665E-06 0.000634684984 0.0185474288
v -4.5654665E-06 0.000706343038 0.0185697488
v -0.00076193508 -0.000317991304 0.0196173321
v -0.000261761685 -0.000317991304 0.0196173321
v -0.000428586471 -0.000610280025 0.019753255
v -0.000928759982 -0.000610280025 0.019753255
v -0.000642490922 -0.000870103366 0.0196173321
v -0.00114266435 -0.000870103366 0.0196173321
v -0.000778175425 -0.000945258711 0.0192891881
v -0.00127834897 -0.000945258711 0.0192891881
v -0.000756155234 -0.00079172221 0.0189610422
v -0.00125632866 -0.00079172221 0.0189610422
v -0.000589331263 -0.000499432557 0.0188251212
v -0.00108950469 -0.000499432557 0.0188251212
v -0.000375425559 -0.000239609828 0.0189610422
v -0.000875599042 -0.000239609828 0.0189610422
v -0.00079948036 -0.000354816468 0.0195666775
v -0.000940619386 -0.000602101907 0.0196816716
v -0.000780851464 -0.00022491916 0.0192890577
v -0.00112158922 -0.000821920636 0.0195666775
v -0.000739915879 -0.000164454163 0.0192891881
v -0.00123638252 -0.000885504298 0.0192890577
v -0.000895643665 -0.000288503215 0.0190114342
v -0.00121775281 -0.000755607616 0.0190114342
v -0.00107661448 -0.000508321449 0.0188964419
v -4.5654665E-06 -0.00189335062 0.018466929
v 0.000297131483 -0.00171286473 0.0186287109
v 0.000635606877 -0.00117682072 0.0187645983
v 0.000741917174 -0.000952972099 0.0188106224
v 0.000853872043 -0.000689746521 0.0188598614
v 0.000714217313 -0.00102850306 0.0186765864
v 0.000213901265 -0.00183058798 0.0184855592
v 4.77121284E-05 -0.00194060034 0.0181220621
v 0.000201197865 -0.00176655233 0.0182023942
v 4.70811756E-05 -0.0019306856 0.0179780852
v 4.80282761E-05 -0.00191593601 0.017630171
v -4.5654665E-06 -0.00189335062 0.018466929
v -0.000301697 -0.00171286473 0.0186287109
v -0.000640172337 -0.00117682072 0.0187645983
v -0.000746482692 -0.000952971983 0.0188106224
v -0.000858437561 -0.000689746521 0.0188598614
v -0.000718782831 -0.00102850306 0.0186765864
v -0.000218466797 -0.00183058798 0.0184855592
v -5.2277639E-05 -0.00194060022 0.0181220621
v -0.000205763412 -0.00176655233 0.0182023942
v -5.16466498E-05 -0.0019306856 0.0179780852
v -5.25937685E-05 -0.00191593601 0.017630171
v 7.13989139E-05 -0.00182646886 0.0190806594
v 2.40206714E-06 -0.00189546566 0.0191102587
v 2.40206714E-06 -0.00179788948 0.0190806594
v 0.00012420713 -0.001773661 0.0189688914
v 0.000174660076 -0.00189546566 0.0189688914
v 9.99784461E-05 -0.00189546566 0.0190806594
v 2.40206714E-06 -0.00189546566 0.0191102587
v 2.40206714E-06 -0.00172320777 0.0189688914
v -6.65944826E-05 -0.00182646886 0.0190806594
v 2.40206714E-06 -0.00189546566 0.0191102587
v 0.000124206839 -0.00201727031 0.0189688914
v 7.13989139E-05 -0.00196446222 0.0190806594
v 2.40206714E-06 -0.00189546566 0.0191102587
v 0.000148435225 -0.00189546566 0.0188370515
v 0.000105663239 -0.00179220468 0.0188370515
v 0.000105663239 -0.00199872651 0.0188370515
v -0.00011940211 -0.001773661 0.0189688914
v 2.40206714E-06 -0.00174943253 0.0188370515
v -9.51740149E-05 -0.00189546566 0.0190806594
v 2.40206714E-06 -0.00189546566 0.0191102587
v -0.000169855353 -0.00189546554 0.0189688914
v -0.000100858808 -0.00179220468 0.0188370515
v -0.000143630794 -0.00189546566 0.0188370515
v -2.18260284E-05 -0.00187123707 0.0187623687
v -3.18619605E-05 -0.00189546566 0.0187623687
v 2.40206714E-06 -0.00189546566 0.0187589936
v 2.40206714E-06 -0.00186120148 0.0187623687
v 2.40206714E-06 -0.00189546566 0.0187589936
v 2.66307579E-05 -0.00187123707 0.0187623687
v 2.40206714E-06 -0.00189546566 0.0187589936
v 3.66663917E-05 -0.00189546566 0.0187623687
v 2.40206714E-06 -0.00189546566 0.0187589936
v 2.66307579E-05 -0.00191969401 0.0187623687
v 2.40206714E-06 -0.00189546566 0.0187589936
v 2.40206714E-06 -0.00192972971 0.0187623687
v 2.40206714E-06 -0.00189546566 0.0187589936
v 2.40206714E-06 -0.00204149866 0.0188370515
v -2.18260284E-05 -0.00191969401 0.0187623687
v 2.40206714E-06 -0.00189546566 0.0187589936
v 2.40206714E-06 -0.00206772331 0.0189688914
v -0.000100858808 -0.00199872628 0.0188370515
v 2.40206714E-06 -0.00199304149 0.0190806594
v 2.40206714E-06 -0.00189546566 0.0191102587
v 2.40206714E-06 -0.00189546566 0.0187589936
v -0.000143630794 -0.00189546566 0.0188370515
v -0.000119402408 -0.00201727008 0.0189688914
v -0.000169855353 -0.00189546554 0.0189688914
v -6.65944826E-05 -0.00196446222 0.0190806594
v 2.40206714E-06 -0.00189546566 0.0191102587
v -9.51740149E-05 -0.00189546566 0.0190806594
v 2.40206714E-06 -0.00189546566 0.0191102587
v 0.00155636505 -0.000169709601 0.020300528
v 0.00152958429 -5.5234661E-05 0.0202804413
v 0.00137847825 -0.000137056079 0.0200143717
v 0.00141027884 -0.000276933337 0.020040717
v 0.00145460444 -1.83454285E-05 0.0199525133
v 0.00133389281 -0.000328881841 0.0200898089
v 0.00128277729 -0.000112373666 0.0200466383
v 0.00165477674 -0.000237426808 0.0202776436
v 0.00144347618 -2.53578619E-05 0.0203296021
v 0.00148925313 -0.000214851083 0.0203661155
v 0.00165170338 -0.000326369685 0.0203298349
v 0.00152058946 -0.000456299022 0.0200535618
v 0.00139582541 6.6396562E-05 0.019949561
v 0.00154000369 0.00013110615 0.0202419031
v 0.00153148966 -0.000359600032 0.0200178623
v 0.00176863221 -0.000217430905 0.020220032
v 0.0015901759 4.25013313E-05 0.0202274024
v 0.00159239955 5.99117857E-06 0.0198997464
v 0.00183404342 -0.000294589117 0.0202388763
v 0.00173174986 -0.000419987628 0.0199555028
v 0.00160392746 0.000102708356 0.0198638625
v 0.00171997037 0.00016288714 0.0201618318
v 0.00167244521 -0.000335343764 0.0199535731
v 0.00182662078 -0.000120402496 0.0201767627
v 0.0017015154 6.2577572E-05 0.0201799273
v 0.00171194354 -7.63571443E-05 0.0198807754
v 0.00192754518 -0.000138124917 0.0201618318
v 0.00184100226 -0.000241217291 0.0198704973
v 0.00178805646 -2.47093067E-05 0.0198325329
v 0.00188029453 5.13681043E-05 0.0201299135
v 0.00174524402 -0.000217340785 0.0199028198
v 0.00179867551 -4.82115865E-06 0.0201604031
v 0.000235176907 -0.000164454133 0.0192891881
v -0.000239742381 -0.000164454163 0.0192891881
v -0.000776285888 -0.000224919131 0.0192890558
v -0.00146236829 0.000333070697 0.0194696262
v -0.000891078089 -0.000288503186 0.0190114342
v -0.00128243491 0.000326165435 0.0195940547
v -0.000794914784 -0.00035481641 0.0195666756
v -0.00163199985 0.000199095099 0.0194352474
v -0.00107204902 -0.000508321391 0.01889644
v -0.00119760097 0.000182423013 0.0197356399
v -0.000936053868 -0.000602101849 0.0196816698
v -0.00169195957 2.71856743E-06 0.0195110571
v -0.00121318735 -0.000755607558 0.0190114342
v -0.00125756161 -1.39527756E-05 0.0198114514
v -0.00111702376 -0.000821920519 0.0195666756
v -0.00160712597 -0.000141022974 0.0196526479
v -0.00123181706 -0.00088550424 0.0192890558
v -0.00142719201 -0.000147929066 0.0197770707
v -0.00182722951 0.000494085252 0.0199880376
v -0.00170496805 0.000576326041 0.0200206079
v -0.00171096122 0.000423912512 0.0206731651
v -0.00186326203 0.000347887981 0.0199980531
v -0.00155260786 0.000546434254 0.0200534631
v -0.00179195881 0.000223374096 0.0200447962
v -0.00148130523 0.000421921228 0.0201002005
v -0.0016550885 0.000193483298 0.0201008767
v -0.00151733763 0.000275723607 0.0201102179
v 0.000776285597 -0.000224919102 0.019289054
v 0.000891078031 -0.000288503215 0.0190114323
v 0.00146236806 6.46959415E-06 0.0195936821
v 0.00128243468 -1.58662806E-05 0.0197162833
v 0.000794914551 -0.000354816351 0.0195666738
v 0.00163199939 -0.000122186495 0.019542899
v 0.00107204891 -0.000508321391 0.0188964382
v 0.00119760097 -0.000176110785 0.0198388807
v 0.000936053984 -0.000602101733 0.0196816679
v 0.00169195957 -0.00032647053 0.0195936821
v 0.00121318712 -0.000755607383 0.0190114323
v 0.00125756161 -0.000380394224 0.0198896658
v 0.00111702352 -0.000821920519 0.0195666738
v 0.00160712563 -0.000486714765 0.0197162833
v 0.00123181695 -0.000885504065 0.019289054
v 0.00142719201 -0.000509050791 0.0198388807
v 0.00182722916 1.24413327E-05 0.0201356448
v 0.00170496758 9.74846989E-05 0.020159984
v 0.00156772672 7.32488043E-05 0.0202210471
v 0.00186326203 -0.000132064248 0.020159984
v 0.00149411568 -4.6069159E-05 0.0202879235
v 0.0015290248 -0.000190574894 0.0203157682
v 0.00179195846 -0.000251382357 0.0202187374
v 0.00165290781 -0.00027561796 0.0202881042
v 0.00185843627 0.000215029402 0.0207524728
v 0.00196638005 0.00013449305 0.0207162015
v 0.00173750857 0.000205608492 0.0208452716
v 0.00199946738 1.1177819E-05 0.0207634754
v 0.00167258224 0.000111749825 0.0209405255
v 0.00170285045 -1.15655521E-05 0.0209881961
v 0.00193629437 -8.26809992E-05 0.0208669156
v 0.00181254768 -9.21016908E-05 0.0209601168
v 0.0021040237 0.000289818272 0.0212517213
v 0.00201498554 0.000350582064 0.0212616418
v 0.00192564412 0.000343474618 0.0213084593
v 0.00213593664 0.000196776688 0.0212836191
v 0.00187938823 0.000272658042 0.0213638507
v 0.00190331286 0.00017961688 0.0213953927
v 0.00207973272 0.000125961145 0.0213385578
v 0.00198340416 0.000118852658 0.0213845875
v 0.002390699 0.000461738906 0.0215307344
v 0.00232519675 0.000504576776 0.0215469599
v 0.00265529519 0.000598340936 0.021690581
v 0.00242062099 0.000403385347 0.021554308
v 0.00226066797 0.000506805256 0.0215926804
v 0.00239744852 0.000363699102 0.0216048006
v 0.00223491644 0.000467119622 0.0216420405
v 0.00233292021 0.000365928339 0.0216518659
v 0.0022648375 0.000408766035 0.0216669571
v 0.000267653406 -0.00137170719 0.0186818298
v 0.000288132112 -0.00135967741 0.0187459905
v 0.000438278716 -0.0013052813 0.0186820533
v 0.000522439892 -0.00127537351 0.018757876
v -0.000268708827 -0.00137170719 0.0186818521
v -0.000439334137 -0.0013052813 0.0186820757
v -0.000289187505 -0.00135967741 0.0187460147
v -0.000523495313 -0.00127537351 0.0187578984
vt 0.257371694 0.176765591
vt 0.252087057 0.155112654
vt 0.232560456 0.147948116
vt 0.279390007 0.164685041
vt 0.31515047 0.17722258
vt 0.311099648 0.141796798
vt 0.282999963 0.130022913
vt 0.348440468 0.148298413
vt 0.347576976 0.18613562
vt 0.315755606 0.0813461095
vt 0.265294284 0.123644143
vt 0.250749171 0.116053492
vt 0.232410878 0.133255929
vt 0.280596882 0.0664560348
vt 0.240553409 0.110096067
vt 0.226681024 0.103473872
vt 0.249577165 0.0631923825
vt 0.22202161 0.0633983761
vt 0.22202161 0.0633983761
vt 0.249577165 0.0631923825
vt 0.280596882 0.0664560348
vt 0.315755606 0.0813461095
vt 0.356360763 0.0916757733
vt 0.356360763 0.0916757733
vt 0.389603853 0.089188382
vt 0.389603853 0.089188382
vt 0.379222363 0.139671654
vt 0.431413233 0.0857309252
vt 0.431413233 0.0857309252
vt 0.421828002 0.135774106
vt 0.462151438 0.101202637
vt 0.462151438 0.101202637
vt 0.377377599 0.172504455
vt 0.419908017 0.168731898
vt 0.451105565 0.151019663
vt 0.492889673 0.116673917
vt 0.492889673 0.116673917
vt 0.480383068 0.166265517
vt 0.447193533 0.183604687
vt 0.474479049 0.198477477
vt 0.445463657 0.207871825
vt 0.472389132 0.215931624
vt 0.418538153 0.199812025
vt 0.432548344 0.257192582
vt 0.454874724 0.276033729
vt 0.421653688 0.313451678
vt 0.410222054 0.238351136
vt 0.380541742 0.19670257
vt 0.404207319 0.285383314
vt 0.349879533 0.204025239
vt 0.386760861 0.257314891
vt 0.369848073 0.299940079
vt 0.37950328 0.3316333
vt 0.335155219 0.208886236
vt 0.328819573 0.190731376
vt 0.360192806 0.268246919
vt 0.334397316 0.302220553
vt 0.331704378 0.332868725
vt 0.288333863 0.3115336
vt 0.337090224 0.271572441
vt 0.320882082 0.215414613
vt 0.309749067 0.197358042
vt 0.298130661 0.289935201
vt 0.263967246 0.277788669
vt 0.307927519 0.268336743
vt 0.299248964 0.233791679
vt 0.266483039 0.216787606
vt 0.274915546 0.26407066
vt 0.2516343 0.25538072
vt 0.285863817 0.250352591
vt 0.259058684 0.236084133
vt 0.239157259 0.244318932
vt 0.237990707 0.233605355
vt 0.236824274 0.222891778
vt 0.257371694 0.176765591
vt 0.232560456 0.147948116
vt 0.252087057 0.155112654
vt 0.279390007 0.164685041
vt 0.31515047 0.17722258
vt 0.311099648 0.141796798
vt 0.282999963 0.130022913
vt 0.348440468 0.148298413
vt 0.347576976 0.18613562
vt 0.315755606 0.0813461095
vt 0.280596882 0.0664560348
vt 0.356360763 0.0916757733
vt 0.265294284 0.123644143
vt 0.250749171 0.116053492
vt 0.232410878 0.133255929
vt 0.249577165 0.0631923825
vt 0.240553409 0.110096067
vt 0.226681024 0.103473872
vt 0.22202161 0.0633983761
vt 0.379222363 0.139671654
vt 0.389603853 0.089188382
vt 0.377377599 0.172504455
vt 0.421828002 0.135774106
vt 0.431413233 0.0857309252
vt 0.462151438 0.101202637
vt 0.419908017 0.168731898
vt 0.451105565 0.151019663
vt 0.480383068 0.166265517
vt 0.492889673 0.116673917
vt 0.480383068 0.166265517
vt 0.447193533 0.183604687
vt 0.474479049 0.198477477
vt 0.445463657 0.207871825
vt 0.472389132 0.215931624
vt 0.418538153 0.199812025
vt 0.432548344 0.257192582
vt 0.454874724 0.276033729
vt 0.421653688 0.313451678
vt 0.410222054 0.238351136
vt 0.380541742 0.19670257
vt 0.404207319 0.285383314
vt 0.349879533 0.204025239
vt 0.386760861 0.257314891
vt 0.369848073 0.299940079
vt 0.37950328 0.3316333
vt 0.335155219 0.208886236
vt 0.328819573 0.190731376
vt 0.360192806 0.268246919
vt 0.334397316 0.302220553
vt 0.331704378 0.332868725
vt 0.288333863 0.3115336
vt 0.337090224 0.271572441
vt 0.320882082 0.215414613
vt 0.309749067 0.197358042
vt 0.298130661 0.289935201
vt 0.263967246 0.277788669
vt 0.307927519 0.268336743
vt 0.299248964 0.233791679
vt 0.266483039 0.216787606
vt 0.274915546 0.26407066
vt 0.2516343 0.25538072
vt 0.285863817 0.250352591
vt 0.259058684 0.236084133
vt 0.239157259 0.244318932
vt 0.237990707 0.233605355
vt 0.236824274 0.222891778
vt 0.227351636 0.172366649
vt 0.220867485 0.185987562
vt 0.217551827 0.182611793
vt 0.235416472 0.187580973
vt 0.222332329 0.192107201
vt 0.233312041 0.203661576
vt 0.217680722 0.198336989
vt 0.221403986 0.214742467
vt 0.209525555 0.196526483
vt 0.204891503 0.214340255
vt 0.206131965 0.189822525
vt 0.191427201 0.20113948
vt 0.209049523 0.18398416
vt 0.19128418 0.179442063
vt 0.230341941 0.16863592
vt 0.239081115 0.186912015
vt 0.208442748 0.160848036
vt 0.23698923 0.205572054
vt 0.209559798 0.166439503
vt 0.223038614 0.21887441
vt 0.18487522 0.176232606
vt 0.202960491 0.21887441
vt 0.186116785 0.203334719
vt 0.257371694 0.176765591
vt 0.232560456 0.147948116
vt 0.252087057 0.155112654
vt 0.279390007 0.164685041
vt 0.31515047 0.17722258
vt 0.311099648 0.141796798
vt 0.282999963 0.130022913
vt 0.348440468 0.148298413
vt 0.347576976 0.18613562
vt 0.315755606 0.0813461095
vt 0.265294284 0.123644143
vt 0.250749171 0.116053492
vt 0.232410878 0.133255929
vt 0.280596882 0.0664560348
vt 0.240553409 0.110096067
vt 0.226681024 0.103473872
vt 0.249577165 0.0631923825
vt 0.22202161 0.0633983761
vt 0.22202161 0.0633983761
vt 0.249577165 0.0631923825
vt 0.280596882 0.0664560348
vt 0.315755606 0.0813461095
vt 0.356360763 0.0916757733
vt 0.356360763 0.0916757733
vt 0.389603853 0.089188382
vt 0.389603853 0.089188382
vt 0.379222363 0.139671654
vt 0.431413233 0.0857309252
vt 0.431413233 0.0857309252
vt 0.421828002 0.135774106
vt 0.462151438 0.101202637
vt 0.462151438 0.101202637
vt 0.377377599 0.172504455
vt 0.419908017 0.168731898
vt 0.451105565 0.151019663
vt 0.492889673 0.116673917
vt 0.492889673 0.116673917
vt 0.480383068 0.166265517
vt 0.447193533 0.183604687
vt 0.474479049 0.198477477
vt 0.445463657 0.207871825
vt 0.472389132 0.215931624
vt 0.418538153 0.199812025
vt 0.432548344 0.257192582
vt 0.454874724 0.276033729
vt 0.421653688 0.313451678
vt 0.410222054 0.238351136
vt 0.380541742 0.19670257
vt 0.404207319 0.285383314
vt 0.349879533 0.204025239
vt 0.386760861 0.257314891
vt 0.369848073 0.299940079
vt 0.37950328 0.3316333
vt 0.335155219 0.208886236
vt 0.328819573 0.190731376
vt 0.360192806 0.268246919
vt 0.334397316 0.302220553
vt 0.331704378 0.332868725
vt 0.288333863 0.3115336
vt 0.337090224 0.271572441
vt 0.320882082 0.215414613
vt 0.309749067 0.197358042
vt 0.298130661 0.289935201
vt 0.263967246 0.277788669
vt 0.307927519 0.268336743
vt 0.299248964 0.233791679
vt 0.266483039 0.216787606
vt 0.274915546 0.26407066
vt 0.2516343 0.25538072
vt 0.285863817 0.250352591
vt 0.259058684 0.236084133
vt 0.239157259 0.244318932
vt 0.237990707 0.233605355
vt 0.236824274 0.222891778
vt 0.257371694 0.176765591
vt 0.252087057 0.155112654
vt 0.232560456 0.147948116
vt 0.279390007 0.164685041
vt 0.31515047 0.17722258
vt 0.311099648 0.141796798
vt 0.282999963 0.130022913
vt 0.348440468 0.148298413
vt 0.347576976 0.18613562
vt 0.315755606 0.0813461095
vt 0.280596882 0.0664560348
vt 0.356360763 0.0916757733
vt 0.265294284 0.123644143
vt 0.250749171 0.116053492
vt 0.232410878 0.133255929
vt 0.249577165 0.0631923825
vt 0.240553409 0.110096067
vt 0.226681024 0.103473872
vt 0.22202161 0.0633983761
vt 0.379222363 0.139671654
vt 0.389603853 0.089188382
vt 0.377377599 0.172504455
vt 0.421828002 0.135774106
vt 0.431413233 0.0857309252
vt 0.462151438 0.101202637
vt 0.419908017 0.168731898
vt 0.451105565 0.151019663
vt 0.480383068 0.166265517
vt 0.492889673 0.116673917
vt 0.480383068 0.166265517
vt 0.447193533 0.183604687
vt 0.474479049 0.198477477
vt 0.445463657 0.207871825
vt 0.472389132 0.215931624
vt 0.418538153 0.199812025
vt 0.432548344 0.257192582
vt 0.454874724 0.276033729
vt 0.421653688 0.313451678
vt 0.410222054 0.238351136
vt 0.380541742 0.19670257
vt 0.404207319 0.285383314
vt 0.349879533 0.204025239
vt 0.386760861 0.257314891
vt 0.369848073 0.299940079
vt 0.37950328 0.3316333
vt 0.335155219 0.208886236
vt 0.328819573 0.190731376
vt 0.360192806 0.268246919
vt 0.334397316 0.302220553
vt 0.331704378 0.332868725
vt 0.288333863 0.3115336
vt 0.337090224 0.271572441
vt 0.320882082 0.215414613
vt 0.309749067 0.197358042
vt 0.298130661 0.289935201
vt 0.263967246 0.277788669
vt 0.307927519 0.268336743
vt 0.299248964 0.233791679
vt 0.266483039 0.216787606
vt 0.274915546 0.26407066
vt 0.2516343 0.25538072
vt 0.285863817 0.250352591
vt 0.259058684 0.236084133
vt 0.239157259 0.244318932
vt 0.237990707 0.233605355
vt 0.236824274 0.222891778
vt 0.236824274 0.222891778
vt 0.236824274 0.222891778
vt 0.237990707 0.233605355
vt 0.237990707 0.233605355
vt 0.239157259 0.244318932
vt 0.239157259 0.244318932
vt 0.2516343 0.25538072
vt 0.2516343 0.25538072
vt 0.263967246 0.277788669
vt 0.263967246 0.277788669
vt 0.288333863 0.3115336
vt 0.288333863 0.3115336
vt 0.331704378 0.332868725
vt 0.331704378 0.332868725
vt 0.37950328 0.3316333
vt 0.37950328 0.3316333
vt 0.421653688 0.313451678
vt 0.421653688 0.313451678
vt 0.454874724 0.276033729
vt 0.454874724 0.276033729
vt 0.472389132 0.215931624
vt 0.472389132 0.215931624
vt 0.474479049 0.198477477
vt 0.474479049 0.198477477
vt 0.480383068 0.166265517
vt 0.480383068 0.166265517
vt 0.227351636 0.172366649
vt 0.217551827 0.182611793
vt 0.220867485 0.185987562
vt 0.235416472 0.187580973
vt 0.222332329 0.192107201
vt 0.233312041 0.203661576
vt 0.217680722 0.198336989
vt 0.221403986 0.214742467
vt 0.209525555 0.196526483
vt 0.204891503 0.214340255
vt 0.206131965 0.189822525
vt 0.191427201 0.20113948
vt 0.209049523 0.18398416
vt 0.19128418 0.179442063
vt 0.230341941 0.16863592
vt 0.239081115 0.186912015
vt 0.208442748 0.160848036
vt 0.23698923 0.205572054
vt 0.209559798 0.166439503
vt 0.223038614 0.21887441
vt 0.18487522 0.176232606
vt 0.202960491 0.21887441
vt 0.186116785 0.203334719
vt 0.236824274 0.222891778
vt 0.266483039 0.216787606
vt 0.309749067 0.197358042
vt 0.328819573 0.190731376
vt 0.347576976 0.18613562
vt 0.31515047 0.17722258
vt 0.257371694 0.176765591
vt 0.232560456 0.147948116
vt 0.252087057 0.155112654
vt 0.232410878 0.133255929
vt 0.226681024 0.103473872
vt 0.236824274 0.222891778
vt 0.266483039 0.216787606
vt 0.309749067 0.197358042
vt 0.328819573 0.190731376
vt 0.347576976 0.18613562
vt 0.31515047 0.17722258
vt 0.257371694 0.176765591
vt 0.232560456 0.147948116
vt 0.252087057 0.155112654
vt 0.232410878 0.133255929
vt 0.226681024 0.103473872
vt 0 0
vt 0 0
vt 0 0
vt 0 0
vt 0 0
vt 0 0
vt 0 0
vt 0 0
vt 0 0
vt 0 0
vt 0 0
vt 0 0
vt 0 0
vt 0 0
vt 0 0
vt 0 0
vt 0 0
vt 0 0
vt 0 0
vt 0 0
vt 0 0
vt 0 0
vt 0 0
vt 0 0
vt 0 0
vt 0 0
vt 0 0
vt 0 0
vt 0 0
vt 0 0
vt 0 0
vt 0 0
vt 0 0
vt 0 0
vt 0 0
vt 0 0
vt 0 0
vt 0 0
vt 0 0
vt 0 0
vt 0 0
vt 0 0
vt 0 0
vt 0 0
vt 0 0
vt 0 0
vt 0 0
vt 0 0
vt 0 0
vt 0 0
vt 0 0
vt 0 0
vt 0 0
vt 0 0
vt 0 0
vt 0 0
vt 0 0
vt 0 0
vt 0 0
vt 0 0
vt 0 0
vt 0 0
vt 0 0
vt 0 0
vt 0 0
vt 0 0
vt 0 0
vt 0 0
vt 0 0
vt 0 0
vt 0 0
vt 0 0
vt 0 0
vt 0 0
vt 0 0
vt 0 0
vt 0 0
vt 0 0
vt 0 0
vt 0 0
vt 0 0
vt 0 0
vt 0 0
vt 0.213611424 0.18282333
vt 0.213611424 0.18282333
vt 0 0
vt 0 0
vt 0 0
vt 0 0
vt 0 0
vt 0 0
vt 0 0
vt 0 0
vt 0 0
vt 0 0
vt 0 0
vt 0 0
vt 0 0
vt 0 0
vt 0 0
vt 0 0
vt 0 0
vt 0 0
vt 0 0
vt 0 0
vt 0 0
vt 0 0
vt 0 0
vt 0 0
vt 0 0
vt 0 0
vt 0 0
vt 0 0
vt 0 0
vt 0 0
vt 0 0
vt 0 0
vt 0 0
vt 0 0
vt 0 0
vt 0 0
vt 0 0
vt 0 0
vt 0 0
vt 0 0
vt 0 0
vt 0 0
vt 0 0
vt 0 0
vt 0 0
vt 0 0
vt 0 0
vt 0 0
vt 0 0
vt 0 0
vt 0 0
vt 0 0
vt 0 0
vt 0 0
vt 0 0
vt 0 0
vt 0 0
vt 0 0
vt 0 0
vt 0 0
vt 0 0
vt 0 0
vt 0 0
vt 0 0
vt 0 0
vt 0 0
vt 0 0
vt 0 0
vt 0 0
vt 0 0
vt 0 0
vt 0 0
vt 0 0
vt 0 0
vt 0.495226532 0.907626212
vt 0.49282679 0.917740524
vt 0.475212604 0.90608722
vt 0.466285855 0.917481959
vt 0.495226532 0.907626212
vt 0.475212604 0.90608722
vt 0.49282679 0.917740524
vt 0.466285855 0.917481959
vn 0.428853422 -0.722628593 0.542118609
vn 0.734740317 -0.660479248 -0.154673219
vn 0.255964428 -0.649451256 -0.716027439
vn 0.811369479 -0.583268344 0.0384389982
vn 0.627149582 -0.516294897 0.583200634
vn 0.904272258 -0.419671506 -0.0785336196
vn 0.811485887 -0.562446177 -0.158571705
vn 0.976440847 -0.214148834 -0.026525544
vn 0.955714822 -0.267853558 -0.121916853
vn 0.686077058 -0.0219437107 -0.727197886
vn 0.769713223 -0.617615819 -0.161530793
vn 0.803106546 -0.581243157 -0.131057858
vn 0.376829237 -0.905434191 0.195419058
vn 0.708464921 -0.0126808342 -0.705632091
vn 0.846872151 -0.527140796 -0.070214875
vn 0.468734711 -0.874292016 -0.12610054
vn 0.63927573 -0.08862295 -0.763853729
vn 0.34199056 -0.54566735 -0.765042245
vn -0.733609498 -0.270365 -0.623474061
vn -0.505697191 0.591057718 -0.628427565
vn -0.519651175 0.693883896 -0.498485476
vn -0.596648216 0.606221437 -0.525838852
vn 0.800557315 0.00717732916 -0.599213183
vn -0.554268301 0.396667689 -0.731738508
vn 0.805309772 0.253451884 -0.53594625
vn -0.602000356 0.0181764755 -0.798288882
vn 0.991425276 0.114773363 0.0624736212
vn 0.688320935 0.572644353 -0.44530049
vn -0.317723691 -0.230118364 -0.919835389
vn 0.753631532 0.619641066 0.219281912
vn 0.392338663 0.815955937 -0.424601316
vn -0.163260862 -0.361263961 -0.918060124
vn 0.991672099 0.128784925 0.000901083287
vn 0.756066322 0.648160279 0.0908405632
vn 0.394492954 0.865991712 0.307300597
vn -0.408791065 0.835710645 -0.366711676
vn -0.672711968 -0.221544802 -0.705957949
vn 0.371409714 0.881411552 0.291836351
vn 0.377551168 0.919127584 0.112515464
vn 0.36470443 0.926939011 0.088174738
vn 0.435777873 0.883569956 0.171469748
vn 0.361742765 0.909999073 0.20259282
vn 0.772167206 0.613691032 0.164745897
vn 0.470686883 0.674280047 0.569034576
vn 0.383818328 0.712324977 0.587602437
vn 0.37031734 0.264413416 0.890477777
vn 0.799416482 0.460501432 0.385839134
vn 0.986626327 0.10628555 0.123579621
vn 0.539610624 0.195022583 0.819015622
vn 0.982005596 -0.172686666 0.0764476657
vn 0.859838545 0.0453311205 0.50854975
vn 0.530019045 -0.163561806 0.832062185
vn 0.383327991 -0.140524015 0.912859559
vn 0.930552304 -0.364730567 -0.0323100388
vn 0.540421724 -0.0955663621 -0.835949421
vn 0.851368308 -0.211206928 0.48017025
vn 0.549070537 -0.448222488 0.705420554
vn 0.429660916 -0.452469468 0.781449199
vn 0.430884778 -0.778066933 0.457110584
vn 0.812633872 -0.427375197 0.396202892
vn 0.88433212 -0.461045295 -0.0734429732
vn 0.576121747 -0.145879596 -0.804240584
vn 0.52117157 -0.770044029 0.367984056
vn 0.47561878 -0.876309633 0.076604113
vn 0.704489768 -0.668491602 0.23835519
vn 0.836542845 -0.547215462 -0.0274116024
vn 0.586277783 -0.460676521 -0.666374981
vn 0.490602612 -0.867676795 0.0802879035
vn 0.486351371 -0.858616889 0.161986083
vn 0.614784598 -0.786536813 0.0583066829
vn 0.490383446 -0.871505201 -0.00166906195
vn 0.581087768 -0.812975287 0.0375284888
vn 0.481217444 -0.871252656 -0.0966878682
vn 0.552242637 -0.504292309 -0.663865507
vn -0.665082276 -0.318241924 0.675564587
vn -0.796897292 -0.362932533 -0.482943803
vn -0.868264377 0.495384961 0.026658617
vn -0.830563068 0.556314588 0.0260592271
vn -0.708108783 0.0643807054 0.703162193
vn -0.903349578 0.418935001 0.0919407234
vn -0.820157528 0.547647774 0.165600434
vn -0.977815211 0.207247689 0.0304277036
vn -0.989312232 0.128690302 0.0685582384
vn -0.596648216 0.606221437 -0.525838852
vn -0.519651175 0.693883896 -0.498485476
vn -0.554268301 0.396667689 -0.731738508
vn -0.780559719 0.592743039 0.198449835
vn -0.809939563 0.563779593 0.161711007
vn -0.803310215 -0.492207408 0.335297644
vn -0.505697191 0.591057718 -0.628427565
vn -0.869119644 0.489278734 0.072369948
vn -0.833737791 -0.542587698 -0.102370895
vn -0.733609498 -0.270365 -0.623474061
vn -0.991600513 -0.113489747 -0.0620360486
vn -0.602000356 0.0181764755 -0.798288882
vn -0.991663933 -0.128845975 -0.0011539202
vn -0.753647685 -0.618805826 -0.221572712
vn -0.317723691 -0.230118364 -0.919835389
vn -0.163260862 -0.361263961 -0.918060124
vn -0.759173393 -0.645006001 -0.0873094723
vn -0.407033324 -0.860517502 -0.306322515
vn -0.708877385 -0.671919584 -0.214515671
vn -0.672711968 -0.221544802 -0.705957949
vn -0.991420388 0.117165327 0.057948675
vn -0.3916291 -0.913438499 -0.11071004
vn -0.38992849 -0.916989386 -0.0841800496
vn -0.448086262 -0.877974391 -0.168462962
vn -0.38672778 -0.899905145 -0.201524913
vn -0.771234155 -0.616180122 -0.159750074
vn -0.484666288 -0.668652952 -0.563916683
vn -0.412831813 -0.703379035 -0.578643084
vn -0.394230545 -0.262045413 -0.880860031
vn -0.799746573 -0.460780054 -0.384820938
vn -0.986842692 -0.105508961 -0.122513272
vn -0.54898864 -0.19347097 -0.813130021
vn -0.981762767 0.175052062 -0.0741523355
vn -0.85912931 -0.0474308245 -0.509555876
vn -0.543557882 0.162469923 -0.823497653
vn -0.414404958 0.139755189 -0.899298131
vn -0.93095839 0.36356315 0.0337392688
vn -0.728178561 0.446876079 -0.519670904
vn -0.851146698 0.211387694 -0.480483711
vn -0.568918169 0.441919893 -0.69356966
vn -0.4715074 0.441134632 -0.763597369
vn -0.482180923 0.756219447 -0.442304879
vn -0.813238204 0.426791966 -0.39559105
vn -0.884885252 0.460086048 0.0727929622
vn -0.672300816 0.493206859 -0.552049398
vn -0.54876864 0.756331742 -0.356111139
vn -0.548888147 0.832755923 -0.0723832473
vn -0.704154372 0.668121397 -0.240375891
vn -0.835952342 0.548101842 0.0277123041
vn -0.317788064 0.695663869 -0.644253433
vn -0.532476008 0.843112946 -0.0750327632
vn -0.568473697 0.806538284 -0.162276715
vn -0.61625582 0.785488784 -0.0568868183
vn -0.535521567 0.844307601 -0.0190085843
vn -0.671824157 0.739908755 -0.0344585851
vn -0.537908316 0.842466414 0.0300842673
vn 0.0422319286 0.596570432 -0.801448822
vn 0.382422984 0.707220972 0.594635367
vn -0.62429291 -0.289823741 0.725438237
vn -0.814282358 0.270160466 0.513768137
vn 0.478620917 0.189282805 0.857376277
vn -0.438296407 -0.805142879 0.399551451
vn 0.684335709 -0.368145406 0.629407287
vn -0.371123761 -0.917233944 -0.144738033
vn 0.842811584 -0.535950363 0.0492523201
vn -0.379385442 -0.70762831 -0.596094668
vn 0.816257954 -0.267928481 -0.511798024
vn -0.475926965 -0.187962592 -0.859164476
vn 0.626740277 0.290698409 -0.722973824
vn -0.682003617 0.370668441 -0.630456865
vn 0.441070497 0.804611623 -0.397563875
vn 0.810141027 0.551135778 0.199802086
vn 0.807057977 0.556537092 0.197291419
vn 0.810547113 0.548300922 0.205862954
vn 0.80310756 0.56133467 0.199803859
vn 0.374228567 0.91592139 0.145055294
vn 0.800600052 0.562724888 0.205864832
vn 0.808036685 0.549695075 0.211924359
vn 0.801006734 0.559889615 0.211924255
vn 0.804087102 0.554492056 0.214435369
vn -0.428851664 -0.722628534 0.542120099
vn -0.25597176 -0.649451315 -0.716024816
vn -0.734740674 -0.66047889 -0.15467298
vn -0.811368525 -0.583269536 0.0384400859
vn -0.627147079 -0.516296268 0.583202183
vn -0.904272258 -0.419671506 -0.0785336196
vn -0.811485887 -0.562446117 -0.158571675
vn -0.976440847 -0.214148834 -0.0265255626
vn -0.955714822 -0.267853409 -0.121917054
vn -0.686077952 -0.0219437219 -0.727196991
vn -0.769713223 -0.617615938 -0.161530554
vn -0.803106785 -0.581242859 -0.131057411
vn -0.376829147 -0.905434191 0.195419148
vn -0.708463371 -0.0126802875 -0.705633581
vn -0.846871376 -0.527142107 -0.0702144876
vn -0.468735188 -0.874291658 -0.12610057
vn -0.639273226 -0.088622652 -0.763855815
vn -0.341993272 -0.545666456 -0.765041709
vn 0.733607888 -0.270365715 -0.623475671
vn 0.505699873 0.591056526 -0.628426373
vn 0.519652486 0.6938833 -0.49848485
vn 0.596647263 0.606222034 -0.52583921
vn -0.800558507 0.00717730261 -0.599211752
vn 0.554265976 0.396668524 -0.731739938
vn -0.805311382 0.2534509 -0.535944283
vn 0.601997733 0.0181765519 -0.798290849
vn -0.991425276 0.114773348 0.0624735616
vn -0.688323617 0.572642446 -0.445299059
vn 0.31771943 -0.230119318 -0.9198367
vn -0.753631055 0.619641423 0.219281912
vn -0.393460512 0.814873517 -0.425640583
vn 0.163824275 -0.362245768 -0.917572677
vn -0.991672218 0.128784463 0.000900883926
vn -0.756066322 0.648160338 0.0908404961
vn -0.396268398 0.865231752 0.307156861
vn 0.394163698 0.840262532 -0.372281939
vn 0.686376214 -0.217634991 -0.693918407
vn -0.37511605 0.879926085 0.291578412
vn -0.379475057 0.918344557 0.112436198
vn -0.368390441 0.925524533 0.0877095014
vn -0.437456071 0.882781565 0.171256661
vn -0.365328431 0.908580124 0.202527285
vn -0.772167385 0.613690734 0.164745942
vn -0.472689658 0.67347163 0.568331122
vn -0.387738734 0.711094916 0.586517453
vn -0.37359935 0.264140218 0.889186978
vn -0.799416006 0.46050185 0.385839403
vn -0.986626327 0.106284939 0.123579443
vn -0.54086417 0.194771931 0.818247974
vn -0.982005596 -0.172686681 0.0764476359
vn -0.859838426 0.045331195 0.508549809
vn -0.53174448 -0.163516477 0.830969393
vn -0.387237638 -0.140495688 0.911212325
vn -0.930552304 -0.364730686 -0.0323101468
vn -0.540423334 -0.0955656171 -0.835948527
vn -0.851368308 -0.211206853 0.48017031
vn -0.551455379 -0.447474897 0.704033434
vn -0.434512705 -0.451282471 0.779450417
vn -0.436909199 -0.775617182 0.455552697
vn -0.812633753 -0.427375138 0.396202922
vn -0.884332359 -0.461044967 -0.0734428093
vn -0.576123238 -0.145878866 -0.804239631
vn -0.524400949 -0.768517911 0.366584152
vn -0.483864009 -0.87186569 0.0756694153
vn -0.704489708 -0.668491602 0.238355249
vn -0.836542726 -0.547215521 -0.0274116173
vn -0.588332653 -0.459606081 -0.665302098
vn -0.495080173 -0.865193129 0.079602465
vn -0.494157612 -0.854397237 0.160665751
vn -0.61478442 -0.786536992 0.0583065599
vn -0.494908839 -0.868944883 8.58972489E-05
vn -0.589621425 -0.806824863 0.0371525399
vn -0.486758322 -0.868390322 -0.0946813971
vn -0.557210505 -0.501464069 -0.661853611
vn 0.665082753 -0.318242133 0.675564051
vn 0.86826396 0.495385736 0.0266586412
vn 0.796892703 -0.36293456 -0.482949793
vn 0.830562949 0.556314766 0.026059147
vn 0.708111286 0.064380005 0.70315975
vn 0.903349578 0.418934911 0.0919407606
vn 0.82015717 0.547648191 0.165600464
vn 0.97781527 0.20724757 0.0304277055
vn 0.989312232 0.128690034 0.0685576051
vn 0.596647263 0.606222034 -0.52583921
vn 0.519652486 0.6938833 -0.49848485
vn 0.554265976 0.396668524 -0.731739938
vn 0.780558825 0.592743933 0.198450282
vn 0.809938669 0.563780725 0.161711261
vn 0.803310692 -0.492206931 0.335297197
vn 0.505699873 0.591056526 -0.628426373
vn 0.869119525 0.489278823 0.0723695308
vn 0.833737135 -0.54258877 -0.102371164
vn 0.733607888 -0.270365715 -0.623475671
vn 0.991600513 -0.113489829 -0.0620359592
vn 0.601997733 0.0181765519 -0.798290849
vn 0.991663933 -0.128845796 -0.00115391763
vn 0.753647804 -0.618805707 -0.221572697
vn 0.31771943 -0.230119318 -0.9198367
vn 0.163824275 -0.362245768 -0.917572677
vn 0.75917393 -0.645005405 -0.0873093754
vn 0.409050077 -0.859625638 -0.306140065
vn 0.71534127 -0.66621232 -0.210827276
vn 0.686376214 -0.217634991 -0.693918407
vn 0.987084568 0.143597022 0.0710215196
vn 0.393815488 -0.912509024 -0.110619687
vn 0.394132435 -0.915238976 -0.0836495906
vn 0.450013459 -0.877031505 -0.168237165
vn 0.390857518 -0.898137689 -0.201442689
vn 0.771234632 -0.616179466 -0.159749985
vn 0.487029016 -0.667655408 -0.563062191
vn 0.417413086 -0.701803684 -0.577267587
vn 0.398004085 -0.261697441 -0.87926513
vn 0.799746573 -0.460780293 -0.38482067
vn 0.986842573 -0.105509251 -0.122513726
vn 0.550432682 -0.193178713 -0.812222838
vn 0.981762767 0.175052062 -0.0741525218
vn 0.859129667 -0.0474310592 -0.509555399
vn 0.545604587 0.162414163 -0.822154045
vn 0.419032305 0.139726803 -0.897155643
vn 0.93095845 0.363563001 0.0337389372
vn 0.728177905 0.446874857 -0.519672692
vn 0.851147175 0.21138747 -0.480482846
vn 0.571851075 0.440948427 -0.691773593
vn 0.477383584 0.439529806 -0.76086694
vn 0.489757627 0.752703428 -0.439971715
vn 0.813238025 0.426792175 -0.395591021
vn 0.884885669 0.460085481 0.0727927461
vn 0.672300875 0.493205667 -0.552050471
vn 0.552936137 0.754178107 -0.354227066
vn 0.559464574 0.825807989 -0.0709961504
vn 0.704154253 0.668121397 -0.240375847
vn 0.835952342 0.548101842 0.0277124178
vn 0.318667024 0.695798278 -0.643673778
vn 0.538363039 0.839443862 -0.0741561353
vn 0.578755796 0.79963398 -0.160085157
vn 0.61625576 0.785488784 -0.0568868704
vn 0.541550577 0.84040308 -0.0211060308
vn 0.682164729 0.730411887 -0.033907678
vn 0.54463166 0.838230371 0.0273182169
vn -0.0437225923 0.59540689 -0.802233756
vn -1 0 0
vn -1 0 0
vn -1 0 0
vn -1 0 0
vn -1 0 0
vn -1 0 0
vn -1 0 0
vn -1 0 0
vn -1 0 0
vn -1 0 0
vn -1 0 0
vn -1 0 0
vn -1 0 0
vn -1 0 0
vn -1 0 0
vn -1 0 0
vn -1 0 0
vn -1 0 0
vn -1 0 0
vn -1 0 0
vn -1 0 0
vn -1 0 0
vn -1 0 0
vn -1 0 0
vn -1 0 0
vn -1 0 0
vn -0.382423669 0.707220554 0.594635308
vn 0.814282238 0.270160645 0.513768017
vn 0.62429297 -0.289823532 0.725438237
vn -0.478622347 0.189281449 0.857375741
vn 0.438296437 -0.805142701 0.399551511
vn -0.684336424 -0.368145406 0.629406631
vn 0.37112388 -0.917233944 -0.144737914
vn -0.842812002 -0.535949945 0.0492517464
vn 0.379385591 -0.70762831 -0.596094608
vn -0.816257894 -0.267927617 -0.51179862
vn 0.475927114 -0.187962502 -0.859164417
vn -0.626740217 0.29069826 -0.722973883
vn 0.682003736 0.37066856 -0.630456626
vn -0.441072077 0.804610491 -0.397564411
vn -0.810142159 0.551134348 0.199801415
vn -0.807060003 0.556534767 0.19728975
vn -0.810548186 0.548299372 0.20586291
vn -0.803107798 0.561334848 0.199802607
vn -0.374229282 0.915921092 0.145055294
vn -0.800599456 0.562725961 0.205864191
vn -0.80803895 0.549692154 0.211923778
vn -0.80100584 0.559890747 0.211924195
vn -0.804087162 0.554491937 0.21443519
vn 0.0422319286 0.596570432 -0.801448822
vn -0.317788064 0.695663869 -0.644253433
vn -0.672300816 0.493206859 -0.552049398
vn -0.728178561 0.446876079 -0.519670904
vn -0.989312232 0.128690302 0.0685582384
vn -0.708108783 0.0643807054 0.703162193
vn -0.665082276 -0.318241924 0.675564587
vn -0.796897292 -0.362932533 -0.482943803
vn -0.868264377 0.495384961 0.026658617
vn -0.803310215 -0.492207408 0.335297644
vn -0.833737791 -0.542587698 -0.102370895
vn -0.0437225923 0.59540689 -0.802233756
vn 0.318667024 0.695798278 -0.643673778
vn 0.672300875 0.493205667 -0.552050471
vn 0.728177905 0.446874857 -0.519672692
vn 0.989312232 0.128690034 0.0685576051
vn 0.708111286 0.064380005 0.70315975
vn 0.665082753 -0.318242133 0.675564051
vn 0.796892703 -0.36293456 -0.482949793
vn 0.86826396 0.495385736 0.0266586412
vn 0.803310692 -0.492206931 0.335297197
vn 0.833737135 -0.54258877 -0.102371164
vn 0.455713004 0.455712616 0.764625251
vn 2.90468574E-06 -1.16344296E-07 1
vn 3.9035167E-06 0.6444754 0.764624953
vn 0.69564569 0.695644796 0.179319084
vn 0.983791053 -5.92215258E-07 0.179318994
vn 0.644472301 -4.94464359E-07 0.764627635
vn 2.90468574E-06 -1.16344296E-07 1
vn -1.7403878E-06 0.983791053 0.179318652
vn -0.4557105 0.455713719 0.764626026
vn 2.90468574E-06 -1.16344296E-07 1
vn 0.6956442 -0.695646465 0.179318801
vn 0.455714077 -0.455712974 0.764624357
vn 2.90468574E-06 -1.16344296E-07 1
vn 0.856513441 -4.41044705E-07 -0.516124725
vn 0.605645359 0.605647802 -0.516124487
vn 0.605645537 -0.605647683 -0.516124308
vn -0.695646167 0.695644498 0.179318801
vn 1.64656467E-06 0.856514573 -0.516122758
vn -0.644472778 -5.16440821E-07 0.764627278
vn 2.90468574E-06 -1.16344296E-07 1
vn -0.983790934 4.10924571E-07 0.17931971
vn -0.605644524 0.605648577 -0.516124547
vn -0.856513798 2.23462905E-07 -0.516124189
vn -0.274602562 0.274578035 -0.92152065
vn -0.388352513 -2.15457746E-07 -0.921510935
vn -6.41256122E-07 -3.81157832E-07 -1
vn 2.42836722E-06 0.388313442 -0.921527326
vn -6.41256122E-07 -3.81157832E-07 -1
vn 0.274606645 0.274577975 -0.921519458
vn -6.41256122E-07 -3.81157832E-07 -1
vn 0.38835153 -2.07219543E-07 -0.921511352
vn -6.41256122E-07 -3.81157832E-07 -1
vn 0.274607122 -0.274578571 -0.92151916
vn -6.41256122E-07 -3.81157832E-07 -1
vn -8.46634066E-07 -0.388314366 -0.921527028
vn -6.41256122E-07 -3.81157832E-07 -1
vn -5.82178416E-07 -0.856514573 -0.516122758
vn -0.274606168 -0.274578124 -0.921519518
vn -6.41256122E-07 -3.81157832E-07 -1
vn -2.06670893E-06 -0.983791113 0.179318234
vn -0.605646074 -0.605647385 -0.51612407
vn -2.45034266E-06 -0.644476295 0.764624298
vn 2.90468574E-06 -1.16344296E-07 1
vn -6.41256122E-07 -3.81157832E-07 -1
vn -0.856513798 2.23462905E-07 -0.516124189
vn -0.695645392 -0.695645094 0.179319337
vn -0.983790934 4.10924571E-07 0.17931971
vn -0.455715656 -0.455712497 0.764623702
vn 2.90468574E-06 -1.16344296E-07 1
vn -0.644472778 -5.16440821E-07 0.764627278
vn 2.90468574E-06 -1.16344296E-07 1
vn 0.798321247 0.541352689 0.263857126
vn 0.921968699 -0.00164900662 0.387260973
vn 0.197767794 -0.343974441 -0.917915821
vn 0.0777334124 0.0365710445 -0.996303201
vn 0.041413784 -0.671550035 -0.73980087
vn -0.812079608 -0.566636443 -0.139462307
vn -0.961030006 0.0401797704 -0.27350834
vn 0.340014815 0.873883426 0.347444445
vn -0.359869242 0.364467442 0.85886997
vn -0.225751415 -0.145742491 0.963221431
vn 0.21288994 -0.434439301 0.875180185
vn -0.297934473 -0.923785031 -0.240533382
vn -0.661688387 0.50230819 -0.556646168
vn -0.129725546 0.767685473 0.627558947
vn -0.246419877 0.273671627 -0.929721057
vn -0.188727468 0.781846225 0.594220936
vn 0.652487755 -0.417039573 0.632722437
vn -0.333031386 -0.762866139 -0.554188848
vn 0.661147177 -0.373370558 0.650752604
vn 0.250608474 -0.815326393 -0.521956086
vn -0.110690735 0.587037146 -0.801956892
vn 0.338557333 0.848196626 0.407359153
vn -0.592171788 0.235972077 -0.770486653
vn -0.416580379 0.309554696 0.854772806
vn 0.167637527 -0.472460926 0.865262032
vn -0.721549153 -0.504361808 -0.474326849
vn 0.900503337 0.0250585694 0.434126616
vn 0.537587047 -0.328794718 -0.776462615
vn 0.380225331 0.243892938 -0.892157376
vn 0.777115643 0.539221585 0.324547887
vn -0.811631799 -0.0513114408 -0.581911445
vn -0.253757149 -0.182205632 0.949951768
vn -0.840924621 0.538943768 -0.0488410704
vn 0.840924621 0.538943827 -0.048841048
vn 0.677117884 0.718453348 -0.159173355
vn 0.0100608738 0.79943186 -0.600672543
vn 0.108418442 0.650609136 -0.751633704
vn 0.59935832 0.787501872 -0.1435626
vn 0.705866575 0.344235778 0.619075239
vn -0.597493052 0.397371203 -0.69648999
vn -0.506799459 0.234751359 -0.829485476
vn 0.799580157 0.369437367 0.473484486
vn 0.143436775 -0.160116434 0.976621032
vn -0.908892035 -0.184804723 -0.373848259
vn -0.860557497 -0.229063585 -0.454940319
vn 0.422478706 -0.187071145 0.88685745
vn -0.474601507 -0.479175776 0.738338709
vn -0.778264046 -0.586181819 0.225157604
vn -0.845973313 -0.50750196 0.163618356
vn -0.255182058 -0.578884125 0.774451613
vn -0.799413562 0.570460618 -0.188447535
vn -0.214332014 0.970023632 -0.114525259
vn -0.0786045343 0.0704275221 0.994415045
vn -0.996033847 -0.0812908411 -0.0361734703
vn 0.485122859 0.871305048 0.0740493312
vn -0.715046227 -0.643910885 0.272190511
vn 0.87151587 0.301783264 0.386506021
vn -0.0365275033 -0.833337784 0.551555991
vn 0.664490044 -0.41994518 0.618141592
vn -0.378821135 0.92529422 -0.0180340055
vn 0.12625657 0.831217647 -0.541420817
vn 0.14639093 0.910462499 -0.386817366
vn -0.439854085 0.895430624 0.0687926412
vn -0.636448741 0.469014943 0.612338126
vn 0.681684315 0.470082074 -0.560650826
vn 0.571514964 0.394110024 -0.719755471
vn -0.737917721 0.372109771 0.563037992
vn -0.390822053 -0.269505888 0.880127728
vn 0.903035879 -0.186735153 -0.386854261
vn 0.821814537 -0.177439958 -0.541420281
vn -0.523943305 -0.361537278 0.771216035
vn 0.212168619 -0.761594296 0.612338603
vn 0.680179894 -0.72969681 0.0699844286
vn 0.730220914 -0.682973027 -0.0180336684
vn 0.0852856636 -0.821042061 0.564461112
vn 0.780123115 0.528025329 -0.335555047
vn 0.180734918 0.955301464 -0.233953342
vn -0.503882229 0.862816572 0.0406241603
vn 0.962248027 -0.184180811 -0.200389877
vn -0.900520623 0.273151278 0.338306099
vn -0.719755769 -0.495441496 0.48630175
vn 0.622459292 -0.776759088 0.0958637744
vn -0.0634038299 -0.922716737 0.380228668
vn 0.151180103 0.952447057 -0.26455459
vn 0.786284268 0.525807619 -0.324474216
vn -0.548266113 0.835653663 -0.0329732299
vn 0.959794521 -0.227957413 -0.163798496
vn -0.928593099 0.259125054 0.265648365
vn -0.752355874 -0.476599813 0.454767227
vn 0.563177645 -0.815950274 0.130598307
vn -0.12011119 -0.91501534 0.3851237
vn 0.667897999 0.464349806 -0.581628323
vn 0.0685565323 0.918489754 -0.389456809
vn -0.520106077 0.853669584 0.0271623023
vn 0.878208935 -0.345146835 -0.331093311
vn -0.810733676 0.344711781 0.473164469
vn -0.619395912 -0.345051706 0.705186427
vn 0.516661048 -0.832700551 0.199175969
vn -0.0705466345 -0.805388927 0.58853364
vn 0.459253788 0.322879463 -0.827547491
vn 0.0256580412 0.855360448 -0.517397523
vn 0.853339434 0.447298437 0.267835587
vn 0.732141137 -0.419701338 -0.536488771
vn -0.367839485 0.922288001 0.118654668
vn 0.562683761 -0.797203541 0.218754336
vn -0.521364033 0.489676893 0.698853433
vn 0.12449725 -0.615646064 0.77812618
vn -0.300106227 -0.126955494 0.945419848
vn 0.362094194 -0.930281937 0.0588500053
vn 0.357156098 -0.932960927 0.044982072
vn 0.342528462 -0.939493597 0.00509552006
vn 0.338760823 -0.940859675 -0.00490891421
vn -0.362074614 -0.930289567 0.0588493943
vn -0.342535555 -0.939491093 0.00509563275
vn -0.357143283 -0.932965875 0.0449814722
vn -0.338772804 -0.940855324 -0.00490886113
g Helm_0
f 3/3/3 2/2/2 1/1/1
f 2/2/2 4/4/4 1/1/1
f 4/4/4 5/5/5 1/1/1
f 6/6/6 5/5/5 4/4/4
f 4/4/4 2/2/2 7/7/7
f 7/7/7 6/6/6 4/4/4
f 6/6/6 8/8/8 5/5/5
f 5/5/5 8/8/8 9/9/9
f 7/7/7 10/10/10 6/6/6
f 6/6/6 10/10/10 8/8/8
f 11/11/11 7/7/7 2/2/2
f 12/12/12 11/11/11 2/2/2
f 13/13/13 12/12/12 2/2/2
f 11/11/11 14/14/14 7/7/7
f 14/14/14 10/10/10 7/7/7
f 12/12/12 14/14/14 11/11/11
f 12/12/12 13/13/13 15/15/15
f 16/16/16 15/15/15 13/13/13
f 15/15/15 17/17/17 12/12/12
f 16/16/16 17/17/17 15/15/15
f 17/17/17 14/14/14 12/12/12
f 18/18/18 17/17/17 16/16/16
f 18/18/18 19/19/19 17/17/17
f 19/19/19 20/20/20 17/17/17
f 17/17/17 20/20/20 14/14/14
f 20/20/20 21/21/21 14/14/14
f 14/14/14 21/21/21 10/10/10
f 21/21/21 22/22/22 10/10/10
f 10/10/10 22/22/22 23/23/23
f 22/22/22 24/24/24 23/23/23
f 8/8/8 10/10/10 23/23/23
f 23/23/23 24/24/24 25/25/25
f 24/24/24 26/26/26 25/25/25
f 8/8/8 23/23/23 27/27/27
f 23/23/23 25/25/25 27/27/27
f 25/25/25 26/26/26 28/28/28
f 26/26/26 29/29/29 28/28/28
f 25/25/25 28/28/28 30/30/30
f 27/27/27 25/25/25 30/30/30
f 28/28/28 29/29/29 31/31/31
f 28/28/28 31/31/31 30/30/30
f 29/29/29 32/32/32 31/31/31
f 8/8/8 27/27/27 33/33/33
f 9/9/9 8/8/8 33/33/33
f 27/27/27 30/30/30 34/34/34
f 33/33/33 27/27/27 34/34/34
f 31/31/31 35/35/35 30/30/30
f 30/30/30 35/35/35 34/34/34
f 31/31/31 32/32/32 36/36/36
f 32/32/32 37/37/37 36/36/36
f 31/31/31 36/36/36 38/38/38
f 35/35/35 31/31/31 38/38/38
f 35/35/35 38/38/38 39/39/39
f 35/35/35 39/39/39 34/34/34
f 38/38/38 40/40/40 39/39/39
f 39/39/39 40/40/40 41/41/41
f 34/34/34 39/39/39 41/41/41
f 40/40/40 42/42/42 41/41/41
f 33/33/33 34/34/34 43/43/43
f 43/43/43 34/34/34 41/41/41
f 44/44/44 41/41/41 42/42/42
f 45/45/45 44/44/44 42/42/42
f 44/44/44 45/45/45 46/46/46
f 47/47/47 43/43/43 41/41/41
f 44/44/44 47/47/47 41/41/41
f 48/48/48 33/33/33 43/43/43
f 47/47/47 48/48/48 43/43/43
f 49/49/49 44/44/44 46/46/46
f 47/47/47 44/44/44 49/49/49
f 33/33/33 48/48/48 50/50/50
f 9/9/9 33/33/33 50/50/50
f 51/51/51 48/48/48 47/47/47
f 51/51/51 47/47/47 49/49/49
f 50/50/50 48/48/48 51/51/51
f 52/52/52 49/49/49 46/46/46
f 51/51/51 49/49/49 52/52/52
f 53/53/53 52/52/52 46/46/46
f 9/9/9 50/50/50 54/54/54
f 55/55/55 9/9/9 54/54/54
f 50/50/50 51/51/51 56/56/56
f 56/56/56 51/51/51 52/52/52
f 54/54/54 50/50/50 56/56/56
f 57/57/57 52/52/52 53/53/53
f 58/58/58 57/57/57 53/53/53
f 57/57/57 58/58/58 59/59/59
f 60/60/60 56/56/56 52/52/52
f 54/54/54 56/56/56 60/60/60
f 57/57/57 60/60/60 52/52/52
f 55/55/55 54/54/54 61/61/61
f 61/61/61 54/54/54 60/60/60
f 62/62/62 55/55/55 61/61/61
f 63/63/63 57/57/57 59/59/59
f 63/63/63 59/59/59 64/64/64
f 65/65/65 60/60/60 57/57/57
f 65/65/65 61/61/61 60/60/60
f 63/63/63 65/65/65 57/57/57
f 62/62/62 61/61/61 66/66/66
f 66/66/66 61/61/61 65/65/65
f 67/67/67 62/62/62 66/66/66
f 68/68/68 63/63/63 64/64/64
f 65/65/65 63/63/63 68/68/68
f 64/64/64 69/69/69 68/68/68
f 66/66/66 65/65/65 70/70/70
f 70/70/70 65/65/65 68/68/68
f 70/70/70 67/67/67 66/66/66
f 69/69/69 71/71/71 68/68/68
f 68/68/68 71/71/71 70/70/70
f 71/71/71 67/67/67 70/70/70
f 69/69/69 72/72/72 71/71/71
f 72/72/72 73/73/73 71/71/71
f 71/71/71 73/73/73 67/67/67
f 73/73/73 74/74/74 67/67/67
f 77/77/77 76/76/76 75/75/75
f 78/78/78 77/77/77 75/75/75
f 79/79/79 78/78/78 75/75/75
f 79/79/79 80/80/80 78/78/78
f 77/77/77 78/78/78 81/81/81
f 80/80/80 81/81/81 78/78/78
f 82/82/82 80/80/80 79/79/79
f 82/82/82 79/79/79 83/83/83
f 84/84/84 81/81/81 80/80/80
f 84/84/84 80/80/80 82/82/82
f 84/84/84 85/85/85 81/81/81
f 84/84/84 82/82/82 86/86/86
f 81/81/81 87/87/87 77/77/77
f 85/85/85 87/87/87 81/81/81
f 87/87/87 88/88/88 77/77/77
f 85/85/85 88/88/88 87/87/87
f 88/88/88 89/89/89 77/77/77
f 85/85/85 90/90/90 88/88/88
f 89/89/89 88/88/88 91/91/91
f 90/90/90 91/91/91 88/88/88
f 91/91/91 92/92/92 89/89/89
f 90/90/90 92/92/92 91/91/91
f 90/90/90 93/93/93 92/92/92
f 86/86/86 82/82/82 94/94/94
f 95/95/95 86/86/86 94/94/94
f 94/94/94 82/82/82 96/96/96
f 82/82/82 83/83/83 96/96/96
f 95/95/95 94/94/94 97/97/97
f 98/98/98 95/95/95 97/97/97
f 99/99/99 98/98/98 97/97/97
f 97/97/97 94/94/94 100/100/100
f 94/94/94 96/96/96 100/100/100
f 101/101/101 99/99/99 97/97/97
f 101/101/101 97/97/97 100/100/100
f 99/99/99 101/101/101 102/102/102
f 103/103/103 99/99/99 102/102/102
f 103/103/103 102/102/102 104/104/104
f 36/36/36 103/103/103 104/104/104
f 102/102/102 101/101/101 105/105/105
f 105/105/105 101/101/101 100/100/100
f 106/106/106 102/102/102 105/105/105
f 106/106/106 105/105/105 107/107/107
f 105/105/105 100/100/100 107/107/107
f 108/108/108 106/106/106 107/107/107
f 100/100/100 96/96/96 109/109/109
f 100/100/100 109/109/109 107/107/107
f 107/107/107 110/110/110 108/108/108
f 110/110/110 111/111/111 108/108/108
f 111/111/111 110/110/110 112/112/112
f 109/109/109 113/113/113 107/107/107
f 113/113/113 110/110/110 107/107/107
f 96/96/96 114/114/114 109/109/109
f 114/114/114 113/113/113 109/109/109
f 110/110/110 115/115/115 112/112/112
f 110/110/110 113/113/113 115/115/115
f 114/114/114 96/96/96 116/116/116
f 96/96/96 83/83/83 116/116/116
f 114/114/114 117/117/117 113/113/113
f 113/113/113 117/117/117 115/115/115
f 114/114/114 116/116/116 117/117/117
f 115/115/115 118/118/118 112/112/112
f 115/115/115 117/117/117 118/118/118
f 118/118/118 119/119/119 112/112/112
f 116/116/116 83/83/83 120/120/120
f 83/83/83 121/121/121 120/120/120
f 117/117/117 116/116/116 122/122/122
f 117/117/117 122/122/122 118/118/118
f 116/116/116 120/120/120 122/122/122
f 118/118/118 123/123/123 119/119/119
f 123/123/123 124/124/124 119/119/119
f 124/124/124 123/123/123 125/125/125
f 122/122/122 126/126/126 118/118/118
f 122/122/122 120/120/120 126/126/126
f 126/126/126 123/123/123 118/118/118
f 120/120/120 121/121/121 127/127/127
f 120/120/120 127/127/127 126/126/126
f 121/121/121 128/128/128 127/127/127
f 123/123/123 129/129/129 125/125/125
f 125/125/125 129/129/129 130/130/130
f 126/126/126 131/131/131 123/123/123
f 127/127/127 131/131/131 126/126/126
f 131/131/131 129/129/129 123/123/123
f 127/127/127 128/128/128 132/132/132
f 127/127/127 132/132/132 131/131/131
f 128/128/128 133/133/133 132/132/132
f 129/129/129 134/134/134 130/130/130
f 129/129/129 131/131/131 134/134/134
f 135/135/135 130/130/130 134/134/134
f 131/131/131 132/132/132 136/136/136
f 131/131/131 136/136/136 134/134/134
f 133/133/133 136/136/136 132/132/132
f 137/137/137 135/135/135 134/134/134
f 137/137/137 134/134/134 136/136/136
f 133/133/133 137/137/137 136/136/136
f 138/138/138 135/135/135 137/137/137
f 139/139/139 138/138/138 137/137/137
f 139/139/139 137/137/137 133/133/133
f 140/140/140 139/139/139 133/133/133
f 143/143/143 142/142/142 141/141/141
f 142/142/142 144/144/144 141/141/141
f 142/142/142 145/145/145 144/144/144
f 145/145/145 146/146/146 144/144/144
f 145/145/145 147/147/147 146/146/146
f 147/147/147 148/148/148 146/146/146
f 147/147/147 149/149/149 148/148/148
f 149/149/149 150/150/150 148/148/148
f 149/149/149 151/151/151 150/150/150
f 151/151/151 152/152/152 150/150/150
f 151/151/151 153/153/153 152/152/152
f 153/153/153 154/154/154 152/152/152
f 141/141/141 144/144/144 155/155/155
f 144/144/144 156/156/156 155/155/155
f 144/144/144 146/146/146 156/156/156
f 141/141/141 155/155/155 157/157/157
f 146/146/146 158/158/158 156/156/156
f 146/146/146 148/148/148 158/158/158
f 159/159/159 141/141/141 157/157/157
f 148/148/148 160/160/160 158/158/158
f 148/148/148 150/150/150 160/160/160
f 159/159/159 157/157/157 161/161/161
f 154/154/154 159/159/159 161/161/161
f 150/150/150 162/162/162 160/160/160
f 150/150/150 152/152/152 162/162/162
f 154/154/154 161/161/161 163/163/163
f 152/152/152 163/163/163 162/162/162
f 152/152/152 154/154/154 163/163/163
f 166/166/166 165/165/165 164/164/164
f 167/167/167 166/166/166 164/164/164
f 168/168/168 167/167/167 164/164/164
f 168/168/168 169/169/169 167/167/167
f 166/166/166 167/167/167 170/170/170
f 169/169/169 170/170/170 167/167/167
f 171/171/171 169/169/169 168/168/168
f 171/171/171 168/168/168 172/172/172
f 173/173/173 170/170/170 169/169/169
f 173/173/173 169/169/169 171/171/171
f 170/170/170 174/174/174 166/166/166
f 174/174/174 175/175/175 166/166/166
f 175/175/175 176/176/176 166/166/166
f 177/177/177 174/174/174 170/170/170
f 173/173/173 177/177/177 170/170/170
f 177/177/177 175/175/175 174/174/174
f 176/176/176 175/175/175 178/178/178
f 178/178/178 179/179/179 176/176/176
f 180/180/180 178/178/178 175/175/175
f 180/180/180 179/179/179 178/178/178
f 177/177/177 180/180/180 175/175/175
f 180/180/180 181/181/181 179/179/179
f 182/182/182 181/181/181 180/180/180
f 183/183/183 182/182/182 180/180/180
f 183/183/183 180/180/180 177/177/177
f 184/184/184 183/183/183 177/177/177
f 184/184/184 177/177/177 173/173/173
f 185/185/185 184/184/184 173/173/173
f 185/185/185 173/173/173 186/186/186
f 187/187/187 185/185/185 186/186/186
f 173/173/173 171/171/171 186/186/186
f 187/187/187 186/186/186 188/188/188
f 189/189/189 187/187/187 188/188/188
f 186/186/186 171/171/171 190/190/190
f 188/188/188 186/186/186 190/190/190
f 189/189/189 188/188/188 191/191/191
f 192/192/192 189/189/189 191/191/191
f 191/191/191 188/188/188 193/193/193
f 188/188/188 190/190/190 193/193/193
f 192/192/192 191/191/191 194/194/194
f 194/194/194 191/191/191 193/193/193
f 195/195/195 192/192/192 194/194/194
f 190/190/190 171/171/171 196/196/196
f 171/171/171 172/172/172 196/196/196
f 193/193/193 190/190/190 197/197/197
f 190/190/190 196/196/196 197/197/197
f 198/198/198 194/194/194 193/193/193
f 198/198/198 193/193/193 197/197/197
f 195/195/195 194/194/194 199/199/199
f 200/200/200 195/195/195 199/199/199
f 199/199/199 194/194/194 201/201/201
f 194/194/194 198/198/198 201/201/201
f 201/201/201 198/198/198 202/202/202
f 202/202/202 198/198/198 197/197/197
f 203/203/203 201/201/201 202/202/202
f 203/203/203 202/202/202 204/204/204
f 202/202/202 197/197/197 204/204/204
f 205/205/205 203/203/203 204/204/204
f 197/197/197 196/196/196 206/206/206
f 197/197/197 206/206/206 204/204/204
f 204/204/204 207/207/207 205/205/205
f 207/207/207 208/208/208 205/205/205
f 208/208/208 207/207/207 209/209/209
f 206/206/206 210/210/210 204/204/204
f 210/210/210 207/207/207 204/204/204
f 196/196/196 211/211/211 206/206/206
f 211/211/211 210/210/210 206/206/206
f 207/207/207 212/212/212 209/209/209
f 207/207/207 210/210/210 212/212/212
f 211/211/211 196/196/196 213/213/213
f 196/196/196 172/172/172 213/213/213
f 211/211/211 214/214/214 210/210/210
f 210/210/210 214/214/214 212/212/212
f 211/211/211 213/213/213 214/214/214
f 212/212/212 215/215/215 209/209/209
f 212/212/212 214/214/214 215/215/215
f 215/215/215 216/216/216 209/209/209
f 213/213/213 172/172/172 217/217/217
f 172/172/172 218/218/218 217/217/217
f 214/214/214 213/213/213 219/219/219
f 214/214/214 219/219/219 215/215/215
f 213/213/213 217/217/217 219/219/219
f 215/215/215 220/220/220 216/216/216
f 220/220/220 221/221/221 216/216/216
f 221/221/221 220/220/220 222/222/222
f 219/219/219 223/223/223 215/215/215
f 219/219/219 217/217/217 223/223/223
f 223/223/223 220/220/220 215/215/215
f 217/217/217 218/218/218 224/224/224
f 217/217/217 224/224/224 223/223/223
f 218/218/218 225/225/225 224/224/224
f 220/220/220 226/226/226 222/222/222
f 222/222/222 226/226/226 227/227/227
f 223/223/223 228/228/228 220/220/220
f 224/224/224 228/228/228 223/223/223
f 228/228/228 226/226/226 220/220/220
f 224/224/224 225/225/225 229/229/229
f 224/224/224 229/229/229 228/228/228
f 225/225/225 230/230/230 229/229/229
f 226/226/226 231/231/231 227/227/227
f 226/226/226 228/228/228 231/231/231
f 232/232/232 227/227/227 231/231/231
f 228/228/228 229/229/229 233/233/233
f 228/228/228 233/233/233 231/231/231
f 230/230/230 233/233/233 229/229/229
f 234/234/234 232/232/232 231/231/231
f 234/234/234 231/231/231 233/233/233
f 230/230/230 234/234/234 233/233/233
f 235/235/235 232/232/232 234/234/234
f 236/236/236 235/235/235 234/234/234
f 236/236/236 234/234/234 230/230/230
f 237/237/237 236/236/236 230/230/230
f 240/240/240 239/239/239 238/238/238
f 239/239/239 241/241/241 238/238/238
f 241/241/241 242/242/242 238/238/238
f 243/243/243 242/242/242 241/241/241
f 241/241/241 239/239/239 244/244/244
f 244/244/244 243/243/243 241/241/241
f 243/243/243 245/245/245 242/242/242
f 242/242/242 245/245/245 246/246/246
f 244/244/244 247/247/247 243/243/243
f 243/243/243 247/247/247 245/245/245
f 248/248/248 247/247/247 244/244/244
f 245/245/245 247/247/247 249/249/249
f 250/250/250 244/244/244 239/239/239
f 250/250/250 248/248/248 244/244/244
f 251/251/251 250/250/250 239/239/239
f 251/251/251 248/248/248 250/250/250
f 252/252/252 251/251/251 239/239/239
f 253/253/253 248/248/248 251/251/251
f 251/251/251 252/252/252 254/254/254
f 254/254/254 253/253/253 251/251/251
f 255/255/255 254/254/254 252/252/252
f 255/255/255 253/253/253 254/254/254
f 256/256/256 253/253/253 255/255/255
f 245/245/245 249/249/249 257/257/257
f 249/249/249 258/258/258 257/257/257
f 245/245/245 257/257/257 259/259/259
f 246/246/246 245/245/245 259/259/259
f 257/257/257 258/258/258 260/260/260
f 258/258/258 261/261/261 260/260/260
f 261/261/261 262/262/262 260/260/260
f 257/257/257 260/260/260 263/263/263
f 259/259/259 257/257/257 263/263/263
f 262/262/262 264/264/264 260/260/260
f 260/260/260 264/264/264 263/263/263
f 264/264/264 262/262/262 265/265/265
f 262/262/262 266/266/266 265/265/265
f 265/265/265 266/266/266 267/267/267
f 266/266/266 199/199/199 267/267/267
f 264/264/264 265/265/265 268/268/268
f 264/264/264 268/268/268 263/263/263
f 265/265/265 269/269/269 268/268/268
f 268/268/268 269/269/269 270/270/270
f 263/263/263 268/268/268 270/270/270
f 269/269/269 271/271/271 270/270/270
f 259/259/259 263/263/263 272/272/272
f 272/272/272 263/263/263 270/270/270
f 273/273/273 270/270/270 271/271/271
f 274/274/274 273/273/273 271/271/271
f 273/273/273 274/274/274 275/275/275
f 276/276/276 272/272/272 270/270/270
f 273/273/273 276/276/276 270/270/270
f 277/277/277 259/259/259 272/272/272
f 276/276/276 277/277/277 272/272/272
f 278/278/278 273/273/273 275/275/275
f 276/276/276 273/273/273 278/278/278
f 259/259/259 277/277/277 279/279/279
f 246/246/246 259/259/259 279/279/279
f 280/280/280 277/277/277 276/276/276
f 280/280/280 276/276/276 278/278/278
f 279/279/279 277/277/277 280/280/280
f 281/281/281 278/278/278 275/275/275
f 280/280/280 278/278/278 281/281/281
f 282/282/282 281/281/281 275/275/275
f 246/246/246 279/279/279 283/283/283
f 284/284/284 246/246/246 283/283/283
f 279/279/279 280/280/280 285/285/285
f 285/285/285 280/280/280 281/281/281
f 283/283/283 279/279/279 285/285/285
f 286/286/286 281/281/281 282/282/282
f 287/287/287 286/286/286 282/282/282
f 286/286/286 287/287/287 288/288/288
f 289/289/289 285/285/285 281/281/281
f 283/283/283 285/285/285 289/289/289
f 286/286/286 289/289/289 281/281/281
f 284/284/284 283/283/283 290/290/290
f 290/290/290 283/283/283 289/289/289
f 291/291/291 284/284/284 290/290/290
f 292/292/292 286/286/286 288/288/288
f 292/292/292 288/288/288 293/293/293
f 294/294/294 289/289/289 286/286/286
f 294/294/294 290/290/290 289/289/289
f 292/292/292 294/294/294 286/286/286
f 291/291/291 290/290/290 295/295/295
f 295/295/295 290/290/290 294/294/294
f 296/296/296 291/291/291 295/295/295
f 297/297/297 292/292/292 293/293/293
f 294/294/294 292/292/292 297/297/297
f 293/293/293 298/298/298 297/297/297
f 295/295/295 294/294/294 299/299/299
f 299/299/299 294/294/294 297/297/297
f 299/299/299 296/296/296 295/295/295
f 298/298/298 300/300/300 297/297/297
f 297/297/297 300/300/300 299/299/299
f 300/300/300 296/296/296 299/299/299
f 298/298/298 301/301/301 300/300/300
f 301/301/301 302/302/302 300/300/300
f 300/300/300 302/302/302 296/296/296
f 302/302/302 303/303/303 296/296/296
f 306/306/306 305/305/305 304/304/304
f 307/307/307 306/306/306 304/304/304
f 308/308/308 306/306/306 307/307/307
f 309/309/309 308/308/308 307/307/307
f 310/310/310 308/308/308 309/309/309
f 311/311/311 310/310/310 309/309/309
f 312/312/312 310/310/310 311/311/311
f 313/313/313 312/312/312 311/311/311
f 314/314/314 312/312/312 313/313/313
f 315/315/315 314/314/314 313/313/313
f 316/316/316 314/314/314 315/315/315
f 317/317/317 316/316/316 315/315/315
f 318/318/318 316/316/316 317/317/317
f 319/319/319 318/318/318 317/317/317
f 320/320/320 318/318/318 319/319/319
f 321/321/321 320/320/320 319/319/319
f 322/322/322 320/320/320 321/321/321
f 323/323/323 322/322/322 321/321/321
f 324/324/324 322/322/322 323/323/323
f 325/325/325 324/324/324 323/323/323
f 326/326/326 324/324/324 325/325/325
f 327/327/327 326/326/326 325/325/325
f 328/328/328 326/326/326 327/327/327
f 329/329/329 328/328/328 327/327/327
f 332/332/332 331/331/331 330/330/330
f 333/333/333 332/332/332 330/330/330
f 334/334/334 332/332/332 333/333/333
f 335/335/335 334/334/334 333/333/333
f 336/336/336 334/334/334 335/335/335
f 337/337/337 336/336/336 335/335/335
f 338/338/338 336/336/336 337/337/337
f 339/339/339 338/338/338 337/337/337
f 340/340/340 338/338/338 339/339/339
f 341/341/341 340/340/340 339/339/339
f 342/342/342 340/340/340 341/341/341
f 343/343/343 342/342/342 341/341/341
f 333/333/333 330/330/330 344/344/344
f 345/345/345 333/333/333 344/344/344
f 335/335/335 333/333/333 345/345/345
f 344/344/344 330/330/330 346/346/346
f 347/347/347 335/335/335 345/345/345
f 337/337/337 335/335/335 347/347/347
f 330/330/330 348/348/348 346/346/346
f 349/349/349 337/337/337 347/347/347
f 339/339/339 337/337/337 349/349/349
f 346/346/346 348/348/348 350/350/350
f 348/348/348 343/343/343 350/350/350
f 351/351/351 339/339/339 349/349/349
f 341/341/341 339/339/339 351/351/351
f 350/350/350 343/343/343 352/352/352
f 352/352/352 341/341/341 351/351/351
f 343/343/343 341/341/341 352/352/352
g Helm_1
f 74/74/74 353/353/353 67/67/67
f 353/353/353 354/354/354 67/67/67
f 67/67/67 354/354/354 62/62/62
f 354/354/354 355/355/355 62/62/62
f 62/62/62 355/355/355 55/55/55
f 355/355/355 356/356/356 55/55/55
f 55/55/55 356/356/356 9/9/9
f 356/356/356 357/357/357 9/9/9
f 9/9/9 357/357/357 5/5/5
f 357/357/357 358/358/358 5/5/5
f 5/5/5 358/358/358 1/1/1
f 358/358/358 359/359/359 1/1/1
f 1/1/1 359/359/359 3/3/3
f 359/359/359 360/360/360 3/3/3
f 3/3/3 360/360/360 2/2/2
f 360/360/360 361/361/361 2/2/2
f 2/2/2 361/361/361 13/13/13
f 361/361/361 362/362/362 13/13/13
f 13/13/13 362/362/362 16/16/16
f 362/362/362 363/363/363 16/16/16
f 16/16/16 363/363/363 18/18/18
f 363/363/363 19/19/19 18/18/18
f 364/364/364 237/237/237 230/230/230
f 365/365/365 364/364/364 230/230/230
f 365/365/365 230/230/230 225/225/225
f 366/366/366 365/365/365 225/225/225
f 366/366/366 225/225/225 218/218/218
f 367/367/367 366/366/366 218/218/218
f 367/367/367 218/218/218 172/172/172
f 368/368/368 367/367/367 172/172/172
f 368/368/368 172/172/172 168/168/168
f 369/369/369 368/368/368 168/168/168
f 369/369/369 168/168/168 164/164/164
f 370/370/370 369/369/369 164/164/164
f 370/370/370 164/164/164 165/165/165
f 371/371/371 370/370/370 165/165/165
f 371/371/371 165/165/165 166/166/166
f 372/372/372 371/371/371 166/166/166
f 372/372/372 166/166/166 176/176/176
f 373/373/373 372/372/372 176/176/176
f 373/373/373 176/176/176 179/179/179
f 374/374/374 373/373/373 179/179/179
f 374/374/374 179/179/179 181/181/181
f 182/182/182 374/374/374 181/181/181
f 377/377/377 376/376/376 375/375/375
f 377/377/377 375/375/375 378/378/378
f 378/378/378 375/375/375 379/379/379
f 375/375/375 380/380/380 379/379/379
f 380/380/380 375/375/375 381/381/381
f 382/382/382 377/377/377 378/378/378
f 377/377/377 382/382/382 383/383/383
f 383/383/383 384/384/384 377/377/377
f 379/379/379 380/380/380 385/385/385
f 380/380/380 386/386/386 385/385/385
f 386/386/386 380/380/380 387/387/387
f 378/378/378 379/379/379 388/388/388
f 382/382/382 378/378/378 389/389/389
f 389/389/389 378/378/378 388/388/388
f 379/379/379 385/385/385 390/390/390
f 388/388/388 379/379/379 390/390/390
f 382/382/382 391/391/391 383/383/383
f 392/392/392 382/382/382 389/389/389
f 382/382/382 392/392/392 391/391/391
f 393/393/393 383/383/383 391/391/391
f 383/383/383 393/393/393 394/394/394
f 395/395/395 393/393/393 391/391/391
f 395/395/395 391/391/391 396/396/396
f 392/392/392 396/396/396 391/391/391
f 397/397/397 395/395/395 396/396/396
f 397/397/397 396/396/396 398/398/398
f 396/396/396 392/392/392 398/398/398
f 399/399/399 397/397/397 398/398/398
f 400/400/400 399/399/399 398/398/398
f 392/392/392 401/401/401 398/398/398
f 392/392/392 389/389/389 401/401/401
f 402/402/402 398/398/398 401/401/401
f 389/389/389 403/403/403 401/401/401
f 404/404/404 401/401/401 403/403/403
f 403/403/403 389/389/389 405/405/405
f 406/406/406 403/403/403 405/405/405
f 389/389/389 388/388/388 405/405/405
f 405/405/405 388/388/388 407/407/407
f 408/408/408 405/405/405 407/407/407
f 388/388/388 390/390/390 407/407/407
f 407/407/407 390/390/390 409/409/409
f 410/410/410 407/407/407 409/409/409
f 390/390/390 411/411/411 409/409/409
f 390/390/390 385/385/385 411/411/411
f 409/409/409 411/411/411 412/412/412
f 413/413/413 409/409/409 412/412/412
f 385/385/385 414/414/414 411/411/411
f 385/385/385 386/386/386 414/414/414
f 411/411/411 415/415/415 412/412/412
f 411/411/411 414/414/414 415/415/415
f 386/386/386 416/416/416 414/414/414
f 416/416/416 386/386/386 417/417/417
f 412/412/412 415/415/415 399/399/399
f 418/418/418 412/412/412 399/399/399
f 415/415/415 419/419/419 399/399/399
f 414/414/414 420/420/420 415/415/415
f 415/415/415 420/420/420 419/419/419
f 414/414/414 416/416/416 420/420/420
f 420/420/420 421/421/421 419/419/419
f 416/416/416 422/422/422 420/420/420
f 420/420/420 422/422/422 421/421/421
f 422/422/422 416/416/416 423/423/423
f 422/422/422 424/424/424 421/421/421
f 393/393/393 422/422/422 425/425/425
f 428/428/428 427/427/427 426/426/426
f 429/429/429 428/428/428 426/426/426
f 428/428/428 430/430/430 427/427/427
f 428/428/428 429/429/429 431/431/431
f 430/430/430 428/428/428 432/432/432
f 432/432/432 428/428/428 431/431/431
f 429/429/429 426/426/426 433/433/433
f 426/426/426 427/427/427 434/434/434
f 433/433/433 426/426/426 435/435/435
f 435/435/435 426/426/426 434/434/434
f 432/432/432 431/431/431 435/435/435
f 434/434/434 432/432/432 435/435/435
f 435/435/435 431/431/431 436/436/436
f 436/436/436 433/433/433 435/435/435
f 431/431/431 429/429/429 437/437/437
f 431/431/431 437/437/437 436/436/436
f 438/438/438 432/432/432 434/434/434
f 438/438/438 430/430/430 432/432/432
f 434/434/434 427/427/427 439/439/439
f 439/439/439 438/438/438 434/434/434
f 440/440/440 429/429/429 433/433/433
f 429/429/429 440/440/440 437/437/437
f 441/441/441 433/433/433 436/436/436
f 440/440/440 433/433/433 441/441/441
f 430/430/430 442/442/442 427/427/427
f 427/427/427 442/442/442 439/439/439
f 443/443/443 430/430/430 438/438/438
f 430/430/430 443/443/443 442/442/442
f 436/436/436 437/437/437 444/444/444
f 444/444/444 441/441/441 436/436/436
f 437/437/437 440/440/440 445/445/445
f 437/437/437 445/445/445 444/444/444
f 446/446/446 438/438/438 439/439/439
f 446/446/446 443/443/443 438/438/438
f 439/439/439 442/442/442 447/447/447
f 447/447/447 446/446/446 439/439/439
f 448/448/448 440/440/440 441/441/441
f 440/440/440 448/448/448 445/445/445
f 449/449/449 441/441/441 444/444/444
f 448/448/448 441/441/441 449/449/449
f 443/443/443 450/450/450 442/442/442
f 442/442/442 450/450/450 447/447/447
f 451/451/451 443/443/443 446/446/446
f 443/443/443 451/451/451 450/450/450
f 444/444/444 445/445/445 452/452/452
f 452/452/452 449/449/449 444/444/444
f 445/445/445 448/448/448 453/453/453
f 445/445/445 453/453/453 452/452/452
f 454/454/454 446/446/446 447/447/447
f 454/454/454 451/451/451 446/446/446
f 447/447/447 450/450/450 455/455/455
f 455/455/455 454/454/454 447/447/447
f 452/452/452 453/453/453 455/455/455
f 453/453/453 454/454/454 455/455/455
f 448/448/448 456/456/456 453/453/453
f 453/453/453 456/456/456 454/454/454
f 456/456/456 448/448/448 449/449/449
f 456/456/456 451/451/451 454/454/454
f 451/451/451 457/457/457 450/450/450
f 450/450/450 457/457/457 455/455/455
f 455/455/455 457/457/457 452/452/452
f 457/457/457 449/449/449 452/452/452
f 456/456/456 449/449/449 457/457/457
f 451/451/451 456/456/456 457/457/457
g Helm_2
f 149/149/149 147/147/147 145/145/145
f 145/145/145 142/142/142 149/149/149
f 142/142/142 151/151/151 149/149/149
f 142/142/142 143/143/143 151/151/151
f 143/143/143 153/153/153 151/151/151
f 143/143/143 458/458/458 153/153/153
f 153/153/153 458/458/458 154/154/154
f 458/458/458 159/159/159 154/154/154
f 458/458/458 143/143/143 159/159/159
f 143/143/143 141/141/141 159/159/159
f 334/334/334 336/336/336 338/338/338
f 338/338/338 332/332/332 334/334/334
f 338/338/338 340/340/340 332/332/332
f 340/340/340 331/331/331 332/332/332
f 340/340/340 342/342/342 331/331/331
f 342/342/342 459/459/459 331/331/331
f 459/459/459 342/342/342 343/343/343
f 348/348/348 459/459/459 343/343/343
f 331/331/331 459/459/459 348/348/348
f 330/330/330 331/331/331 348/348/348
g Helm_3
f 462/462/462 461/461/461 460/460/460
f 461/461/461 463/463/463 460/460/460
f 460/460/460 463/463/463 464/464/464
f 465/465/465 461/461/461 462/462/462
f 466/466/466 465/465/465 462/462/462
f 463/463/463 467/467/467 464/464/464
f 464/464/464 467/467/467 468/468/468
f 469/469/469 465/465/465 466/466/466
f 470/470/470 469/469/469 466/466/466
f 467/467/467 471/471/471 468/468/468
f 468/468/468 471/471/471 472/472/472
f 473/473/473 469/469/469 470/470/470
f 474/474/474 473/473/473 470/470/470
f 472/472/472 475/475/475 474/474/474
f 471/471/471 475/475/475 472/472/472
f 475/475/475 473/473/473 474/474/474
f 465/465/465 476/476/476 461/461/461
f 461/461/461 477/477/477 463/463/463
f 476/476/476 477/477/477 461/461/461
f 476/476/476 478/478/478 477/477/477
f 479/479/479 476/476/476 465/465/465
f 469/469/469 479/479/479 465/465/465
f 479/479/479 478/478/478 476/476/476
f 477/477/477 480/480/480 463/463/463
f 477/477/477 478/478/478 480/480/480
f 463/463/463 480/480/480 467/467/467
f 481/481/481 479/479/479 469/469/469
f 473/473/473 481/481/481 469/469/469
f 481/481/481 478/478/478 479/479/479
f 480/480/480 482/482/482 467/467/467
f 467/467/467 482/482/482 471/471/471
f 480/480/480 478/478/478 482/482/482
f 483/483/483 481/481/481 473/473/473
f 475/475/475 483/483/483 473/473/473
f 483/483/483 478/478/478 481/481/481
f 482/482/482 484/484/484 471/471/471
f 471/471/471 484/484/484 475/475/475
f 482/482/482 478/478/478 484/484/484
f 484/484/484 483/483/483 475/475/475
f 484/484/484 478/478/478 483/483/483
f 487/487/487 486/486/486 485/485/485
f 488/488/488 487/487/487 485/485/485
f 488/488/488 485/485/485 489/489/489
f 487/487/487 490/490/490 486/486/486
f 490/490/490 491/491/491 486/486/486
f 492/492/492 488/488/488 489/489/489
f 492/492/492 489/489/489 493/493/493
f 490/490/490 494/494/494 491/491/491
f 494/494/494 495/495/495 491/491/491
f 496/496/496 492/492/492 493/493/493
f 496/496/496 493/493/493 497/497/497
f 494/494/494 498/498/498 495/495/495
f 498/498/498 499/499/499 495/495/495
f 500/500/500 497/497/497 499/499/499
f 500/500/500 496/496/496 497/497/497
f 498/498/498 500/500/500 499/499/499
f 501/501/501 490/490/490 487/487/487
f 502/502/502 487/487/487 488/488/488
f 502/502/502 501/501/501 487/487/487
f 503/503/503 488/488/488 492/492/492
f 503/503/503 502/502/502 488/488/488
f 504/504/504 494/494/494 490/490/490
f 501/501/501 504/504/504 490/490/490
f 505/505/505 492/492/492 496/496/496
f 505/505/505 503/503/503 492/492/492
f 506/506/506 496/496/496 500/500/500
f 506/506/506 505/505/505 496/496/496
f 507/507/507 498/498/498 494/494/494
f 504/504/504 507/507/507 494/494/494
f 508/508/508 500/500/500 498/498/498
f 508/508/508 506/506/506 500/500/500
f 507/507/507 508/508/508 498/498/498
f 509/509/509 502/502/502 503/503/503
f 510/510/510 501/501/501 502/502/502
f 509/509/509 510/510/510 502/502/502
f 511/511/511 503/503/503 505/505/505
f 511/511/511 509/509/509 503/503/503
f 512/512/512 504/504/504 501/501/501
f 510/510/510 512/512/512 501/501/501
f 513/513/513 505/505/505 506/506/506
f 513/513/513 511/511/511 505/505/505
f 514/514/514 506/506/506 508/508/508
f 514/514/514 513/513/513 506/506/506
f 515/515/515 507/507/507 504/504/504
f 512/512/512 515/515/515 504/504/504
f 516/516/516 508/508/508 507/507/507
f 516/516/516 514/514/514 508/508/508
f 515/515/515 516/516/516 507/507/507
f 517/517/517 510/510/510 509/509/509
f 518/518/518 509/509/509 511/511/511
f 518/518/518 517/517/517 509/509/509
f 519/519/519 511/511/511 513/513/513
f 519/519/519 518/518/518 511/511/511
f 520/520/520 512/512/512 510/510/510
f 517/517/517 520/520/520 510/510/510
f 521/521/521 513/513/513 514/514/514
f 521/521/521 519/519/519 513/513/513
f 522/522/522 514/514/514 516/516/516
f 522/522/522 521/521/521 514/514/514
f 523/523/523 515/515/515 512/512/512
f 520/520/520 523/523/523 512/512/512
f 524/524/524 516/516/516 515/515/515
f 524/524/524 522/522/522 516/516/516
f 523/523/523 524/524/524 515/515/515
f 525/525/525 517/517/517 518/518/518
f 526/526/526 518/518/518 519/519/519
f 526/526/526 525/525/525 518/518/518
f 527/527/527 525/525/525 526/526/526
f 525/525/525 528/528/528 517/517/517
f 528/528/528 520/520/520 517/517/517
f 527/527/527 528/528/528 525/525/525
f 529/529/529 526/526/526 519/519/519
f 529/529/529 519/519/519 521/521/521
f 527/527/527 526/526/526 529/529/529
f 528/528/528 530/530/530 520/520/520
f 530/530/530 523/523/523 520/520/520
f 527/527/527 530/530/530 528/528/528
f 531/531/531 529/529/529 521/521/521
f 531/531/531 521/521/521 522/522/522
f 527/527/527 529/529/529 531/531/531
f 530/530/530 532/532/532 523/523/523
f 532/532/532 524/524/524 523/523/523
f 527/527/527 532/532/532 530/530/530
f 533/533/533 531/531/531 522/522/522
f 533/533/533 522/522/522 524/524/524
f 532/532/532 533/533/533 524/524/524
f 527/527/527 531/531/531 533/533/533
f 527/527/527 533/533/533 532/532/532
g Helm_4
f 536/536/536 535/535/535 534/534/534
f 536/536/536 537/537/537 535/535/535
f 540/540/540 539/539/539 538/538/538
f 541/541/541 539/539/539 540/540/540
