g leatherhelmet_leath_erhelmet
v -0.571965992 0.279475003 -1.28025401
v -0.180267006 0.286495 -1.40014899
v -0.171525002 0.841789007 -1.14937401
v -0.480349004 0.819880009 -1.042781
v -0.775403976 0.804602027 -0.591606975
v -0.803309023 0.272706985 -1.02640498
v -0.968802989 0.256936014 -0.761023998
v -0.159807995 1.19777405 -0.885011971
v -1.16798103 0.259662002 0.0122830002
v -0.318277001 1.21089697 -0.764989972
v -0.139433995 1.479357 -0.525382996
v -0.962351978 0.813048005 0.0116210002
v -1.00107098 0.264423996 0.748016
v -0.575971007 1.21657801 -0.453503996
v -0.246105 1.46709704 -0.480468005
v -0.141578004 1.66935694 -0.252175987
v -0.828257024 0.814348996 0.600597024
v -0.549762011 0.282045007 1.27726495
v -0.710008979 1.24659598 0.0124829998
v -0.393159986 1.50351 -0.272323012
v -0.448343992 0.819812 0.991353989
v -0.165693 0.281208992 1.42934096
v -0.161523998 0.837489009 1.16500497
v -0.598460972 1.22811794 0.443385005
v -0.328759998 1.21110499 0.764171004
v -0.15478 1.23417902 0.888770998
v -0.474920988 1.53170097 0.0126379998
v -0.245963007 1.67656398 -0.130200997
v -0.141405001 1.74390697 -0.0732389987
v -0.141218007 1.76528001 0.0111149997
v -0.305848002 1.69845605 0.0126820002
v -0.141139001 1.74321699 0.0899249986
v -0.223609 1.68393695 0.134270996
v -0.141009003 1.69368994 0.237042993
v -0.366384 1.51588202 0.261546999
v -0.268173009 1.469257 0.491881013
v -0.146481007 1.48385096 0.543556988
v -0.884741008 -0.0360990018 -0.919782996
v -1.00745106 -0.00402500015 -0.799139023
v -0.97370398 -0.0086099999 -0.771183014
v -0.914554 -0.031564001 -0.960572004
v -0.788007975 -0.276917011 -1.07912004
v -0.767943978 -0.280061007 -1.03259397
v -0.675799012 -0.454374999 -1.164765
v -0.653360009 -0.455457002 -1.12596297
v -0.446736991 -0.592140019 -1.31312895
v -0.444480002 -0.593768001 -1.26514697
v -0.167423993 -0.730158985 -1.45439196
v -0.0951189995 -0.409931004 -1.46055996
v -0.167423993 -0.734457016 -1.40415299
v -0 -0.773060977 -1.45728195
v -0 -0.768763006 -1.50751996
v -0 -0.453393996 -1.474828
v -0.360529989 -0.378699988 -1.38122797
v -0.507162988 -0.311942011 -1.29843497
v -0.608992994 -0.192229003 -1.24507296
v -0.630659997 -0.0787020028 -1.23738503
v -0.118726 -0.208519995 -1.43964505
v -0 -0.141774997 -1.44252503
v -0.255522996 -0.0780569986 -1.41418803
v -0 0.0204019994 -1.42571294
v -0 0.279662997 -1.42400301
v -0.175407007 0.281746 -1.41772699
v -0 0.858128011 -1.19209003
v -0.171525002 0.879676998 -1.16695201
v -0 1.23267901 -0.923361003
v -0.159807995 1.22739506 -0.902589023
v -0 1.49332404 -0.581001997
v -0.119029999 -0.212900996 -1.410079
v -0.0952280015 -0.416023999 -1.41905606
v -0.364336014 -0.37993899 -1.33992004
v -0.514666021 -0.308326989 -1.25732195
v -0.608805001 -0.190623 -1.190889
v -0.253385991 -0.0825280026 -1.38069105
v -0.622780979 -0.079106003 -1.19995403
v -0.473758012 -0.00467499997 -1.30916703
v -0.481031001 -0.00222899998 -1.34277296
v -0.37747699 0.280806988 -1.35987997
v -0.579980016 0.279864997 -1.30190897
v -0.180267006 0.286495 -1.40014899
v -0.571965992 0.279475003 -1.28025401
v -0.171525002 0.841789007 -1.14937401
v -0.803309023 0.272706985 -1.02640498
v -0.159807995 1.19777405 -0.885011971
v -0.823270023 0.272924989 -1.04393303
v -0.968802989 0.256936014 -0.761023998
v -0.139433995 1.50897706 -0.542961001
v -0.139433995 1.479357 -0.525382996
v -0.992307007 0.257394999 -0.783960998
v -1.197896 0.259710014 0.00775100011
v -1.16798103 0.259662002 0.0122830002
v -1.06206 -0.00464100018 -0.580968022
v -1.20941401 -0.0063029998 0.00773000019
v -1.00107098 0.264423996 0.748016
v -1.04012203 0.00227400009 0.761144996
v -0.141578004 1.69897795 -0.269753993
v -0 1.69399095 -0.279689997
v -0.141578004 1.66935694 -0.252175987
v -0 1.80077899 -0.00488599995
v -1.03300905 0.264423996 0.763176024
v -0.549762011 0.282045007 1.27726495
v -0.556753993 0.0156399999 1.27913296
v -0.141405001 1.77352798 -0.090816997
v -0.141405001 1.74390697 -0.0732389987
v -0.55677402 0.282209992 1.30107403
v -0.165693 0.281208992 1.42934096
v -0.168272004 0.0176880006 1.47002304
v -0.141218007 1.79490101 -0.00646300009
v -0.141218007 1.76528001 0.0111149997
v -0.165693 0.285272002 1.455248
v -0 0.0164209995 1.47381997
v -0.161523998 0.837489009 1.16500497
v -0 0.284570009 1.46621799
v -0.141139001 1.772838 0.0723479986
v -0.141139001 1.74321699 0.0899249986
v -0 1.72205901 0.309018999
v -0.161523998 0.863595009 1.19696701
v -0.15478 1.23417902 0.888770998
v -0 0.846345007 1.23269403
v -0.141009003 1.72330999 0.269003987
v -0.141009003 1.69368994 0.237042993
v -0.15478 1.25201702 0.920732975
v -0.146481007 1.48385096 0.543556988
v -0 1.23863494 0.963591993
v -0.146481007 1.51347196 0.575519025
v -0 1.49981797 0.617906988
v -0.168272004 0.0167970005 1.438061
v -0 0.0155300004 1.44185805
v -0 0.916293025 1.10837805
v -0.353258014 0.838818014 0.92374301
v -0.549601018 0.0155300004 1.25366902
v -0 1.30274105 0.708034992
v -1.00818396 0.00227400009 0.745984018
v -0.263078988 1.25521398 0.652437985
v -0 1.67010999 0.0122840004
v -0.763638973 0.830613017 0.609517992
v -1.17954302 -0.006391 0.0122830002
v -0.498622 1.24840498 0.391674995
v -0.896292984 0.823594987 0.0152669996
v -0.603218973 1.24395502 0.0148219997
v -0.712581992 0.821798027 -0.629395008
v -1.01968896 -0.00811399985 -0.596156001
v -0.97370398 -0.0086099999 -0.771183014
v -0.447678 1.24281502 -0.360285014
v -0.263078988 1.25521398 -0.622794986
v -0 1.25521398 -0.714752972
v -0.369132996 0.837001979 -0.946922004
v -0.884741008 -0.0360990018 -0.919782996
v -0 0.841349006 -1.13518
v -0.622780979 -0.079106003 -1.19995403
v -0.767943978 -0.280061007 -1.03259397
v -0.473758012 -0.00467499997 -1.30916703
v -0.608805001 -0.190623 -1.190889
v -0.653360009 -0.455457002 -1.12596297
v -0.514666021 -0.308326989 -1.25732195
v -0.444480002 -0.593768001 -1.26514697
v -0.364336014 -0.37993899 -1.33992004
v -0 0.0155300004 -1.40813601
v -0.253385991 -0.0825280026 -1.38069105
v -0.119029999 -0.212900996 -1.410079
v -0 -0.130831003 -1.41725695
v -0.167423993 -0.734457016 -1.40415299
v -0.0952280015 -0.416023999 -1.41905606
v -0 -0.462173998 -1.43790698
v -0 -0.773060977 -1.45728195
v -0.941080987 -0.410919994 -0.711876988
v -0.874943018 -0.664175987 -0.588684022
v -1.00647497 -0.681526005 -0.444656014
v -1.01062906 -0.360294998 -0.595247984
v -0.97370398 -0.0086099999 -0.771183014
v -1.201617 -0.725821972 0.0105039999
v -1.01968896 -0.00811399985 -0.596156001
v -1.17367399 -0.388808012 0.0113939997
v -1.137339 -0.638826013 0.675834
v -1.17954302 -0.006391 0.0122830002
v -1.06890202 -0.364286005 0.74930501
v -1.00818396 0.00227400009 0.745984018
v -1.00745106 -0.00402500015 -0.799139023
v -0.941080987 -0.410919994 -0.711876988
v -0.97370398 -0.0086099999 -0.771183014
v -0.974828005 -0.406334996 -0.739832997
v -1.06206 -0.00464100018 -0.580968022
v -0.874943018 -0.664175987 -0.588684022
v -1.05982697 -0.357695013 -0.589789987
v -1.20941401 -0.0063029998 0.00773000019
v -0.908689976 -0.659591973 -0.616639972
v -1.04393196 -0.679799974 -0.448924989
v -1.00647497 -0.681526005 -0.444656014
v -1.220451 -0.388720006 0.00684100017
v -1.04012203 0.00227400009 0.761144996
v -1.23148799 -0.725733995 0.00595099991
v -1.201617 -0.725821972 0.0105039999
v -1.12592804 -0.364286005 0.764464974
v -1.00818396 0.00227400009 0.745984018
v -1.06890202 -0.364286005 0.74930501
v -1.169276 -0.638826013 0.690994024
v -1.137339 -0.638826013 0.675834
v -0.921687007 -0.657975018 1.06546605
v -0.924040973 -1.00074005 1.28446698
v -0.551908016 -1.00626099 1.68473494
v -0.54955399 -0.663496017 1.465734
v -1.00815797 -0.317133009 0.827603996
v -0.170578003 -1.00499403 1.86912799
v -0.549574971 -0.303876996 1.33528805
v -1.00818396 0.00227400009 0.745984018
v -0.549601018 0.0155300004 1.25366902
v -0.168225005 -0.662227988 1.65012705
v -0 -1.00626099 1.87292504
v -0 -0.663496017 1.65392399
v -0.168246001 -0.30261001 1.51968098
v -0.168272004 0.0167970005 1.438061
v -0 -0.303876996 1.52347803
v -0 0.0155300004 1.44185805
v -1.04012203 0.00227400009 0.761144996
v -1.00815797 -0.317133009 0.827603996
v -1.00818396 0.00227400009 0.745984018
v -1.04009604 -0.317133009 0.84276402
v -0.556753993 0.0156399999 1.27913296
v -0.921687007 -0.657975018 1.06546605
v -0.556726992 -0.303766996 1.36075306
v -0.168272004 0.0176880006 1.47002304
v -0.953625023 -0.657975018 1.08062601
v -0.924040973 -1.00074005 1.28446698
v -0.168246001 -0.30171901 1.55164301
v -0 0.0164209995 1.47381997
v -0 -0.302985996 1.55543995
v -0.556706011 -0.663384974 1.49119902
v -0.168225005 -0.661337018 1.68208897
v -0 -0.662603974 1.68588603
v -0.955977976 -1.00074005 1.29962695
v -0.559059978 -1.00615096 1.71019995
v -0.551908016 -1.00626099 1.68473494
v -0.170578003 -1.00410295 1.90109003
v -0 -1.00537002 1.90488696
v -0.170578003 -1.00499403 1.86912799
v -0 -1.00626099 1.87292504
v 0.571965992 0.279475003 -1.28025401
v 0.171525002 0.841789007 -1.14937401
v 0.180267006 0.286495 -1.40014899
v 0.480349004 0.819880009 -1.042781
v 0.775403976 0.804602027 -0.591606975
v 0.803309023 0.272706985 -1.02640498
v 0.968802989 0.256936014 -0.761023998
v 0.159807995 1.19777405 -0.885011971
v 1.16798103 0.259662002 0.0122830002
v 0.318277001 1.21089697 -0.764989972
v 0.139433995 1.479357 -0.525382996
v 0.962351978 0.813048005 0.0116210002
v 1.00107098 0.264423996 0.748016
v 0.575971007 1.21657801 -0.453503996
v 0.246105 1.46709704 -0.480468005
v 0.141578004 1.66935694 -0.252175987
v 0.828257024 0.814348996 0.600597024
v 0.549762011 0.282045007 1.27726495
v 0.710008979 1.24659598 0.0124829998
v 0.393159986 1.50351 -0.272323012
v 0.448343992 0.819812 0.991353989
v 0.165693 0.281208992 1.42934096
v 0.161523998 0.837489009 1.16500497
v 0.598460972 1.22811794 0.443385005
v 0.328759998 1.21110499 0.764171004
v 0.15478 1.23417902 0.888770998
v 0.474920988 1.53170097 0.0126379998
v 0.245963007 1.67656398 -0.130200997
v 0.141405001 1.74390697 -0.0732389987
v 0.141218007 1.76528001 0.0111149997
v 0.305848002 1.69845605 0.0126820002
v 0.141139001 1.74321699 0.0899249986
v 0.223609 1.68393695 0.134270996
v 0.141009003 1.69368994 0.237042993
v 0.366384 1.51588202 0.261546999
v 0.268173009 1.469257 0.491881013
v 0.146481007 1.48385096 0.543556988
v 0.884741008 -0.0360990018 -0.919782996
v 0.97370398 -0.0086099999 -0.771183014
v 1.00745106 -0.00402500015 -0.799139023
v 0.914554 -0.031564001 -0.960572004
v 0.788007975 -0.276917011 -1.07912004
v 0.767943978 -0.280061007 -1.03259397
v 0.675799012 -0.454374999 -1.164765
v 0.653360009 -0.455457002 -1.12596297
v 0.446736991 -0.592140019 -1.31312895
v 0.444480002 -0.593768001 -1.26514697
v 0.167423993 -0.730158985 -1.45439196
v 0.0951189995 -0.409931004 -1.46055996
v 0.167423993 -0.734457016 -1.40415299
v -0 -0.773060977 -1.45728195
v -0 -0.768763006 -1.50751996
v -0 -0.453393996 -1.474828
v 0.360529989 -0.378699988 -1.38122797
v 0.507162988 -0.311942011 -1.29843497
v 0.608992994 -0.192229003 -1.24507296
v 0.630659997 -0.0787020028 -1.23738503
v 0.118726 -0.208519995 -1.43964505
v -0 -0.141774997 -1.44252503
v 0.255522996 -0.0780569986 -1.41418803
v -0 0.0204019994 -1.42571294
v -0 0.279662997 -1.42400301
v 0.175407007 0.281746 -1.41772699
v -0 0.858128011 -1.19209003
v 0.171525002 0.879676998 -1.16695201
v -0 1.23267901 -0.923361003
v 0.159807995 1.22739506 -0.902589023
v -0 1.49332404 -0.581001997
v 0.119029999 -0.212900996 -1.410079
v 0.0952280015 -0.416023999 -1.41905606
v 0.364336014 -0.37993899 -1.33992004
v 0.514666021 -0.308326989 -1.25732195
v 0.608805001 -0.190623 -1.190889
v 0.253385991 -0.0825280026 -1.38069105
v 0.622780979 -0.079106003 -1.19995403
v 0.473758012 -0.00467499997 -1.30916703
v 0.481031001 -0.00222899998 -1.34277296
v 0.37747699 0.280806988 -1.35987997
v 0.579980016 0.279864997 -1.30190897
v 0.180267006 0.286495 -1.40014899
v 0.571965992 0.279475003 -1.28025401
v 0.171525002 0.841789007 -1.14937401
v 0.803309023 0.272706985 -1.02640498
v 0.159807995 1.19777405 -0.885011971
v 0.823270023 0.272924989 -1.04393303
v 0.968802989 0.256936014 -0.761023998
v 0.139433995 1.50897706 -0.542961001
v 0.139433995 1.479357 -0.525382996
v 0.992307007 0.257394999 -0.783960998
v 1.197896 0.259710014 0.00775100011
v 1.16798103 0.259662002 0.0122830002
v 1.06206 -0.00464100018 -0.580968022
v 1.20941401 -0.0063029998 0.00773000019
v 1.00107098 0.264423996 0.748016
v 1.04012203 0.00227400009 0.761144996
v 0.141578004 1.69897795 -0.269753993
v -0 1.69399095 -0.279689997
v 0.141578004 1.66935694 -0.252175987
v -0 1.80077899 -0.00488599995
v 1.03300905 0.264423996 0.763176024
v 0.549762011 0.282045007 1.27726495
v 0.556753993 0.0156399999 1.27913296
v 0.141405001 1.77352798 -0.090816997
v 0.141405001 1.74390697 -0.0732389987
v 0.55677402 0.282209992 1.30107403
v 0.165693 0.281208992 1.42934096
v 0.168272004 0.0176880006 1.47002304
v 0.141218007 1.79490101 -0.00646300009
v 0.141218007 1.76528001 0.0111149997
v 0.165693 0.285272002 1.455248
v -0 0.0164209995 1.47381997
v 0.161523998 0.837489009 1.16500497
v -0 0.284570009 1.46621799
v 0.141139001 1.772838 0.0723479986
v 0.141139001 1.74321699 0.0899249986
v -0 1.72205901 0.309018999
v 0.161523998 0.863595009 1.19696701
v 0.15478 1.23417902 0.888770998
v -0 0.846345007 1.23269403
v 0.141009003 1.72330999 0.269003987
v 0.141009003 1.69368994 0.237042993
v 0.15478 1.25201702 0.920732975
v 0.146481007 1.48385096 0.543556988
v -0 1.23863494 0.963591993
v 0.146481007 1.51347196 0.575519025
v -0 1.49981797 0.617906988
v -0 0.916293025 1.10837805
v -0 0.0155300004 1.44185805
v 0.168272004 0.0167970005 1.438061
v 0.353258014 0.838818014 0.92374301
v 0.549601018 0.0155300004 1.25366902
v -0 1.30274105 0.708034992
v 1.00818396 0.00227400009 0.745984018
v 0.263078988 1.25521398 0.652437985
v -0 1.67010999 0.0122840004
v 0.763638973 0.830613017 0.609517992
v 1.17954302 -0.006391 0.0122830002
v 0.498622 1.24840498 0.391674995
v 0.896292984 0.823594987 0.0152669996
v 0.603218973 1.24395502 0.0148219997
v 0.712581992 0.821798027 -0.629395008
v 1.01968896 -0.00811399985 -0.596156001
v 0.97370398 -0.0086099999 -0.771183014
v 0.447678 1.24281502 -0.360285014
v 0.263078988 1.25521398 -0.622794986
v -0 1.25521398 -0.714752972
v 0.369132996 0.837001979 -0.946922004
v 0.884741008 -0.0360990018 -0.919782996
v -0 0.841349006 -1.13518
v 0.622780979 -0.079106003 -1.19995403
v 0.767943978 -0.280061007 -1.03259397
v 0.473758012 -0.00467499997 -1.30916703
v 0.608805001 -0.190623 -1.190889
v 0.653360009 -0.455457002 -1.12596297
v 0.514666021 -0.308326989 -1.25732195
v 0.444480002 -0.593768001 -1.26514697
v 0.364336014 -0.37993899 -1.33992004
v -0 0.0155300004 -1.40813601
v 0.253385991 -0.0825280026 -1.38069105
v 0.119029999 -0.212900996 -1.410079
v -0 -0.130831003 -1.41725695
v 0.167423993 -0.734457016 -1.40415299
v 0.0952280015 -0.416023999 -1.41905606
v -0 -0.462173998 -1.43790698
v -0 -0.773060977 -1.45728195
v 0.941080987 -0.410919994 -0.711876988
v 1.00647497 -0.681526005 -0.444656014
v 0.874943018 -0.664175987 -0.588684022
v 1.01062906 -0.360294998 -0.595247984
v 0.97370398 -0.0086099999 -0.771183014
v 1.201617 -0.725821972 0.0105039999
v 1.01968896 -0.00811399985 -0.596156001
v 1.17367399 -0.388808012 0.0113939997
v 1.137339 -0.638826013 0.675834
v 1.17954302 -0.006391 0.0122830002
v 1.06890202 -0.364286005 0.74930501
v 1.00818396 0.00227400009 0.745984018
v 1.00745106 -0.00402500015 -0.799139023
v 0.97370398 -0.0086099999 -0.771183014
v 0.941080987 -0.410919994 -0.711876988
v 0.974828005 -0.406334996 -0.739832997
v 1.06206 -0.00464100018 -0.580968022
v 0.874943018 -0.664175987 -0.588684022
v 1.05982697 -0.357695013 -0.589789987
v 1.20941401 -0.0063029998 0.00773000019
v 0.908689976 -0.659591973 -0.616639972
v 1.04393196 -0.679799974 -0.448924989
v 1.00647497 -0.681526005 -0.444656014
v 1.220451 -0.388720006 0.00684100017
v 1.04012203 0.00227400009 0.761144996
v 1.23148799 -0.725733995 0.00595099991
v 1.201617 -0.725821972 0.0105039999
v 1.12592804 -0.364286005 0.764464974
v 1.00818396 0.00227400009 0.745984018
v 1.06890202 -0.364286005 0.74930501
v 1.169276 -0.638826013 0.690994024
v 1.137339 -0.638826013 0.675834
v 0.921687007 -0.657975018 1.06546605
v 0.551908016 -1.00626099 1.68473494
v 0.924040973 -1.00074005 1.28446698
v 0.54955399 -0.663496017 1.465734
v 1.00815797 -0.317133009 0.827603996
v 0.170578003 -1.00499403 1.86912799
v 0.549574971 -0.303876996 1.33528805
v 1.00818396 0.00227400009 0.745984018
v 0.549601018 0.0155300004 1.25366902
v 0.168225005 -0.662227988 1.65012705
v -0 -1.00626099 1.87292504
v -0 -0.663496017 1.65392399
v 0.168246001 -0.30261001 1.51968098
v 0.168272004 0.0167970005 1.438061
v -0 -0.303876996 1.52347803
v -0 0.0155300004 1.44185805
v 1.04012203 0.00227400009 0.761144996
v 1.00818396 0.00227400009 0.745984018
v 1.00815797 -0.317133009 0.827603996
v 1.04009604 -0.317133009 0.84276402
v 0.556753993 0.0156399999 1.27913296
v 0.921687007 -0.657975018 1.06546605
v 0.556726992 -0.303766996 1.36075306
v 0.168272004 0.0176880006 1.47002304
v 0.953625023 -0.657975018 1.08062601
v 0.924040973 -1.00074005 1.28446698
v 0.168246001 -0.30171901 1.55164301
v -0 0.0164209995 1.47381997
v -0 -0.302985996 1.55543995
v 0.556706011 -0.663384974 1.49119902
v 0.168225005 -0.661337018 1.68208897
v -0 -0.662603974 1.68588603
v 0.955977976 -1.00074005 1.29962695
v 0.559059978 -1.00615096 1.71019995
v 0.551908016 -1.00626099 1.68473494
v 0.170578003 -1.00410295 1.90109003
v -0 -1.00537002 1.90488696
v 0.170578003 -1.00499403 1.86912799
v -0 -1.00626099 1.87292504
vt 0.124834001 0.649302006
vt 0.0669090003 0.668485999
vt 0.103171997 0.751682997
vt 0.147888005 0.733857989
vt 0.225298002 0.733928978
vt 0.176844001 0.644986987
vt 0.223881006 0.645020008
vt 0.136969 0.809666991
vt 0.341693014 0.669827998
vt 0.166552007 0.804988027
vt 0.180594996 0.863471985
vt 0.313230991 0.751847029
vt 0.443944991 0.72043103
vt 0.224834993 0.802209973
vt 0.195831001 0.854731977
vt 0.217575997 0.898298979
vt 0.390053988 0.788381994
vt 0.522472978 0.788828015
vt 0.290625006 0.817642987
vt 0.233219996 0.856297016
vt 0.447930992 0.841657996
vt 0.559448004 0.83822
vt 0.478211999 0.881389976
vt 0.346715003 0.843627989
vt 0.392664999 0.883005023
vt 0.410914004 0.909578979
vt 0.273788005 0.865558028
vt 0.241565004 0.894095004
vt 0.242762998 0.914958
vt 0.255066991 0.920786023
vt 0.263532996 0.896516025
vt 0.267399997 0.92305702
vt 0.278611004 0.910636008
vt 0.291088015 0.926176012
vt 0.306632996 0.886295021
vt 0.339940012 0.902402997
vt 0.347263008 0.920993984
vt 0.651914001 0.137795001
vt 0.672858 0.158435002
vt 0.677769005 0.153383002
vt 0.644806027 0.143178001
vt 0.614606023 0.102026999
vt 0.621710002 0.0975959972
vt 0.590205014 0.0740929991
vt 0.595328987 0.0684209988
vt 0.546001971 0.0502890013
vt 0.551995993 0.0446970016
vt 0.494682997 0.0337780006
vt 0.48615101 0.0884890035
vt 0.499379992 0.0271380004
vt 0.470847011 0.0192719996
vt 0.466437995 0.0267110001
vt 0.469529986 0.0805210024
vt 0.529102981 0.0835559964
vt 0.556469023 0.0960450023
vt 0.576232016 0.113802001
vt 0.572405994 0.133323997
vt 0.489787996 0.124502003
vt 0.47033599 0.136805996
vt 0.510841012 0.144528002
vt 0.471987993 0.163175002
vt 0.47904101 0.205450997
vt 0.507058024 0.201396003
vt 0.497804999 0.302127004
vt 0.523696005 0.299281001
vt 0.523660004 0.368921012
vt 0.546549976 0.359164
vt 0.56051302 0.425646991
vt 0.493647993 0.122556001
vt 0.493975013 0.0930410028
vt 0.530963004 0.0903259963
vt 0.55637902 0.102234997
vt 0.568395972 0.117532
vt 0.513701022 0.140223995
vt 0.567875981 0.129388005
vt 0.547430992 0.146697
vt 0.547288001 0.151671007
vt 0.537042975 0.194322005
vt 0.566049993 0.187497005
vt 0.509692013 0.203195006
vt 0.566910982 0.190700993
vt 0.527513981 0.294613987
vt 0.61729598 0.195346996
vt 0.550468028 0.355796009
vt 0.617501974 0.191508994
vt 0.661983013 0.202538997
vt 0.581915021 0.417694986
vt 0.585897028 0.414305001
vt 0.661548018 0.197813004
vt 0.76582402 0.241102993
vt 0.764367998 0.244923994
vt 0.702751994 0.171773002
vt 0.783414006 0.207763001
vt 0.845086992 0.301450014
vt 0.869993985 0.269398004
vt 0.612514019 0.456064999
vt 0.596571982 0.470106989
vt 0.616178989 0.452618986
vt 0.633759022 0.497761011
vt 0.84781301 0.298110992
vt 0.907751977 0.367285997
vt 0.937003016 0.342593998
vt 0.633814991 0.472759008
vt 0.637417018 0.469662994
vt 0.911130011 0.366335988
vt 0.931511998 0.412003994
vt 0.968527973 0.391750991
vt 0.64289701 0.47893399
vt 0.646602988 0.476673007
vt 0.93602401 0.413531989
vt 0.984697998 0.40970999
vt 0.854498982 0.457067996
vt 0.950558007 0.434976995
vt 0.653217971 0.481869012
vt 0.657414019 0.479589999
vt 0.681558013 0.511171997
vt 0.855979979 0.462561011
vt 0.790953994 0.479010999
vt 0.869358003 0.481460989
vt 0.679446995 0.489984989
vt 0.677950978 0.484214991
vt 0.793254972 0.483577013
vt 0.729695976 0.483233005
vt 0.803520024 0.504786015
vt 0.731279016 0.489340007
vt 0.73861903 0.51118201
vt 0.121965997 0.0360280015
vt 0.0980549976 0.0253630001
vt 0.0392360017 0.162698999
vt 0.0964929983 0.184086993
vt 0.177304998 0.0717829987
vt 0.0288810004 0.248083994
vt 0.256527007 0.146488994
vt 0.0696249977 0.252005011
vt 0.04177 0.368530989
vt 0.156359002 0.226163998
vt 0.317086011 0.247284994
vt 0.108989999 0.281277001
vt 0.200457007 0.296139985
vt 0.138435006 0.324030995
vt 0.224861994 0.383574009
vt 0.342355996 0.340611994
vt 0.349624991 0.367458999
vt 0.147943005 0.377555013
vt 0.147756994 0.422666997
vt 0.130655006 0.460997999
vt 0.220080003 0.44916901
vt 0.356305003 0.392735988
vt 0.208090007 0.510115981
vt 0.360302001 0.450100988
vt 0.392520994 0.419270009
vt 0.348307014 0.475896001
vt 0.376812011 0.451994985
vt 0.41763401 0.44383499
vt 0.392863005 0.470568001
vt 0.435218006 0.484165013
vt 0.401151001 0.497175008
vt 0.335173994 0.545476973
vt 0.355473995 0.510029972
vt 0.372123003 0.532581985
vt 0.357315004 0.54877001
vt 0.451703012 0.533710003
vt 0.402150005 0.539871991
vt 0.407476008 0.555372
vt 0.454860002 0.561083972
vt 0.225090995 0.461172998
vt 0.289582014 0.44224
vt 0.288917005 0.396811992
vt 0.213155001 0.429571986
vt 0.130431995 0.470256001
vt 0.300960004 0.281702012
vt 0.130903006 0.428133994
vt 0.221526995 0.282074988
vt 0.280131996 0.125967994
vt 0.132009 0.281446993
vt 0.214945003 0.107357003
vt 0.128294006 0.105738997
vt 0.126543 0.0713979974
vt 0.230350003 0.0883029997
vt 0.132486999 0.0610789992
vt 0.223206997 0.0963120013
vt 0.119329996 0.131999001
vt 0.292665005 0.112979002
vt 0.208773002 0.137397006
vt 0.121227004 0.299957007
vt 0.282867014 0.117597997
vt 0.289333999 0.166538998
vt 0.297221005 0.161599994
vt 0.219770998 0.28649801
vt 0.178260997 0.49239099
vt 0.303445011 0.276363999
vt 0.309825987 0.276055992
vt 0.255344987 0.451317996
vt 0.180613995 0.500526011
vt 0.26137799 0.463131011
vt 0.296276003 0.412265986
vt 0.304174989 0.414828986
vt 0.322293013 0.279864997
vt 0.316125989 0.203823
vt 0.219271004 0.169161007
vt 0.223229006 0.246723995
vt 0.344657004 0.35661
vt 0.141063005 0.153301001
vt 0.219519004 0.320528001
vt 0.337646991 0.418523014
vt 0.213302001 0.382972986
vt 0.142265007 0.231543005
vt 0.108522996 0.153301001
vt 0.109938003 0.230859995
vt 0.139559999 0.305364996
vt 0.135054007 0.367621988
vt 0.107761003 0.303346992
vt 0.103689998 0.365042001
vt 0.100208998 0.0702909976
vt 0.173464 0.0808050036
vt 0.101351999 0.0623920001
vt 0.171551004 0.0883440003
vt 0.099278003 0.237752005
vt 0.257739007 0.117941998
vt 0.179842994 0.245333001
vt 0.102677003 0.348185986
vt 0.254866987 0.125126004
vt 0.323323995 0.169724002
vt 0.186170995 0.352212995
vt 0.101154 0.391097009
vt 0.185404003 0.394993007
vt 0.264813006 0.253677011
vt 0.281670988 0.353246987
vt 0.28421101 0.396180004
vt 0.31823799 0.173363
vt 0.352506995 0.263130009
vt 0.356936991 0.259559005
vt 0.373576999 0.348385006
vt 0.384211987 0.384662986
vt 0.379554003 0.344949991
vt 0.391799003 0.382082999
vt 0.124834001 0.649302006
vt 0.103171997 0.751682997
vt 0.0669090003 0.668485999
vt 0.147888005 0.733857989
vt 0.225298002 0.733928978
vt 0.176844001 0.644986987
vt 0.223881006 0.645020008
vt 0.136969 0.809666991
vt 0.341693014 0.669827998
vt 0.166552007 0.804988027
vt 0.180594996 0.863471985
vt 0.313230991 0.751847029
vt 0.443944991 0.72043103
vt 0.224834993 0.802209973
vt 0.195831001 0.854731977
vt 0.217575997 0.898298979
vt 0.390053988 0.788381994
vt 0.522472978 0.788828015
vt 0.290625006 0.817642987
vt 0.233219996 0.856297016
vt 0.447930992 0.841657996
vt 0.559448004 0.83822
vt 0.478211999 0.881389976
vt 0.346715003 0.843627989
vt 0.392664999 0.883005023
vt 0.410914004 0.909578979
vt 0.273788005 0.865558028
vt 0.241565004 0.894095004
vt 0.242762998 0.914958
vt 0.255066991 0.920786023
vt 0.263532996 0.896516025
vt 0.267399997 0.92305702
vt 0.278611004 0.910636008
vt 0.291088015 0.926176012
vt 0.306632996 0.886295021
vt 0.339940012 0.902402997
vt 0.347263008 0.920993984
vt 0.651914001 0.137795001
vt 0.677769005 0.153383002
vt 0.672858 0.158435002
vt 0.644806027 0.143178001
vt 0.614606023 0.102026999
vt 0.621710002 0.0975959972
vt 0.590205014 0.0740929991
vt 0.595328987 0.0684209988
vt 0.546001971 0.0502890013
vt 0.551995993 0.0446970016
vt 0.494682997 0.0337780006
vt 0.48615101 0.0884890035
vt 0.499379992 0.0271380004
vt 0.470847011 0.0192719996
vt 0.466437995 0.0267110001
vt 0.469529986 0.0805210024
vt 0.529102981 0.0835559964
vt 0.556469023 0.0960450023
vt 0.576232016 0.113802001
vt 0.572405994 0.133323997
vt 0.489787996 0.124502003
vt 0.47033599 0.136805996
vt 0.510841012 0.144528002
vt 0.471987993 0.163175002
vt 0.47904101 0.205450997
vt 0.507058024 0.201396003
vt 0.497804999 0.302127004
vt 0.523696005 0.299281001
vt 0.523660004 0.368921012
vt 0.546549976 0.359164
vt 0.56051302 0.425646991
vt 0.493647993 0.122556001
vt 0.493975013 0.0930410028
vt 0.530963004 0.0903259963
vt 0.55637902 0.102234997
vt 0.568395972 0.117532
vt 0.513701022 0.140223995
vt 0.567875981 0.129388005
vt 0.547430992 0.146697
vt 0.547288001 0.151671007
vt 0.537042975 0.194322005
vt 0.566049993 0.187497005
vt 0.509692013 0.203195006
vt 0.566910982 0.190700993
vt 0.527513981 0.294613987
vt 0.61729598 0.195346996
vt 0.550468028 0.355796009
vt 0.617501974 0.191508994
vt 0.661983013 0.202538997
vt 0.581915021 0.417694986
vt 0.585897028 0.414305001
vt 0.661548018 0.197813004
vt 0.76582402 0.241102993
vt 0.764367998 0.244923994
vt 0.702751994 0.171773002
vt 0.783414006 0.207763001
vt 0.845086992 0.301450014
vt 0.869993985 0.269398004
vt 0.612514019 0.456064999
vt 0.596571982 0.470106989
vt 0.616178989 0.452618986
vt 0.633759022 0.497761011
vt 0.84781301 0.298110992
vt 0.907751977 0.367285997
vt 0.937003016 0.342593998
vt 0.633814991 0.472759008
vt 0.637417018 0.469662994
vt 0.911130011 0.366335988
vt 0.931511998 0.412003994
vt 0.968527973 0.391750991
vt 0.64289701 0.47893399
vt 0.646602988 0.476673007
vt 0.93602401 0.413531989
vt 0.984697998 0.40970999
vt 0.854498982 0.457067996
vt 0.950558007 0.434976995
vt 0.653217971 0.481869012
vt 0.657414019 0.479589999
vt 0.681558013 0.511171997
vt 0.855979979 0.462561011
vt 0.790953994 0.479010999
vt 0.869358003 0.481460989
vt 0.679446995 0.489984989
vt 0.677950978 0.484214991
vt 0.793254972 0.483577013
vt 0.729695976 0.483233005
vt 0.803520024 0.504786015
vt 0.731279016 0.489340007
vt 0.73861903 0.51118201
vt 0.0392360017 0.162698999
vt 0.0980549976 0.0253630001
vt 0.121965997 0.0360280015
vt 0.0964929983 0.184086993
vt 0.177304998 0.0717829987
vt 0.0288810004 0.248083994
vt 0.256527007 0.146488994
vt 0.0696249977 0.252005011
vt 0.04177 0.368530989
vt 0.156359002 0.226163998
vt 0.317086011 0.247284994
vt 0.108989999 0.281277001
vt 0.200457007 0.296139985
vt 0.138435006 0.324030995
vt 0.224861994 0.383574009
vt 0.342355996 0.340611994
vt 0.349624991 0.367458999
vt 0.147943005 0.377555013
vt 0.147756994 0.422666997
vt 0.130655006 0.460997999
vt 0.220080003 0.44916901
vt 0.356305003 0.392735988
vt 0.208090007 0.510115981
vt 0.360302001 0.450100988
vt 0.392520994 0.419270009
vt 0.348307014 0.475896001
vt 0.376812011 0.451994985
vt 0.41763401 0.44383499
vt 0.392863005 0.470568001
vt 0.435218006 0.484165013
vt 0.401151001 0.497175008
vt 0.335173994 0.545476973
vt 0.355473995 0.510029972
vt 0.372123003 0.532581985
vt 0.357315004 0.54877001
vt 0.451703012 0.533710003
vt 0.402150005 0.539871991
vt 0.407476008 0.555372
vt 0.454860002 0.561083972
vt 0.225090995 0.461172998
vt 0.288917005 0.396811992
vt 0.289582014 0.44224
vt 0.213155001 0.429571986
vt 0.130431995 0.470256001
vt 0.300960004 0.281702012
vt 0.130903006 0.428133994
vt 0.221526995 0.282074988
vt 0.280131996 0.125967994
vt 0.132009 0.281446993
vt 0.214945003 0.107357003
vt 0.128294006 0.105738997
vt 0.126543 0.0713979974
vt 0.132486999 0.0610789992
vt 0.230350003 0.0883029997
vt 0.223206997 0.0963120013
vt 0.119329996 0.131999001
vt 0.292665005 0.112979002
vt 0.208773002 0.137397006
vt 0.121227004 0.299957007
vt 0.282867014 0.117597997
vt 0.289333999 0.166538998
vt 0.297221005 0.161599994
vt 0.219770998 0.28649801
vt 0.178260997 0.49239099
vt 0.303445011 0.276363999
vt 0.309825987 0.276055992
vt 0.255344987 0.451317996
vt 0.180613995 0.500526011
vt 0.26137799 0.463131011
vt 0.296276003 0.412265986
vt 0.304174989 0.414828986
vt 0.322293013 0.279864997
vt 0.219271004 0.169161007
vt 0.316125989 0.203823
vt 0.223229006 0.246723995
vt 0.344657004 0.35661
vt 0.141063005 0.153301001
vt 0.219519004 0.320528001
vt 0.337646991 0.418523014
vt 0.213302001 0.382972986
vt 0.142265007 0.231543005
vt 0.108522996 0.153301001
vt 0.109938003 0.230859995
vt 0.139559999 0.305364996
vt 0.135054007 0.367621988
vt 0.107761003 0.303346992
vt 0.103689998 0.365042001
vt 0.100208998 0.0702909976
vt 0.101351999 0.0623920001
vt 0.173464 0.0808050036
vt 0.171551004 0.0883440003
vt 0.099278003 0.237752005
vt 0.257739007 0.117941998
vt 0.179842994 0.245333001
vt 0.102677003 0.348185986
vt 0.254866987 0.125126004
vt 0.323323995 0.169724002
vt 0.186170995 0.352212995
vt 0.101154 0.391097009
vt 0.185404003 0.394993007
vt 0.264813006 0.253677011
vt 0.281670988 0.353246987
vt 0.28421101 0.396180004
vt 0.31823799 0.173363
vt 0.352506995 0.263130009
vt 0.356936991 0.259559005
vt 0.373576999 0.348385006
vt 0.384211987 0.384662986
vt 0.379554003 0.344949991
vt 0.391799003 0.382082999
vn -0.533688307 0.432390541 -0.72678417
vn -0.295700759 0.411301047 -0.862202168
vn -0.327509463 0.504914582 -0.798623145
vn -0.542390466 0.505291104 -0.671188176
vn -0.801274896 0.45894292 -0.383835882
vn -0.747407436 0.418104142 -0.516305208
vn -0.82598263 0.39759165 -0.399591595
vn -0.357324898 0.654345572 -0.666446447
vn -0.93157959 0.36273098 -0.0242020674
vn -0.49072206 0.656029522 -0.573425829
vn -0.337599099 0.757697999 -0.558498502
vn -0.899891436 0.43529585 -0.026699746
vn -0.815438926 0.390018612 0.427720428
vn -0.710605204 0.589104295 -0.384702832
vn -0.43641746 0.735729456 -0.517920732
vn -0.422900766 0.790901423 -0.442300767
vn -0.788882613 0.458548009 0.409142822
vn -0.537116289 0.435113192 0.722621918
vn -0.809883714 0.586388171 -0.0153996907
vn -0.609089434 0.698687911 -0.375293493
vn -0.558907986 0.481506824 0.675109625
vn -0.400710613 0.442211747 0.802421272
vn -0.443087727 0.47868675 0.757979035
vn -0.698297858 0.604598165 0.383198798
vn -0.526517868 0.619421065 0.582319796
vn -0.469117463 0.606622577 0.641823888
vn -0.709906936 0.704106867 0.0163001586
vn -0.481385231 0.805675268 -0.345189393
vn -0.377205372 0.877112448 -0.297304213
vn -0.401906192 0.915414155 0.0221003406
vn -0.563129783 0.825643718 0.0346018337
vn -0.406408668 0.860818386 0.306306571
vn -0.504827738 0.792443573 0.342318803
vn -0.498613775 0.781121552 0.375810415
vn -0.611622393 0.703825831 0.361313224
vn -0.474276066 0.731963038 0.48917529
vn -0.377713203 0.750626266 0.542119026
vn -0.479723394 -0.850541472 0.215510502
vn -0.771018326 -0.32520771 -0.547513008
vn 0.394009262 -0.691016197 -0.606014252
vn -0.862375736 -0.36368978 -0.352190077
vn -0.879252791 -0.405224353 -0.250415027
vn -0.731299698 -0.583299756 0.35349986
vn -0.758794904 -0.560896158 -0.331097752
vn -0.612587273 -0.757584214 0.225395292
vn -0.594723284 -0.584822953 -0.551621616
vn -0.474306017 -0.878811121 0.0522006638
vn -0.421238422 -0.614156008 -0.667360842
vn -0.449413925 0.250007749 -0.857626498
vn -0.381119579 -0.922647417 -0.0589030311
vn -0 -0.996363461 -0.0852054209
vn -0 -0.63921994 -0.769023955
vn -0 0.0796021372 -0.996826708
vn -0.200895041 0.683683157 -0.70158273
vn -0.0694049746 0.65174675 -0.755254209
vn 0.167909592 0.386322081 -0.906951845
vn -0.1351033 -0.397909701 -0.907422185
vn -0.585532427 -0.175409719 -0.791443825
vn -0 0.102503367 -0.994732738
vn -0.439897716 -0.461497545 -0.770395935
vn -0 0.0416014306 -0.999134362
vn -0 0.192403123 -0.98131597
vn -0.288720816 0.332923979 -0.897664666
vn -0 0.478613853 -0.878025472
vn -0.701102793 0.367601454 -0.611002445
vn -0 0.696223915 -0.717824638
vn -0.715498745 0.507699132 -0.479899168
vn -0 0.807107031 -0.590405107
vn -0.899503231 -0.433601558 -0.0537001938
vn -0.584007442 0.808810234 0.06900087
vn 0.337386757 0.939663172 0.0565977804
vn 0.690282822 0.722982049 0.0283992961
vn 0.927859843 0.370623887 -0.0414026715
vn -0.520046413 -0.851675987 -0.0648057833
vn 0.924847245 -0.358718336 -0.126406461
vn 0.0750991181 -0.992688417 -0.0944988951
vn -0.311702371 -0.53740412 -0.783605993
vn -0.249902815 0.675307631 -0.693907797
vn -0.428107768 0.626511335 -0.651311815
vn -0.715516031 0.685915351 -0.132502958
vn -0.0227998085 0.999091625 -0.0359996967
vn -0.997846603 0.0385017991 -0.0531024821
vn -0.0163006317 0.999338686 0.032501258
vn -0.999353588 0.0175009388 0.0314016826
vn -0.558421791 0.712527812 -0.424816579
vn -0.00380020216 0.999853253 0.0167008881
vn -0.716698945 0.573699176 -0.396499395
vn -0.999783576 0.0105998246 0.0178997051
vn -0.669228673 0.694229722 -0.264911354
vn -0.736119986 0.676718354 -0.0134003637
vn 0.0043999278 0.999983549 -0.00369993923
vn -0.961916268 0.0155002614 -0.272904605
vn -0.997795224 0.0595997162 -0.029199861
vn -0.00799985789 0.999882221 -0.0130997673
vn -0.886299372 -0.00349999755 0.463099658
vn -0.688417792 0.644916713 -0.331908584
vn -0 0.884829283 -0.465915412
vn -0.999996424 -0.00139999494 -0.0022999919
vn -0 0.998605072 -0.0528002642
vn -0.674206972 0.65400672 0.343103558
vn 0.00270000356 0.999001324 -0.0446000583
vn -0.598430097 0.092304647 0.795840025
vn -0.70102644 0.667725205 -0.250409454
vn -0.999998689 0.000799998932 0.00139999809
vn -0.440808862 0.672313452 0.5947119
vn -0.678166687 0.732364058 -0.0610970035
vn -0.234592184 0.130695656 0.963267922
vn -0.664500713 0.746100843 -0.0421000458
vn -0.999998689 0.00089999882 0.00139999809
vn -0.412296206 0.3604967 0.836692333
vn -0 0.146305829 0.989239454
vn -0.999949813 0.00850042421 -0.00530026387
vn -0 0.220402077 0.975409091
vn -0.732207358 0.659806609 0.168901697
vn -0.999999762 0 0.000799999805
vn -0 0.896319151 0.443409473
vn -0.732495487 0.344797879 0.586996377
vn -0.999846101 0.0142006548 -0.0103004752
vn -0 0.476096302 0.87939316
vn -0.69732815 0.661726713 0.275411129
vn -0.999984741 0.00419993559 -0.00359994499
vn -0.717040062 0.502628088 0.482926965
vn -0.999850988 0.0133006778 -0.0110005606
vn -0 0.676575422 0.736373305
vn -0.73851639 0.553012252 0.385708541
vn -0 0.806764066 0.590873659
vn 0.302597255 -0.31519714 -0.899491847
vn -0 -0.335601449 -0.942004025
vn -0 -0.54731667 -0.836925566
vn 0.495188653 -0.490488768 -0.717083573
vn 0.5633111 -0.289905697 -0.773715198
vn -0 -0.787334025 -0.616526663
vn 0.863062203 -0.238989532 -0.444980502
vn 0.422787488 -0.714778841 -0.557083488
vn -0 -0.999896288 0.0143999467
vn 0.764124036 -0.46641469 -0.44561404
vn 0.984245598 -0.174208075 0.0302013997
vn 0.615727425 -0.710631669 -0.34041518
vn 0.888833106 -0.457417011 0.0273010172
vn 0.713297546 -0.69979763 0.0385998674
vn 0.759928286 -0.47611773 0.442516476
vn 0.948993146 -0.138399005 0.283297956
vn 0.866403401 -0.218500853 0.449001789
vn 0.623921573 -0.707124412 0.332711518
vn 0.410920382 -0.74233681 0.529226303
vn -0 -0.773319721 0.634016216
vn 0.523006916 -0.515706778 0.678609014
vn 0.691527069 -0.265910387 0.67162627
vn -0 -0.538931668 0.84234947
vn 0.661788821 -0.207896486 0.7202878
vn 0.696318865 0.0646017492 0.714819372
vn 0.389798194 -0.363098294 0.846296012
vn 0.691704214 0.065500401 0.719204426
vn 0.6274212 0.0903030559 0.773426175
vn 0.611569583 0.0982951224 0.785060942
vn 0.479995847 0.0823992863 0.873392403
vn 0.47002843 0.0785047486 0.879153192
vn -0 -0.219597861 0.975590467
vn 0.183303282 -0.232704163 0.955117106
vn 0.128501669 -0.0613007993 0.989812911
vn -0 -0.0677999258 0.997698963
vn 0.314906657 0.00220004655 0.949120104
vn 0.239815027 -0.0175010972 0.970660806
vn -0 -0.0416014306 0.999134362
vn -0 -0.0371004269 0.999311566
vn 0.85169214 0.235797808 0.467995673
vn 0.762287259 0.352094114 0.54309088
vn 0.898092628 0.156298712 0.411096632
vn 0.916557789 0.128708109 0.378623873
vn 0.866403401 -0.218500853 0.449001789
vn 0.992341638 -0.0523021966 0.111904703
vn 0.948993146 -0.138399005 0.283297956
vn 0.996312201 -0.0402004942 0.0758009329
vn 0.984043419 -0.142006263 -0.10720472
vn 0.984245598 -0.174208075 0.0302013997
vn 0.983345509 -0.102904759 -0.149806932
vn 0.863062203 -0.238989532 -0.444980502
vn -0.771018326 -0.32520771 -0.547513008
vn 0.617220163 -0.157205135 -0.770925224
vn 0.394009262 -0.691016197 -0.606014252
vn -0.206194296 -0.262392759 -0.942673922
vn -0.961916268 0.0155002614 -0.272904605
vn 0.275603473 -0.835710526 -0.475005984
vn -0.922105312 -0.122900702 -0.366902113
vn -0.997795224 0.0595997162 -0.029199861
vn -0.0494002663 -0.684003651 -0.727803886
vn -0.610899746 -0.717199743 -0.335299879
vn -0.02020045 -0.991722167 -0.126802832
vn -0.996325195 0.0356009007 -0.0779019669
vn -0.886299372 -0.00349999755 0.463099658
vn -0.725489736 -0.684090316 -0.0753989369
vn 0.00350012863 -0.9999367 0.0107003935
vn -0.513025641 -0.0744037181 0.855142653
vn -0.352086157 -0.928563476 0.11749538
vn 0.318004489 -0.168402374 0.933013201
vn -0.530022562 -0.559023857 0.637627184
vn 0.182711095 -0.795148313 0.578235149
vn 0.700024307 -0.307710707 -0.644422412
vn 0.667023718 -0.404414386 -0.625722229
vn 0.49840197 -0.469201803 -0.729002833
vn 0.558299124 -0.375499368 -0.739798784
vn 0.727329969 -0.199908227 -0.656527042
vn 0.184802502 -0.530007184 -0.827611268
vn 0.585094869 -0.244297862 -0.773293257
vn 0.863062203 -0.238989532 -0.444980502
vn 0.5633111 -0.289905697 -0.773715198
vn 0.213205159 -0.438210607 -0.873221099
vn -0 -0.538440585 -0.842663467
vn -0 -0.443409473 -0.896319151
vn 0.225714162 -0.288618088 -0.930458367
vn 0.302597255 -0.31519714 -0.899491847
vn -0 -0.294999212 -0.955497503
vn -0 -0.335601449 -0.942004025
vn -0.886299372 -0.00349999755 0.463099658
vn -0.391325712 -0.408826888 -0.824454188
vn -0.352086157 -0.928563476 0.11749538
vn -0.954766929 -0.224215716 -0.195313692
vn -0.598430097 0.092304647 0.795840025
vn -0.357612103 -0.551918745 -0.753325522
vn -0.580521464 0.2462091 0.776128709
vn -0.234592184 0.130695656 0.963267922
vn -0.972505212 -0.211901128 -0.0966005176
vn -0.215308666 -0.868534982 -0.446417958
vn -0.229011461 0.288314432 0.929746509
vn -0 0.146305829 0.989239454
vn -0 0.294999212 0.955497503
vn -0.552800894 0.377700627 0.742801189
vn -0.216512471 0.437925249 0.872550249
vn -0 0.443409473 0.896319151
vn -0.848825872 -0.519715846 0.096902959
vn -0.494031191 -0.475730032 0.72774595
vn -0.00669981027 -0.999971747 0.00339990389
vn -0.200807273 -0.428115517 0.881131947
vn -0 -0.466311008 0.884620905
vn -0.0057002753 -0.99974829 0.0217010491
vn -0 -0.999610722 0.0279002991
vn 0.533688307 0.432390541 -0.72678417
vn 0.327509463 0.504914582 -0.798623145
vn 0.295700759 0.411301047 -0.862202168
vn 0.542390466 0.505291104 -0.671188176
vn 0.801274896 0.45894292 -0.383835882
vn 0.747407436 0.418104142 -0.516305208
vn 0.82598263 0.39759165 -0.399591595
vn 0.357324898 0.654345572 -0.666446447
vn 0.93157959 0.36273098 -0.0242020674
vn 0.49072206 0.656029522 -0.573425829
vn 0.337599099 0.757697999 -0.558498502
vn 0.899891436 0.43529585 -0.026699746
vn 0.815438926 0.390018612 0.427720428
vn 0.710605204 0.589104295 -0.384702832
vn 0.43641746 0.735729456 -0.517920732
vn 0.422900766 0.790901423 -0.442300767
vn 0.788882613 0.458548009 0.409142822
vn 0.537116289 0.435113192 0.722621918
vn 0.809883714 0.586388171 -0.0153996907
vn 0.609089434 0.698687911 -0.375293493
vn 0.558907986 0.481506824 0.675109625
vn 0.400710613 0.442211747 0.802421272
vn 0.443087727 0.47868675 0.757979035
vn 0.698297858 0.604598165 0.383198798
vn 0.526517868 0.619421065 0.582319796
vn 0.469117463 0.606622577 0.641823888
vn 0.709906936 0.704106867 0.0163001586
vn 0.481385231 0.805675268 -0.345189393
vn 0.377205372 0.877112448 -0.297304213
vn 0.401906192 0.915414155 0.0221003406
vn 0.563129783 0.825643718 0.0346018337
vn 0.406408668 0.860818386 0.306306571
vn 0.504827738 0.792443573 0.342318803
vn 0.498613775 0.781121552 0.375810415
vn 0.611622393 0.703825831 0.361313224
vn 0.474276066 0.731963038 0.48917529
vn 0.377713203 0.750626266 0.542119026
vn 0.479723394 -0.850541472 0.215510502
vn -0.394009262 -0.691016197 -0.606014252
vn 0.771018326 -0.32520771 -0.547513008
vn 0.862375736 -0.36368978 -0.352190077
vn 0.879252791 -0.405224353 -0.250415027
vn 0.731299698 -0.583299756 0.35349986
vn 0.758794904 -0.560896158 -0.331097752
vn 0.612587273 -0.757584214 0.225395292
vn 0.594723284 -0.584822953 -0.551621616
vn 0.474306017 -0.878811121 0.0522006638
vn 0.421238422 -0.614156008 -0.667360842
vn 0.449413925 0.250007749 -0.857626498
vn 0.381119579 -0.922647417 -0.0589030311
vn -0 -0.996363461 -0.0852054209
vn -0 -0.63921994 -0.769023955
vn -0 0.0796021372 -0.996826708
vn 0.200895041 0.683683157 -0.70158273
vn 0.0694049746 0.65174675 -0.755254209
vn -0.167909592 0.386322081 -0.906951845
vn 0.1351033 -0.397909701 -0.907422185
vn 0.585532427 -0.175409719 -0.791443825
vn -0 0.102503367 -0.994732738
vn 0.439897716 -0.461497545 -0.770395935
vn -0 0.0416014306 -0.999134362
vn -0 0.192403123 -0.98131597
vn 0.288720816 0.332923979 -0.897664666
vn -0 0.478613853 -0.878025472
vn 0.701102793 0.367601454 -0.611002445
vn -0 0.696223915 -0.717824638
vn 0.715498745 0.507699132 -0.479899168
vn -0 0.807107031 -0.590405107
vn 0.899503231 -0.433601558 -0.0537001938
vn 0.584007442 0.808810234 0.06900087
vn -0.337386757 0.939663172 0.0565977804
vn -0.690282822 0.722982049 0.0283992961
vn -0.927859843 0.370623887 -0.0414026715
vn 0.520046413 -0.851675987 -0.0648057833
vn -0.924847245 -0.358718336 -0.126406461
vn -0.0750991181 -0.992688417 -0.0944988951
vn 0.311702371 -0.53740412 -0.783605993
vn 0.249902815 0.675307631 -0.693907797
vn 0.428107768 0.626511335 -0.651311815
vn 0.715516031 0.685915351 -0.132502958
vn 0.0227998085 0.999091625 -0.0359996967
vn 0.997846603 0.0385017991 -0.0531024821
vn 0.0163006317 0.999338686 0.032501258
vn 0.999353588 0.0175009388 0.0314016826
vn 0.558421791 0.712527812 -0.424816579
vn 0.00380020216 0.999853253 0.0167008881
vn 0.716698945 0.573699176 -0.396499395
vn 0.999783576 0.0105998246 0.0178997051
vn 0.669228673 0.694229722 -0.264911354
vn 0.736119986 0.676718354 -0.0134003637
vn -0.0043999278 0.999983549 -0.00369993923
vn 0.961916268 0.0155002614 -0.272904605
vn 0.997795224 0.0595997162 -0.029199861
vn 0.00799985789 0.999882221 -0.0130997673
vn 0.886299372 -0.00349999755 0.463099658
vn 0.688417792 0.644916713 -0.331908584
vn -0 0.884829283 -0.465915412
vn 0.999996424 -0.00139999494 -0.0022999919
vn -0 0.998605072 -0.0528002642
vn 0.674206972 0.65400672 0.343103558
vn -0.00270000356 0.999001324 -0.0446000583
vn 0.598430097 0.092304647 0.795840025
vn 0.70102644 0.667725205 -0.250409454
vn 0.999998689 0.000799998932 0.00139999809
vn 0.440808862 0.672313452 0.5947119
vn 0.678166687 0.732364058 -0.0610970035
vn 0.234592184 0.130695656 0.963267922
vn 0.664500713 0.746100843 -0.0421000458
vn 0.999998689 0.00089999882 0.00139999809
vn 0.412296206 0.3604967 0.836692333
vn -0 0.146305829 0.989239454
vn 0.999949813 0.00850042421 -0.00530026387
vn -0 0.220402077 0.975409091
vn 0.732207358 0.659806609 0.168901697
vn 0.999999762 0 0.000799999805
vn -0 0.896319151 0.443409473
vn 0.732495487 0.344797879 0.586996377
vn 0.999846101 0.0142006548 -0.0103004752
vn -0 0.476096302 0.87939316
vn 0.69732815 0.661726713 0.275411129
vn 0.999984741 0.00419993559 -0.00359994499
vn 0.717040062 0.502628088 0.482926965
vn 0.999850988 0.0133006778 -0.0110005606
vn -0 0.676575422 0.736373305
vn 0.73851639 0.553012252 0.385708541
vn -0 0.806764066 0.590873659
vn -0 -0.54731667 -0.836925566
vn -0 -0.335601449 -0.942004025
vn -0.302597255 -0.31519714 -0.899491847
vn -0.495188653 -0.490488768 -0.717083573
vn -0.5633111 -0.289905697 -0.773715198
vn -0 -0.787334025 -0.616526663
vn -0.863062203 -0.238989532 -0.444980502
vn -0.422787488 -0.714778841 -0.557083488
vn -0 -0.999896288 0.0143999467
vn -0.764124036 -0.46641469 -0.44561404
vn -0.984245598 -0.174208075 0.0302013997
vn -0.615727425 -0.710631669 -0.34041518
vn -0.888833106 -0.457417011 0.0273010172
vn -0.713297546 -0.69979763 0.0385998674
vn -0.759928286 -0.47611773 0.442516476
vn -0.948993146 -0.138399005 0.283297956
vn -0.866403401 -0.218500853 0.449001789
vn -0.623921573 -0.707124412 0.332711518
vn -0.410920382 -0.74233681 0.529226303
vn -0 -0.773319721 0.634016216
vn -0.523006916 -0.515706778 0.678609014
vn -0.691527069 -0.265910387 0.67162627
vn -0 -0.538931668 0.84234947
vn -0.661788821 -0.207896486 0.7202878
vn -0.696318865 0.0646017492 0.714819372
vn -0.389798194 -0.363098294 0.846296012
vn -0.691704214 0.065500401 0.719204426
vn -0.6274212 0.0903030559 0.773426175
vn -0.611569583 0.0982951224 0.785060942
vn -0.479995847 0.0823992863 0.873392403
vn -0.47002843 0.0785047486 0.879153192
vn -0 -0.219597861 0.975590467
vn -0.183303282 -0.232704163 0.955117106
vn -0.128501669 -0.0613007993 0.989812911
vn -0 -0.0677999258 0.997698963
vn -0.314906657 0.00220004655 0.949120104
vn -0.239815027 -0.0175010972 0.970660806
vn -0 -0.0416014306 0.999134362
vn -0 -0.0371004269 0.999311566
vn -0.85169214 0.235797808 0.467995673
vn -0.898092628 0.156298712 0.411096632
vn -0.762287259 0.352094114 0.54309088
vn -0.916557789 0.128708109 0.378623873
vn -0.866403401 -0.218500853 0.449001789
vn -0.992341638 -0.0523021966 0.111904703
vn -0.948993146 -0.138399005 0.283297956
vn -0.996312201 -0.0402004942 0.0758009329
vn -0.984043419 -0.142006263 -0.10720472
vn -0.984245598 -0.174208075 0.0302013997
vn -0.983345509 -0.102904759 -0.149806932
vn -0.863062203 -0.238989532 -0.444980502
vn 0.771018326 -0.32520771 -0.547513008
vn -0.394009262 -0.691016197 -0.606014252
vn -0.617220163 -0.157205135 -0.770925224
vn 0.206194296 -0.262392759 -0.942673922
vn 0.961916268 0.0155002614 -0.272904605
vn -0.275603473 -0.835710526 -0.475005984
vn 0.922105312 -0.122900702 -0.366902113
vn 0.997795224 0.0595997162 -0.029199861
vn 0.0494002663 -0.684003651 -0.727803886
vn 0.610899746 -0.717199743 -0.335299879
vn 0.02020045 -0.991722167 -0.126802832
vn 0.996325195 0.0356009007 -0.0779019669
vn 0.886299372 -0.00349999755 0.463099658
vn 0.725489736 -0.684090316 -0.0753989369
vn -0.00350012863 -0.9999367 0.0107003935
vn 0.513025641 -0.0744037181 0.855142653
vn 0.352086157 -0.928563476 0.11749538
vn -0.318004489 -0.168402374 0.933013201
vn 0.530022562 -0.559023857 0.637627184
vn -0.182711095 -0.795148313 0.578235149
vn -0.700024307 -0.307710707 -0.644422412
vn -0.49840197 -0.469201803 -0.729002833
vn -0.667023718 -0.404414386 -0.625722229
vn -0.558299124 -0.375499368 -0.739798784
vn -0.727329969 -0.199908227 -0.656527042
vn -0.184802502 -0.530007184 -0.827611268
vn -0.585094869 -0.244297862 -0.773293257
vn -0.863062203 -0.238989532 -0.444980502
vn -0.5633111 -0.289905697 -0.773715198
vn -0.213205159 -0.438210607 -0.873221099
vn -0 -0.538440585 -0.842663467
vn -0 -0.443409473 -0.896319151
vn -0.225714162 -0.288618088 -0.930458367
vn -0.302597255 -0.31519714 -0.899491847
vn -0 -0.294999212 -0.955497503
vn -0 -0.335601449 -0.942004025
vn 0.886299372 -0.00349999755 0.463099658
vn 0.352086157 -0.928563476 0.11749538
vn 0.391325712 -0.408826888 -0.824454188
vn 0.954766929 -0.224215716 -0.195313692
vn 0.598430097 0.092304647 0.795840025
vn 0.357612103 -0.551918745 -0.753325522
vn 0.580521464 0.2462091 0.776128709
vn 0.234592184 0.130695656 0.963267922
vn 0.972505212 -0.211901128 -0.0966005176
vn 0.215308666 -0.868534982 -0.446417958
vn 0.229011461 0.288314432 0.929746509
vn -0 0.146305829 0.989239454
vn -0 0.294999212 0.955497503
vn 0.552800894 0.377700627 0.742801189
vn 0.216512471 0.437925249 0.872550249
vn -0 0.443409473 0.896319151
vn 0.848825872 -0.519715846 0.096902959
vn 0.494031191 -0.475730032 0.72774595
vn 0.00669981027 -0.999971747 0.00339990389
vn 0.200807273 -0.428115517 0.881131947
vn -0 -0.466311008 0.884620905
vn 0.0057002753 -0.99974829 0.0217010491
vn -0 -0.999610722 0.0279002991
g leatherhelmet_leath_erhelmet_0
f 3/3/3 2/2/2 1/1/1
f 4/4/4 3/3/3 1/1/1
f 5/5/5 4/4/4 1/1/1
f 5/5/5 1/1/1 6/6/6
f 6/6/6 7/7/7 5/5/5
f 8/8/8 3/3/3 4/4/4
f 7/7/7 9/9/9 5/5/5
f 10/10/10 8/8/8 4/4/4
f 4/4/4 5/5/5 10/10/10
f 11/11/11 8/8/8 10/10/10
f 9/9/9 12/12/12 5/5/5
f 9/9/9 13/13/13 12/12/12
f 5/5/5 14/14/14 10/10/10
f 5/5/5 12/12/12 14/14/14
f 15/15/15 11/11/11 10/10/10
f 10/10/10 14/14/14 15/15/15
f 16/16/16 11/11/11 15/15/15
f 13/13/13 17/17/17 12/12/12
f 13/13/13 18/18/18 17/17/17
f 12/12/12 19/19/19 14/14/14
f 12/12/12 17/17/17 19/19/19
f 14/14/14 20/20/20 15/15/15
f 16/16/16 15/15/15 20/20/20
f 14/14/14 19/19/19 20/20/20
f 18/18/18 21/21/21 17/17/17
f 21/21/21 18/18/18 22/22/22
f 23/23/23 21/21/21 22/22/22
f 17/17/17 24/24/24 19/19/19
f 17/17/17 21/21/21 24/24/24
f 25/25/25 21/21/21 23/23/23
f 21/21/21 25/25/25 24/24/24
f 26/26/26 25/25/25 23/23/23
f 19/19/19 24/24/24 27/27/27
f 19/19/19 27/27/27 20/20/20
f 28/28/28 16/16/16 20/20/20
f 29/29/29 16/16/16 28/28/28
f 30/30/30 29/29/29 28/28/28
f 28/28/28 20/20/20 31/31/31
f 31/31/31 30/30/30 28/28/28
f 20/20/20 27/27/27 31/31/31
f 32/32/32 30/30/30 31/31/31
f 33/33/33 32/32/32 31/31/31
f 31/31/31 27/27/27 33/33/33
f 34/34/34 32/32/32 33/33/33
f 24/24/24 35/35/35 27/27/27
f 27/27/27 35/35/35 33/33/33
f 24/24/24 25/25/25 35/35/35
f 34/34/34 33/33/33 35/35/35
f 36/36/36 25/25/25 26/26/26
f 25/25/25 36/36/36 35/35/35
f 36/36/36 34/34/34 35/35/35
f 37/37/37 36/36/36 26/26/26
f 37/37/37 34/34/34 36/36/36
f 40/40/40 39/39/39 38/38/38
f 39/39/39 41/41/41 38/38/38
f 38/38/38 41/41/41 42/42/42
f 43/43/43 38/38/38 42/42/42
f 43/43/43 42/42/42 44/44/44
f 45/45/45 43/43/43 44/44/44
f 45/45/45 44/44/44 46/46/46
f 47/47/47 45/45/45 46/46/46
f 47/47/47 46/46/46 48/48/48
f 48/48/48 46/46/46 49/49/49
f 50/50/50 47/47/47 48/48/48
f 50/50/50 48/48/48 51/51/51
f 48/48/48 52/52/52 51/51/51
f 52/52/52 48/48/48 49/49/49
f 53/53/53 52/52/52 49/49/49
f 46/46/46 44/44/44 54/54/54
f 46/46/46 54/54/54 49/49/49
f 44/44/44 42/42/42 55/55/55
f 44/44/44 55/55/55 54/54/54
f 42/42/42 41/41/41 56/56/56
f 42/42/42 56/56/56 55/55/55
f 41/41/41 57/57/57 56/56/56
f 53/53/53 49/49/49 58/58/58
f 59/59/59 53/53/53 58/58/58
f 59/59/59 58/58/58 60/60/60
f 61/61/61 59/59/59 60/60/60
f 62/62/62 61/61/61 60/60/60
f 63/63/63 62/62/62 60/60/60
f 64/64/64 62/62/62 63/63/63
f 65/65/65 64/64/64 63/63/63
f 66/66/66 64/64/64 65/65/65
f 67/67/67 66/66/66 65/65/65
f 68/68/68 66/66/66 67/67/67
f 58/58/58 49/49/49 69/69/69
f 49/49/49 70/70/70 69/69/69
f 49/49/49 54/54/54 70/70/70
f 54/54/54 71/71/71 70/70/70
f 54/54/54 55/55/55 71/71/71
f 55/55/55 72/72/72 71/71/71
f 55/55/55 56/56/56 72/72/72
f 56/56/56 73/73/73 72/72/72
f 58/58/58 69/69/69 74/74/74
f 56/56/56 57/57/57 73/73/73
f 57/57/57 75/75/75 73/73/73
f 60/60/60 58/58/58 74/74/74
f 75/75/75 57/57/57 76/76/76
f 77/77/77 60/60/60 74/74/74
f 76/76/76 77/77/77 74/74/74
f 57/57/57 77/77/77 76/76/76
f 63/63/63 60/60/60 77/77/77
f 78/78/78 77/77/77 57/57/57
f 78/78/78 63/63/63 77/77/77
f 79/79/79 78/78/78 57/57/57
f 57/57/57 41/41/41 79/79/79
f 80/80/80 63/63/63 78/78/78
f 65/65/65 63/63/63 80/80/80
f 78/78/78 81/81/81 80/80/80
f 78/78/78 79/79/79 81/81/81
f 82/82/82 65/65/65 80/80/80
f 67/67/67 65/65/65 82/82/82
f 81/81/81 79/79/79 83/83/83
f 84/84/84 67/67/67 82/82/82
f 79/79/79 85/85/85 83/83/83
f 79/79/79 41/41/41 85/85/85
f 83/83/83 85/85/85 86/86/86
f 87/87/87 67/67/67 84/84/84
f 88/88/88 87/87/87 84/84/84
f 87/87/87 68/68/68 67/67/67
f 85/85/85 41/41/41 89/89/89
f 85/85/85 89/89/89 86/86/86
f 41/41/41 39/39/39 89/89/89
f 90/90/90 89/89/89 39/39/39
f 86/86/86 89/89/89 91/91/91
f 89/89/89 90/90/90 91/91/91
f 90/90/90 39/39/39 92/92/92
f 92/92/92 93/93/93 90/90/90
f 91/91/91 90/90/90 94/94/94
f 93/93/93 95/95/95 90/90/90
f 96/96/96 87/87/87 88/88/88
f 68/68/68 87/87/87 96/96/96
f 97/97/97 68/68/68 96/96/96
f 98/98/98 96/96/96 88/88/88
f 99/99/99 97/97/97 96/96/96
f 90/90/90 100/100/100 94/94/94
f 95/95/95 100/100/100 90/90/90
f 94/94/94 100/100/100 101/101/101
f 95/95/95 102/102/102 100/100/100
f 103/103/103 96/96/96 98/98/98
f 96/96/96 103/103/103 99/99/99
f 104/104/104 103/103/103 98/98/98
f 100/100/100 105/105/105 101/101/101
f 102/102/102 105/105/105 100/100/100
f 101/101/101 105/105/105 106/106/106
f 105/105/105 102/102/102 107/107/107
f 108/108/108 103/103/103 104/104/104
f 103/103/103 108/108/108 99/99/99
f 109/109/109 108/108/108 104/104/104
f 105/105/105 110/110/110 106/106/106
f 110/110/110 105/105/105 107/107/107
f 110/110/110 107/107/107 111/111/111
f 106/106/106 110/110/110 112/112/112
f 113/113/113 110/110/110 111/111/111
f 99/99/99 108/108/108 114/114/114
f 114/114/114 108/108/108 109/109/109
f 115/115/115 114/114/114 109/109/109
f 114/114/114 116/116/116 99/99/99
f 110/110/110 117/117/117 112/112/112
f 117/117/117 110/110/110 113/113/113
f 112/112/112 117/117/117 118/118/118
f 119/119/119 117/117/117 113/113/113
f 120/120/120 114/114/114 115/115/115
f 114/114/114 120/120/120 116/116/116
f 121/121/121 120/120/120 115/115/115
f 117/117/117 122/122/122 118/118/118
f 122/122/122 117/117/117 119/119/119
f 118/118/118 122/122/122 123/123/123
f 124/124/124 122/122/122 119/119/119
f 116/116/116 120/120/120 125/125/125
f 125/125/125 120/120/120 121/121/121
f 123/123/123 125/125/125 121/121/121
f 122/122/122 125/125/125 123/123/123
f 125/125/125 122/122/122 124/124/124
f 126/126/126 116/116/116 125/125/125
f 126/126/126 125/125/125 124/124/124
f 129/129/129 128/128/128 127/127/127
f 127/127/127 130/130/130 129/129/129
f 127/127/127 131/131/131 130/130/130
f 129/129/129 130/130/130 132/132/132
f 130/130/130 131/131/131 133/133/133
f 130/130/130 134/134/134 132/132/132
f 132/132/132 134/134/134 135/135/135
f 136/136/136 130/130/130 133/133/133
f 134/134/134 130/130/130 136/136/136
f 136/136/136 133/133/133 137/137/137
f 138/138/138 134/134/134 136/136/136
f 135/135/135 134/134/134 138/138/138
f 139/139/139 136/136/136 137/137/137
f 138/138/138 136/136/136 139/139/139
f 135/135/135 138/138/138 140/140/140
f 140/140/140 138/138/138 139/139/139
f 141/141/141 139/139/139 137/137/137
f 141/141/141 137/137/137 142/142/142
f 142/142/142 143/143/143 141/141/141
f 144/144/144 140/140/140 139/139/139
f 144/144/144 135/135/135 140/140/140
f 141/141/141 144/144/144 139/139/139
f 145/145/145 135/135/135 144/144/144
f 145/145/145 144/144/144 141/141/141
f 146/146/146 135/135/135 145/145/145
f 147/147/147 141/141/141 143/143/143
f 147/147/147 145/145/145 141/141/141
f 146/146/146 145/145/145 147/147/147
f 147/147/147 143/143/143 148/148/148
f 149/149/149 146/146/146 147/147/147
f 148/148/148 150/150/150 147/147/147
f 149/149/149 147/147/147 150/150/150
f 150/150/150 148/148/148 151/151/151
f 152/152/152 149/149/149 150/150/150
f 153/153/153 150/150/150 151/151/151
f 153/153/153 151/151/151 154/154/154
f 155/155/155 153/153/153 154/154/154
f 155/155/155 154/154/154 156/156/156
f 157/157/157 155/155/155 156/156/156
f 158/158/158 149/149/149 152/152/152
f 159/159/159 158/158/158 152/152/152
f 159/159/159 160/160/160 158/158/158
f 160/160/160 161/161/161 158/158/158
f 157/157/157 156/156/156 162/162/162
f 160/160/160 163/163/163 161/161/161
f 163/163/163 157/157/157 162/162/162
f 163/163/163 164/164/164 161/161/161
f 163/163/163 162/162/162 164/164/164
f 162/162/162 165/165/165 164/164/164
f 168/168/168 167/167/167 166/166/166
f 169/169/169 168/168/168 166/166/166
f 169/169/169 166/166/166 170/170/170
f 171/171/171 168/168/168 169/169/169
f 172/172/172 169/169/169 170/170/170
f 173/173/173 171/171/171 169/169/169
f 173/173/173 169/169/169 172/172/172
f 174/174/174 171/171/171 173/173/173
f 175/175/175 173/173/173 172/172/172
f 176/176/176 174/174/174 173/173/173
f 176/176/176 173/173/173 175/175/175
f 177/177/177 176/176/176 175/175/175
f 180/180/180 179/179/179 178/178/178
f 179/179/179 181/181/181 178/178/178
f 178/178/178 181/181/181 182/182/182
f 179/179/179 183/183/183 181/181/181
f 181/181/181 184/184/184 182/182/182
f 182/182/182 184/184/184 185/185/185
f 183/183/183 186/186/186 181/181/181
f 181/181/181 186/186/186 184/184/184
f 187/187/187 186/186/186 183/183/183
f 186/186/186 187/187/187 184/184/184
f 188/188/188 187/187/187 183/183/183
f 184/184/184 189/189/189 185/185/185
f 184/184/184 187/187/187 189/189/189
f 185/185/185 189/189/189 190/190/190
f 191/191/191 187/187/187 188/188/188
f 187/187/187 191/191/191 189/189/189
f 192/192/192 191/191/191 188/188/188
f 189/189/189 193/193/193 190/190/190
f 189/189/189 191/191/191 193/193/193
f 190/190/190 193/193/193 194/194/194
f 193/193/193 195/195/195 194/194/194
f 196/196/196 191/191/191 192/192/192
f 191/191/191 196/196/196 193/193/193
f 193/193/193 196/196/196 195/195/195
f 197/197/197 196/196/196 192/192/192
f 196/196/196 197/197/197 195/195/195
f 200/200/200 199/199/199 198/198/198
f 201/201/201 200/200/200 198/198/198
f 201/201/201 198/198/198 202/202/202
f 203/203/203 200/200/200 201/201/201
f 204/204/204 201/201/201 202/202/202
f 204/204/204 202/202/202 205/205/205
f 206/206/206 204/204/204 205/205/205
f 207/207/207 203/203/203 201/201/201
f 207/207/207 201/201/201 204/204/204
f 208/208/208 203/203/203 207/207/207
f 209/209/209 208/208/208 207/207/207
f 210/210/210 204/204/204 206/206/206
f 210/210/210 207/207/207 204/204/204
f 209/209/209 207/207/207 210/210/210
f 211/211/211 210/210/210 206/206/206
f 212/212/212 209/209/209 210/210/210
f 212/212/212 210/210/210 211/211/211
f 213/213/213 212/212/212 211/211/211
f 216/216/216 215/215/215 214/214/214
f 215/215/215 217/217/217 214/214/214
f 214/214/214 217/217/217 218/218/218
f 215/215/215 219/219/219 217/217/217
f 217/217/217 220/220/220 218/218/218
f 218/218/218 220/220/220 221/221/221
f 219/219/219 222/222/222 217/217/217
f 217/217/217 222/222/222 220/220/220
f 219/219/219 223/223/223 222/222/222
f 220/220/220 224/224/224 221/221/221
f 221/221/221 224/224/224 225/225/225
f 224/224/224 226/226/226 225/225/225
f 222/222/222 227/227/227 220/220/220
f 220/220/220 227/227/227 224/224/224
f 224/224/224 228/228/228 226/226/226
f 227/227/227 228/228/228 224/224/224
f 228/228/228 229/229/229 226/226/226
f 223/223/223 230/230/230 222/222/222
f 222/222/222 230/230/230 227/227/227
f 231/231/231 230/230/230 223/223/223
f 230/230/230 231/231/231 227/227/227
f 227/227/227 231/231/231 228/228/228
f 232/232/232 231/231/231 223/223/223
f 228/228/228 233/233/233 229/229/229
f 231/231/231 233/233/233 228/228/228
f 233/233/233 231/231/231 232/232/232
f 233/233/233 234/234/234 229/229/229
f 235/235/235 233/233/233 232/232/232
f 234/234/234 233/233/233 235/235/235
f 236/236/236 234/234/234 235/235/235
f 239/239/239 238/238/238 237/237/237
f 238/238/238 240/240/240 237/237/237
f 237/237/237 240/240/240 241/241/241
f 242/242/242 237/237/237 241/241/241
f 241/241/241 243/243/243 242/242/242
f 238/238/238 244/244/244 240/240/240
f 245/245/245 243/243/243 241/241/241
f 244/244/244 246/246/246 240/240/240
f 241/241/241 240/240/240 246/246/246
f 244/244/244 247/247/247 246/246/246
f 248/248/248 245/245/245 241/241/241
f 249/249/249 245/245/245 248/248/248
f 250/250/250 241/241/241 246/246/246
f 248/248/248 241/241/241 250/250/250
f 247/247/247 251/251/251 246/246/246
f 250/250/250 246/246/246 251/251/251
f 247/247/247 252/252/252 251/251/251
f 253/253/253 249/249/249 248/248/248
f 254/254/254 249/249/249 253/253/253
f 255/255/255 248/248/248 250/250/250
f 253/253/253 248/248/248 255/255/255
f 256/256/256 250/250/250 251/251/251
f 251/251/251 252/252/252 256/256/256
f 255/255/255 250/250/250 256/256/256
f 257/257/257 254/254/254 253/253/253
f 254/254/254 257/257/257 258/258/258
f 257/257/257 259/259/259 258/258/258
f 260/260/260 253/253/253 255/255/255
f 257/257/257 253/253/253 260/260/260
f 257/257/257 261/261/261 259/259/259
f 261/261/261 257/257/257 260/260/260
f 261/261/261 262/262/262 259/259/259
f 260/260/260 255/255/255 263/263/263
f 263/263/263 255/255/255 256/256/256
f 252/252/252 264/264/264 256/256/256
f 252/252/252 265/265/265 264/264/264
f 265/265/265 266/266/266 264/264/264
f 256/256/256 264/264/264 267/267/267
f 266/266/266 267/267/267 264/264/264
f 263/263/263 256/256/256 267/267/267
f 266/266/266 268/268/268 267/267/267
f 268/268/268 269/269/269 267/267/267
f 263/263/263 267/267/267 269/269/269
f 268/268/268 270/270/270 269/269/269
f 271/271/271 260/260/260 263/263/263
f 271/271/271 263/263/263 269/269/269
f 261/261/261 260/260/260 271/271/271
f 269/269/269 270/270/270 271/271/271
f 261/261/261 272/272/272 262/262/262
f 272/272/272 261/261/261 271/271/271
f 270/270/270 272/272/272 271/271/271
f 272/272/272 273/273/273 262/262/262
f 270/270/270 273/273/273 272/272/272
f 276/276/276 275/275/275 274/274/274
f 277/277/277 276/276/276 274/274/274
f 277/277/277 274/274/274 278/278/278
f 274/274/274 279/279/279 278/278/278
f 278/278/278 279/279/279 280/280/280
f 279/279/279 281/281/281 280/280/280
f 280/280/280 281/281/281 282/282/282
f 281/281/281 283/283/283 282/282/282
f 282/282/282 283/283/283 284/284/284
f 282/282/282 284/284/284 285/285/285
f 283/283/283 286/286/286 284/284/284
f 284/284/284 286/286/286 287/287/287
f 288/288/288 284/284/284 287/287/287
f 284/284/284 288/288/288 285/285/285
f 288/288/288 289/289/289 285/285/285
f 280/280/280 282/282/282 290/290/290
f 290/290/290 282/282/282 285/285/285
f 278/278/278 280/280/280 291/291/291
f 291/291/291 280/280/280 290/290/290
f 277/277/277 278/278/278 292/292/292
f 292/292/292 278/278/278 291/291/291
f 293/293/293 277/277/277 292/292/292
f 285/285/285 289/289/289 294/294/294
f 289/289/289 295/295/295 294/294/294
f 294/294/294 295/295/295 296/296/296
f 295/295/295 297/297/297 296/296/296
f 297/297/297 298/298/298 296/296/296
f 298/298/298 299/299/299 296/296/296
f 298/298/298 300/300/300 299/299/299
f 300/300/300 301/301/301 299/299/299
f 300/300/300 302/302/302 301/301/301
f 302/302/302 303/303/303 301/301/301
f 302/302/302 304/304/304 303/303/303
f 285/285/285 294/294/294 305/305/305
f 306/306/306 285/285/285 305/305/305
f 290/290/290 285/285/285 306/306/306
f 307/307/307 290/290/290 306/306/306
f 291/291/291 290/290/290 307/307/307
f 308/308/308 291/291/291 307/307/307
f 292/292/292 291/291/291 308/308/308
f 309/309/309 292/292/292 308/308/308
f 305/305/305 294/294/294 310/310/310
f 293/293/293 292/292/292 309/309/309
f 311/311/311 293/293/293 309/309/309
f 294/294/294 296/296/296 310/310/310
f 293/293/293 311/311/311 312/312/312
f 313/313/313 312/312/312 310/310/310
f 296/296/296 313/313/313 310/310/310
f 313/313/313 293/293/293 312/312/312
f 296/296/296 299/299/299 313/313/313
f 313/313/313 314/314/314 293/293/293
f 299/299/299 314/314/314 313/313/313
f 314/314/314 315/315/315 293/293/293
f 277/277/277 293/293/293 315/315/315
f 314/314/314 299/299/299 316/316/316
f 299/299/299 301/301/301 316/316/316
f 316/316/316 317/317/317 314/314/314
f 317/317/317 315/315/315 314/314/314
f 301/301/301 318/318/318 316/316/316
f 301/301/301 303/303/303 318/318/318
f 315/315/315 317/317/317 319/319/319
f 303/303/303 320/320/320 318/318/318
f 321/321/321 315/315/315 319/319/319
f 277/277/277 315/315/315 321/321/321
f 321/321/321 319/319/319 322/322/322
f 303/303/303 323/323/323 320/320/320
f 323/323/323 324/324/324 320/320/320
f 304/304/304 323/323/323 303/303/303
f 277/277/277 321/321/321 325/325/325
f 325/325/325 321/321/321 322/322/322
f 276/276/276 277/277/277 325/325/325
f 276/276/276 325/325/325 326/326/326
f 325/325/325 322/322/322 327/327/327
f 326/326/326 325/325/325 327/327/327
f 328/328/328 276/276/276 326/326/326
f 326/326/326 329/329/329 328/328/328
f 326/326/326 327/327/327 330/330/330
f 331/331/331 329/329/329 326/326/326
f 323/323/323 332/332/332 324/324/324
f 323/323/323 304/304/304 332/332/332
f 304/304/304 333/333/333 332/332/332
f 332/332/332 334/334/334 324/324/324
f 332/332/332 333/333/333 335/335/335
f 336/336/336 326/326/326 330/330/330
f 336/336/336 331/331/331 326/326/326
f 336/336/336 330/330/330 337/337/337
f 338/338/338 331/331/331 336/336/336
f 332/332/332 339/339/339 334/334/334
f 335/335/335 339/339/339 332/332/332
f 339/339/339 340/340/340 334/334/334
f 341/341/341 336/336/336 337/337/337
f 341/341/341 338/338/338 336/336/336
f 341/341/341 337/337/337 342/342/342
f 338/338/338 341/341/341 343/343/343
f 339/339/339 344/344/344 340/340/340
f 335/335/335 344/344/344 339/339/339
f 344/344/344 345/345/345 340/340/340
f 346/346/346 341/341/341 342/342/342
f 341/341/341 346/346/346 343/343/343
f 343/343/343 346/346/346 347/347/347
f 346/346/346 342/342/342 348/348/348
f 346/346/346 349/349/349 347/347/347
f 350/350/350 344/344/344 335/335/335
f 344/344/344 350/350/350 345/345/345
f 350/350/350 351/351/351 345/345/345
f 335/335/335 352/352/352 350/350/350
f 353/353/353 346/346/346 348/348/348
f 346/346/346 353/353/353 349/349/349
f 353/353/353 348/348/348 354/354/354
f 353/353/353 355/355/355 349/349/349
f 350/350/350 356/356/356 351/351/351
f 352/352/352 356/356/356 350/350/350
f 356/356/356 357/357/357 351/351/351
f 358/358/358 353/353/353 354/354/354
f 353/353/353 358/358/358 355/355/355
f 358/358/358 354/354/354 359/359/359
f 358/358/358 360/360/360 355/355/355
f 356/356/356 352/352/352 361/361/361
f 356/356/356 361/361/361 357/357/357
f 361/361/361 359/359/359 357/357/357
f 361/361/361 358/358/358 359/359/359
f 358/358/358 361/361/361 360/360/360
f 352/352/352 362/362/362 361/361/361
f 361/361/361 362/362/362 360/360/360
f 365/365/365 364/364/364 363/363/363
f 365/365/365 363/363/363 366/366/366
f 366/366/366 367/367/367 365/365/365
f 366/366/366 363/363/363 368/368/368
f 367/367/367 366/366/366 369/369/369
f 370/370/370 366/366/366 368/368/368
f 370/370/370 368/368/368 371/371/371
f 366/366/366 372/372/372 369/369/369
f 366/366/366 370/370/370 372/372/372
f 369/369/369 372/372/372 373/373/373
f 370/370/370 374/374/374 372/372/372
f 370/370/370 371/371/371 374/374/374
f 372/372/372 375/375/375 373/373/373
f 372/372/372 374/374/374 375/375/375
f 374/374/374 371/371/371 376/376/376
f 374/374/374 376/376/376 375/375/375
f 373/373/373 375/375/375 377/377/377
f 378/378/378 373/373/373 377/377/377
f 377/377/377 379/379/379 378/378/378
f 376/376/376 380/380/380 375/375/375
f 371/371/371 380/380/380 376/376/376
f 380/380/380 377/377/377 375/375/375
f 371/371/371 381/381/381 380/380/380
f 380/380/380 381/381/381 377/377/377
f 371/371/371 382/382/382 381/381/381
f 379/379/379 377/377/377 383/383/383
f 381/381/381 383/383/383 377/377/377
f 381/381/381 382/382/382 383/383/383
f 384/384/384 379/379/379 383/383/383
f 382/382/382 385/385/385 383/383/383
f 383/383/383 386/386/386 384/384/384
f 383/383/383 385/385/385 386/386/386
f 384/384/384 386/386/386 387/387/387
f 385/385/385 388/388/388 386/386/386
f 386/386/386 389/389/389 387/387/387
f 387/387/387 389/389/389 390/390/390
f 389/389/389 391/391/391 390/390/390
f 390/390/390 391/391/391 392/392/392
f 391/391/391 393/393/393 392/392/392
f 385/385/385 394/394/394 388/388/388
f 394/394/394 395/395/395 388/388/388
f 396/396/396 395/395/395 394/394/394
f 397/397/397 396/396/396 394/394/394
f 392/392/392 393/393/393 398/398/398
f 399/399/399 396/396/396 397/397/397
f 393/393/393 399/399/399 398/398/398
f 400/400/400 399/399/399 397/397/397
f 398/398/398 399/399/399 400/400/400
f 401/401/401 398/398/398 400/400/400
f 404/404/404 403/403/403 402/402/402
f 403/403/403 405/405/405 402/402/402
f 402/402/402 405/405/405 406/406/406
f 403/403/403 407/407/407 405/405/405
f 405/405/405 408/408/408 406/406/406
f 407/407/407 409/409/409 405/405/405
f 405/405/405 409/409/409 408/408/408
f 407/407/407 410/410/410 409/409/409
f 409/409/409 411/411/411 408/408/408
f 410/410/410 412/412/412 409/409/409
f 409/409/409 412/412/412 411/411/411
f 412/412/412 413/413/413 411/411/411
f 416/416/416 415/415/415 414/414/414
f 417/417/417 416/416/416 414/414/414
f 417/417/417 414/414/414 418/418/418
f 419/419/419 416/416/416 417/417/417
f 420/420/420 417/417/417 418/418/418
f 420/420/420 418/418/418 421/421/421
f 422/422/422 419/419/419 417/417/417
f 422/422/422 417/417/417 420/420/420
f 422/422/422 423/423/423 419/419/419
f 423/423/423 422/422/422 420/420/420
f 423/423/423 424/424/424 419/419/419
f 425/425/425 420/420/420 421/421/421
f 423/423/423 420/420/420 425/425/425
f 425/425/425 421/421/421 426/426/426
f 423/423/423 427/427/427 424/424/424
f 427/427/427 423/423/423 425/425/425
f 427/427/427 428/428/428 424/424/424
f 429/429/429 425/425/425 426/426/426
f 427/427/427 425/425/425 429/429/429
f 429/429/429 426/426/426 430/430/430
f 431/431/431 429/429/429 430/430/430
f 427/427/427 432/432/432 428/428/428
f 432/432/432 427/427/427 429/429/429
f 432/432/432 429/429/429 431/431/431
f 432/432/432 433/433/433 428/428/428
f 433/433/433 432/432/432 431/431/431
f 436/436/436 435/435/435 434/434/434
f 435/435/435 437/437/437 434/434/434
f 434/434/434 437/437/437 438/438/438
f 435/435/435 439/439/439 437/437/437
f 437/437/437 440/440/440 438/438/438
f 438/438/438 440/440/440 441/441/441
f 440/440/440 442/442/442 441/441/441
f 439/439/439 443/443/443 437/437/437
f 437/437/437 443/443/443 440/440/440
f 439/439/439 444/444/444 443/443/443
f 444/444/444 445/445/445 443/443/443
f 440/440/440 446/446/446 442/442/442
f 443/443/443 446/446/446 440/440/440
f 443/443/443 445/445/445 446/446/446
f 446/446/446 447/447/447 442/442/442
f 445/445/445 448/448/448 446/446/446
f 446/446/446 448/448/448 447/447/447
f 448/448/448 449/449/449 447/447/447
f 452/452/452 451/451/451 450/450/450
f 453/453/453 452/452/452 450/450/450
f 453/453/453 450/450/450 454/454/454
f 455/455/455 452/452/452 453/453/453
f 456/456/456 453/453/453 454/454/454
f 456/456/456 454/454/454 457/457/457
f 458/458/458 455/455/455 453/453/453
f 458/458/458 453/453/453 456/456/456
f 459/459/459 455/455/455 458/458/458
f 460/460/460 456/456/456 457/457/457
f 460/460/460 457/457/457 461/461/461
f 462/462/462 460/460/460 461/461/461
f 463/463/463 458/458/458 456/456/456
f 463/463/463 456/456/456 460/460/460
f 464/464/464 460/460/460 462/462/462
f 464/464/464 463/463/463 460/460/460
f 465/465/465 464/464/464 462/462/462
f 466/466/466 459/459/459 458/458/458
f 466/466/466 458/458/458 463/463/463
f 466/466/466 467/467/467 459/459/459
f 467/467/467 466/466/466 463/463/463
f 467/467/467 463/463/463 464/464/464
f 467/467/467 468/468/468 459/459/459
f 469/469/469 464/464/464 465/465/465
f 469/469/469 467/467/467 464/464/464
f 467/467/467 469/469/469 468/468/468
f 470/470/470 469/469/469 465/465/465
f 469/469/469 471/471/471 468/468/468
f 469/469/469 470/470/470 471/471/471
f 470/470/470 472/472/472 471/471/471
